<svg width="122" height="36" viewBox="0 0 122 36" fill="none" xmlns="http://www.w3.org/2000/svg">
<path d="M122 18.0063L121.514 17.5683C121.433 17.4995 121.265 17.2617 121.08 17.049C120.327 16.0918 118.978 14.3587 117.294 13.8707C117.307 13.7195 117.296 13.5669 117.259 13.4202C117.137 13.098 116.955 12.8059 116.725 12.5617C116.495 12.3176 116.222 12.1265 115.922 12L115.175 10.9677C113.786 9.0219 112.367 7.03859 110.498 6.06257L109.884 5.39312C108.759 4.06681 107.346 3.06289 105.774 2.47132L106.11 2.3462L104.877 1.66424C102.59 0.381652 100.871 0.0750655 99.5856 0.200196L99.7998 1.71059e-06L98.4683 0.0375392L23.5143 0.0375326L22.1829 -5.07489e-06L22.3971 0.200189C21.1293 0.0750585 19.3926 0.381645 17.106 1.66423L15.873 2.34619L16.2088 2.47131C14.6363 3.06289 13.2241 4.0668 12.0987 5.39311L11.4851 6.06256C9.61527 7.03858 8.19701 9.02189 6.80769 10.9677L6.06092 12C5.76065 12.1265 5.48728 12.3176 5.25741 12.5617C5.02755 12.8059 4.84597 13.0979 4.7237 13.4202C4.69769 13.5691 4.69769 13.7218 4.7237 13.8707C3.02178 14.3587 1.67297 16.0918 0.920421 17.049C0.735178 17.2617 0.567302 17.4995 0.486258 17.5683L-3.58274e-06 18.0063L0.468892 18.4505C0.622652 18.6145 0.76761 18.7878 0.903055 18.9697C1.65561 19.927 3.00441 21.6413 4.70633 22.1481C4.68112 22.297 4.68112 22.4496 4.70633 22.5985C4.82861 22.9208 5.01018 23.2129 5.24005 23.457C5.46991 23.7011 5.74328 23.8923 6.04356 24.0188L6.79032 25.0511C8.17965 26.9969 9.59791 28.9614 11.4677 29.9562L12.0813 30.6256C13.2067 31.952 14.6189 32.9559 16.1914 33.5474L15.8556 33.6538L17.0887 34.3545C19.3753 35.6371 21.1119 35.9437 22.3797 35.8186L22.1655 36L23.4969 36L98.4683 36L99.7998 36L99.5856 35.8186C100.871 35.9437 102.59 35.6371 104.877 34.3546L106.11 33.6538L105.774 33.5475C107.346 32.9559 108.759 31.952 109.884 30.6257L110.498 29.9562C112.367 28.9614 113.786 26.9969 115.175 25.0511L115.922 24.0188C116.222 23.8923 116.495 23.7012 116.725 23.457C116.955 23.2129 117.137 22.9208 117.259 22.5985C117.296 22.4519 117.307 22.2993 117.294 22.1481C118.978 21.6413 120.327 19.927 121.08 18.9698C121.215 18.7879 121.36 18.6145 121.514 18.4505L122 18.0063Z" fill="#4DA358"/>
<path d="M40.6875 23H37.321V12.0909H40.8366C41.8949 12.0909 42.8004 12.3093 43.5533 12.7461C44.3061 13.1793 44.8832 13.8026 45.2844 14.6158C45.6857 15.4254 45.8864 16.3949 45.8864 17.5241C45.8864 18.6605 45.6839 19.6388 45.2791 20.4592C44.8743 21.2759 44.2848 21.9045 43.5107 22.3448C42.7365 22.7816 41.7955 23 40.6875 23ZM38.642 21.8281H40.6023C41.5043 21.8281 42.2518 21.6541 42.8448 21.3061C43.4379 20.9581 43.88 20.4627 44.1712 19.82C44.4624 19.1772 44.608 18.4119 44.608 17.5241C44.608 16.6435 44.4641 15.8853 44.1765 15.2496C43.8888 14.6104 43.4592 14.1204 42.8874 13.7795C42.3157 13.435 41.6037 13.2628 40.7514 13.2628H38.642V21.8281ZM51.3622 23.1705C50.5739 23.1705 49.8938 22.9964 49.3221 22.6484C48.7539 22.2969 48.3153 21.8068 48.0064 21.1783C47.701 20.5462 47.5483 19.8111 47.5483 18.973C47.5483 18.1349 47.701 17.3963 48.0064 16.7571C48.3153 16.1143 48.745 15.6136 49.2955 15.255C49.8494 14.8928 50.4957 14.7116 51.2344 14.7116C51.6605 14.7116 52.0813 14.7827 52.4968 14.9247C52.9123 15.0668 53.2905 15.2976 53.6314 15.6172C53.9723 15.9332 54.244 16.3523 54.4464 16.8743C54.6488 17.3963 54.75 18.0391 54.75 18.8026V19.3352H48.4432V18.2486H53.4716C53.4716 17.7869 53.3793 17.375 53.1946 17.0128C53.0135 16.6506 52.7543 16.3647 52.4169 16.1552C52.0831 15.9457 51.6889 15.8409 51.2344 15.8409C50.7337 15.8409 50.3004 15.9652 49.9347 16.2138C49.5724 16.4588 49.2937 16.7784 49.0984 17.1726C48.9031 17.5668 48.8054 17.9893 48.8054 18.4403V19.1648C48.8054 19.7827 48.9119 20.3065 49.125 20.7362C49.3416 21.1623 49.6417 21.4872 50.0252 21.7109C50.4087 21.9311 50.8544 22.0412 51.3622 22.0412C51.6925 22.0412 51.9908 21.995 52.2571 21.9027C52.527 21.8068 52.7596 21.6648 52.9549 21.4766C53.1502 21.2848 53.3011 21.0469 53.4077 20.7628L54.6222 21.1037C54.4943 21.5156 54.2795 21.8778 53.9776 22.1903C53.6758 22.4993 53.3029 22.7408 52.859 22.9148C52.4151 23.0852 51.9162 23.1705 51.3622 23.1705ZM60.2205 14.8182V15.8835H55.9805V14.8182H60.2205ZM57.2163 12.858H58.4734V20.6562C58.4734 21.0114 58.5249 21.2777 58.6278 21.4553C58.7344 21.6293 58.8693 21.7464 59.0327 21.8068C59.1996 21.8636 59.3754 21.892 59.56 21.892C59.6985 21.892 59.8121 21.8849 59.9009 21.8707C59.9897 21.853 60.0607 21.8388 60.114 21.8281L60.3697 22.9574C60.2844 22.9893 60.1655 23.0213 60.0128 23.0533C59.8601 23.0888 59.6665 23.1065 59.4322 23.1065C59.0771 23.1065 58.729 23.0302 58.3881 22.8775C58.0508 22.7248 57.7702 22.4922 57.5465 22.1797C57.3263 21.8672 57.2163 21.473 57.2163 20.9972V12.858ZM64.5192 23.1918C64.0007 23.1918 63.5302 23.0941 63.1076 22.8988C62.685 22.6999 62.3494 22.4141 62.1009 22.0412C61.8523 21.6648 61.728 21.2102 61.728 20.6776C61.728 20.2088 61.8203 19.8288 62.005 19.5376C62.1896 19.2429 62.4364 19.0121 62.7454 18.8452C63.0543 18.6783 63.3952 18.554 63.7681 18.4723C64.1445 18.3871 64.5227 18.3196 64.9027 18.2699C65.3999 18.206 65.8029 18.158 66.1119 18.1261C66.4244 18.0906 66.6516 18.032 66.7937 17.9503C66.9393 17.8686 67.0121 17.7266 67.0121 17.5241V17.4815C67.0121 16.956 66.8683 16.5476 66.5806 16.2564C66.2965 15.9652 65.8651 15.8196 65.2862 15.8196C64.6861 15.8196 64.2156 15.951 63.8746 16.2138C63.5337 16.4766 63.294 16.7571 63.1555 17.0554L61.9624 16.6293C62.1754 16.1321 62.4595 15.745 62.8146 15.468C63.1733 15.1875 63.5639 14.9922 63.9865 14.8821C64.4126 14.7685 64.8317 14.7116 65.2436 14.7116C65.5064 14.7116 65.8082 14.7436 66.1491 14.8075C66.4936 14.8679 66.8256 14.994 67.1452 15.1857C67.4684 15.3775 67.7365 15.6669 67.9496 16.054C68.1626 16.4411 68.2692 16.9595 68.2692 17.6094V23H67.0121V21.892H66.9482C66.8629 22.0696 66.7209 22.2596 66.522 22.462C66.3232 22.6644 66.0586 22.8366 65.7283 22.9787C65.3981 23.1207 64.995 23.1918 64.5192 23.1918ZM64.7109 22.0625C65.2081 22.0625 65.6271 21.9648 65.968 21.7695C66.3125 21.5742 66.5717 21.3221 66.7457 21.0131C66.9233 20.7042 67.0121 20.3793 67.0121 20.0384V18.8878C66.9588 18.9517 66.8416 19.0103 66.6605 19.0636C66.483 19.1133 66.277 19.1577 66.0426 19.1967C65.8118 19.2322 65.5863 19.2642 65.3661 19.2926C65.1495 19.3175 64.9737 19.3388 64.8388 19.3565C64.5121 19.3991 64.2067 19.4684 63.9226 19.5643C63.642 19.6566 63.4148 19.7969 63.2408 19.9851C63.0703 20.1697 62.9851 20.4219 62.9851 20.7415C62.9851 21.1783 63.1467 21.5085 63.4698 21.7322C63.7965 21.9524 64.2102 22.0625 64.7109 22.0625ZM70.5637 23V14.8182H71.8208V23H70.5637ZM71.2029 13.4545C70.9578 13.4545 70.7465 13.3711 70.569 13.2042C70.395 13.0373 70.308 12.8366 70.308 12.6023C70.308 12.3679 70.395 12.1673 70.569 12.0004C70.7465 11.8335 70.9578 11.75 71.2029 11.75C71.4479 11.75 71.6574 11.8335 71.8314 12.0004C72.009 12.1673 72.0977 12.3679 72.0977 12.6023C72.0977 12.8366 72.009 13.0373 71.8314 13.2042C71.6574 13.3711 71.4479 13.4545 71.2029 13.4545ZM75.3803 12.0909V23H74.1232V12.0909H75.3803ZM83.4782 16.6506L82.349 16.9702C82.278 16.782 82.1732 16.5991 82.0347 16.4215C81.8998 16.2404 81.7151 16.0913 81.4807 15.9741C81.2464 15.8569 80.9463 15.7983 80.5805 15.7983C80.0798 15.7983 79.6626 15.9137 79.3287 16.1445C78.9985 16.3718 78.8334 16.6612 78.8334 17.0128C78.8334 17.3253 78.947 17.5721 79.1743 17.7532C79.4015 17.9343 79.7567 18.0852 80.2396 18.206L81.4541 18.5043C82.1856 18.6818 82.7307 18.9535 83.0894 19.3192C83.4481 19.6815 83.6274 20.1484 83.6274 20.7202C83.6274 21.1889 83.4925 21.608 83.2226 21.9773C82.9562 22.3466 82.5834 22.6378 82.104 22.8509C81.6246 23.0639 81.067 23.1705 80.4314 23.1705C79.5969 23.1705 78.9062 22.9893 78.3593 22.6271C77.8124 22.2649 77.4662 21.7358 77.3206 21.0398L78.5138 20.7415C78.6274 21.1818 78.8422 21.5121 79.1583 21.7322C79.4779 21.9524 79.8952 22.0625 80.4101 22.0625C80.996 22.0625 81.4612 21.9382 81.8057 21.6896C82.1537 21.4375 82.3277 21.1357 82.3277 20.7841C82.3277 20.5 82.2282 20.2621 82.0294 20.0703C81.8305 19.875 81.5251 19.7294 81.1132 19.6335L79.7496 19.3139C79.0003 19.1364 78.4498 18.8612 78.0983 18.4883C77.7503 18.1119 77.5763 17.6413 77.5763 17.0767C77.5763 16.6151 77.7059 16.2067 77.9651 15.8516C78.2279 15.4964 78.5848 15.2177 79.0358 15.0153C79.4903 14.8129 80.0052 14.7116 80.5805 14.7116C81.3902 14.7116 82.0258 14.8892 82.4875 15.2443C82.9527 15.5994 83.2829 16.0682 83.4782 16.6506Z" fill="white"/>
</svg>
