<svg width="386" height="88" viewBox="0 0 386 88" fill="none" xmlns="http://www.w3.org/2000/svg">
<path d="M386 43.7131L384.461 42.6499C384.205 42.4828 383.674 41.9056 383.088 41.3892C380.707 39.0653 376.439 34.858 371.109 33.6733C371.153 33.3063 371.116 32.9357 371 32.5797C370.613 31.7973 370.038 31.0883 369.311 30.4956C368.584 29.9029 367.719 29.439 366.769 29.1319L364.406 26.6257C360.01 21.902 355.523 17.0872 349.607 14.7177L347.666 13.0925C344.105 9.87268 339.637 7.4355 334.662 5.99934L335.724 5.69559L331.823 4.04002C324.588 0.926318 319.148 0.182032 315.082 0.485803L315.76 -0.000204505L311.547 0.0909282L74.3977 0.0909075L70.1852 -0.000225974L70.8628 0.485782C66.8518 0.182009 61.3571 0.926295 54.1224 4.03999L50.2212 5.69557L51.2835 5.99931C46.3082 7.43547 41.8401 9.87265 38.2795 13.0925L36.338 14.7177C30.4221 17.0872 25.9349 21.902 21.5391 26.6257L19.1764 29.1318C18.2264 29.4389 17.3614 29.9029 16.6341 30.4956C15.9068 31.0883 15.3324 31.7973 14.9455 32.5797C14.8632 32.941 14.8632 33.3119 14.9455 33.6733C9.56073 34.858 5.29319 39.0653 2.91217 41.3892C2.32608 41.9056 1.79493 42.4828 1.53852 42.6498L3.81888e-06 43.7131L1.48355 44.7915C1.97007 45.1896 2.42868 45.6105 2.85724 46.0521C5.23825 48.376 9.50577 52.5377 14.8906 53.768C14.8108 54.1296 14.8108 54.5001 14.8906 54.8616C15.2774 55.644 15.8519 56.353 16.5792 56.9457C17.3065 57.5384 18.1714 58.0024 19.1214 58.3095L21.4842 60.8156C25.8799 65.5393 30.3672 70.3086 36.2831 72.7236L38.2245 74.3488C41.7851 77.5687 46.2532 80.0058 51.2286 81.442L50.1662 81.7002L54.0675 83.4014C61.3021 86.5151 66.7968 87.2593 70.8079 86.9555L70.1302 87.396L74.3428 87.396L311.547 87.396L315.76 87.396L315.082 86.9555C319.148 87.2593 324.588 86.5151 331.823 83.4014L335.724 81.7002L334.662 81.442C339.637 80.0059 344.105 77.5687 347.666 74.3488L349.607 72.7237C355.523 70.3087 360.01 65.5393 364.406 60.8156L366.769 58.3095C367.719 58.0024 368.584 57.5384 369.311 56.9458C370.038 56.3531 370.613 55.644 371 54.8617C371.116 54.5057 371.153 54.1351 371.109 53.7681C376.439 52.5378 380.707 48.376 383.088 46.0521C383.516 45.6105 383.975 45.1897 384.461 44.7915L386 43.7131Z" fill="#324A0A"/>
<path d="M160.582 41.5291C160.582 39.4491 159.622 38.4091 157.702 38.4091H151.222V34.9291H158.582C162.742 34.9291 164.822 37.0225 164.822 41.2091V58.8491H160.582V41.5291ZM134.742 58.8491V43.7291H139.022V54.4891L143.382 50.1291L147.742 54.4891V43.7291H152.022V58.8491H147.942L143.382 54.2891L138.822 58.8491H134.742ZM142.422 42.1291C139.782 42.1291 137.795 41.7825 136.462 41.0891C135.128 40.3958 134.462 39.3558 134.462 37.9691C134.462 36.8758 134.835 36.0625 135.582 35.5291C136.328 34.9691 137.288 34.6891 138.462 34.6891C138.942 34.6891 139.422 34.7425 139.902 34.8491C140.408 34.9291 140.808 35.0358 141.102 35.1691V37.5291C140.835 37.4225 140.542 37.3425 140.222 37.2891C139.928 37.2091 139.702 37.1691 139.542 37.1691C139.328 37.1691 139.155 37.2491 139.022 37.4091C138.888 37.5425 138.822 37.7158 138.822 37.9291C138.822 38.3291 139.142 38.6358 139.782 38.8491C140.422 39.0358 141.315 39.1291 142.462 39.1291C144.408 39.1291 145.822 38.8758 146.702 38.3691C147.582 37.8625 148.022 37.1025 148.022 36.0891V33.4891H152.262V36.0891C152.262 38.0625 151.435 39.5691 149.782 40.6091C148.128 41.6225 145.675 42.1291 142.422 42.1291ZM172.593 48.6891C172.593 46.2091 173.367 44.2891 174.913 42.9291C176.487 41.5425 178.66 40.8491 181.433 40.8491C184.233 40.8491 186.407 41.5425 187.953 42.9291C189.5 44.2891 190.273 46.2091 190.273 48.6891V58.8491H185.993V48.6891C185.993 47.2491 185.593 46.1291 184.793 45.3291C183.993 44.5291 182.873 44.1291 181.433 44.1291C180.02 44.1291 178.9 44.5291 178.073 45.3291C177.273 46.1291 176.873 47.2491 176.873 48.6891V58.8491H172.593V48.6891ZM172.433 38.4091V34.9291H190.433V38.4091H172.433ZM179.672 32.0491V24.3691H183.192V32.0491H179.672ZM201.347 59.0891C200.2 59.0891 199.347 58.9025 198.787 58.5291C198.253 58.1558 197.987 57.5825 197.987 56.8091V42.6091C197.987 41.9958 197.853 41.5291 197.587 41.2091C197.347 40.8891 197.013 40.6091 196.587 40.3691V38.3691C196.587 37.2225 196.867 36.3691 197.427 35.8091C197.987 35.2225 198.827 34.9291 199.947 34.9291H203.387V38.4091H200.987C200.453 38.4091 200.187 38.6891 200.187 39.2491V39.6091C200.853 39.9025 201.36 40.2758 201.707 40.7291C202.053 41.1825 202.227 41.8358 202.227 42.6891V53.0891L201.067 51.8091H201.627C202.747 51.8091 203.627 52.1025 204.267 52.6891C204.907 53.2491 205.227 54.1558 205.227 55.4091C205.227 57.8625 203.933 59.0891 201.347 59.0891ZM201.707 57.0891C202.613 57.0891 203.067 56.5425 203.067 55.4491C203.067 54.3558 202.613 53.8091 201.707 53.8091V57.0891ZM231.961 59.2491C229.268 59.2491 227.174 58.5691 225.681 57.2091C224.214 55.8491 223.481 53.9425 223.481 51.4891V48.1691C223.481 46.8358 223.094 45.7958 222.321 45.0491C221.574 44.3025 220.521 43.9291 219.161 43.9291C217.801 43.9291 216.748 44.3025 216.001 45.0491C215.254 45.7958 214.881 46.8358 214.881 48.1691V53.3291L213.801 52.1291H214.401C215.521 52.1291 216.401 52.3958 217.041 52.9291C217.681 53.4625 218.001 54.3291 218.001 55.5291C218.001 56.7291 217.681 57.6225 217.041 58.2091C216.401 58.7958 215.401 59.0891 214.041 59.0891C212.894 59.0891 212.028 58.9025 211.441 58.5291C210.881 58.1558 210.601 57.5825 210.601 56.8091V48.1691C210.601 45.7958 211.348 43.9558 212.841 42.6491C214.361 41.3425 216.468 40.6891 219.161 40.6891C221.908 40.6891 224.028 41.3425 225.521 42.6491C227.014 43.9558 227.761 45.7958 227.761 48.1691V51.4891C227.761 52.9025 228.121 54.0091 228.841 54.8091C229.588 55.5825 230.628 55.9691 231.961 55.9691C233.294 55.9691 234.334 55.5825 235.081 54.8091C235.828 54.0091 236.201 52.9025 236.201 51.4891V42.6091C236.201 41.9958 236.054 41.5425 235.761 41.2491C235.494 40.9291 235.108 40.6625 234.601 40.4491V38.3691C234.601 37.2225 234.881 36.3691 235.441 35.8091C236.001 35.2225 236.841 34.9291 237.961 34.9291H241.041V38.4091H239.001C238.468 38.4091 238.201 38.6891 238.201 39.2491V39.6091C238.948 39.9025 239.508 40.2758 239.881 40.7291C240.254 41.1825 240.441 41.8358 240.441 42.6891V51.4891C240.441 53.9425 239.694 55.8491 238.201 57.2091C236.734 58.5691 234.654 59.2491 231.961 59.2491ZM214.441 57.0891C215.374 57.0891 215.841 56.5825 215.841 55.5691C215.841 54.5558 215.374 54.0491 214.441 54.0491V57.0891ZM214.961 43.1691L211.921 40.0491V38.3691C211.921 37.2225 212.201 36.3691 212.761 35.8091C213.348 35.2225 214.201 34.9291 215.321 34.9291H225.521V38.4091H216.281C216.041 38.4091 215.854 38.4758 215.721 38.6091C215.588 38.7158 215.521 38.9158 215.521 39.2091V39.5691L217.881 41.9691L214.961 43.1691ZM227.944 69.3691C226.557 69.3691 225.464 68.9958 224.664 68.2491C223.837 67.5291 223.424 66.5425 223.424 65.2891C223.424 63.9025 223.877 62.8491 224.784 62.1291C225.69 61.4358 226.944 61.0891 228.544 61.0891H240.144V63.2891H229.344C228.704 63.2891 228.197 63.4491 227.824 63.7691C227.45 64.0891 227.264 64.5425 227.264 65.1291C227.264 65.6625 227.437 66.0758 227.784 66.3691C228.104 66.6891 228.517 66.8491 229.024 66.8491C229.45 66.8491 229.877 66.7691 230.304 66.6091C230.73 66.4491 231.184 66.2491 231.664 66.0091C232.117 65.7958 232.584 65.6091 233.064 65.4491C233.544 65.2891 234.064 65.2091 234.624 65.2091H234.984V67.4091H234.624C234.117 67.4091 233.65 67.5025 233.224 67.6891C232.77 67.9025 232.304 68.1291 231.824 68.3691C231.317 68.6358 230.757 68.8625 230.144 69.0491C229.504 69.2625 228.77 69.3691 227.944 69.3691ZM237.504 68.0491C237.824 68.0491 238.064 67.9691 238.224 67.8091C238.357 67.6758 238.424 67.4758 238.424 67.2091C238.424 66.9158 238.357 66.7025 238.224 66.5691C238.064 66.4358 237.824 66.3691 237.504 66.3691V68.0491ZM237.104 69.3691C236.25 69.3691 235.61 69.2358 235.184 68.9691C234.757 68.7025 234.544 68.3025 234.544 67.7691V61.7291H238.224V65.6491L237.184 65.0891H237.704C238.37 65.0891 238.904 65.2491 239.304 65.5691C239.704 65.9158 239.904 66.4491 239.904 67.1691C239.904 67.9158 239.677 68.4625 239.224 68.8091C238.77 69.1825 238.064 69.3691 237.104 69.3691ZM228.937 32.0491C227.391 32.0491 226.217 31.7291 225.417 31.0891C224.591 30.4491 224.177 29.5425 224.177 28.3691C224.177 27.0358 224.671 25.9691 225.657 25.1691C226.644 24.3425 228.071 23.9291 229.937 23.9291C231.164 23.9291 232.244 24.1025 233.177 24.4491C234.084 24.7691 234.857 25.1958 235.497 25.7291C236.137 26.2358 236.644 26.7558 237.017 27.2891H237.177V23.4091H240.457V32.0491H228.937ZM229.617 29.8091H236.577C236.204 29.1958 235.684 28.6758 235.017 28.2491C234.351 27.7958 233.617 27.4491 232.817 27.2091C231.991 26.9425 231.204 26.8091 230.457 26.8091C229.604 26.8091 228.977 26.9558 228.577 27.2491C228.151 27.5425 227.937 27.9425 227.937 28.4491C227.937 28.8491 228.084 29.1825 228.377 29.4491C228.644 29.6891 229.057 29.8091 229.617 29.8091Z" fill="#F4ECC8"/>
</svg>
