<svg width="122" height="36" viewBox="0 0 122 36" fill="none" xmlns="http://www.w3.org/2000/svg">
<path d="M122 18.0063L121.514 17.5683C121.433 17.4995 121.265 17.2617 121.08 17.049C120.327 16.0918 118.978 14.3587 117.294 13.8707C117.307 13.7195 117.296 13.5669 117.259 13.4202C117.137 13.098 116.955 12.8059 116.725 12.5617C116.495 12.3176 116.222 12.1265 115.922 12L115.175 10.9677C113.786 9.0219 112.367 7.03859 110.498 6.06257L109.884 5.39312C108.759 4.06681 107.346 3.0629 105.774 2.47132L106.11 2.3462L104.877 1.66424C102.59 0.381651 100.871 0.0750638 99.5856 0.200197L99.7998 1.87389e-06L98.4683 0.0375384L23.5143 0.0375318L22.1829 -4.91159e-06L22.3971 0.20019C21.1293 0.0750568 19.3926 0.381644 17.106 1.66423L15.873 2.34619L16.2088 2.47131C14.6363 3.06289 13.2241 4.0668 12.0987 5.39311L11.4851 6.06256C9.61528 7.03858 8.19702 9.02189 6.80769 10.9677L6.06092 12C5.76065 12.1265 5.48728 12.3176 5.25741 12.5617C5.02754 12.8059 4.84597 13.0979 4.7237 13.4202C4.69769 13.5691 4.69769 13.7218 4.7237 13.8707C3.02178 14.3587 1.67298 16.0918 0.920419 17.049C0.735178 17.2617 0.567301 17.4995 0.486261 17.5683L-6.05633e-06 18.0063L0.468889 18.4505C0.622652 18.6145 0.76761 18.7878 0.903055 18.9697C1.6556 19.927 3.00441 21.6413 4.70633 22.1481C4.68112 22.297 4.68112 22.4496 4.70633 22.5985C4.82861 22.9208 5.01018 23.2129 5.24004 23.457C5.46991 23.7011 5.74329 23.8923 6.04356 24.0188L6.79032 25.0511C8.17965 26.9969 9.59791 28.9614 11.4677 29.9562L12.0813 30.6256C13.2067 31.952 14.6189 32.9559 16.1914 33.5474L15.8556 33.6538L17.0887 34.3545C19.3753 35.6371 21.1119 35.9437 22.3797 35.8186L22.1655 36L23.4969 36L98.4683 36L99.7998 36L99.5856 35.8186C100.871 35.9437 102.59 35.6371 104.877 34.3546L106.11 33.6538L105.774 33.5475C107.346 32.9559 108.759 31.952 109.884 30.6257L110.498 29.9562C112.367 28.9614 113.786 26.9969 115.175 25.0511L115.922 24.0188C116.222 23.8923 116.495 23.7012 116.725 23.457C116.955 23.2129 117.137 22.9208 117.259 22.5985C117.296 22.4519 117.307 22.2993 117.294 22.1481C118.978 21.6413 120.327 19.927 121.08 18.9698C121.215 18.7879 121.36 18.6145 121.514 18.4505L122 18.0063Z" fill="#4DA358"/>
<path d="M29.72 22V14.935L28.97 14.17L27.725 15.265H27.635L26.39 14.17L25.64 14.935V19.93L25.355 19.54H25.61C25.98 19.54 26.285 19.64 26.525 19.84C26.765 20.03 26.885 20.35 26.885 20.8C26.885 21.23 26.775 21.555 26.555 21.775C26.345 21.985 26.02 22.09 25.58 22.09C25.25 22.09 25 22.03 24.83 21.91C24.67 21.78 24.59 21.59 24.59 21.34V14.695L26.285 12.94H26.345L27.68 14.17L29.015 12.94H29.075L30.77 14.695V22H29.72ZM25.595 21.4C25.955 21.4 26.135 21.2 26.135 20.8C26.135 20.4 25.955 20.2 25.595 20.2V21.4ZM28.5767 12.04C27.9367 12.04 27.4467 11.91 27.1067 11.65C26.7667 11.39 26.5967 11.03 26.5967 10.57C26.5967 10.12 26.7417 9.775 27.0317 9.535C27.3217 9.285 27.6867 9.16 28.1267 9.16C28.2967 9.16 28.4467 9.175 28.5767 9.205C28.6967 9.235 28.7867 9.26 28.8467 9.28V10.015C28.7767 9.985 28.6917 9.955 28.5917 9.925C28.4817 9.895 28.3717 9.88 28.2617 9.88C28.0517 9.88 27.8867 9.94 27.7667 10.06C27.6467 10.17 27.5867 10.32 27.5867 10.51C27.5867 10.75 27.6767 10.935 27.8567 11.065C28.0367 11.195 28.2967 11.26 28.6367 11.26C29.2067 11.26 29.6517 11.065 29.9717 10.675C30.2917 10.275 30.5067 9.71 30.6167 8.98H31.6367C31.4667 9.99 31.1417 10.755 30.6617 11.275C30.1717 11.785 29.4767 12.04 28.5767 12.04ZM39.0804 18.04C39.0804 17.38 38.9004 16.865 38.5404 16.495C38.1904 16.125 37.6904 15.94 37.0404 15.94C36.4004 15.94 35.9004 16.125 35.5404 16.495C35.1804 16.865 35.0004 17.38 35.0004 18.04V19.93L34.7154 19.54H34.9704C35.3404 19.54 35.6454 19.64 35.8854 19.84C36.1254 20.03 36.2454 20.35 36.2454 20.8C36.2454 21.23 36.1354 21.555 35.9154 21.775C35.7054 21.985 35.3804 22.09 34.9404 22.09C34.6104 22.09 34.3604 22.03 34.1904 21.91C34.0304 21.78 33.9504 21.59 33.9504 21.34V18.04C33.9504 17.09 34.2204 16.355 34.7604 15.835C35.3004 15.305 36.0604 15.04 37.0404 15.04C38.0204 15.04 38.7804 15.305 39.3204 15.835C39.8604 16.355 40.1304 17.09 40.1304 18.04V22H39.0804V18.04ZM34.9554 21.4C35.3154 21.4 35.4954 21.2 35.4954 20.8C35.4954 20.4 35.3154 20.2 34.9554 20.2V21.4ZM33.8904 14.05V13.09H40.1904V14.05H33.8904ZM36.1954 12.055H35.4754C35.3754 11.855 35.3054 11.655 35.2654 11.455C35.2254 11.255 35.2054 11.07 35.2054 10.9C35.2054 10.34 35.3954 9.895 35.7754 9.565C36.1454 9.235 36.6304 9.07 37.2304 9.07H37.4254L38.8204 9.445H38.9254C39.1054 9.445 39.2304 9.405 39.3004 9.325C39.3704 9.235 39.4204 9.12 39.4504 8.98H40.4404C40.3904 9.38 40.2454 9.69 40.0054 9.91C39.7654 10.13 39.4104 10.24 38.9404 10.24H38.7604L37.3654 9.865H37.2304C36.9204 9.865 36.6654 9.96 36.4654 10.15C36.2554 10.33 36.1504 10.575 36.1504 10.885C36.1504 10.955 36.1604 11.04 36.1804 11.14C36.1904 11.23 36.2054 11.325 36.2254 11.425C36.3454 11.315 36.5254 11.23 36.7654 11.17C37.0054 11.11 37.2854 11.08 37.6054 11.08C37.7954 11.08 38.0054 11.095 38.2354 11.125C38.4654 11.155 38.6704 11.22 38.8504 11.32L38.6704 12.055C38.4804 11.955 38.2904 11.89 38.1004 11.86C37.9004 11.82 37.6954 11.8 37.4854 11.8C37.2454 11.8 37.0154 11.825 36.7954 11.875C36.5654 11.925 36.3654 11.985 36.1954 12.055ZM53.2107 15.34C53.2107 14.48 52.8157 14.05 52.0257 14.05H49.3707V13.09H52.0257C53.5157 13.09 54.2607 13.84 54.2607 15.34V22H53.2107V15.34ZM46.3857 22.15C45.4157 22.15 44.6607 21.89 44.1207 21.37C43.5807 20.84 43.3107 20.1 43.3107 19.15V15.58C43.3107 15.37 43.2507 15.21 43.1307 15.1C43.0207 14.99 42.8607 14.885 42.6507 14.785V14.2C42.6507 13.83 42.7407 13.555 42.9207 13.375C43.1107 13.185 43.3857 13.09 43.7457 13.09H44.6607V14.05H43.8657C43.6557 14.05 43.5507 14.16 43.5507 14.38V14.5C43.8007 14.61 43.9957 14.745 44.1357 14.905C44.2857 15.065 44.3607 15.29 44.3607 15.58V19.15C44.3607 19.81 44.5357 20.325 44.8857 20.695C45.2457 21.065 45.7457 21.25 46.3857 21.25C47.0257 21.25 47.5207 21.065 47.8707 20.695C48.2307 20.325 48.4107 19.81 48.4107 19.15V15.58C48.4107 15.37 48.3507 15.21 48.2307 15.1C48.1207 14.99 47.9607 14.885 47.7507 14.785V14.2C47.7507 13.83 47.8407 13.555 48.0207 13.375C48.2107 13.185 48.4857 13.09 48.8457 13.09H49.7607V14.05H48.9657C48.7557 14.05 48.6507 14.16 48.6507 14.38V14.5C48.9007 14.61 49.0957 14.745 49.2357 14.905C49.3857 15.065 49.4607 15.29 49.4607 15.58V19.15C49.4607 20.1 49.1907 20.84 48.6507 21.37C48.1207 21.89 47.3657 22.15 46.3857 22.15ZM43.9107 17.845V17.005H48.8607V17.845H43.9107ZM60.9543 22.15C60.4143 22.15 59.9543 22.055 59.5743 21.865C59.2043 21.675 58.8943 21.42 58.6443 21.1C58.4043 20.78 58.1993 20.43 58.0293 20.05L58.3743 19.27C58.4743 19.56 58.6243 19.865 58.8243 20.185C59.0343 20.495 59.2993 20.755 59.6193 20.965C59.9493 21.175 60.3443 21.28 60.8043 21.28C61.3043 21.28 61.6843 21.165 61.9443 20.935C62.2043 20.705 62.3343 20.375 62.3343 19.945V18.835C61.7143 18.755 61.0993 18.645 60.4893 18.505C59.8893 18.365 59.3443 18.175 58.8543 17.935C58.3643 17.685 57.9693 17.365 57.6693 16.975C57.3793 16.575 57.2343 16.08 57.2343 15.49C57.2343 14.7 57.5243 14.08 58.1043 13.63C58.6943 13.17 59.4743 12.94 60.4443 12.94C61.3943 12.94 62.1343 13.145 62.6643 13.555C63.2043 13.965 63.4743 14.5 63.4743 15.16C63.4743 15.67 63.3143 16.075 62.9943 16.375C62.6843 16.665 62.2793 16.81 61.7793 16.81C61.5893 16.81 61.4293 16.795 61.2993 16.765C61.1693 16.725 61.0693 16.69 60.9993 16.66V15.82C61.0793 15.86 61.1793 15.895 61.2993 15.925C61.4293 15.955 61.5543 15.97 61.6743 15.97C61.9043 15.97 62.0843 15.9 62.2143 15.76C62.3443 15.61 62.4093 15.405 62.4093 15.145C62.4093 14.735 62.2343 14.415 61.8843 14.185C61.5343 13.955 61.0543 13.84 60.4443 13.84C59.7943 13.84 59.2743 13.99 58.8843 14.29C58.5043 14.58 58.3143 15.005 58.3143 15.565C58.3143 16.155 58.5243 16.605 58.9443 16.915C59.3643 17.225 59.9543 17.465 60.7143 17.635C61.4743 17.795 62.3643 17.95 63.3843 18.1V19.975C63.3843 20.665 63.1643 21.2 62.7243 21.58C62.2943 21.96 61.7043 22.15 60.9543 22.15ZM57.4143 22V18.88H58.4343V20.47L58.4043 22H57.4143ZM74.1377 22.15C73.2077 22.15 72.4877 21.895 71.9777 21.385C71.4677 20.865 71.2127 20.14 71.2127 19.21V15.88C71.2127 15.24 71.0477 14.74 70.7177 14.38C70.3877 14.02 69.9177 13.84 69.3077 13.84C68.6977 13.84 68.2277 14.02 67.8977 14.38C67.5677 14.74 67.4027 15.24 67.4027 15.88V19.93L67.1177 19.54H67.3727C67.7427 19.54 68.0477 19.64 68.2877 19.84C68.5277 20.03 68.6477 20.35 68.6477 20.8C68.6477 21.23 68.5377 21.555 68.3177 21.775C68.1077 21.985 67.7827 22.09 67.3427 22.09C67.0127 22.09 66.7627 22.03 66.5927 21.91C66.4327 21.78 66.3527 21.59 66.3527 21.34V15.88C66.3527 14.95 66.6077 14.23 67.1177 13.72C67.6377 13.2 68.3677 12.94 69.3077 12.94C70.2577 12.94 70.9877 13.2 71.4977 13.72C72.0077 14.23 72.2627 14.95 72.2627 15.88V19.21C72.2627 19.85 72.4277 20.35 72.7577 20.71C73.0877 21.07 73.5477 21.25 74.1377 21.25C74.7277 21.25 75.1877 21.07 75.5177 20.71C75.8477 20.35 76.0127 19.85 76.0127 19.21V15.58C76.0127 15.37 75.9527 15.21 75.8327 15.1C75.7227 14.99 75.5627 14.885 75.3527 14.785V14.2C75.3527 13.83 75.4427 13.555 75.6227 13.375C75.8127 13.185 76.0877 13.09 76.4477 13.09H77.3627V14.05H76.5677C76.3577 14.05 76.2527 14.16 76.2527 14.38V14.5C76.5027 14.61 76.6977 14.745 76.8377 14.905C76.9877 15.065 77.0627 15.29 77.0627 15.58V19.21C77.0627 20.14 76.8077 20.865 76.2977 21.385C75.7877 21.895 75.0677 22.15 74.1377 22.15ZM67.3577 21.4C67.7177 21.4 67.8977 21.2 67.8977 20.8C67.8977 20.4 67.7177 20.2 67.3577 20.2V21.4ZM83.3144 22.15C82.3444 22.15 81.5894 21.89 81.0494 21.37C80.5094 20.84 80.2394 20.1 80.2394 19.15V15.58C80.2394 15.37 80.1794 15.21 80.0594 15.1C79.9494 14.99 79.7894 14.885 79.5794 14.785V14.2C79.5794 13.83 79.6694 13.555 79.8494 13.375C80.0394 13.185 80.3144 13.09 80.6744 13.09H81.5894V14.05H80.7944C80.5844 14.05 80.4794 14.16 80.4794 14.38V14.5C80.7294 14.61 80.9244 14.745 81.0644 14.905C81.2144 15.065 81.2894 15.29 81.2894 15.58V19.15C81.2894 19.81 81.4644 20.325 81.8144 20.695C82.1744 21.065 82.6744 21.25 83.3144 21.25C83.9544 21.25 84.4494 21.065 84.7994 20.695C85.1594 20.325 85.3394 19.81 85.3394 19.15V15.58C85.3394 15.37 85.2794 15.21 85.1594 15.1C85.0494 14.99 84.8894 14.885 84.6794 14.785V14.2C84.6794 13.83 84.7694 13.555 84.9494 13.375C85.1394 13.185 85.4144 13.09 85.7744 13.09H86.6894V14.05H85.8944C85.6844 14.05 85.5794 14.16 85.5794 14.38V14.5C85.8294 14.61 86.0244 14.745 86.1644 14.905C86.3144 15.065 86.3894 15.29 86.3894 15.58V19.15C86.3894 20.1 86.1194 20.84 85.5794 21.37C85.0494 21.89 84.2944 22.15 83.3144 22.15ZM80.8394 17.845V17.005H85.7894V17.845H80.8394ZM80.8814 25.96C80.5814 25.96 80.3614 25.89 80.2214 25.75C80.0714 25.62 79.9964 25.435 79.9964 25.195C79.9964 24.965 80.0664 24.785 80.2064 24.655C80.3364 24.525 80.5264 24.46 80.7764 24.46H80.8214L80.7764 24.64V22.9H81.7364V25.375C81.7364 25.575 81.6664 25.72 81.5264 25.81C81.3864 25.91 81.1714 25.96 80.8814 25.96ZM80.8064 25.51V24.82C80.7064 24.82 80.6264 24.85 80.5664 24.91C80.5064 24.97 80.4764 25.055 80.4764 25.165C80.4764 25.275 80.5064 25.36 80.5664 25.42C80.6264 25.48 80.7064 25.51 80.8064 25.51ZM85.0214 25.96C84.7314 25.96 84.5114 25.89 84.3614 25.75C84.2114 25.62 84.1364 25.435 84.1364 25.195C84.1364 24.965 84.2064 24.785 84.3464 24.655C84.4764 24.525 84.6664 24.46 84.9164 24.46H84.9614L84.9164 24.64V22.9H85.8764V25.375C85.8764 25.575 85.8064 25.72 85.6664 25.81C85.5264 25.91 85.3114 25.96 85.0214 25.96ZM84.9464 25.51V24.82C84.8464 24.82 84.7664 24.85 84.7064 24.91C84.6464 24.97 84.6164 25.055 84.6164 25.165C84.6164 25.275 84.6464 25.36 84.7064 25.42C84.7664 25.48 84.8464 25.51 84.9464 25.51ZM81.5864 24.19V23.53H85.0814V24.19H81.5864ZM82.3726 11.95C81.8526 11.95 81.4526 11.835 81.1726 11.605C80.8926 11.375 80.7526 11.055 80.7526 10.645C80.7526 10.195 80.9276 9.83 81.2776 9.55C81.6176 9.27 82.1026 9.13 82.7326 9.13C83.1926 9.13 83.6226 9.2 84.0226 9.34C84.4226 9.48 84.7826 9.66 85.1026 9.88C85.4226 10.1 85.6926 10.33 85.9126 10.57C86.1326 10.8 86.2926 11.01 86.3926 11.2V11.95H82.3726ZM82.4026 11.2H85.3726C85.2226 10.98 85.0026 10.775 84.7126 10.585C84.4226 10.395 84.1026 10.24 83.7526 10.12C83.4026 10 83.0576 9.94 82.7176 9.94C82.4176 9.94 82.1826 10.005 82.0126 10.135C81.8326 10.255 81.7426 10.425 81.7426 10.645C81.7426 10.805 81.8026 10.94 81.9226 11.05C82.0326 11.15 82.1926 11.2 82.4026 11.2ZM94.7005 18.04C94.7005 17.38 94.5205 16.865 94.1605 16.495C93.8105 16.125 93.3105 15.94 92.6605 15.94C92.0205 15.94 91.5205 16.125 91.1605 16.495C90.8005 16.865 90.6205 17.38 90.6205 18.04V19.93L90.3355 19.54H90.5905C90.9605 19.54 91.2655 19.64 91.5055 19.84C91.7455 20.03 91.8655 20.35 91.8655 20.8C91.8655 21.23 91.7555 21.555 91.5355 21.775C91.3255 21.985 91.0005 22.09 90.5605 22.09C90.2305 22.09 89.9805 22.03 89.8105 21.91C89.6505 21.78 89.5705 21.59 89.5705 21.34V18.04C89.5705 17.09 89.8405 16.355 90.3805 15.835C90.9205 15.305 91.6805 15.04 92.6605 15.04C93.6405 15.04 94.4005 15.305 94.9405 15.835C95.4805 16.355 95.7505 17.09 95.7505 18.04V22H94.7005V18.04ZM90.5755 21.4C90.9355 21.4 91.1155 21.2 91.1155 20.8C91.1155 20.4 90.9355 20.2 90.5755 20.2V21.4ZM89.5105 14.05V13.09H95.8105V14.05H89.5105Z" fill="white"/>
</svg>
