<svg width="386" height="88" viewBox="0 0 386 88" fill="none" xmlns="http://www.w3.org/2000/svg">
<path d="M386 43.7131L384.461 42.6499C384.205 42.4828 383.674 41.9056 383.088 41.3892C380.707 39.0653 376.439 34.858 371.109 33.6733C371.153 33.3063 371.116 32.9357 371 32.5797C370.613 31.7973 370.038 31.0883 369.311 30.4956C368.584 29.9029 367.719 29.439 366.769 29.1319L364.406 26.6257C360.01 21.902 355.523 17.0872 349.607 14.7177L347.666 13.0925C344.105 9.87267 339.637 7.4355 334.662 5.99934L335.724 5.69559L331.823 4.04002C324.588 0.92632 319.148 0.182028 315.082 0.485803L315.76 -0.000202102L311.547 0.0909265L74.3977 0.0909058L70.1852 -0.00022357L70.8628 0.485782C66.8517 0.182006 61.3571 0.926297 54.1224 4.04L50.2212 5.69557L51.2835 5.99931C46.3082 7.43547 41.8401 9.87265 38.2795 13.0925L36.338 14.7177C30.4221 17.0872 25.9348 21.902 21.5391 26.6257L19.1764 29.1318C18.2263 29.4389 17.3614 29.9029 16.6341 30.4956C15.9068 31.0883 15.3324 31.7973 14.9455 32.5797C14.8632 32.941 14.8632 33.3119 14.9455 33.6733C9.56073 34.858 5.2932 39.0653 2.91218 41.3892C2.32608 41.9056 1.79493 42.4828 1.53851 42.6498L1.18059e-05 43.7131L1.48357 44.7915C1.97005 45.1896 2.42869 45.6105 2.85723 46.0521C5.23825 48.376 9.50578 52.5377 14.8906 53.768C14.8108 54.1296 14.8108 54.5001 14.8906 54.8616C15.2774 55.644 15.8519 56.353 16.5792 56.9457C17.3065 57.5384 18.1714 58.0024 19.1214 58.3095L21.4842 60.8156C25.8799 65.5393 30.3672 70.3086 36.2831 72.7236L38.2245 74.3488C41.7851 77.5687 46.2532 80.0058 51.2286 81.442L50.1662 81.7002L54.0675 83.4014C61.3021 86.5151 66.7968 87.2593 70.8079 86.9555L70.1302 87.396L74.3428 87.396L311.547 87.396L315.76 87.396L315.082 86.9555C319.148 87.2593 324.588 86.5151 331.823 83.4014L335.724 81.7002L334.662 81.442C339.637 80.0059 344.105 77.5687 347.666 74.3488L349.607 72.7237C355.523 70.3087 360.01 65.5393 364.406 60.8156L366.769 58.3095C367.719 58.0024 368.584 57.5384 369.311 56.9458C370.038 56.3531 370.613 55.644 371 54.8617C371.116 54.5057 371.153 54.1351 371.109 53.7681C376.439 52.5378 380.707 48.376 383.088 46.0521C383.516 45.6106 383.975 45.1897 384.461 44.7915L386 43.7131Z" fill="#324A0A"/>
<path d="M110.337 50.6091C108.817 50.5558 107.35 50.3558 105.937 50.0091C104.524 49.6625 103.257 49.1558 102.137 48.4891C101.044 47.8225 100.177 46.9691 99.5369 45.9291C98.8969 44.8625 98.5769 43.5558 98.5769 42.0091C98.5769 39.6358 99.3769 37.7958 100.977 36.4891C102.604 35.1825 104.777 34.5291 107.497 34.5291C109.31 34.5291 110.857 34.8091 112.137 35.3691C113.417 35.9291 114.39 36.6891 115.057 37.6491C115.75 38.6091 116.097 39.6891 116.097 40.8891C116.097 41.3691 116.044 41.8091 115.937 42.2091C115.83 42.6091 115.697 42.9425 115.537 43.2091H111.257C111.39 42.8891 111.51 42.5291 111.617 42.1291C111.75 41.7291 111.817 41.3558 111.817 41.0091C111.817 40.0758 111.43 39.3158 110.657 38.7291C109.91 38.1158 108.897 37.8091 107.617 37.8091C106.204 37.8091 105.07 38.1825 104.217 38.9291C103.39 39.6491 102.977 40.7425 102.977 42.2091C102.977 44.0758 103.67 45.4225 105.057 46.2491C106.47 47.0758 108.43 47.5958 110.937 47.8091L110.337 50.6091ZM107.177 59.2491C105.044 59.2491 103.364 58.7291 102.137 57.6891C100.937 56.6491 100.337 55.1825 100.337 53.2891V51.4891H104.497V53.2891C104.497 54.1691 104.724 54.8625 105.177 55.3691C105.657 55.8491 106.31 56.0891 107.137 56.0891C107.99 56.0891 108.63 55.8491 109.057 55.3691C109.51 54.8625 109.737 54.1691 109.737 53.2891V47.6091C109.737 46.8358 110.004 46.2491 110.537 45.8491C111.097 45.4225 111.897 45.2091 112.937 45.2091C114.19 45.2091 115.11 45.5025 115.697 46.0891C116.284 46.6758 116.577 47.4625 116.577 48.4491C116.577 49.4891 116.27 50.2625 115.657 50.7691C115.044 51.2758 114.284 51.5291 113.377 51.5291H112.937L113.897 50.3691V53.3291C113.897 55.1958 113.31 56.6491 112.137 57.6891C110.99 58.7291 109.337 59.2491 107.177 59.2491ZM113.297 49.6091C114.07 49.6091 114.457 49.2091 114.457 48.4091C114.457 47.6358 114.07 47.2491 113.297 47.2491V49.6091ZM104.328 32.0491C102.781 32.0491 101.608 31.7291 100.808 31.0891C99.9812 30.4491 99.5679 29.5291 99.5679 28.3291C99.5679 27.0491 100.061 25.9958 101.048 25.1691C102.035 24.3425 103.461 23.9291 105.328 23.9291C106.661 23.9291 107.915 24.1291 109.088 24.5291C110.235 24.9025 111.261 25.4091 112.168 26.0491C113.075 26.6625 113.848 27.3025 114.488 27.9691C115.101 28.6358 115.555 29.2358 115.848 29.7691V32.0491H104.328ZM105.008 29.8091H112.328C111.928 29.2758 111.355 28.7958 110.608 28.3691C109.861 27.9158 109.061 27.5425 108.208 27.2491C107.328 26.9558 106.475 26.8091 105.648 26.8091C104.901 26.8091 104.328 26.9558 103.928 27.2491C103.528 27.5425 103.328 27.9425 103.328 28.4491C103.328 28.8491 103.475 29.1825 103.768 29.4491C104.035 29.6891 104.448 29.8091 105.008 29.8091ZM143.383 69.1691C141.97 69.1691 140.676 69.0358 139.503 68.7691C138.356 68.5025 137.25 68.1825 136.183 67.8091C135.116 67.4358 134.05 67.0491 132.983 66.6491C131.916 66.2758 130.77 65.9558 129.543 65.6891C128.343 65.4225 127.01 65.2891 125.543 65.2891H124.263V62.1691H125.543C127.223 62.1691 128.73 62.2891 130.063 62.5291C131.423 62.7958 132.676 63.1158 133.823 63.4891C134.97 63.8891 136.05 64.2758 137.063 64.6491C138.076 65.0491 139.09 65.3825 140.103 65.6491C141.143 65.9158 142.236 66.0491 143.383 66.0491H147.223C147.863 66.0491 148.356 65.9158 148.703 65.6491C149.05 65.4091 149.223 65.0491 149.223 64.5691C149.223 64.1425 149.103 63.8091 148.863 63.5691C148.65 63.3558 148.356 63.2491 147.983 63.2491C147.743 63.2491 147.423 63.3025 147.023 63.4091C146.65 63.5425 146.33 63.6625 146.063 63.7691V61.4091C146.436 61.2758 146.863 61.1425 147.343 61.0091C147.85 60.9025 148.303 60.8491 148.703 60.8491C150.17 60.8491 151.263 61.1958 151.983 61.8891C152.703 62.5825 153.063 63.5425 153.063 64.7691C153.063 66.2358 152.583 67.3291 151.623 68.0491C150.69 68.7958 149.276 69.1691 147.383 69.1691H143.383ZM135.823 58.8491V40.4091L134.223 38.8091L131.663 41.2491H131.423L128.863 38.8091L127.303 40.4091V53.3291L126.223 52.1291H126.823C127.943 52.1291 128.823 52.3958 129.463 52.9291C130.103 53.4625 130.423 54.3291 130.423 55.5291C130.423 56.7291 130.103 57.6225 129.463 58.2091C128.823 58.7958 127.823 59.0891 126.463 59.0891C125.316 59.0891 124.45 58.9025 123.863 58.5291C123.303 58.1558 123.023 57.5825 123.023 56.8091V39.4891L127.943 34.5291H128.223L131.543 37.5691L134.863 34.5291H135.143L140.103 39.4891V58.8491H135.823ZM126.863 57.0891C127.796 57.0891 128.263 56.5825 128.263 55.5691C128.263 54.5558 127.796 54.0491 126.863 54.0491V57.0891ZM148.623 41.5291C148.623 39.3691 147.61 38.2891 145.583 38.2891H143.583L139.503 41.1291L137.983 38.6891L143.063 34.9291H146.343C148.476 34.9291 150.09 35.4358 151.183 36.4491C152.303 37.4625 152.863 39.0625 152.863 41.2491V58.8491H148.623V41.5291ZM173.845 48.6891C173.845 47.2491 173.445 46.1291 172.645 45.3291C171.845 44.5291 170.725 44.1291 169.285 44.1291C167.871 44.1291 166.751 44.5291 165.925 45.3291C165.125 46.1291 164.725 47.2491 164.725 48.6891V53.3291L163.645 52.1291H164.245C165.365 52.1291 166.245 52.3958 166.885 52.9291C167.525 53.4625 167.845 54.3291 167.845 55.5291C167.845 56.7291 167.525 57.6225 166.885 58.2091C166.245 58.7958 165.245 59.0891 163.885 59.0891C162.738 59.0891 161.871 58.9025 161.285 58.5291C160.725 58.1558 160.445 57.5825 160.445 56.8091V48.6891C160.445 46.2091 161.218 44.2891 162.765 42.9291C164.338 41.5425 166.511 40.8491 169.285 40.8491C172.085 40.8491 174.258 41.5425 175.805 42.9291C177.351 44.2891 178.125 46.2091 178.125 48.6891V58.8491H173.845V48.6891ZM164.285 57.0891C165.218 57.0891 165.685 56.5825 165.685 55.5691C165.685 54.5558 165.218 54.0491 164.285 54.0491V57.0891ZM161.405 42.1291C160.898 41.8358 160.458 41.4225 160.085 40.8891C159.738 40.3558 159.565 39.6758 159.565 38.8491C159.565 37.6491 159.898 36.7025 160.565 36.0091C161.231 35.2891 162.165 34.9291 163.365 34.9291H167.325L171.725 35.8891H172.965C173.391 35.8891 173.711 35.7825 173.925 35.5691C174.165 35.3558 174.285 34.9958 174.285 34.4891V33.4891H178.285V34.9691C178.285 36.3825 177.938 37.4358 177.245 38.1291C176.578 38.8225 175.511 39.1691 174.045 39.1691H171.245L167.165 38.2491H164.325C164.031 38.2491 163.791 38.3558 163.605 38.5691C163.445 38.7558 163.365 39.0091 163.365 39.3291C163.365 39.6758 163.431 39.9425 163.565 40.1291C163.698 40.2891 163.845 40.4225 164.005 40.5291L161.405 42.1291ZM195.518 69.1691V61.0891H199.798V65.4491L203.638 62.3691L207.478 65.4491V42.6091C207.478 41.9958 207.332 41.5425 207.038 41.2491C206.772 40.9291 206.385 40.6625 205.878 40.4491V38.3691C205.878 37.2225 206.158 36.3691 206.718 35.8091C207.305 35.2225 208.145 34.9291 209.238 34.9291H212.358V38.4091H210.278C209.772 38.4091 209.518 38.6891 209.518 39.2491V39.6091C210.238 39.9025 210.785 40.2758 211.158 40.7291C211.558 41.1825 211.758 41.8358 211.758 42.6891V69.1691H207.678L203.638 65.8891L199.598 69.1691H195.518ZM196.118 50.6091C194.598 50.5558 193.132 50.3558 191.718 50.0091C190.305 49.6625 189.038 49.1558 187.918 48.4891C186.825 47.8225 185.958 46.9691 185.318 45.9291C184.678 44.8625 184.358 43.5558 184.358 42.0091C184.358 39.6358 185.158 37.7958 186.758 36.4891C188.385 35.1825 190.558 34.5291 193.278 34.5291C195.092 34.5291 196.638 34.8091 197.918 35.3691C199.198 35.9291 200.172 36.6891 200.838 37.6491C201.532 38.6091 201.878 39.6891 201.878 40.8891C201.878 41.3691 201.825 41.8091 201.718 42.2091C201.612 42.6091 201.478 42.9425 201.318 43.2091H197.038C197.172 42.8891 197.292 42.5291 197.398 42.1291C197.532 41.7291 197.598 41.3558 197.598 41.0091C197.598 40.0758 197.212 39.3158 196.438 38.7291C195.692 38.1158 194.678 37.8091 193.398 37.8091C191.985 37.8091 190.852 38.1825 189.998 38.9291C189.172 39.6491 188.758 40.7425 188.758 42.2091C188.758 44.0758 189.452 45.4225 190.838 46.2491C192.252 47.0758 194.212 47.5958 196.718 47.8091L196.118 50.6091ZM192.958 59.2491C190.825 59.2491 189.145 58.7291 187.918 57.6891C186.718 56.6491 186.118 55.1825 186.118 53.2891V51.4891H190.278V53.2891C190.278 54.1691 190.505 54.8625 190.958 55.3691C191.438 55.8491 192.092 56.0891 192.918 56.0891C193.772 56.0891 194.412 55.8491 194.838 55.3691C195.292 54.8625 195.518 54.1691 195.518 53.2891V47.6091C195.518 46.8358 195.785 46.2491 196.318 45.8491C196.878 45.4225 197.678 45.2091 198.718 45.2091C199.972 45.2091 200.892 45.5025 201.478 46.0891C202.065 46.6758 202.358 47.4625 202.358 48.4491C202.358 49.4891 202.052 50.2625 201.438 50.7691C200.825 51.2758 200.065 51.5291 199.158 51.5291H198.718L199.678 50.3691V53.3291C199.678 55.1958 199.092 56.6491 197.918 57.6891C196.772 58.7291 195.118 59.2491 192.958 59.2491ZM199.078 49.6091C199.852 49.6091 200.238 49.2091 200.238 48.4091C200.238 47.6358 199.852 47.2491 199.078 47.2491V49.6091ZM206.346 77.5691C204.693 77.5691 203.44 77.2491 202.586 76.6091C201.706 75.9691 201.266 75.0758 201.266 73.9291V71.1691H204.586V73.7291C204.586 74.2091 204.76 74.5825 205.106 74.8491C205.426 75.1158 205.813 75.2491 206.266 75.2491C206.8 75.2491 207.226 75.1158 207.546 74.8491C207.84 74.5825 207.986 74.2091 207.986 73.7291V71.1691H211.746V73.9291C211.746 75.0758 211.293 75.9691 210.386 76.6091C209.453 77.2491 208.106 77.5691 206.346 77.5691ZM221.831 59.0891C220.524 59.0891 219.551 58.7958 218.911 58.2091C218.271 57.6225 217.951 56.7425 217.951 55.5691C217.951 54.3958 218.258 53.5291 218.871 52.9691C219.484 52.4091 220.338 52.1291 221.431 52.1291H221.951L220.911 53.3291V43.0491C220.911 42.5691 220.804 42.1958 220.591 41.9291C220.378 41.6358 220.058 41.3958 219.631 41.2091C219.231 41.0225 218.751 40.8625 218.191 40.7291V37.6091C218.191 35.8225 219.031 34.9291 220.711 34.9291H221.511L223.751 36.3291L222.951 36.4491V33.3691H226.551V36.9691C226.551 37.5291 226.391 37.9958 226.071 38.3691C225.751 38.7158 225.271 38.8891 224.631 38.8891H224.151L222.551 38.2491H222.351C221.924 38.2491 221.711 38.4891 221.711 38.9691V39.6091C222.804 39.9025 223.658 40.3291 224.271 40.8891C224.884 41.4225 225.191 42.1558 225.191 43.0891V56.8091C225.191 58.3291 224.071 59.0891 221.831 59.0891ZM221.551 54.0891C220.618 54.0891 220.151 54.5958 220.151 55.6091C220.151 56.5958 220.618 57.0891 221.551 57.0891V54.0891ZM236.347 59.0891C235.2 59.0891 234.347 58.9025 233.787 58.5291C233.253 58.1558 232.987 57.5825 232.987 56.8091V42.6091C232.987 41.9958 232.853 41.5291 232.587 41.2091C232.347 40.8891 232.013 40.6091 231.587 40.3691V38.3691C231.587 37.2225 231.867 36.3691 232.427 35.8091C232.987 35.2225 233.827 34.9291 234.947 34.9291H238.387V38.4091H235.987C235.453 38.4091 235.187 38.6891 235.187 39.2491V39.6091C235.853 39.9025 236.36 40.2758 236.707 40.7291C237.053 41.1825 237.227 41.8358 237.227 42.6891V53.0891L236.067 51.8091H236.627C237.747 51.8091 238.627 52.1025 239.267 52.6891C239.907 53.2491 240.227 54.1558 240.227 55.4091C240.227 57.8625 238.933 59.0891 236.347 59.0891ZM236.707 57.0891C237.613 57.0891 238.067 56.5425 238.067 55.4491C238.067 54.3558 237.613 53.8091 236.707 53.8091V57.0891ZM255.721 59.2491C254.334 59.2491 253.148 59.0225 252.161 58.5691C251.201 58.0891 250.401 57.4491 249.761 56.6491C249.121 55.8491 248.614 54.9558 248.241 53.9691L249.241 51.8491C249.428 52.4358 249.748 53.0625 250.201 53.7291C250.681 54.3958 251.281 54.9558 252.001 55.4091C252.748 55.8358 253.614 56.0491 254.601 56.0491C255.721 56.0491 256.574 55.7958 257.161 55.2891C257.774 54.7558 258.081 54.0091 258.081 53.0491V50.6491C256.321 50.4091 254.641 50.0891 253.041 49.6891C251.468 49.2891 250.054 48.7558 248.801 48.0891C247.574 47.4225 246.601 46.5691 245.881 45.5291C245.188 44.4891 244.841 43.1958 244.841 41.6491C244.841 39.3558 245.668 37.5958 247.321 36.3691C249.001 35.1425 251.214 34.5291 253.961 34.5291C256.654 34.5291 258.761 35.0758 260.281 36.1691C261.801 37.2358 262.561 38.7025 262.561 40.5691C262.561 42.0091 262.094 43.1291 261.161 43.9291C260.254 44.7291 259.054 45.1291 257.561 45.1291C257.028 45.1291 256.548 45.0891 256.121 45.0091C255.721 44.9025 255.401 44.8091 255.161 44.7291V42.0491C255.348 42.1291 255.574 42.2091 255.841 42.2891C256.134 42.3425 256.414 42.3691 256.681 42.3691C257.188 42.3691 257.588 42.2225 257.881 41.9291C258.174 41.6091 258.321 41.1691 258.321 40.6091C258.321 39.7291 257.934 39.0358 257.161 38.5291C256.388 38.0225 255.321 37.7691 253.961 37.7691C252.494 37.7691 251.321 38.1291 250.441 38.8491C249.561 39.5425 249.121 40.5425 249.121 41.8491C249.121 43.3158 249.668 44.4358 250.761 45.2091C251.881 45.9825 253.428 46.5825 255.401 47.0091C257.374 47.4091 259.681 47.7825 262.321 48.1291V53.4491C262.321 55.2891 261.734 56.7158 260.561 57.7291C259.388 58.7425 257.774 59.2491 255.721 59.2491ZM245.321 58.8491V50.8091H249.401V54.8891L249.121 58.8491H245.321ZM272.349 43.1691C270.989 43.1691 269.882 42.7825 269.029 42.0091C268.202 41.2358 267.789 40.2225 267.789 38.9691C267.789 37.7158 268.202 36.7158 269.029 35.9691C269.882 35.1958 270.989 34.8091 272.349 34.8091C273.682 34.8091 274.762 35.1958 275.589 35.9691C276.442 36.7158 276.869 37.7158 276.869 38.9691C276.869 40.2225 276.442 41.2358 275.589 42.0091C274.762 42.7825 273.682 43.1691 272.349 43.1691ZM272.349 40.6891C272.802 40.6891 273.162 40.5425 273.429 40.2491C273.722 39.9291 273.869 39.5025 273.869 38.9691C273.869 38.4625 273.722 38.0625 273.429 37.7691C273.162 37.4491 272.802 37.2891 272.349 37.2891C271.869 37.2891 271.496 37.4491 271.229 37.7691C270.962 38.0625 270.829 38.4625 270.829 38.9691C270.829 39.5025 270.962 39.9291 271.229 40.2491C271.496 40.5425 271.869 40.6891 272.349 40.6891ZM272.349 59.0091C270.989 59.0091 269.882 58.6225 269.029 57.8491C268.202 57.0758 267.789 56.0625 267.789 54.8091C267.789 53.5291 268.202 52.5158 269.029 51.7691C269.882 50.9958 270.989 50.6091 272.349 50.6091C273.682 50.6091 274.762 50.9958 275.589 51.7691C276.442 52.5158 276.869 53.5291 276.869 54.8091C276.869 56.0625 276.442 57.0758 275.589 57.8491C274.762 58.6225 273.682 59.0091 272.349 59.0091ZM272.349 56.4891C272.802 56.4891 273.162 56.3425 273.429 56.0491C273.722 55.7291 273.869 55.3158 273.869 54.8091C273.869 54.2758 273.722 53.8625 273.429 53.5691C273.162 53.2758 272.802 53.1291 272.349 53.1291C271.869 53.1291 271.496 53.2758 271.229 53.5691C270.962 53.8625 270.829 54.2758 270.829 54.8091C270.829 55.3158 270.962 55.7291 271.229 56.0491C271.496 56.3425 271.869 56.4891 272.349 56.4891Z" fill="#F4ECC8"/>
</svg>
