<svg width="179" height="41" viewBox="0 0 179 41" fill="none" xmlns="http://www.w3.org/2000/svg">
<path d="M178.578 20.2233L177.866 19.7314C177.747 19.6541 177.502 19.3871 177.231 19.1482C176.129 18.0731 174.155 16.1266 171.689 15.5785C171.709 15.4087 171.692 15.2373 171.638 15.0726C171.459 14.7106 171.193 14.3826 170.857 14.1084C170.52 13.8342 170.12 13.6196 169.681 13.4775L168.588 12.3181C166.554 10.1327 164.478 7.90518 161.741 6.80899L160.843 6.05711C159.196 4.56749 157.129 3.43996 154.827 2.77554L155.318 2.63502L153.513 1.86909C150.166 0.428576 147.65 0.0842391 145.769 0.224777L146.082 -6.73772e-05L144.133 0.042092L34.4191 0.0420825L32.4702 -7.73095e-05L32.7838 0.224767C30.9281 0.0842289 28.386 0.428565 25.039 1.86908L23.2342 2.635L23.7256 2.77553C21.4239 3.43995 19.3568 4.56748 17.7095 6.05709L16.8113 6.80897C14.0744 7.90517 11.9984 10.1327 9.96478 12.318L8.8717 13.4775C8.43217 13.6196 8.03203 13.8342 7.69556 14.1084C7.35909 14.3826 7.09331 14.7106 6.91434 15.0726C6.87627 15.2397 6.87627 15.4113 6.91434 15.5785C4.42314 16.1266 2.44882 18.0731 1.34728 19.1482C1.07613 19.3871 0.830397 19.6541 0.711768 19.7314L2.16909e-06 20.2233L0.686349 20.7222C0.911417 20.9064 1.1236 21.1011 1.32186 21.3054C2.4234 22.3805 4.39772 24.3059 6.88892 24.8751C6.85201 25.0423 6.85201 25.2138 6.88892 25.381C7.06789 25.743 7.33367 26.071 7.67014 26.3452C8.00661 26.6194 8.40675 26.834 8.84628 26.9761L9.93936 28.1356C11.973 30.3209 14.049 32.5274 16.7859 33.6447L17.6841 34.3965C19.3313 35.8861 21.3984 37.0137 23.7002 37.6781L23.2087 37.7975L25.0136 38.5846C28.3606 40.0251 30.9027 40.3694 32.7583 40.2288L32.4448 40.4326L34.3937 40.4326L144.133 40.4326L146.082 40.4326L145.769 40.2289C147.65 40.3694 150.166 40.0251 153.513 38.5846L155.318 37.7975L154.827 37.6781C157.129 37.0137 159.196 35.8861 160.843 34.3965L161.741 33.6447C164.478 32.5274 166.554 30.3209 168.588 28.1356L169.681 26.9761C170.12 26.8341 170.52 26.6194 170.857 26.3452C171.193 26.071 171.459 25.743 171.638 25.381C171.692 25.2164 171.709 25.0449 171.689 24.8751C174.155 24.3059 176.129 22.3805 177.231 21.3054C177.429 21.1011 177.641 20.9064 177.866 20.7222L178.578 20.2233Z" fill="#324A0A"/>
<path d="M54.3773 20.88C53.6173 20.8533 52.884 20.7533 52.1773 20.58C51.4707 20.4067 50.8373 20.1533 50.2773 19.82C49.7307 19.4867 49.2973 19.06 48.9773 18.54C48.6573 18.0067 48.4973 17.3533 48.4973 16.58C48.4973 15.3933 48.8973 14.4733 49.6973 13.82C50.5107 13.1667 51.5973 12.84 52.9573 12.84C53.864 12.84 54.6373 12.98 55.2773 13.26C55.9173 13.54 56.404 13.92 56.7373 14.4C57.084 14.88 57.2573 15.42 57.2573 16.02C57.2573 16.26 57.2307 16.48 57.1773 16.68C57.124 16.88 57.0573 17.0467 56.9773 17.18H54.8373C54.904 17.02 54.964 16.84 55.0173 16.64C55.084 16.44 55.1173 16.2533 55.1173 16.08C55.1173 15.6133 54.924 15.2333 54.5373 14.94C54.164 14.6333 53.6573 14.48 53.0173 14.48C52.3107 14.48 51.744 14.6667 51.3173 15.04C50.904 15.4 50.6973 15.9467 50.6973 16.68C50.6973 17.6133 51.044 18.2867 51.7373 18.7C52.444 19.1133 53.424 19.3733 54.6773 19.48L54.3773 20.88ZM52.7973 25.2C51.7307 25.2 50.8907 24.94 50.2773 24.42C49.6773 23.9 49.3773 23.1667 49.3773 22.22V21.32H51.4573V22.22C51.4573 22.66 51.5707 23.0067 51.7973 23.26C52.0373 23.5 52.364 23.62 52.7773 23.62C53.204 23.62 53.524 23.5 53.7373 23.26C53.964 23.0067 54.0773 22.66 54.0773 22.22V19.38C54.0773 18.9933 54.2107 18.7 54.4773 18.5C54.7573 18.2867 55.1573 18.18 55.6773 18.18C56.304 18.18 56.764 18.3267 57.0573 18.62C57.3507 18.9133 57.4973 19.3067 57.4973 19.8C57.4973 20.32 57.344 20.7067 57.0373 20.96C56.7307 21.2133 56.3507 21.34 55.8973 21.34H55.6773L56.1573 20.76V22.24C56.1573 23.1733 55.864 23.9 55.2773 24.42C54.704 24.94 53.8773 25.2 52.7973 25.2ZM55.8573 20.38C56.244 20.38 56.4373 20.18 56.4373 19.78C56.4373 19.3933 56.244 19.2 55.8573 19.2V20.38ZM51.3728 11.6C50.5995 11.6 50.0128 11.44 49.6128 11.12C49.1995 10.8 48.9928 10.34 48.9928 9.74C48.9928 9.1 49.2395 8.57333 49.7328 8.16C50.2261 7.74667 50.9395 7.54 51.8728 7.54C52.5395 7.54 53.1661 7.64 53.7528 7.84C54.3261 8.02667 54.8395 8.28 55.2928 8.6C55.7461 8.90667 56.1328 9.22667 56.4528 9.56C56.7595 9.89333 56.9861 10.1933 57.1328 10.46V11.6H51.3728ZM51.7128 10.48H55.3728C55.1728 10.2133 54.8861 9.97333 54.5128 9.76C54.1395 9.53333 53.7395 9.34667 53.3128 9.2C52.8728 9.05333 52.4461 8.98 52.0328 8.98C51.6595 8.98 51.3728 9.05333 51.1728 9.2C50.9728 9.34667 50.8728 9.54667 50.8728 9.8C50.8728 10 50.9461 10.1667 51.0928 10.3C51.2261 10.42 51.4328 10.48 51.7128 10.48ZM70.9003 30.16C70.1936 30.16 69.547 30.0933 68.9603 29.96C68.387 29.8267 67.8336 29.6667 67.3003 29.48C66.767 29.2933 66.2336 29.1 65.7003 28.9C65.167 28.7133 64.5936 28.5533 63.9803 28.42C63.3803 28.2867 62.7136 28.22 61.9803 28.22H61.3403V26.66H61.9803C62.8203 26.66 63.5736 26.72 64.2403 26.84C64.9203 26.9733 65.547 27.1333 66.1203 27.32C66.6936 27.52 67.2336 27.7133 67.7403 27.9C68.247 28.1 68.7536 28.2667 69.2603 28.4C69.7803 28.5333 70.327 28.6 70.9003 28.6H72.8203C73.1403 28.6 73.387 28.5333 73.5603 28.4C73.7336 28.28 73.8203 28.1 73.8203 27.86C73.8203 27.6467 73.7603 27.48 73.6403 27.36C73.5336 27.2533 73.387 27.2 73.2003 27.2C73.0803 27.2 72.9203 27.2267 72.7203 27.28C72.5336 27.3467 72.3736 27.4067 72.2403 27.46V26.28C72.427 26.2133 72.6403 26.1467 72.8803 26.08C73.1336 26.0267 73.3603 26 73.5603 26C74.2936 26 74.8403 26.1733 75.2003 26.52C75.5603 26.8667 75.7403 27.3467 75.7403 27.96C75.7403 28.6933 75.5003 29.24 75.0203 29.6C74.5536 29.9733 73.847 30.16 72.9003 30.16H70.9003ZM67.1203 25V15.78L66.3203 14.98L65.0403 16.2H64.9203L63.6403 14.98L62.8603 15.78V22.24L62.3203 21.64H62.6203C63.1803 21.64 63.6203 21.7733 63.9403 22.04C64.2603 22.3067 64.4203 22.74 64.4203 23.34C64.4203 23.94 64.2603 24.3867 63.9403 24.68C63.6203 24.9733 63.1203 25.12 62.4403 25.12C61.867 25.12 61.4336 25.0267 61.1403 24.84C60.8603 24.6533 60.7203 24.3667 60.7203 23.98V15.32L63.1803 12.84H63.3203L64.9803 14.36L66.6403 12.84H66.7803L69.2603 15.32V25H67.1203ZM62.6403 24.12C63.107 24.12 63.3403 23.8667 63.3403 23.36C63.3403 22.8533 63.107 22.6 62.6403 22.6V24.12ZM73.5203 16.34C73.5203 15.26 73.0136 14.72 72.0003 14.72H71.0003L68.9603 16.14L68.2003 14.92L70.7403 13.04H72.3803C73.447 13.04 74.2536 13.2933 74.8003 13.8C75.3603 14.3067 75.6403 15.1067 75.6403 16.2V25H73.5203V16.34ZM86.1313 19.92C86.1313 19.2 85.9313 18.64 85.5313 18.24C85.1313 17.84 84.5713 17.64 83.8513 17.64C83.1446 17.64 82.5846 17.84 82.1713 18.24C81.7713 18.64 81.5713 19.2 81.5713 19.92V22.24L81.0313 21.64H81.3313C81.8913 21.64 82.3313 21.7733 82.6513 22.04C82.9713 22.3067 83.1313 22.74 83.1313 23.34C83.1313 23.94 82.9713 24.3867 82.6513 24.68C82.3313 24.9733 81.8313 25.12 81.1513 25.12C80.5779 25.12 80.1446 25.0267 79.8513 24.84C79.5713 24.6533 79.4313 24.3667 79.4313 23.98V19.92C79.4313 18.68 79.8179 17.72 80.5913 17.04C81.3779 16.3467 82.4646 16 83.8513 16C85.2513 16 86.3379 16.3467 87.1113 17.04C87.8846 17.72 88.2713 18.68 88.2713 19.92V25H86.1313V19.92ZM81.3513 24.12C81.8179 24.12 82.0513 23.8667 82.0513 23.36C82.0513 22.8533 81.8179 22.6 81.3513 22.6V24.12ZM79.9113 16.64C79.6579 16.4933 79.4379 16.2867 79.2513 16.02C79.0779 15.7533 78.9913 15.4133 78.9913 15C78.9913 14.4 79.1579 13.9267 79.4913 13.58C79.8246 13.22 80.2913 13.04 80.8913 13.04H82.8713L85.0713 13.52H85.6913C85.9046 13.52 86.0646 13.4667 86.1713 13.36C86.2913 13.2533 86.3513 13.0733 86.3513 12.82V12.32H88.3513V13.06C88.3513 13.7667 88.1779 14.2933 87.8313 14.64C87.4979 14.9867 86.9646 15.16 86.2313 15.16H84.8313L82.7913 14.7H81.3713C81.2246 14.7 81.1046 14.7533 81.0113 14.86C80.9313 14.9533 80.8913 15.08 80.8913 15.24C80.8913 15.4133 80.9246 15.5467 80.9913 15.64C81.0579 15.72 81.1313 15.7867 81.2113 15.84L79.9113 16.64ZM96.968 30.16V26.12H99.108V28.3L101.028 26.76L102.948 28.3V16.88C102.948 16.5733 102.875 16.3467 102.728 16.2C102.595 16.04 102.401 15.9067 102.148 15.8V14.76C102.148 14.1867 102.288 13.76 102.568 13.48C102.861 13.1867 103.281 13.04 103.828 13.04H105.388V14.78H104.348C104.095 14.78 103.968 14.92 103.968 15.2V15.38C104.328 15.5267 104.601 15.7133 104.788 15.94C104.988 16.1667 105.088 16.4933 105.088 16.92V30.16H103.048L101.028 28.52L99.008 30.16H96.968ZM97.268 20.88C96.508 20.8533 95.7746 20.7533 95.068 20.58C94.3613 20.4067 93.728 20.1533 93.168 19.82C92.6213 19.4867 92.188 19.06 91.868 18.54C91.548 18.0067 91.388 17.3533 91.388 16.58C91.388 15.3933 91.788 14.4733 92.588 13.82C93.4013 13.1667 94.488 12.84 95.848 12.84C96.7546 12.84 97.528 12.98 98.168 13.26C98.808 13.54 99.2946 13.92 99.628 14.4C99.9746 14.88 100.148 15.42 100.148 16.02C100.148 16.26 100.121 16.48 100.068 16.68C100.015 16.88 99.948 17.0467 99.868 17.18H97.728C97.7946 17.02 97.8546 16.84 97.908 16.64C97.9746 16.44 98.008 16.2533 98.008 16.08C98.008 15.6133 97.8146 15.2333 97.428 14.94C97.0546 14.6333 96.548 14.48 95.908 14.48C95.2013 14.48 94.6346 14.6667 94.208 15.04C93.7946 15.4 93.588 15.9467 93.588 16.68C93.588 17.6133 93.9346 18.2867 94.628 18.7C95.3346 19.1133 96.3146 19.3733 97.568 19.48L97.268 20.88ZM95.688 25.2C94.6213 25.2 93.7813 24.94 93.168 24.42C92.568 23.9 92.268 23.1667 92.268 22.22V21.32H94.348V22.22C94.348 22.66 94.4613 23.0067 94.688 23.26C94.928 23.5 95.2546 23.62 95.668 23.62C96.0946 23.62 96.4146 23.5 96.628 23.26C96.8546 23.0067 96.968 22.66 96.968 22.22V19.38C96.968 18.9933 97.1013 18.7 97.368 18.5C97.648 18.2867 98.048 18.18 98.568 18.18C99.1946 18.18 99.6546 18.3267 99.948 18.62C100.241 18.9133 100.388 19.3067 100.388 19.8C100.388 20.32 100.235 20.7067 99.928 20.96C99.6213 21.2133 99.2413 21.34 98.788 21.34H98.568L99.048 20.76V22.24C99.048 23.1733 98.7546 23.9 98.168 24.42C97.5946 24.94 96.768 25.2 95.688 25.2ZM98.748 20.38C99.1346 20.38 99.328 20.18 99.328 19.78C99.328 19.3933 99.1346 19.2 98.748 19.2V20.38ZM102.382 34.36C101.555 34.36 100.929 34.2 100.502 33.88C100.062 33.56 99.842 33.1133 99.842 32.54V31.16H101.502V32.44C101.502 32.68 101.589 32.8667 101.762 33C101.922 33.1333 102.115 33.2 102.342 33.2C102.609 33.2 102.822 33.1333 102.982 33C103.129 32.8667 103.202 32.68 103.202 32.44V31.16H105.082V32.54C105.082 33.1133 104.855 33.56 104.402 33.88C103.935 34.2 103.262 34.36 102.382 34.36ZM110.124 25.12C109.471 25.12 108.984 24.9733 108.664 24.68C108.344 24.3867 108.184 23.9467 108.184 23.36C108.184 22.7733 108.338 22.34 108.644 22.06C108.951 21.78 109.378 21.64 109.924 21.64H110.184L109.664 22.24V17.1C109.664 16.86 109.611 16.6733 109.504 16.54C109.398 16.3933 109.238 16.2733 109.024 16.18C108.824 16.0867 108.584 16.0067 108.304 15.94V14.38C108.304 13.4867 108.724 13.04 109.564 13.04H109.964L111.084 13.74L110.684 13.8V12.26H112.484V14.06C112.484 14.34 112.404 14.5733 112.244 14.76C112.084 14.9333 111.844 15.02 111.524 15.02H111.284L110.484 14.7H110.384C110.171 14.7 110.064 14.82 110.064 15.06V15.38C110.611 15.5267 111.038 15.74 111.344 16.02C111.651 16.2867 111.804 16.6533 111.804 17.12V23.98C111.804 24.74 111.244 25.12 110.124 25.12ZM109.984 22.62C109.518 22.62 109.284 22.8733 109.284 23.38C109.284 23.8733 109.518 24.12 109.984 24.12V22.62ZM117.382 25.12C116.809 25.12 116.382 25.0267 116.102 24.84C115.836 24.6533 115.702 24.3667 115.702 23.98V16.88C115.702 16.5733 115.636 16.34 115.502 16.18C115.382 16.02 115.216 15.88 115.002 15.76V14.76C115.002 14.1867 115.142 13.76 115.422 13.48C115.702 13.1867 116.122 13.04 116.682 13.04H118.402V14.78H117.202C116.936 14.78 116.802 14.92 116.802 15.2V15.38C117.136 15.5267 117.389 15.7133 117.562 15.94C117.736 16.1667 117.822 16.4933 117.822 16.92V22.12L117.242 21.48H117.522C118.082 21.48 118.522 21.6267 118.842 21.92C119.162 22.2 119.322 22.6533 119.322 23.28C119.322 24.5067 118.676 25.12 117.382 25.12ZM117.562 24.12C118.016 24.12 118.242 23.8467 118.242 23.3C118.242 22.7533 118.016 22.48 117.562 22.48V24.12ZM127.069 25.2C126.376 25.2 125.783 25.0867 125.289 24.86C124.809 24.62 124.409 24.3 124.089 23.9C123.769 23.5 123.516 23.0533 123.329 22.56L123.829 21.5C123.923 21.7933 124.083 22.1067 124.309 22.44C124.549 22.7733 124.849 23.0533 125.209 23.28C125.583 23.4933 126.016 23.6 126.509 23.6C127.069 23.6 127.496 23.4733 127.789 23.22C128.096 22.9533 128.249 22.58 128.249 22.1V20.9C127.369 20.78 126.529 20.62 125.729 20.42C124.943 20.22 124.236 19.9533 123.609 19.62C122.996 19.2867 122.509 18.86 122.149 18.34C121.803 17.82 121.629 17.1733 121.629 16.4C121.629 15.2533 122.043 14.3733 122.869 13.76C123.709 13.1467 124.816 12.84 126.189 12.84C127.536 12.84 128.589 13.1133 129.349 13.66C130.109 14.1933 130.489 14.9267 130.489 15.86C130.489 16.58 130.256 17.14 129.789 17.54C129.336 17.94 128.736 18.14 127.989 18.14C127.723 18.14 127.483 18.12 127.269 18.08C127.069 18.0267 126.909 17.98 126.789 17.94V16.6C126.883 16.64 126.996 16.68 127.129 16.72C127.276 16.7467 127.416 16.76 127.549 16.76C127.803 16.76 128.003 16.6867 128.149 16.54C128.296 16.38 128.369 16.16 128.369 15.88C128.369 15.44 128.176 15.0933 127.789 14.84C127.403 14.5867 126.869 14.46 126.189 14.46C125.456 14.46 124.869 14.64 124.429 15C123.989 15.3467 123.769 15.8467 123.769 16.5C123.769 17.2333 124.043 17.7933 124.589 18.18C125.149 18.5667 125.923 18.8667 126.909 19.08C127.896 19.28 129.049 19.4667 130.369 19.64V22.3C130.369 23.22 130.076 23.9333 129.489 24.44C128.903 24.9467 128.096 25.2 127.069 25.2ZM121.869 25V20.98H123.909V23.02L123.769 25H121.869ZM135.383 17.16C134.703 17.16 134.15 16.9667 133.723 16.58C133.31 16.1933 133.103 15.6867 133.103 15.06C133.103 14.4333 133.31 13.9333 133.723 13.56C134.15 13.1733 134.703 12.98 135.383 12.98C136.05 12.98 136.59 13.1733 137.003 13.56C137.43 13.9333 137.643 14.4333 137.643 15.06C137.643 15.6867 137.43 16.1933 137.003 16.58C136.59 16.9667 136.05 17.16 135.383 17.16ZM135.383 15.92C135.61 15.92 135.79 15.8467 135.923 15.7C136.07 15.54 136.143 15.3267 136.143 15.06C136.143 14.8067 136.07 14.6067 135.923 14.46C135.79 14.3 135.61 14.22 135.383 14.22C135.143 14.22 134.957 14.3 134.823 14.46C134.69 14.6067 134.623 14.8067 134.623 15.06C134.623 15.3267 134.69 15.54 134.823 15.7C134.957 15.8467 135.143 15.92 135.383 15.92ZM135.383 25.08C134.703 25.08 134.15 24.8867 133.723 24.5C133.31 24.1133 133.103 23.6067 133.103 22.98C133.103 22.34 133.31 21.8333 133.723 21.46C134.15 21.0733 134.703 20.88 135.383 20.88C136.05 20.88 136.59 21.0733 137.003 21.46C137.43 21.8333 137.643 22.34 137.643 22.98C137.643 23.6067 137.43 24.1133 137.003 24.5C136.59 24.8867 136.05 25.08 135.383 25.08ZM135.383 23.82C135.61 23.82 135.79 23.7467 135.923 23.6C136.07 23.44 136.143 23.2333 136.143 22.98C136.143 22.7133 136.07 22.5067 135.923 22.36C135.79 22.2133 135.61 22.14 135.383 22.14C135.143 22.14 134.957 22.2133 134.823 22.36C134.69 22.5067 134.623 22.7133 134.623 22.98C134.623 23.2333 134.69 23.44 134.823 23.6C134.957 23.7467 135.143 23.82 135.383 23.82Z" fill="#F4ECC8"/>
</svg>
