<svg width="386" height="88" viewBox="0 0 386 88" fill="none" xmlns="http://www.w3.org/2000/svg">
<path d="M386 43.7131L384.461 42.6499C384.205 42.4828 383.674 41.9056 383.088 41.3892C380.707 39.0653 376.439 34.858 371.109 33.6733C371.153 33.3063 371.116 32.9357 371 32.5797C370.613 31.7973 370.038 31.0883 369.311 30.4956C368.584 29.9029 367.719 29.439 366.769 29.1319L364.406 26.6257C360.01 21.902 355.523 17.0872 349.607 14.7177L347.666 13.0925C344.105 9.87267 339.637 7.4355 334.662 5.99934L335.724 5.69559L331.823 4.04002C324.588 0.92632 319.148 0.182028 315.082 0.485803L315.76 -0.000202102L311.547 0.0909265L74.3977 0.0909058L70.1852 -0.00022357L70.8628 0.485782C66.8517 0.182006 61.3571 0.926297 54.1224 4.04L50.2212 5.69557L51.2835 5.99931C46.3082 7.43547 41.8401 9.87265 38.2795 13.0925L36.338 14.7177C30.4221 17.0872 25.9348 21.902 21.5391 26.6257L19.1764 29.1318C18.2263 29.4389 17.3614 29.9029 16.6341 30.4956C15.9068 31.0883 15.3324 31.7973 14.9455 32.5797C14.8632 32.941 14.8632 33.3119 14.9455 33.6733C9.56073 34.858 5.2932 39.0653 2.91218 41.3892C2.32608 41.9056 1.79493 42.4828 1.53851 42.6498L1.18059e-05 43.7131L1.48357 44.7915C1.97005 45.1896 2.42869 45.6105 2.85723 46.0521C5.23825 48.376 9.50578 52.5377 14.8906 53.768C14.8108 54.1296 14.8108 54.5001 14.8906 54.8616C15.2774 55.644 15.8519 56.353 16.5792 56.9457C17.3065 57.5384 18.1714 58.0024 19.1214 58.3095L21.4842 60.8156C25.8799 65.5393 30.3672 70.3086 36.2831 72.7236L38.2245 74.3488C41.7851 77.5687 46.2532 80.0058 51.2286 81.442L50.1662 81.7002L54.0675 83.4014C61.3021 86.5151 66.7968 87.2593 70.8079 86.9555L70.1302 87.396L74.3428 87.396L311.547 87.396L315.76 87.396L315.082 86.9555C319.148 87.2593 324.588 86.5151 331.823 83.4014L335.724 81.7002L334.662 81.442C339.637 80.0059 344.105 77.5687 347.666 74.3488L349.607 72.7237C355.523 70.3087 360.01 65.5393 364.406 60.8156L366.769 58.3095C367.719 58.0024 368.584 57.5384 369.311 56.9458C370.038 56.3531 370.613 55.644 371 54.8617C371.116 54.5057 371.153 54.1351 371.109 53.7681C376.439 52.5378 380.707 48.376 383.088 46.0521C383.516 45.6106 383.975 45.1897 384.461 44.7915L386 43.7131Z" fill="#324A0A"/>
<path d="M120.097 59.0891C118.95 59.0891 118.097 58.9025 117.537 58.5291C117.003 58.1558 116.737 57.5825 116.737 56.8091V42.6091C116.737 41.9958 116.603 41.5291 116.337 41.2091C116.097 40.8891 115.763 40.6091 115.337 40.3691V38.3691C115.337 37.2225 115.617 36.3691 116.177 35.8091C116.737 35.2225 117.577 34.9291 118.697 34.9291H122.137V38.4091H119.737C119.203 38.4091 118.937 38.6891 118.937 39.2491V39.6091C119.603 39.9025 120.11 40.2758 120.457 40.7291C120.803 41.1825 120.977 41.8358 120.977 42.6891V53.0891L119.817 51.8091H120.377C121.497 51.8091 122.377 52.1025 123.017 52.6891C123.657 53.2491 123.977 54.1558 123.977 55.4091C123.977 57.8625 122.683 59.0891 120.097 59.0891ZM120.457 57.0891C121.363 57.0891 121.817 56.5425 121.817 55.4491C121.817 54.3558 121.363 53.8091 120.457 53.8091V57.0891ZM138.151 59.2491C135.378 59.2491 133.218 58.5691 131.671 57.2091C130.124 55.8225 129.351 53.8891 129.351 51.4091V42.6091C129.351 41.9958 129.204 41.5425 128.911 41.2491C128.644 40.9291 128.258 40.6625 127.751 40.4491V38.3691C127.751 37.2225 128.031 36.3691 128.591 35.8091C129.178 35.2225 130.018 34.9291 131.111 34.9291H134.231V38.4091H132.151C131.644 38.4091 131.391 38.6891 131.391 39.2491V39.6091C132.111 39.9025 132.658 40.2758 133.031 40.7291C133.431 41.1825 133.631 41.8358 133.631 42.6891V51.4091C133.631 52.8491 134.031 53.9691 134.831 54.7691C135.631 55.5691 136.738 55.9691 138.151 55.9691C139.564 55.9691 140.671 55.5691 141.471 54.7691C142.271 53.9691 142.671 52.8491 142.671 51.4091V42.6091C142.671 41.9958 142.524 41.5425 142.231 41.2491C141.964 40.9291 141.578 40.6625 141.071 40.4491V38.3691C141.071 37.2225 141.351 36.3691 141.911 35.8091C142.498 35.2225 143.338 34.9291 144.431 34.9291H147.511V38.4091H145.471C144.938 38.4091 144.671 38.6891 144.671 39.2491V39.6091C145.418 39.9025 145.978 40.2758 146.351 40.7291C146.724 41.1825 146.911 41.8358 146.911 42.6891V51.4091C146.911 53.8891 146.138 55.8225 144.591 57.2091C143.071 58.5691 140.924 59.2491 138.151 59.2491ZM131.511 48.4091V45.3691H144.751V48.4091H131.511ZM135.226 32.0491C133.68 32.0491 132.506 31.7291 131.706 31.0891C130.88 30.4491 130.466 29.5425 130.466 28.3691C130.466 27.0358 130.96 25.9691 131.946 25.1691C132.933 24.3425 134.36 23.9291 136.226 23.9291C137.453 23.9291 138.533 24.1025 139.466 24.4491C140.373 24.7691 141.146 25.1958 141.786 25.7291C142.426 26.2358 142.933 26.7558 143.306 27.2891H143.466V23.4091H146.746V32.0491H135.226ZM135.906 29.8091H142.866C142.493 29.1958 141.973 28.6758 141.306 28.2491C140.64 27.7958 139.906 27.4491 139.106 27.2091C138.28 26.9425 137.493 26.8091 136.746 26.8091C135.893 26.8091 135.266 26.9558 134.866 27.2491C134.44 27.5425 134.226 27.9425 134.226 28.4491C134.226 28.8491 134.373 29.1825 134.666 29.4491C134.933 29.6891 135.346 29.8091 135.906 29.8091ZM175.867 59.2491C173.174 59.2491 171.081 58.5691 169.587 57.2091C168.121 55.8491 167.387 53.9425 167.387 51.4891V42.2491C167.387 40.8625 167.001 39.7825 166.227 39.0091C165.481 38.2091 164.427 37.8091 163.067 37.8091C161.707 37.8091 160.654 38.2091 159.907 39.0091C159.161 39.7825 158.787 40.8625 158.787 42.2491V53.3291L157.707 52.1291H158.307C159.427 52.1291 160.307 52.3958 160.947 52.9291C161.587 53.4625 161.907 54.3291 161.907 55.5291C161.907 56.7291 161.587 57.6225 160.947 58.2091C160.307 58.7958 159.307 59.0891 157.947 59.0891C156.801 59.0891 155.934 58.9025 155.347 58.5291C154.787 58.1558 154.507 57.5825 154.507 56.8091V42.2491C154.507 39.7958 155.254 37.9025 156.747 36.5691C158.267 35.2091 160.374 34.5291 163.067 34.5291C165.814 34.5291 167.934 35.2091 169.427 36.5691C170.921 37.9025 171.667 39.7958 171.667 42.2491V51.4891C171.667 52.9025 172.027 54.0091 172.747 54.8091C173.494 55.5825 174.534 55.9691 175.867 55.9691C177.201 55.9691 178.241 55.5825 178.987 54.8091C179.734 54.0091 180.107 52.9025 180.107 51.4891V42.6091C180.107 41.9958 179.961 41.5425 179.667 41.2491C179.401 40.9291 179.014 40.6625 178.507 40.4491V38.3691C178.507 37.2225 178.787 36.3691 179.347 35.8091C179.907 35.2225 180.747 34.9291 181.867 34.9291H184.947V38.4091H182.907C182.374 38.4091 182.107 38.6891 182.107 39.2491V39.6091C182.854 39.9025 183.414 40.2758 183.787 40.7291C184.161 41.1825 184.347 41.8358 184.347 42.6891V51.4891C184.347 53.9425 183.601 55.8491 182.107 57.2091C180.641 58.5691 178.561 59.2491 175.867 59.2491ZM158.347 57.0891C159.281 57.0891 159.747 56.5825 159.747 55.5691C159.747 54.5558 159.281 54.0491 158.347 54.0491V57.0891ZM200.729 59.2491C197.956 59.2491 195.796 58.5691 194.249 57.2091C192.702 55.8225 191.929 53.8891 191.929 51.4091V42.6091C191.929 41.9958 191.782 41.5425 191.489 41.2491C191.222 40.9291 190.836 40.6625 190.329 40.4491V38.3691C190.329 37.2225 190.609 36.3691 191.169 35.8091C191.756 35.2225 192.596 34.9291 193.689 34.9291H196.809V38.4091H194.729C194.222 38.4091 193.969 38.6891 193.969 39.2491V39.6091C194.689 39.9025 195.236 40.2758 195.609 40.7291C196.009 41.1825 196.209 41.8358 196.209 42.6891V51.4091C196.209 52.8491 196.609 53.9691 197.409 54.7691C198.209 55.5691 199.316 55.9691 200.729 55.9691C202.142 55.9691 203.249 55.5691 204.049 54.7691C204.849 53.9691 205.249 52.8491 205.249 51.4091V42.6091C205.249 41.9958 205.102 41.5425 204.809 41.2491C204.542 40.9291 204.156 40.6625 203.649 40.4491V38.3691C203.649 37.2225 203.929 36.3691 204.489 35.8091C205.076 35.2225 205.916 34.9291 207.009 34.9291H210.089V38.4091H208.049C207.516 38.4091 207.249 38.6891 207.249 39.2491V39.6091C207.996 39.9025 208.556 40.2758 208.929 40.7291C209.302 41.1825 209.489 41.8358 209.489 42.6891V51.4091C209.489 53.8891 208.716 55.8225 207.169 57.2091C205.649 58.5691 203.502 59.2491 200.729 59.2491ZM219.285 32.8491C218.032 32.8491 217.045 32.5691 216.325 32.0091C215.605 31.4225 215.245 30.6625 215.245 29.7291C215.245 29.2491 215.325 28.7825 215.485 28.3291H218.205C218.072 28.6491 218.005 28.9691 218.005 29.2891C218.005 29.6091 218.112 29.8625 218.325 30.0491C218.539 30.2358 218.819 30.3291 219.165 30.3291C219.645 30.3291 220.019 30.1558 220.285 29.8091C220.552 29.4625 220.685 28.9691 220.685 28.3291C220.685 27.5291 220.472 26.9158 220.045 26.4891C219.619 26.0625 218.925 25.8491 217.965 25.8491H215.725V22.8491H218.445C220.339 22.8491 221.712 23.3025 222.565 24.2091C223.445 25.0891 223.885 26.3425 223.885 27.9691C223.885 29.6225 223.472 30.8491 222.645 31.6491C221.819 32.4491 220.699 32.8491 219.285 32.8491ZM220.565 59.0891C219.419 59.0891 218.565 58.9025 218.005 58.5291C217.472 58.1558 217.205 57.5825 217.205 56.8091V42.6091C217.205 41.9958 217.072 41.5291 216.805 41.2091C216.565 40.8891 216.232 40.6091 215.805 40.3691V38.3691C215.805 37.2225 216.085 36.3691 216.645 35.8091C217.205 35.2225 218.045 34.9291 219.165 34.9291H222.605V38.4091H220.205C219.672 38.4091 219.405 38.6891 219.405 39.2491V39.6091C220.072 39.9025 220.579 40.2758 220.925 40.7291C221.272 41.1825 221.445 41.8358 221.445 42.6891V53.0891L220.285 51.8091H220.845C221.965 51.8091 222.845 52.1025 223.485 52.6891C224.125 53.2491 224.445 54.1558 224.445 55.4091C224.445 57.8625 223.152 59.0891 220.565 59.0891ZM220.925 57.0891C221.832 57.0891 222.285 56.5425 222.285 55.4491C222.285 54.3558 221.832 53.8091 220.925 53.8091V57.0891ZM239.94 59.2491C238.553 59.2491 237.366 59.0225 236.38 58.5691C235.42 58.0891 234.62 57.4491 233.98 56.6491C233.34 55.8491 232.833 54.9558 232.46 53.9691L233.46 51.8491C233.646 52.4358 233.966 53.0625 234.42 53.7291C234.9 54.3958 235.5 54.9558 236.22 55.4091C236.966 55.8358 237.833 56.0491 238.82 56.0491C239.94 56.0491 240.793 55.7958 241.38 55.2891C241.993 54.7558 242.3 54.0091 242.3 53.0491V50.6491C240.54 50.4091 238.86 50.0891 237.26 49.6891C235.686 49.2891 234.273 48.7558 233.02 48.0891C231.793 47.4225 230.82 46.5691 230.1 45.5291C229.406 44.4891 229.06 43.1958 229.06 41.6491C229.06 39.3558 229.886 37.5958 231.54 36.3691C233.22 35.1425 235.433 34.5291 238.18 34.5291C240.873 34.5291 242.98 35.0758 244.5 36.1691C246.02 37.2358 246.78 38.7025 246.78 40.5691C246.78 42.0091 246.313 43.1291 245.38 43.9291C244.473 44.7291 243.273 45.1291 241.78 45.1291C241.246 45.1291 240.766 45.0891 240.34 45.0091C239.94 44.9025 239.62 44.8091 239.38 44.7291V42.0491C239.566 42.1291 239.793 42.2091 240.06 42.2891C240.353 42.3425 240.633 42.3691 240.9 42.3691C241.406 42.3691 241.806 42.2225 242.1 41.9291C242.393 41.6091 242.54 41.1691 242.54 40.6091C242.54 39.7291 242.153 39.0358 241.38 38.5291C240.606 38.0225 239.54 37.7691 238.18 37.7691C236.713 37.7691 235.54 38.1291 234.66 38.8491C233.78 39.5425 233.34 40.5425 233.34 41.8491C233.34 43.3158 233.886 44.4358 234.98 45.2091C236.1 45.9825 237.646 46.5825 239.62 47.0091C241.593 47.4091 243.9 47.7825 246.54 48.1291V53.4491C246.54 55.2891 245.953 56.7158 244.78 57.7291C243.606 58.7425 241.993 59.2491 239.94 59.2491ZM229.54 58.8491V50.8091H233.62V54.8891L233.34 58.8491H229.54ZM234.718 69.4091C233.252 69.4091 232.078 69.0358 231.198 68.2891C230.318 67.5691 229.878 66.5558 229.878 65.2491C229.878 63.8891 230.332 62.7825 231.238 61.9291C232.145 61.1025 233.425 60.6891 235.078 60.6891C236.385 60.6891 237.452 60.8758 238.278 61.2491C239.105 61.6225 239.825 62.0758 240.438 62.6091C241.025 63.1691 241.572 63.7158 242.078 64.2491C242.558 64.8091 243.105 65.2758 243.718 65.6491C244.332 66.0225 245.078 66.2091 245.958 66.2091H246.358V69.1691H245.958C244.598 69.1691 243.492 68.9691 242.638 68.5691C241.785 68.1958 241.092 67.7291 240.558 67.1691C239.998 66.6091 239.505 66.0358 239.078 65.4491C238.625 64.8891 238.145 64.4225 237.638 64.0491C237.132 63.6758 236.505 63.4891 235.758 63.4891C235.172 63.4891 234.718 63.6491 234.398 63.9691C234.052 64.2891 233.878 64.7291 233.878 65.2891C233.878 65.7691 234.025 66.1691 234.318 66.4891C234.612 66.8091 235.012 66.9691 235.518 66.9691C235.678 66.9691 235.878 66.9425 236.118 66.8891C236.358 66.8358 236.585 66.7425 236.798 66.6091V69.0491C236.612 69.1291 236.358 69.2091 236.038 69.2891C235.692 69.3691 235.252 69.4091 234.718 69.4091ZM262.448 59.2491C259.675 59.2491 257.515 58.5691 255.968 57.2091C254.421 55.8225 253.648 53.8891 253.648 51.4091V42.6091C253.648 41.9958 253.501 41.5425 253.208 41.2491C252.941 40.9291 252.555 40.6625 252.048 40.4491V38.3691C252.048 37.2225 252.328 36.3691 252.888 35.8091C253.475 35.2225 254.315 34.9291 255.408 34.9291H258.528V38.4091H256.448C255.941 38.4091 255.688 38.6891 255.688 39.2491V39.6091C256.408 39.9025 256.955 40.2758 257.328 40.7291C257.728 41.1825 257.928 41.8358 257.928 42.6891V51.4091C257.928 52.8491 258.328 53.9691 259.128 54.7691C259.928 55.5691 261.035 55.9691 262.448 55.9691C263.861 55.9691 264.968 55.5691 265.768 54.7691C266.568 53.9691 266.968 52.8491 266.968 51.4091V42.6091C266.968 41.9958 266.821 41.5425 266.528 41.2491C266.261 40.9291 265.875 40.6625 265.368 40.4491V38.3691C265.368 37.2225 265.648 36.3691 266.208 35.8091C266.795 35.2225 267.635 34.9291 268.728 34.9291H271.808V38.4091H269.768C269.235 38.4091 268.968 38.6891 268.968 39.2491V39.6091C269.715 39.9025 270.275 40.2758 270.648 40.7291C271.021 41.1825 271.208 41.8358 271.208 42.6891V51.4091C271.208 53.8891 270.435 55.8225 268.888 57.2091C267.368 58.5691 265.221 59.2491 262.448 59.2491ZM255.808 48.4091V45.3691H269.048V48.4091H255.808Z" fill="#F4ECC8"/>
</svg>
