<svg width="386" height="88" viewBox="0 0 386 88" fill="none" xmlns="http://www.w3.org/2000/svg">
<path d="M386 43.7131L384.461 42.6499C384.205 42.4828 383.674 41.9056 383.088 41.3892C380.707 39.0653 376.439 34.858 371.109 33.6733C371.153 33.3063 371.116 32.9357 371 32.5797C370.613 31.7973 370.038 31.0883 369.311 30.4956C368.584 29.9029 367.719 29.439 366.769 29.1319L364.406 26.6257C360.01 21.902 355.523 17.0872 349.607 14.7177L347.666 13.0925C344.105 9.87268 339.637 7.4355 334.662 5.99934L335.724 5.69559L331.823 4.04002C324.588 0.926318 319.148 0.182032 315.082 0.485803L315.76 -0.000204505L311.547 0.0909282L74.3977 0.0909075L70.1852 -0.000225974L70.8628 0.485782C66.8518 0.182009 61.3571 0.926295 54.1224 4.03999L50.2212 5.69557L51.2835 5.99931C46.3082 7.43547 41.8401 9.87265 38.2795 13.0925L36.338 14.7177C30.4221 17.0872 25.9349 21.902 21.5391 26.6257L19.1764 29.1318C18.2264 29.4389 17.3614 29.9029 16.6341 30.4956C15.9068 31.0883 15.3324 31.7973 14.9455 32.5797C14.8632 32.941 14.8632 33.3119 14.9455 33.6733C9.56073 34.858 5.29319 39.0653 2.91217 41.3892C2.32608 41.9056 1.79493 42.4828 1.53852 42.6498L3.81888e-06 43.7131L1.48355 44.7915C1.97007 45.1896 2.42868 45.6105 2.85724 46.0521C5.23825 48.376 9.50577 52.5377 14.8906 53.768C14.8108 54.1296 14.8108 54.5001 14.8906 54.8616C15.2774 55.644 15.8519 56.353 16.5792 56.9457C17.3065 57.5384 18.1714 58.0024 19.1214 58.3095L21.4842 60.8156C25.8799 65.5393 30.3672 70.3086 36.2831 72.7236L38.2245 74.3488C41.7851 77.5687 46.2532 80.0058 51.2286 81.442L50.1662 81.7002L54.0675 83.4014C61.3021 86.5151 66.7968 87.2593 70.8079 86.9555L70.1302 87.396L74.3428 87.396L311.547 87.396L315.76 87.396L315.082 86.9555C319.148 87.2593 324.588 86.5151 331.823 83.4014L335.724 81.7002L334.662 81.442C339.637 80.0059 344.105 77.5687 347.666 74.3488L349.607 72.7237C355.523 70.3087 360.01 65.5393 364.406 60.8156L366.769 58.3095C367.719 58.0024 368.584 57.5384 369.311 56.9458C370.038 56.3531 370.613 55.644 371 54.8617C371.116 54.5057 371.153 54.1351 371.109 53.7681C376.439 52.5378 380.707 48.376 383.088 46.0521C383.516 45.6105 383.975 45.1897 384.461 44.7915L386 43.7131Z" fill="#324A0A"/>
<path d="M119.413 32.4491L109.933 58.8491H104.893L95.3735 32.4491H99.9735L105.933 50.2491L107.453 55.2491L108.933 50.2491L114.893 32.4491H119.413ZM127.72 38.8491V58.8491H123.4V38.8491H127.72ZM125.68 35.5691C124.72 35.5691 123.974 35.3425 123.44 34.8891C122.934 34.4091 122.68 33.7291 122.68 32.8491C122.68 31.9691 122.934 31.3025 123.44 30.8491C123.974 30.3691 124.72 30.1291 125.68 30.1291C126.64 30.1291 127.374 30.3691 127.88 30.8491C128.387 31.3025 128.64 31.9691 128.64 32.8491C128.64 33.7291 128.387 34.4091 127.88 34.8891C127.374 35.3425 126.64 35.5691 125.68 35.5691ZM142.663 59.2491C140.716 59.2491 139.009 58.8358 137.543 58.0091C136.076 57.1825 134.929 55.9958 134.103 54.4491C133.276 52.8758 132.863 51.0091 132.863 48.8491C132.863 46.6625 133.263 44.7958 134.063 43.2491C134.889 41.7025 136.023 40.5158 137.463 39.6891C138.929 38.8625 140.583 38.4491 142.423 38.4491C144.316 38.4491 145.929 38.8491 147.263 39.6491C148.596 40.4491 149.609 41.5558 150.303 42.9691C151.023 44.3558 151.383 45.9558 151.383 47.7691C151.383 48.2225 151.369 48.6358 151.343 49.0091C151.316 49.3825 151.289 49.7025 151.263 49.9691H135.663V47.0091H149.343L147.223 47.6491C147.223 46.3958 147.023 45.3425 146.623 44.4891C146.249 43.6091 145.703 42.9425 144.983 42.4891C144.263 42.0358 143.409 41.8091 142.423 41.8091C141.303 41.8091 140.329 42.0891 139.503 42.6491C138.703 43.1825 138.089 43.9825 137.663 45.0491C137.236 46.0891 137.023 47.3691 137.023 48.8891C137.023 50.4091 137.249 51.6891 137.703 52.7291C138.156 53.7691 138.809 54.5558 139.663 55.0891C140.516 55.6225 141.516 55.8891 142.663 55.8891C143.889 55.8891 144.903 55.6358 145.703 55.1291C146.503 54.5958 147.129 53.8758 147.583 52.9691L151.023 54.4891C150.569 55.4758 149.929 56.3291 149.103 57.0491C148.303 57.7691 147.356 58.3158 146.263 58.6891C145.169 59.0625 143.969 59.2491 142.663 59.2491ZM181.136 38.8491H185.776L179.296 58.8491H174.456L169.576 44.0091L164.896 58.8491H160.096L153.616 38.8491H158.256L162.656 54.8091L167.536 38.8491H171.856L176.696 54.8091L181.136 38.8491ZM228.645 32.4491V58.8491H224.685V43.3691L224.965 36.3691H224.885L217.165 58.8491H213.565L205.805 36.3691H205.765L206.045 43.3691V58.8491H202.085V32.4491H208.445L213.765 48.2091L215.405 54.0091H215.485L217.125 48.2491L222.405 32.4491H228.645ZM243.793 38.4491C245.687 38.4491 247.353 38.8625 248.793 39.6891C250.26 40.5158 251.407 41.7158 252.233 43.2891C253.087 44.8358 253.513 46.6891 253.513 48.8491C253.513 51.0091 253.087 52.8758 252.233 54.4491C251.407 55.9958 250.26 57.1825 248.793 58.0091C247.353 58.8358 245.687 59.2491 243.793 59.2491C241.9 59.2491 240.22 58.8358 238.753 58.0091C237.287 57.1825 236.14 55.9958 235.313 54.4491C234.487 52.8758 234.073 51.0091 234.073 48.8491C234.073 46.6891 234.487 44.8358 235.313 43.2891C236.14 41.7158 237.287 40.5158 238.753 39.6891C240.22 38.8625 241.9 38.4491 243.793 38.4491ZM243.793 41.8091C242.673 41.8091 241.713 42.0891 240.913 42.6491C240.113 43.1825 239.487 43.9691 239.033 45.0091C238.607 46.0491 238.393 47.3291 238.393 48.8491C238.393 50.3691 238.607 51.6491 239.033 52.6891C239.487 53.7291 240.113 54.5291 240.913 55.0891C241.713 55.6225 242.673 55.8891 243.793 55.8891C244.913 55.8891 245.873 55.6225 246.673 55.0891C247.473 54.5291 248.087 53.7291 248.513 52.6891C248.967 51.6225 249.193 50.3425 249.193 48.8491C249.193 47.3291 248.967 46.0491 248.513 45.0091C248.087 43.9691 247.473 43.1825 246.673 42.6491C245.873 42.0891 244.913 41.8091 243.793 41.8091ZM258.713 58.8491V38.8491H262.433L262.753 42.6491C263.233 41.3158 263.966 40.2891 264.953 39.5691C265.966 38.8225 267.193 38.4491 268.633 38.4491C269.06 38.4491 269.446 38.4891 269.793 38.5691C270.166 38.6225 270.486 38.7425 270.753 38.9291L270.193 42.6091C269.953 42.5025 269.646 42.4225 269.273 42.3691C268.926 42.2891 268.446 42.2491 267.833 42.2491C267.06 42.2491 266.3 42.4758 265.553 42.9291C264.806 43.3825 264.193 44.0625 263.713 44.9691C263.26 45.8491 263.033 46.9425 263.033 48.2491V58.8491H258.713ZM282.545 59.2491C280.599 59.2491 278.892 58.8358 277.425 58.0091C275.959 57.1825 274.812 55.9958 273.985 54.4491C273.159 52.8758 272.745 51.0091 272.745 48.8491C272.745 46.6625 273.145 44.7958 273.945 43.2491C274.772 41.7025 275.905 40.5158 277.345 39.6891C278.812 38.8625 280.465 38.4491 282.305 38.4491C284.199 38.4491 285.812 38.8491 287.145 39.6491C288.479 40.4491 289.492 41.5558 290.185 42.9691C290.905 44.3558 291.265 45.9558 291.265 47.7691C291.265 48.2225 291.252 48.6358 291.225 49.0091C291.199 49.3825 291.172 49.7025 291.145 49.9691H275.545V47.0091H289.225L287.105 47.6491C287.105 46.3958 286.905 45.3425 286.505 44.4891C286.132 43.6091 285.585 42.9425 284.865 42.4891C284.145 42.0358 283.292 41.8091 282.305 41.8091C281.185 41.8091 280.212 42.0891 279.385 42.6491C278.585 43.1825 277.972 43.9825 277.545 45.0491C277.119 46.0891 276.905 47.3691 276.905 48.8891C276.905 50.4091 277.132 51.6891 277.585 52.7291C278.039 53.7691 278.692 54.5558 279.545 55.0891C280.399 55.6225 281.399 55.8891 282.545 55.8891C283.772 55.8891 284.785 55.6358 285.585 55.1291C286.385 54.5958 287.012 53.8758 287.465 52.9691L290.905 54.4891C290.452 55.4758 289.812 56.3291 288.985 57.0491C288.185 57.7691 287.239 58.3158 286.145 58.6891C285.052 59.0625 283.852 59.2491 282.545 59.2491Z" fill="#F4ECC8"/>
</svg>
