<svg width="250" height="250" viewBox="0 0 250 250" fill="none" xmlns="http://www.w3.org/2000/svg">
<circle cx="124.822" cy="124.822" r="124.822" fill="#349440"/>
<path d="M87.541 187.28C87.541 186.84 87.401 186.5 87.121 186.26C86.841 186.007 86.4677 185.88 86.001 185.88C85.5477 185.88 85.1743 186.007 84.881 186.26C84.601 186.5 84.461 186.84 84.461 187.28V189.24L83.641 188.48H83.901C84.5677 188.48 85.061 188.627 85.381 188.92C85.7143 189.213 85.881 189.66 85.881 190.26C85.881 190.873 85.6877 191.34 85.301 191.66C84.9277 191.967 84.321 192.12 83.481 192.12C82.6543 192.12 82.041 192.007 81.641 191.78C81.2543 191.553 81.061 191.213 81.061 190.76V187.28C81.061 186.067 81.501 185.133 82.381 184.48C83.261 183.813 84.4677 183.48 86.001 183.48C87.5477 183.48 88.7543 183.813 89.621 184.48C90.501 185.133 90.941 186.067 90.941 187.28V192H87.541V187.28ZM83.981 191C84.4077 191 84.621 190.767 84.621 190.3C84.621 189.833 84.4077 189.6 83.981 189.6V191ZM80.981 182.44V179.88H91.021V182.44H80.981ZM95.5507 179.32C94.804 179.32 94.244 179.18 93.8707 178.9C93.5107 178.607 93.3307 178.213 93.3307 177.72C93.3307 177.6 93.3374 177.48 93.3507 177.36C93.3774 177.227 93.4107 177.107 93.4507 177H95.0907C95.064 177.067 95.044 177.14 95.0307 177.22C95.0174 177.287 95.0107 177.34 95.0107 177.38C95.0107 177.513 95.0574 177.613 95.1507 177.68C95.244 177.733 95.344 177.76 95.4507 177.76C95.6107 177.76 95.7307 177.7 95.8107 177.58C95.904 177.447 95.9507 177.273 95.9507 177.06C95.9507 176.78 95.884 176.56 95.7507 176.4C95.6174 176.24 95.364 176.16 94.9907 176.16H93.3507L92.7907 173.6H95.0307L95.2707 174.6H95.5107C96.4707 174.6 97.1507 174.813 97.5507 175.24C97.9507 175.667 98.1507 176.253 98.1507 177C98.1507 177.853 97.904 178.453 97.4107 178.8C96.9307 179.147 96.3107 179.32 95.5507 179.32ZM96.3707 192.12C95.584 192.12 95.004 192.007 94.6307 191.78C94.2574 191.553 94.0707 191.213 94.0707 190.76V184.64C94.0707 184.293 93.9907 184.04 93.8307 183.88C93.684 183.707 93.4707 183.58 93.1907 183.5V182.04C93.1907 181.333 93.364 180.8 93.7107 180.44C94.0574 180.067 94.5707 179.88 95.2507 179.88H97.6307V182.44H96.3907C96.1507 182.44 96.0307 182.573 96.0307 182.84V183.04C96.5374 183.2 96.904 183.407 97.1307 183.66C97.3574 183.9 97.4707 184.253 97.4707 184.72V189.24L96.4907 188.48H96.7507C97.404 188.48 97.8907 188.627 98.2107 188.92C98.544 189.213 98.7107 189.66 98.7107 190.26C98.7107 191.5 97.9307 192.12 96.3707 192.12ZM96.8307 191C97.2574 191 97.4707 190.767 97.4707 190.3C97.4707 189.833 97.2574 189.6 96.8307 189.6V191ZM105.609 192.2C104.076 192.2 102.876 191.873 102.009 191.22C101.143 190.553 100.709 189.613 100.709 188.4V184.64C100.709 184.293 100.649 184.04 100.529 183.88C100.423 183.707 100.269 183.58 100.069 183.5V182.04C100.069 181.333 100.243 180.8 100.589 180.44C100.936 180.067 101.449 179.88 102.129 179.88H104.229V182.44H103.269C103.029 182.44 102.909 182.573 102.909 182.84V183.04C103.336 183.2 103.643 183.407 103.829 183.66C104.016 183.9 104.109 184.253 104.109 184.72V188.4C104.109 188.84 104.243 189.187 104.509 189.44C104.789 189.68 105.156 189.8 105.609 189.8C106.076 189.8 106.443 189.68 106.709 189.44C106.976 189.187 107.109 188.84 107.109 188.4V184.64C107.109 184.293 107.049 184.04 106.929 183.88C106.823 183.707 106.669 183.58 106.469 183.5V182.04C106.469 181.333 106.643 180.8 106.989 180.44C107.336 180.067 107.849 179.88 108.529 179.88H110.629V182.44H109.669C109.429 182.44 109.309 182.573 109.309 182.84V183.04C109.736 183.2 110.043 183.407 110.229 183.66C110.416 183.9 110.509 184.253 110.509 184.72V188.4C110.509 189.613 110.076 190.553 109.209 191.22C108.356 191.873 107.156 192.2 105.609 192.2ZM102.269 187.34V185.14H108.949V187.34H102.269ZM103.441 197.28C102.654 197.28 102.034 197.08 101.581 196.68C101.114 196.28 100.881 195.733 100.881 195.04C100.881 194.333 101.121 193.78 101.601 193.38C102.081 192.993 102.728 192.8 103.541 192.8C104.128 192.8 104.594 192.873 104.941 193.02C105.274 193.18 105.548 193.387 105.761 193.64C105.961 193.893 106.148 194.18 106.321 194.5C106.454 194.74 106.561 194.913 106.641 195.02C106.708 195.14 106.781 195.2 106.861 195.2C106.941 195.2 107.008 195.133 107.061 195C107.101 194.88 107.148 194.647 107.201 194.3C107.254 193.953 107.314 193.453 107.381 192.8L110.281 193.12C110.108 194.2 109.921 195.04 109.721 195.64C109.521 196.24 109.274 196.66 108.981 196.9C108.674 197.153 108.261 197.28 107.741 197.28C107.288 197.28 106.914 197.193 106.621 197.02C106.314 196.86 106.061 196.64 105.861 196.36C105.648 196.08 105.441 195.773 105.241 195.44C105.094 195.187 104.954 194.98 104.821 194.82C104.688 194.673 104.528 194.6 104.341 194.6C104.194 194.6 104.074 194.647 103.981 194.74C103.888 194.833 103.841 194.967 103.841 195.14C103.841 195.313 103.888 195.46 103.981 195.58C104.061 195.7 104.168 195.76 104.301 195.76C104.354 195.76 104.428 195.747 104.521 195.72C104.601 195.707 104.688 195.673 104.781 195.62V197.1C104.648 197.14 104.461 197.18 104.221 197.22C103.981 197.26 103.721 197.28 103.441 197.28ZM124.741 192.2C123.208 192.2 122.015 191.873 121.161 191.22C120.321 190.553 119.901 189.613 119.901 188.4V186.96C119.901 186.547 119.768 186.227 119.501 186C119.235 185.76 118.875 185.64 118.421 185.64C117.968 185.64 117.608 185.76 117.341 186C117.075 186.227 116.941 186.547 116.941 186.96V189.24L116.121 188.48H116.381C117.048 188.48 117.541 188.627 117.861 188.92C118.195 189.213 118.361 189.66 118.361 190.26C118.361 190.873 118.168 191.34 117.781 191.66C117.408 191.967 116.801 192.12 115.961 192.12C115.135 192.12 114.521 192.007 114.121 191.78C113.735 191.553 113.541 191.213 113.541 190.76V186.96C113.541 185.787 113.968 184.88 114.821 184.24C115.688 183.6 116.888 183.28 118.421 183.28C119.955 183.28 121.148 183.6 122.001 184.24C122.868 184.88 123.301 185.787 123.301 186.96V188.4C123.301 188.84 123.428 189.187 123.681 189.44C123.935 189.68 124.288 189.8 124.741 189.8C125.195 189.8 125.548 189.68 125.801 189.44C126.055 189.187 126.181 188.84 126.181 188.4V184.64C126.181 184.293 126.121 184.04 126.001 183.88C125.895 183.707 125.741 183.58 125.541 183.5V182.04C125.541 181.333 125.715 180.8 126.061 180.44C126.408 180.067 126.921 179.88 127.601 179.88H129.701V182.44H128.741C128.501 182.44 128.381 182.573 128.381 182.84V183.04C128.808 183.2 129.115 183.407 129.301 183.66C129.488 183.9 129.581 184.253 129.581 184.72V188.4C129.581 189.613 129.155 190.553 128.301 191.22C127.461 191.873 126.275 192.2 124.741 192.2ZM116.461 191C116.888 191 117.101 190.767 117.101 190.3C117.101 189.833 116.888 189.6 116.461 189.6V191ZM116.161 185.18L114.161 183.3V182.04C114.161 181.333 114.335 180.8 114.681 180.44C115.041 180.067 115.568 179.88 116.261 179.88H122.081V182.44H117.381C117.275 182.44 117.181 182.473 117.101 182.54C117.035 182.607 117.001 182.707 117.001 182.84V183.04L118.241 184.16L116.161 185.18ZM137.524 192.2C135.99 192.2 134.79 191.873 133.924 191.22C133.057 190.553 132.624 189.613 132.624 188.4V184.64C132.624 184.293 132.564 184.04 132.444 183.88C132.337 183.707 132.184 183.58 131.984 183.5V182.04C131.984 181.333 132.157 180.8 132.504 180.44C132.85 180.067 133.364 179.88 134.044 179.88H136.144V182.44H135.184C134.944 182.44 134.824 182.573 134.824 182.84V183.04C135.25 183.2 135.557 183.407 135.744 183.66C135.93 183.9 136.024 184.253 136.024 184.72V188.4C136.024 188.84 136.157 189.187 136.424 189.44C136.704 189.68 137.07 189.8 137.524 189.8C137.99 189.8 138.357 189.68 138.624 189.44C138.89 189.187 139.024 188.84 139.024 188.4V184.64C139.024 184.293 138.964 184.04 138.844 183.88C138.737 183.707 138.584 183.58 138.384 183.5V182.04C138.384 181.333 138.557 180.8 138.904 180.44C139.25 180.067 139.764 179.88 140.444 179.88H142.544V182.44H141.584C141.344 182.44 141.224 182.573 141.224 182.84V183.04C141.65 183.2 141.957 183.407 142.144 183.66C142.33 183.9 142.424 184.253 142.424 184.72V188.4C142.424 189.613 141.99 190.553 141.124 191.22C140.27 191.873 139.07 192.2 137.524 192.2ZM134.184 187.34V185.14H140.864V187.34H134.184ZM147.136 192.12C146.282 192.12 145.662 191.967 145.276 191.66C144.889 191.34 144.696 190.873 144.696 190.26C144.696 189.66 144.856 189.213 145.176 188.92C145.509 188.627 146.002 188.48 146.656 188.48H146.916L146.136 189.24V184.64C146.136 184.293 146.056 184.04 145.896 183.88C145.749 183.707 145.536 183.58 145.256 183.5V182.04C145.256 181.333 145.429 180.8 145.776 180.44C146.122 180.067 146.636 179.88 147.316 179.88H149.696V182.44H148.456C148.216 182.44 148.096 182.573 148.096 182.84V183.04C148.602 183.2 148.969 183.407 149.196 183.66C149.422 183.9 149.536 184.253 149.536 184.72V190.76C149.536 191.667 148.736 192.12 147.136 192.12ZM146.776 189.6C146.349 189.6 146.136 189.833 146.136 190.3C146.136 190.767 146.349 191 146.776 191V189.6ZM157.602 192.2C156.068 192.2 154.868 191.873 154.002 191.22C153.135 190.553 152.702 189.613 152.702 188.4V184.64C152.702 184.293 152.642 184.04 152.522 183.88C152.415 183.707 152.262 183.58 152.062 183.5V182.04C152.062 181.333 152.235 180.8 152.582 180.44C152.928 180.067 153.442 179.88 154.122 179.88H156.222V182.44H155.262C155.022 182.44 154.902 182.573 154.902 182.84V183.04C155.328 183.2 155.635 183.407 155.822 183.66C156.008 183.9 156.102 184.253 156.102 184.72V188.4C156.102 188.84 156.235 189.187 156.502 189.44C156.782 189.68 157.148 189.8 157.602 189.8C158.068 189.8 158.435 189.68 158.702 189.44C158.968 189.187 159.102 188.84 159.102 188.4V184.64C159.102 184.293 159.042 184.04 158.922 183.88C158.815 183.707 158.662 183.58 158.462 183.5V182.04C158.462 181.333 158.635 180.8 158.982 180.44C159.328 180.067 159.842 179.88 160.522 179.88H162.622V182.44H161.662C161.422 182.44 161.302 182.573 161.302 182.84V183.04C161.728 183.2 162.035 183.407 162.222 183.66C162.408 183.9 162.502 184.253 162.502 184.72V188.4C162.502 189.613 162.068 190.553 161.202 191.22C160.348 191.873 159.148 192.2 157.602 192.2ZM154.262 187.34V185.14H160.942V187.34H154.262ZM164.014 197.36C162.454 197.36 161.247 197.027 160.394 196.36C159.527 195.707 159.094 194.773 159.094 193.56V193H162.494V193.56C162.494 194 162.627 194.34 162.894 194.58C163.16 194.833 163.534 194.96 164.014 194.96C164.494 194.96 164.867 194.833 165.134 194.58C165.4 194.34 165.534 194 165.534 193.56V184.64C165.534 184.293 165.474 184.04 165.354 183.88C165.247 183.707 165.094 183.58 164.894 183.5V182.04C164.894 181.333 165.067 180.8 165.414 180.44C165.76 180.067 166.274 179.88 166.954 179.88H169.054V182.44H168.094C167.854 182.44 167.734 182.573 167.734 182.84V183.04C168.16 183.2 168.467 183.407 168.654 183.66C168.84 183.9 168.934 184.253 168.934 184.72V193.56C168.934 194.773 168.5 195.707 167.634 196.36C166.78 197.027 165.574 197.36 164.014 197.36Z" fill="white"/>
<path d="M158.204 76.5067C158.502 77.3482 159.052 78.0772 159.779 78.5939C160.507 79.1107 161.377 79.3901 162.269 79.3938H168.043C169.192 79.3938 170.293 78.9375 171.105 78.1254C171.917 77.3132 172.374 76.2117 172.374 75.0632V47.6362C172.374 46.4877 171.917 45.3862 171.105 44.5741C170.293 43.7619 169.192 43.3057 168.043 43.3057H162.269C161.377 43.3094 160.507 43.5887 159.779 44.1055C159.052 44.6223 158.502 45.3513 158.204 46.1927H128.244C126.38 46.1912 124.552 46.7037 122.96 47.6738L99.6562 61.8737C98.7482 62.4215 98.0448 63.2517 97.6536 64.2373C97.2623 65.2228 97.2049 66.3095 97.49 67.3308C97.7751 68.3521 98.387 69.2519 99.2321 69.8924C100.077 70.5328 101.109 70.8787 102.169 70.877C103.482 70.877 104.063 70.4439 107.822 69.2487C104.717 73.0451 102.689 77.6055 101.948 82.4535C101.207 87.3016 101.782 92.2596 103.611 96.8099C102.388 96.7047 101.159 96.6734 99.9319 96.7161C99.6344 95.8746 99.0842 95.1457 98.3566 94.6289C97.629 94.1121 96.7594 93.8327 95.8669 93.829H90.0928C88.9443 93.829 87.8428 94.2853 87.0307 95.0974C86.2185 95.9096 85.7623 97.0111 85.7623 98.1596V125.587C85.7623 126.735 86.2185 127.837 87.0307 128.649C87.8428 129.461 88.9443 129.917 90.0928 129.917H95.8669C96.7594 129.913 97.629 129.634 98.3566 129.117C99.0842 128.601 99.6344 127.872 99.9319 127.03H129.891C131.755 127.032 133.583 126.519 135.174 125.549L158.478 111.349C159.502 110.733 160.263 109.761 160.614 108.619C160.966 107.476 160.883 106.245 160.382 105.16C159.881 104.075 158.997 103.213 157.9 102.739C156.803 102.266 155.57 102.214 154.437 102.594L150.317 103.971C153.421 100.175 155.449 95.6145 156.189 90.7668C156.93 85.9191 156.355 80.9615 154.526 76.4115C155.749 76.5164 156.977 76.5482 158.204 76.5067ZM162.269 46.1927H168.043C168.426 46.1927 168.793 46.3448 169.064 46.6155C169.335 46.8862 169.487 47.2534 169.487 47.6362V75.0632C169.487 75.4461 169.335 75.8132 169.064 76.0839C168.793 76.3546 168.426 76.5067 168.043 76.5067H162.269C161.886 76.5067 161.519 76.3546 161.248 76.0839C160.978 75.8132 160.826 75.4461 160.826 75.0632V47.6362C160.826 47.2534 160.978 46.8862 161.248 46.6155C161.519 46.3448 161.886 46.1927 162.269 46.1927ZM102.786 67.8903C102.328 68.0401 101.83 68.0163 101.389 67.8236C100.947 67.6309 100.591 67.2826 100.389 66.8449C100.188 66.4072 100.154 65.9106 100.294 65.4495C100.434 64.9883 100.739 64.5948 101.15 64.3436L124.465 50.1379C125.603 49.4439 126.911 49.0777 128.244 49.0798H157.939V73.6197H156.032C149.374 73.6197 147.89 67.8456 140.99 67.8456H134.076C130.955 67.8456 127.801 64.4981 129.712 62.0715H140.124C142.988 62.0382 145.765 61.0824 148.043 59.3461C148.362 59.1334 148.583 58.8029 148.658 58.4273C148.732 58.0517 148.655 57.6617 148.442 57.3432C148.23 57.0247 147.899 56.8037 147.523 56.7288C147.148 56.654 146.758 56.7314 146.439 56.9441C144.637 58.364 142.418 59.1513 140.124 59.1844H129.543C129.075 59.2018 128.611 59.2754 128.161 59.4039L102.786 67.8903ZM95.8669 127.03H90.0928C89.71 127.03 89.3428 126.878 89.0721 126.607C88.8014 126.337 88.6493 125.969 88.6493 125.587V98.1596C88.6493 97.7768 88.8014 97.4096 89.0721 97.1389C89.3428 96.8682 89.71 96.7161 90.0928 96.7161H95.8669C96.2498 96.7161 96.617 96.8682 96.8877 97.1389C97.1584 97.4096 97.3105 97.7768 97.3105 98.1596V125.587C97.3105 125.969 97.1584 126.337 96.8877 126.607C96.617 126.878 96.2498 127.03 95.8669 127.03ZM155.349 105.332C155.807 105.183 156.304 105.206 156.746 105.399C157.188 105.592 157.543 105.94 157.745 106.378C157.947 106.816 157.981 107.312 157.841 107.773C157.7 108.234 157.396 108.628 156.984 108.879L133.671 123.085C132.533 123.779 131.224 124.145 129.891 124.143H100.198V99.6031H102.103C108.759 99.6031 110.242 105.377 117.144 105.377H124.059C127.174 105.377 130.334 108.725 128.423 111.151H118.011C115.147 111.184 112.37 112.14 110.093 113.878C109.785 114.095 109.573 114.423 109.504 114.794C109.435 115.164 109.513 115.547 109.722 115.86C109.932 116.174 110.255 116.393 110.624 116.471C110.992 116.549 111.377 116.48 111.695 116.279C113.497 114.859 115.717 114.072 118.011 114.038H128.592C129.059 114.021 129.523 113.947 129.973 113.819L155.349 105.332ZM143.981 106.09L131.89 110.132C132.304 106.668 128.804 102.482 124.059 102.482H117.144C113 102.482 110.624 99.1195 107.191 97.7179C104.585 92.61 103.855 86.7493 105.127 81.1579C106.4 75.5665 109.595 70.5992 114.155 67.1224L126.244 63.0805C125.83 66.545 129.332 70.7312 134.076 70.7312H140.99C145.263 70.7312 147.228 73.9791 150.95 75.4948C153.556 80.6033 154.286 86.4645 153.012 92.056C151.739 97.6475 148.542 102.614 143.981 106.09Z" fill="url(#paint0_linear_2052_53)"/>
<path d="M122.317 66.9965C122.196 66.6336 121.935 66.3339 121.592 66.1634C121.249 65.9928 120.853 65.9654 120.49 66.0871C117.663 67.0347 115.063 68.5557 112.852 70.5549C110.64 72.5541 108.866 74.9884 107.639 77.7053C106.412 80.4222 105.759 83.3632 105.721 86.344C105.684 89.3249 106.262 92.2814 107.42 95.0283C107.57 95.3808 107.854 95.6593 108.209 95.8026C108.564 95.9459 108.961 95.9424 109.313 95.7927C109.666 95.643 109.944 95.3594 110.088 95.0044C110.231 94.6494 110.227 94.2519 110.078 93.8995C109.075 91.5191 108.575 88.9575 108.608 86.3748C108.641 83.7922 109.207 81.2442 110.271 78.8904C111.334 76.5366 112.872 74.4276 114.788 72.6955C116.703 70.9633 118.956 69.6453 121.405 68.824C121.585 68.764 121.751 68.6691 121.895 68.5448C122.038 68.4205 122.155 68.2691 122.24 68.0994C122.325 67.9297 122.375 67.7449 122.389 67.5557C122.402 67.3664 122.378 67.1764 122.317 66.9965Z" fill="url(#paint1_linear_2052_53)"/>
<path d="M144.662 79.323C145.664 81.7034 146.165 84.2651 146.131 86.8477C146.098 89.4303 145.532 91.9783 144.469 94.3321C143.406 96.686 141.868 98.795 139.952 100.527C138.036 102.259 135.783 103.577 133.334 104.398C132.971 104.52 132.67 104.781 132.499 105.125C132.328 105.468 132.3 105.865 132.422 106.229C132.544 106.593 132.805 106.893 133.148 107.064C133.492 107.235 133.889 107.263 134.253 107.141C137.079 106.193 139.68 104.672 141.892 102.672C144.103 100.673 145.878 98.2376 147.105 95.5201C148.332 92.8025 148.984 89.8609 149.021 86.8795C149.058 83.8981 148.478 80.9413 147.319 78.1942C147.17 77.8418 146.886 77.5633 146.531 77.4199C146.176 77.2766 145.779 77.2802 145.426 77.4298C145.074 77.5795 144.795 77.8631 144.652 78.2181C144.509 78.5732 144.512 78.9706 144.662 79.323Z" fill="url(#paint2_linear_2052_53)"/>
<path d="M136.031 91.6639C136.031 88.3914 132.958 85.7642 128.813 85.2618V78.0846C131.267 78.4989 133.144 79.915 133.144 81.5592C133.144 81.942 133.296 82.3092 133.567 82.5799C133.837 82.8506 134.205 83.0027 134.587 83.0027C134.97 83.0027 135.337 82.8506 135.608 82.5799C135.879 82.3092 136.031 81.942 136.031 81.5592C136.031 78.2867 132.958 75.6595 128.813 75.1571V73.6198C128.813 73.2369 128.661 72.8698 128.391 72.5991C128.12 72.3284 127.753 72.1763 127.37 72.1763C126.987 72.1763 126.62 72.3284 126.349 72.5991C126.078 72.8698 125.926 73.2369 125.926 73.6198V75.1571C121.782 75.6595 118.709 78.2867 118.709 81.5592C118.709 84.8317 121.782 87.4589 125.926 87.9612V95.1384C123.472 94.7241 121.596 93.308 121.596 91.6639C121.596 91.281 121.444 90.9138 121.173 90.6431C120.902 90.3724 120.535 90.2203 120.152 90.2203C119.769 90.2203 119.402 90.3724 119.131 90.6431C118.861 90.9138 118.709 91.281 118.709 91.6639C118.709 94.9363 121.782 97.5635 125.926 98.0659V99.6032C125.926 99.9861 126.078 100.353 126.349 100.624C126.62 100.895 126.987 101.047 127.37 101.047C127.753 101.047 128.12 100.895 128.391 100.624C128.661 100.353 128.813 99.9861 128.813 99.6032V98.0659C132.958 97.5635 136.031 94.9363 136.031 91.6639ZM121.596 81.5592C121.596 79.915 123.472 78.4989 125.926 78.0846V85.0337C123.472 84.6195 121.596 83.2034 121.596 81.5592ZM128.813 95.1384V88.1893C131.267 88.6036 133.144 90.0197 133.144 91.6639C133.144 93.308 131.267 94.7241 128.813 95.1384Z" fill="url(#paint3_linear_2052_53)"/>
<defs>
<linearGradient id="paint0_linear_2052_53" x1="85.7623" y1="86.601" x2="172.374" y2="86.601" gradientUnits="userSpaceOnUse">
<stop stop-color="#B57E10"/>
<stop offset="0.09" stop-color="#E5C35C"/>
<stop offset="0.14" stop-color="#F9DF7B"/>
<stop offset="0.26" stop-color="#FFF3A6"/>
<stop offset="0.36" stop-color="#F9DF7B"/>
<stop offset="0.49" stop-color="#B57E10"/>
<stop offset="0.57" stop-color="#E5C35C"/>
<stop offset="0.61" stop-color="#F9DF7B"/>
<stop offset="0.72" stop-color="#FFF3A6"/>
<stop offset="0.84" stop-color="#F9DF7B"/>
<stop offset="1" stop-color="#B57E10"/>
</linearGradient>
<linearGradient id="paint1_linear_2052_53" x1="105.72" y1="80.9563" x2="122.392" y2="80.9563" gradientUnits="userSpaceOnUse">
<stop stop-color="#B57E10"/>
<stop offset="0.09" stop-color="#E5C35C"/>
<stop offset="0.14" stop-color="#F9DF7B"/>
<stop offset="0.26" stop-color="#FFF3A6"/>
<stop offset="0.36" stop-color="#F9DF7B"/>
<stop offset="0.49" stop-color="#B57E10"/>
<stop offset="0.57" stop-color="#E5C35C"/>
<stop offset="0.61" stop-color="#F9DF7B"/>
<stop offset="0.72" stop-color="#FFF3A6"/>
<stop offset="0.84" stop-color="#F9DF7B"/>
<stop offset="1" stop-color="#B57E10"/>
</linearGradient>
<linearGradient id="paint2_linear_2052_53" x1="132.347" y1="92.2619" x2="149.022" y2="92.2619" gradientUnits="userSpaceOnUse">
<stop stop-color="#B57E10"/>
<stop offset="0.09" stop-color="#E5C35C"/>
<stop offset="0.14" stop-color="#F9DF7B"/>
<stop offset="0.26" stop-color="#FFF3A6"/>
<stop offset="0.36" stop-color="#F9DF7B"/>
<stop offset="0.49" stop-color="#B57E10"/>
<stop offset="0.57" stop-color="#E5C35C"/>
<stop offset="0.61" stop-color="#F9DF7B"/>
<stop offset="0.72" stop-color="#FFF3A6"/>
<stop offset="0.84" stop-color="#F9DF7B"/>
<stop offset="1" stop-color="#B57E10"/>
</linearGradient>
<linearGradient id="paint3_linear_2052_53" x1="118.709" y1="86.608" x2="136.031" y2="86.608" gradientUnits="userSpaceOnUse">
<stop stop-color="#B57E10"/>
<stop offset="0.09" stop-color="#E5C35C"/>
<stop offset="0.14" stop-color="#F9DF7B"/>
<stop offset="0.26" stop-color="#FFF3A6"/>
<stop offset="0.36" stop-color="#F9DF7B"/>
<stop offset="0.49" stop-color="#B57E10"/>
<stop offset="0.57" stop-color="#E5C35C"/>
<stop offset="0.61" stop-color="#F9DF7B"/>
<stop offset="0.72" stop-color="#FFF3A6"/>
<stop offset="0.84" stop-color="#F9DF7B"/>
<stop offset="1" stop-color="#B57E10"/>
</linearGradient>
</defs>
</svg>
