<svg width="250" height="250" viewBox="0 0 250 250" fill="none" xmlns="http://www.w3.org/2000/svg">
<circle cx="124.822" cy="124.822" r="124.822" fill="#349440"/>
<path d="M59.9404 184.64C59.9404 184.36 59.8871 184.127 59.7804 183.94C59.6871 183.74 59.5271 183.58 59.3004 183.46V182.24C59.3004 181.453 59.5071 180.867 59.9204 180.48C60.3337 180.08 60.9271 179.88 61.7004 179.88H64.1004L66.0404 180.64H66.2804C66.4271 180.64 66.5537 180.613 66.6604 180.56C66.7804 180.493 66.8404 180.353 66.8404 180.14V179.32H69.8004V180.64C69.8004 181.027 69.7404 181.393 69.6204 181.74C69.5137 182.087 69.2871 182.373 68.9404 182.6C68.6071 182.813 68.0937 182.92 67.4004 182.92H65.3604L64.0804 182.44H62.9004C62.8071 182.44 62.7071 182.467 62.6004 182.52C62.5071 182.56 62.4604 182.68 62.4604 182.88V183.04C62.7271 183.2 62.9337 183.4 63.0804 183.64C63.2404 183.867 63.3204 184.213 63.3204 184.68V189.12L64.8604 187.66L66.4004 189.12V186.76L67.2204 187.52H66.9604C66.3071 187.52 65.8137 187.373 65.4804 187.08C65.1471 186.787 64.9804 186.34 64.9804 185.74C64.9804 185.113 65.1671 184.647 65.5404 184.34C65.9271 184.033 66.5404 183.88 67.3804 183.88C68.2071 183.88 68.8137 183.993 69.2004 184.22C69.6004 184.433 69.8004 184.773 69.8004 185.24V192H66.6804L64.8604 190.16L63.0604 192H59.9404V184.64ZM66.8804 185C66.4537 185 66.2404 185.233 66.2404 185.7C66.2404 186.167 66.4537 186.4 66.8804 186.4V185ZM84.0501 192.2C82.5167 192.2 81.3234 191.873 80.4701 191.22C79.6301 190.553 79.2101 189.613 79.2101 188.4V183.48C79.2101 183.04 79.0767 182.7 78.8101 182.46C78.5434 182.207 78.1834 182.08 77.7301 182.08C77.2767 182.08 76.9167 182.207 76.6501 182.46C76.3834 182.7 76.2501 183.04 76.2501 183.48V189.24L75.4301 188.48H75.6901C76.3567 188.48 76.8501 188.627 77.1701 188.92C77.5034 189.213 77.6701 189.66 77.6701 190.26C77.6701 190.873 77.4767 191.34 77.0901 191.66C76.7167 191.967 76.1101 192.12 75.2701 192.12C74.4434 192.12 73.8301 192.007 73.4301 191.78C73.0434 191.553 72.8501 191.213 72.8501 190.76V183.48C72.8501 182.267 73.2767 181.333 74.1301 180.68C74.9967 180.013 76.1967 179.68 77.7301 179.68C79.2634 179.68 80.4567 180.013 81.3101 180.68C82.1767 181.333 82.6101 182.267 82.6101 183.48V188.4C82.6101 188.84 82.7367 189.187 82.9901 189.44C83.2434 189.68 83.5967 189.8 84.0501 189.8C84.5034 189.8 84.8567 189.68 85.1101 189.44C85.3634 189.187 85.4901 188.84 85.4901 188.4V184.64C85.4901 184.293 85.4301 184.04 85.3101 183.88C85.2034 183.707 85.0501 183.58 84.8501 183.5V182.04C84.8501 181.333 85.0234 180.8 85.3701 180.44C85.7167 180.067 86.2301 179.88 86.9101 179.88H89.0101V182.44H88.0501C87.8101 182.44 87.6901 182.573 87.6901 182.84V183.04C88.1167 183.2 88.4234 183.407 88.6101 183.66C88.7967 183.9 88.8901 184.253 88.8901 184.72V188.4C88.8901 189.613 88.4634 190.553 87.6101 191.22C86.7701 191.873 85.5834 192.2 84.0501 192.2ZM75.7701 191C76.1967 191 76.4101 190.767 76.4101 190.3C76.4101 189.833 76.1967 189.6 75.7701 189.6V191ZM82.4409 178.6C81.5342 178.6 80.8475 178.433 80.3809 178.1C79.9142 177.753 79.6809 177.24 79.6809 176.56C79.6809 175.84 79.9609 175.233 80.5209 174.74C81.0675 174.247 81.8875 174 82.9809 174C83.7409 174 84.4475 174.113 85.1009 174.34C85.7409 174.553 86.3209 174.833 86.8409 175.18C87.3475 175.513 87.7742 175.86 88.1209 176.22C88.4675 176.58 88.7209 176.907 88.8809 177.2V178.6H82.4409ZM83.2809 177.26H86.4209C86.2209 177.06 85.9542 176.873 85.6209 176.7C85.2742 176.527 84.9075 176.387 84.5209 176.28C84.1342 176.16 83.7675 176.1 83.4209 176.1C83.0875 176.1 82.8542 176.153 82.7209 176.26C82.5742 176.367 82.5009 176.513 82.5009 176.7C82.5009 176.873 82.5675 177.013 82.7009 177.12C82.8209 177.213 83.0142 177.26 83.2809 177.26ZM98.4121 187.28C98.4121 186.84 98.2721 186.5 97.9921 186.26C97.7121 186.007 97.3388 185.88 96.8721 185.88C96.4188 185.88 96.0454 186.007 95.7521 186.26C95.4721 186.5 95.3321 186.84 95.3321 187.28V189.24L94.5121 188.48H94.7721C95.4388 188.48 95.9321 188.627 96.2521 188.92C96.5854 189.213 96.7521 189.66 96.7521 190.26C96.7521 190.873 96.5588 191.34 96.1721 191.66C95.7988 191.967 95.1921 192.12 94.3521 192.12C93.5254 192.12 92.9121 192.007 92.5121 191.78C92.1254 191.553 91.9321 191.213 91.9321 190.76V187.28C91.9321 186.067 92.3721 185.133 93.2521 184.48C94.1321 183.813 95.3388 183.48 96.8721 183.48C98.4188 183.48 99.6254 183.813 100.492 184.48C101.372 185.133 101.812 186.067 101.812 187.28V192H98.4121V187.28ZM94.8521 191C95.2788 191 95.4921 190.767 95.4921 190.3C95.4921 189.833 95.2788 189.6 94.8521 189.6V191ZM91.8521 182.44V179.88H101.892V182.44H91.8521ZM107.242 192.12C106.455 192.12 105.875 192.007 105.502 191.78C105.128 191.553 104.942 191.213 104.942 190.76V184.64C104.942 184.293 104.862 184.04 104.702 183.88C104.555 183.707 104.342 183.58 104.062 183.5V182.04C104.062 181.333 104.235 180.8 104.582 180.44C104.928 180.067 105.442 179.88 106.122 179.88H108.502V182.44H107.262C107.022 182.44 106.902 182.573 106.902 182.84V183.04C107.408 183.2 107.775 183.407 108.002 183.66C108.228 183.9 108.342 184.253 108.342 184.72V189.24L107.362 188.48H107.622C108.275 188.48 108.762 188.627 109.082 188.92C109.415 189.213 109.582 189.66 109.582 190.26C109.582 191.5 108.802 192.12 107.242 192.12ZM107.702 191C108.128 191 108.342 190.767 108.342 190.3C108.342 189.833 108.128 189.6 107.702 189.6V191ZM123.941 181.92V178.08C123.941 177.76 123.781 177.6 123.461 177.6H122.741V175.52H125.181C125.847 175.52 126.347 175.667 126.681 175.96C127.014 176.253 127.181 176.707 127.181 177.32V179.32C127.181 179.64 127.041 179.973 126.761 180.32C126.481 180.667 126.121 180.98 125.681 181.26C125.254 181.54 124.807 181.76 124.341 181.92H123.941ZM123.781 183.18C123.781 182.86 123.714 182.653 123.581 182.56C123.447 182.453 123.254 182.4 123.001 182.4H122.561L120.241 183.44L119.781 181.14L122.561 179.88H123.881C124.987 179.88 125.814 180.12 126.361 180.6C126.907 181.08 127.181 181.8 127.181 182.76V192H123.781V183.18ZM117.501 192.2C116.861 192.2 116.301 192.107 115.821 191.92C115.354 191.72 114.974 191.447 114.681 191.1C114.387 190.74 114.181 190.313 114.061 189.82L114.581 188.72C114.621 188.88 114.721 189.047 114.881 189.22C115.041 189.393 115.247 189.54 115.501 189.66C115.754 189.78 116.034 189.84 116.341 189.84C116.701 189.84 116.994 189.753 117.221 189.58C117.447 189.393 117.561 189.14 117.561 188.82V188.1C116.587 187.953 115.707 187.767 114.921 187.54C114.147 187.313 113.481 187.033 112.921 186.7C112.374 186.353 111.954 185.927 111.661 185.42C111.367 184.9 111.221 184.28 111.221 183.56C111.221 182.227 111.681 181.247 112.601 180.62C113.534 179.993 114.754 179.68 116.261 179.68C117.767 179.68 118.934 179.947 119.761 180.48C120.601 181.013 121.021 181.787 121.021 182.8C121.021 183.613 120.761 184.22 120.241 184.62C119.721 185.02 119.007 185.22 118.101 185.22C117.821 185.22 117.541 185.2 117.261 185.16C116.994 185.12 116.787 185.073 116.641 185.02V183.34C116.707 183.353 116.787 183.373 116.881 183.4C116.974 183.427 117.061 183.44 117.141 183.44C117.301 183.44 117.434 183.393 117.541 183.3C117.647 183.193 117.701 183.06 117.701 182.9C117.701 182.647 117.574 182.44 117.321 182.28C117.081 182.12 116.741 182.04 116.301 182.04C115.781 182.04 115.361 182.18 115.041 182.46C114.734 182.74 114.581 183.133 114.581 183.64C114.581 184.267 114.847 184.76 115.381 185.12C115.914 185.467 116.654 185.733 117.601 185.92C118.547 186.093 119.647 186.247 120.901 186.38V189.28C120.901 190.213 120.601 190.933 120.001 191.44C119.401 191.947 118.567 192.2 117.501 192.2ZM111.461 192V188.2H114.661V190.14L114.361 192H111.461ZM130.213 187.28C130.213 186.067 130.653 185.133 131.533 184.48C132.413 183.813 133.627 183.48 135.173 183.48C136.707 183.48 137.907 183.813 138.773 184.48C139.653 185.133 140.093 186.067 140.093 187.28V192H136.693V187.28C136.693 186.827 136.553 186.48 136.273 186.24C135.993 186 135.62 185.88 135.153 185.88C134.7 185.88 134.327 186 134.033 186.24C133.753 186.48 133.613 186.827 133.613 187.28V192H130.213V187.28ZM130.133 182.44V179.88H140.173V182.44H130.133ZM132.943 197.28C132.17 197.28 131.556 197.087 131.103 196.7C130.65 196.327 130.423 195.813 130.423 195.16C130.423 194.453 130.676 193.913 131.183 193.54C131.676 193.18 132.37 193 133.263 193H139.743V194.28H134.243C133.976 194.28 133.77 194.34 133.623 194.46C133.463 194.58 133.383 194.753 133.383 194.98C133.383 195.193 133.45 195.353 133.583 195.46C133.716 195.58 133.89 195.64 134.103 195.64C134.263 195.64 134.436 195.607 134.623 195.54C134.796 195.487 134.976 195.42 135.163 195.34C135.35 195.273 135.53 195.207 135.703 195.14C135.876 195.087 136.043 195.06 136.203 195.06H136.423V196.46H136.203C136.003 196.46 135.796 196.5 135.583 196.58C135.37 196.66 135.136 196.753 134.883 196.86C134.63 196.98 134.343 197.08 134.023 197.16C133.703 197.24 133.343 197.28 132.943 197.28ZM138.423 196.5C138.57 196.5 138.69 196.46 138.783 196.38C138.863 196.313 138.903 196.213 138.903 196.08C138.903 195.947 138.863 195.84 138.783 195.76C138.69 195.693 138.57 195.66 138.423 195.66V196.5ZM137.923 197.28C137.27 197.28 136.803 197.187 136.523 197C136.243 196.827 136.103 196.573 136.103 196.24V193.46H138.903V195.26L138.343 194.9H138.503C138.89 194.9 139.196 194.987 139.423 195.16C139.636 195.347 139.743 195.633 139.743 196.02C139.743 196.46 139.603 196.78 139.323 196.98C139.03 197.18 138.563 197.28 137.923 197.28ZM136.292 201.16V198.16H139.252V201.16H136.292ZM143.163 192V187.76H142.223V185.76H146.563V189L148.083 187.54L149.623 189V185.12C149.623 184.893 149.59 184.693 149.523 184.52C149.456 184.333 149.23 184.16 148.843 184L151.243 182.84C151.976 183.12 152.456 183.44 152.683 183.8C152.91 184.16 153.023 184.6 153.023 185.12V192H149.903L148.083 190.18L146.283 192H143.163ZM146.503 184.82C145.423 184.82 144.576 184.667 143.963 184.36C143.35 184.04 143.043 183.567 143.043 182.94C143.043 182.647 143.09 182.353 143.183 182.06C143.276 181.767 143.323 181.54 143.323 181.38C143.323 181.26 143.29 181.187 143.223 181.16C143.156 181.133 143.07 181.12 142.963 181.12H142.623V179.32H144.723C145.336 179.32 145.776 179.433 146.043 179.66C146.323 179.873 146.463 180.207 146.463 180.66C146.463 180.993 146.416 181.273 146.323 181.5C146.23 181.713 146.183 181.933 146.183 182.16C146.183 182.427 146.276 182.64 146.463 182.8C146.663 182.96 146.93 183.04 147.263 183.04C147.623 183.04 147.943 182.96 148.223 182.8C148.516 182.627 148.83 182.353 149.163 181.98L149.563 183.36C149.07 183.36 148.656 183.193 148.323 182.86C147.99 182.527 147.823 182.113 147.823 181.62C147.823 181.033 148.03 180.58 148.443 180.26C148.856 179.927 149.43 179.76 150.163 179.76C150.91 179.76 151.483 179.927 151.883 180.26C152.296 180.58 152.503 181.033 152.503 181.62C152.503 182.047 152.396 182.4 152.183 182.68C151.97 182.96 151.696 183.173 151.363 183.32C151.043 183.453 150.723 183.54 150.403 183.58C150.283 183.687 150.05 183.84 149.703 184.04C149.37 184.24 148.93 184.42 148.383 184.58C147.85 184.74 147.223 184.82 146.503 184.82ZM150.163 182.16C150.31 182.16 150.423 182.113 150.503 182.02C150.596 181.927 150.643 181.807 150.643 181.66C150.643 181.513 150.596 181.393 150.503 181.3C150.423 181.207 150.31 181.16 150.163 181.16C150.03 181.16 149.916 181.207 149.823 181.3C149.73 181.393 149.683 181.513 149.683 181.66C149.683 181.807 149.73 181.927 149.823 182.02C149.916 182.113 150.03 182.16 150.163 182.16ZM160.583 197.36C159.036 197.36 157.829 197.027 156.963 196.36C156.096 195.707 155.663 194.773 155.663 193.56V184.64C155.663 184.293 155.603 184.04 155.483 183.88C155.376 183.707 155.223 183.58 155.023 183.5V182.04C155.023 181.333 155.196 180.8 155.543 180.44C155.889 180.067 156.403 179.88 157.083 179.88H159.183V182.44H158.223C157.983 182.44 157.863 182.573 157.863 182.84V183.04C158.289 183.2 158.596 183.407 158.783 183.66C158.969 183.9 159.063 184.253 159.063 184.72V193.56C159.063 194 159.196 194.34 159.463 194.58C159.729 194.833 160.103 194.96 160.583 194.96C161.063 194.96 161.436 194.833 161.703 194.58C161.969 194.34 162.103 194 162.103 193.56V193H165.503V193.56C165.503 194.773 165.069 195.707 164.203 196.36C163.336 197.027 162.129 197.36 160.583 197.36ZM173.308 192.2C171.775 192.2 170.581 191.873 169.728 191.22C168.888 190.553 168.468 189.613 168.468 188.4V186.96C168.468 186.547 168.335 186.227 168.068 186C167.801 185.76 167.441 185.64 166.988 185.64C166.535 185.64 166.175 185.76 165.908 186C165.641 186.227 165.508 186.547 165.508 186.96V189.24L164.688 188.48H164.948C165.615 188.48 166.108 188.627 166.428 188.92C166.761 189.213 166.928 189.66 166.928 190.26C166.928 190.873 166.735 191.34 166.348 191.66C165.975 191.967 165.368 192.12 164.528 192.12C163.701 192.12 163.088 192.007 162.688 191.78C162.301 191.553 162.108 191.213 162.108 190.76V186.96C162.108 185.787 162.535 184.88 163.388 184.24C164.255 183.6 165.455 183.28 166.988 183.28C168.521 183.28 169.715 183.6 170.568 184.24C171.435 184.88 171.868 185.787 171.868 186.96V188.4C171.868 188.84 171.995 189.187 172.248 189.44C172.501 189.68 172.855 189.8 173.308 189.8C173.761 189.8 174.115 189.68 174.368 189.44C174.621 189.187 174.748 188.84 174.748 188.4V184.64C174.748 184.293 174.688 184.04 174.568 183.88C174.461 183.707 174.308 183.58 174.108 183.5V182.04C174.108 181.333 174.281 180.8 174.628 180.44C174.975 180.067 175.488 179.88 176.168 179.88H178.268V182.44H177.308C177.068 182.44 176.948 182.573 176.948 182.84V183.04C177.375 183.2 177.681 183.407 177.868 183.66C178.055 183.9 178.148 184.253 178.148 184.72V188.4C178.148 189.613 177.721 190.553 176.868 191.22C176.028 191.873 174.841 192.2 173.308 192.2ZM165.028 191C165.455 191 165.668 190.767 165.668 190.3C165.668 189.833 165.455 189.6 165.028 189.6V191ZM164.728 185.18L162.728 183.3V182.04C162.728 181.333 162.901 180.8 163.248 180.44C163.608 180.067 164.135 179.88 164.828 179.88H170.648V182.44H165.948C165.841 182.44 165.748 182.473 165.668 182.54C165.601 182.607 165.568 182.707 165.568 182.84V183.04L166.808 184.16L164.728 185.18ZM174.863 197.16V193H177.943V197.16H174.863ZM181.19 187.28C181.19 186.067 181.63 185.133 182.51 184.48C183.39 183.813 184.603 183.48 186.15 183.48C187.683 183.48 188.883 183.813 189.75 184.48C190.63 185.133 191.07 186.067 191.07 187.28V192H187.67V187.28C187.67 186.827 187.53 186.48 187.25 186.24C186.97 186 186.597 185.88 186.13 185.88C185.677 185.88 185.303 186 185.01 186.24C184.73 186.48 184.59 186.827 184.59 187.28V192H181.19V187.28ZM181.11 182.44V179.88H191.15V182.44H181.11Z" fill="white"/>
<path d="M124.245 104.883V107.915C124.245 108.046 124.297 108.172 124.39 108.264C124.483 108.357 124.609 108.409 124.74 108.409C124.871 108.409 124.996 108.357 125.089 108.264C125.182 108.172 125.234 108.046 125.234 107.915V104.883H125.653C127.164 104.881 128.613 104.28 129.682 103.211C130.751 102.142 131.352 100.693 131.354 99.1814V98.7024H130.902C129.497 98.7042 128.141 99.2244 127.095 100.163C126.049 101.103 125.387 102.394 125.234 103.792V99.0103H125.653C127.164 99.0086 128.613 98.4074 129.682 97.3385C130.751 96.2696 131.352 94.8204 131.354 93.3088V92.8298H130.902C129.497 92.8316 128.141 93.3518 127.095 94.2909C126.049 95.2299 125.387 96.5218 125.234 97.9191V93.138H125.653C127.164 93.1363 128.613 92.535 129.682 91.4662C130.751 90.3973 131.352 88.9481 131.354 87.4365V86.9575H130.902C129.497 86.9593 128.141 87.4795 127.095 88.4186C126.049 89.3576 125.387 90.6495 125.234 92.0468V87.2655H125.653C127.164 87.2638 128.614 86.6626 129.682 85.5937C130.751 84.5248 131.352 83.0756 131.354 81.564V81.0851H130.902C129.497 81.0868 128.141 81.6071 127.095 82.5461C126.049 83.4852 125.387 84.777 125.234 86.1743V83.3265C126.244 82.2465 126.795 80.8162 126.77 79.3378C126.745 77.8594 126.146 76.4485 125.1 75.4032L124.762 75.0645L124.442 75.3841C123.409 76.4192 122.813 77.8112 122.777 79.2729C122.74 80.7346 123.266 82.1546 124.245 83.2402V85.7547C124.003 84.4446 123.31 83.2606 122.286 82.4077C121.262 81.5549 119.973 81.087 118.64 81.0851H118.188V81.564C118.19 83.0756 118.791 84.5248 119.86 85.5937C120.929 86.6626 122.378 87.2638 123.89 87.2655H124.245V91.6274C124.003 90.3173 123.31 89.1331 122.286 88.2802C121.262 87.4273 119.973 86.9594 118.64 86.9574H118.188V87.4364C118.19 88.948 118.791 90.3972 119.86 91.4661C120.929 92.5349 122.378 93.1362 123.89 93.1379H124.245V97.5C124.003 96.1898 123.31 95.0057 122.286 94.1528C121.262 93.2999 119.973 92.8319 118.64 92.83H118.188V93.3089C118.19 94.8205 118.791 96.2697 119.86 97.3385C120.929 98.4074 122.378 99.0086 123.89 99.0103H124.245V103.373C124.003 102.062 123.31 100.878 122.286 100.025C121.263 99.1723 119.973 98.7044 118.64 98.7024H118.188V99.1814C118.19 100.693 118.791 102.142 119.86 103.211C120.929 104.28 122.378 104.881 123.89 104.883H124.245Z" fill="url(#paint0_linear_2052_41)"/>
<path d="M146.095 90.3535C144.977 90.9148 144.077 91.8308 143.535 92.9583L144.385 90.3731C145.674 89.6587 146.637 88.4726 147.07 87.0637C147.504 85.6548 147.374 84.1328 146.709 82.8171L146.494 82.3896L146.09 82.5934C144.78 83.2549 143.776 84.3958 143.286 85.7788C142.796 87.1618 142.859 88.6804 143.46 90.0187L142.649 92.4859C142.854 91.1515 142.58 89.7875 141.875 88.6361C141.17 87.4847 140.08 86.6204 138.798 86.1969L138.368 86.0557L138.219 86.5107C137.748 87.9473 137.867 89.5118 138.548 90.861C139.23 92.2103 140.419 93.2341 141.854 93.7078L142.209 93.8243L140.818 98.0551C141.023 96.7215 140.748 95.3586 140.042 94.2088C139.337 93.059 138.246 92.1968 136.964 91.7756L136.535 91.6344L136.385 92.0894C135.915 93.526 136.033 95.0905 136.715 96.4397C137.396 97.789 138.585 98.8128 140.021 99.2865L140.375 99.403L138.984 103.633C139.189 102.3 138.914 100.937 138.208 99.7871C137.503 98.6373 136.412 97.7751 135.13 97.3539L134.701 97.2128L134.551 97.6678C134.081 99.1043 134.199 100.669 134.881 102.018C135.562 103.367 136.751 104.391 138.187 104.865L138.541 104.981L137.15 109.212C137.355 107.879 137.08 106.516 136.374 105.366C135.668 104.216 134.578 103.354 133.296 102.933L132.867 102.792L132.717 103.247C132.247 104.683 132.365 106.248 133.047 107.597C133.728 108.946 134.917 109.97 136.353 110.444L136.707 110.56L135.765 113.425C135.724 113.55 135.735 113.685 135.794 113.803C135.853 113.92 135.956 114.008 136.081 114.049C136.205 114.09 136.341 114.08 136.458 114.021C136.575 113.962 136.664 113.859 136.705 113.734L137.647 110.869L138.027 110.994C139.464 111.467 141.029 111.349 142.379 110.667C143.729 109.985 144.752 108.795 145.224 107.359L145.374 106.904L144.945 106.763C143.633 106.331 142.209 106.391 140.938 106.93C139.667 107.469 138.634 108.452 138.033 109.695L139.481 105.291L139.861 105.416C141.298 105.888 142.863 105.77 144.213 105.088C145.563 104.406 146.586 103.216 147.058 101.779L147.208 101.324L146.779 101.183C145.467 100.752 144.043 100.811 142.772 101.351C141.5 101.89 140.468 102.872 139.867 104.115L141.314 99.7113L141.695 99.8364C143.132 100.309 144.697 100.191 146.047 99.5093C147.396 98.8275 148.42 97.6375 148.892 96.2011L149.042 95.7461L148.613 95.605C147.301 95.1736 145.877 95.2331 144.606 95.7724C143.335 96.3116 142.302 97.294 141.701 98.537L143.149 94.1329L143.529 94.2581C144.966 94.7304 146.531 94.6127 147.881 93.931C149.231 93.2492 150.254 92.0592 150.726 90.6227L150.876 90.1677L150.447 90.0266C149.736 89.7906 148.985 89.698 148.238 89.7542C147.491 89.8103 146.763 90.014 146.095 90.3535Z" fill="url(#paint1_linear_2052_41)"/>
<path d="M103.523 90.3535C104.641 90.9148 105.542 91.8308 106.084 92.9583L105.234 90.3731C103.944 89.6587 102.982 88.4726 102.548 87.0637C102.115 85.6548 102.244 84.1328 102.909 82.8171L103.125 82.3896L103.529 82.5934C104.838 83.2549 105.842 84.3958 106.332 85.7788C106.822 87.1618 106.76 88.6804 106.158 90.0187L106.969 92.4859C106.764 91.1515 107.038 89.7875 107.743 88.6361C108.448 87.4847 109.539 86.6204 110.821 86.1969L111.25 86.0557L111.399 86.5107C111.87 87.9473 111.751 89.5118 111.07 90.861C110.388 92.2103 109.199 93.2341 107.764 93.7078L107.409 93.8243L108.8 98.0551C108.595 96.7215 108.87 95.3586 109.576 94.2088C110.282 93.059 111.373 92.1968 112.654 91.7756L113.084 91.6344L113.233 92.0894C113.704 93.526 113.585 95.0905 112.904 96.4397C112.222 97.789 111.033 98.8128 109.598 99.2865L109.243 99.403L110.634 103.633C110.429 102.3 110.704 100.937 111.41 99.7871C112.116 98.6373 113.207 97.7751 114.488 97.3539L114.918 97.2128L115.067 97.6678C115.538 99.1043 115.419 100.669 114.738 102.018C114.056 103.367 112.867 104.391 111.432 104.865L111.077 104.981L112.468 109.212C112.264 107.879 112.539 106.516 113.244 105.366C113.95 104.216 115.041 103.354 116.322 102.933L116.751 102.792L116.901 103.247C117.372 104.683 117.253 106.248 116.571 107.597C115.89 108.946 114.701 109.97 113.265 110.444L112.911 110.56L113.853 113.425C113.894 113.55 113.884 113.685 113.824 113.803C113.765 113.92 113.662 114.008 113.538 114.049C113.413 114.09 113.277 114.08 113.16 114.021C113.043 113.962 112.954 113.859 112.914 113.734L111.972 110.869L111.591 110.994C110.154 111.467 108.589 111.349 107.239 110.667C105.89 109.985 104.866 108.795 104.394 107.359L104.244 106.904L104.674 106.763C105.985 106.331 107.409 106.391 108.68 106.93C109.952 107.469 110.984 108.452 111.586 109.695L110.138 105.291L109.757 105.416C108.32 105.888 106.755 105.77 105.405 105.088C104.056 104.406 103.032 103.216 102.56 101.779L102.41 101.324L102.84 101.183C104.152 100.752 105.575 100.811 106.847 101.351C108.118 101.89 109.15 102.872 109.752 104.115L108.304 99.7113L107.923 99.8364C106.486 100.309 104.921 100.191 103.572 99.5093C102.222 98.8275 101.198 97.6375 100.726 96.2011L100.576 95.7461L101.006 95.605C102.318 95.1736 103.741 95.2331 105.012 95.7724C106.284 96.3116 107.316 97.294 107.917 98.537L106.47 94.1329L106.089 94.2581C104.652 94.7304 103.087 94.6127 101.737 93.931C100.388 93.2492 99.3642 92.0592 98.8919 90.6227L98.7422 90.1677L99.1716 90.0266C99.8825 89.7906 100.633 89.698 101.38 89.7542C102.127 89.8103 102.855 90.014 103.523 90.3535Z" fill="url(#paint2_linear_2052_41)"/>
<path d="M142.907 130.032H106.861C102.784 130.184 98.8129 128.72 95.8093 125.96C92.8057 123.2 91.0126 119.366 90.8196 115.292V95.9681C90.8196 95.1468 91.1459 94.3591 91.7266 93.7783C92.3074 93.1976 93.095 92.8713 93.9163 92.8713C94.7376 92.8713 95.5253 93.1976 96.106 93.7783C96.6868 94.3591 97.0131 95.1468 97.0131 95.9681V115.292C97.2034 117.724 98.3429 119.984 100.185 121.583C102.028 123.182 104.426 123.992 106.861 123.839H142.907C145.342 123.992 147.739 123.182 149.582 121.583C151.424 119.984 152.564 117.724 152.754 115.292V95.9681C152.754 95.1468 153.08 94.3591 153.661 93.7783C154.242 93.1976 155.03 92.8713 155.851 92.8713C156.672 92.8713 157.46 93.1976 158.041 93.7783C158.621 94.3591 158.948 95.1468 158.948 95.9681V115.292C158.755 119.366 156.962 123.2 153.958 125.96C150.954 128.72 146.983 130.184 142.907 130.032ZM167.34 88.8765C167.63 88.5887 167.86 88.2462 168.018 87.8688C168.175 87.4914 168.256 87.0867 168.256 86.6779C168.256 86.2691 168.175 85.8643 168.018 85.4869C167.86 85.1096 167.63 84.7671 167.34 84.4792L127.082 44.2217C126.794 43.9314 126.452 43.701 126.075 43.5438C125.697 43.3866 125.292 43.3057 124.884 43.3057C124.475 43.3057 124.07 43.3866 123.693 43.5438C123.315 43.701 122.973 43.9314 122.685 44.2217L82.4274 84.4792C81.8443 85.0623 81.5167 85.8532 81.5167 86.6779C81.5167 87.5025 81.8443 88.2934 82.4274 88.8765C83.0106 89.4597 83.8015 89.7873 84.6261 89.7873C85.4508 89.7873 86.2417 89.4597 86.8248 88.8765L124.884 50.7867L162.942 88.8765C163.23 89.1668 163.573 89.3972 163.95 89.5544C164.328 89.7116 164.732 89.7926 165.141 89.7926C165.55 89.7926 165.955 89.7116 166.332 89.5544C166.709 89.3972 167.052 89.1668 167.34 88.8765Z" fill="url(#paint3_linear_2052_41)"/>
<defs>
<linearGradient id="paint0_linear_2052_41" x1="118.188" y1="91.7327" x2="131.354" y2="91.7327" gradientUnits="userSpaceOnUse">
<stop stop-color="#B57E10"/>
<stop offset="0.09" stop-color="#E5C35C"/>
<stop offset="0.14" stop-color="#F9DF7B"/>
<stop offset="0.26" stop-color="#FFF3A6"/>
<stop offset="0.36" stop-color="#F9DF7B"/>
<stop offset="0.49" stop-color="#B57E10"/>
<stop offset="0.57" stop-color="#E5C35C"/>
<stop offset="0.61" stop-color="#F9DF7B"/>
<stop offset="0.72" stop-color="#FFF3A6"/>
<stop offset="0.84" stop-color="#F9DF7B"/>
<stop offset="1" stop-color="#B57E10"/>
</linearGradient>
<linearGradient id="paint1_linear_2052_41" x1="132.434" y1="98.228" x2="150.876" y2="98.228" gradientUnits="userSpaceOnUse">
<stop stop-color="#B57E10"/>
<stop offset="0.09" stop-color="#E5C35C"/>
<stop offset="0.14" stop-color="#F9DF7B"/>
<stop offset="0.26" stop-color="#FFF3A6"/>
<stop offset="0.36" stop-color="#F9DF7B"/>
<stop offset="0.49" stop-color="#B57E10"/>
<stop offset="0.57" stop-color="#E5C35C"/>
<stop offset="0.61" stop-color="#F9DF7B"/>
<stop offset="0.72" stop-color="#FFF3A6"/>
<stop offset="0.84" stop-color="#F9DF7B"/>
<stop offset="1" stop-color="#B57E10"/>
</linearGradient>
<linearGradient id="paint2_linear_2052_41" x1="117.185" y1="98.228" x2="98.7422" y2="98.228" gradientUnits="userSpaceOnUse">
<stop stop-color="#B57E10"/>
<stop offset="0.09" stop-color="#E5C35C"/>
<stop offset="0.14" stop-color="#F9DF7B"/>
<stop offset="0.26" stop-color="#FFF3A6"/>
<stop offset="0.36" stop-color="#F9DF7B"/>
<stop offset="0.49" stop-color="#B57E10"/>
<stop offset="0.57" stop-color="#E5C35C"/>
<stop offset="0.61" stop-color="#F9DF7B"/>
<stop offset="0.72" stop-color="#FFF3A6"/>
<stop offset="0.84" stop-color="#F9DF7B"/>
<stop offset="1" stop-color="#B57E10"/>
</linearGradient>
<linearGradient id="paint3_linear_2052_41" x1="81.5167" y1="86.6638" x2="168.256" y2="86.6638" gradientUnits="userSpaceOnUse">
<stop stop-color="#B57E10"/>
<stop offset="0.09" stop-color="#E5C35C"/>
<stop offset="0.14" stop-color="#F9DF7B"/>
<stop offset="0.26" stop-color="#FFF3A6"/>
<stop offset="0.36" stop-color="#F9DF7B"/>
<stop offset="0.49" stop-color="#B57E10"/>
<stop offset="0.57" stop-color="#E5C35C"/>
<stop offset="0.61" stop-color="#F9DF7B"/>
<stop offset="0.72" stop-color="#FFF3A6"/>
<stop offset="0.84" stop-color="#F9DF7B"/>
<stop offset="1" stop-color="#B57E10"/>
</linearGradient>
</defs>
</svg>
