<svg width="250" height="250" viewBox="0 0 250 250" fill="none" xmlns="http://www.w3.org/2000/svg">
<circle cx="124.822" cy="124.822" r="124.822" fill="#349440"/>
<path d="M90.8708 166V158.88H94.2708V163L95.7308 161.3L97.1908 163V158.88H100.591V166H97.4708L95.7308 164.16L93.9908 166H90.8708ZM95.2108 158.24C93.7174 158.24 92.5974 158.033 91.8508 157.62C91.1041 157.207 90.7308 156.593 90.7308 155.78C90.7308 155.033 90.9841 154.513 91.4908 154.22C92.0108 153.913 92.6774 153.76 93.4908 153.76C93.7574 153.76 94.0241 153.78 94.2908 153.82C94.5708 153.847 94.7974 153.893 94.9708 153.96V155.38C94.8774 155.353 94.7974 155.34 94.7308 155.34C94.6774 155.327 94.6174 155.32 94.5508 155.32C94.4574 155.32 94.3774 155.353 94.3108 155.42C94.2574 155.473 94.2308 155.54 94.2308 155.62C94.2308 155.793 94.3308 155.913 94.5308 155.98C94.7441 156.047 95.0308 156.08 95.3908 156.08C96.0974 156.08 96.6041 155.947 96.9108 155.68C97.2308 155.413 97.3908 155.007 97.3908 154.46V153.32H100.711V154.46C100.711 155.7 100.237 156.64 99.2908 157.28C98.3574 157.92 96.9974 158.24 95.2108 158.24ZM94.1529 152.6C93.2463 152.6 92.5596 152.433 92.0929 152.1C91.6263 151.753 91.3929 151.247 91.3929 150.58C91.3929 149.847 91.6529 149.233 92.1729 148.74C92.6929 148.247 93.4396 148 94.4129 148C95.0396 148 95.5929 148.1 96.0729 148.3C96.5396 148.487 96.9796 148.767 97.3929 149.14L97.8329 150.04C97.6863 150.04 97.4996 149.973 97.2729 149.84C97.0329 149.707 96.9129 149.573 96.9129 149.44C96.9129 148.907 97.1063 148.467 97.4929 148.12C97.8796 147.773 98.3863 147.6 99.0129 147.6C99.6396 147.6 100.146 147.793 100.533 148.18C100.92 148.567 101.113 149.033 101.113 149.58C101.113 150.1 100.94 150.56 100.593 150.96C100.246 151.347 99.8196 151.54 99.3129 151.54C99.1796 151.54 99.0729 151.493 98.9929 151.4C98.9129 151.307 98.8396 151.173 98.7729 151L99.6129 150.7C99.7996 150.833 99.9796 150.98 100.153 151.14C100.313 151.3 100.46 151.453 100.593 151.6V152.6H94.1529ZM94.9929 151.26H97.9329C97.8396 151.153 97.7196 151.047 97.5729 150.94C97.4263 150.82 97.2329 150.693 96.9929 150.56C96.7263 150.413 96.4396 150.3 96.1329 150.22C95.8129 150.14 95.4796 150.1 95.1329 150.1C94.7996 150.1 94.5663 150.153 94.4329 150.26C94.2863 150.367 94.2129 150.513 94.2129 150.7C94.2129 150.873 94.2796 151.013 94.4129 151.12C94.5329 151.213 94.7263 151.26 94.9929 151.26ZM99.0129 150.22C99.1863 150.22 99.3263 150.16 99.4329 150.04C99.5396 149.92 99.5929 149.773 99.5929 149.6C99.5929 149.413 99.5396 149.267 99.4329 149.16C99.3263 149.04 99.1863 148.98 99.0129 148.98C98.8396 148.98 98.6996 149.04 98.5929 149.16C98.4863 149.267 98.4329 149.413 98.4329 149.6C98.4329 149.787 98.4863 149.94 98.5929 150.06C98.6996 150.167 98.8396 150.22 99.0129 150.22ZM103.625 161.28C103.625 160.067 104.065 159.133 104.945 158.48C105.825 157.813 107.038 157.48 108.585 157.48C110.118 157.48 111.318 157.813 112.185 158.48C113.065 159.133 113.505 160.067 113.505 161.28V166H110.105V161.28C110.105 160.827 109.965 160.48 109.685 160.24C109.405 160 109.031 159.88 108.565 159.88C108.111 159.88 107.738 160 107.445 160.24C107.165 160.48 107.025 160.827 107.025 161.28V166H103.625V161.28ZM103.545 156.44V153.88H113.585V156.44H103.545ZM116.554 158.64C116.554 158.36 116.501 158.127 116.394 157.94C116.301 157.74 116.141 157.58 115.914 157.46V156.24C115.914 155.453 116.121 154.867 116.534 154.48C116.948 154.08 117.541 153.88 118.314 153.88H120.534L122.494 154.64H122.734C122.881 154.64 123.008 154.613 123.114 154.56C123.234 154.493 123.294 154.353 123.294 154.14V153.32H126.254V154.64C126.254 155.027 126.194 155.393 126.074 155.74C125.968 156.087 125.741 156.373 125.394 156.6C125.061 156.813 124.548 156.92 123.854 156.92H121.814L120.534 156.44H119.514C119.421 156.44 119.321 156.467 119.214 156.52C119.121 156.56 119.074 156.68 119.074 156.88V157.04C119.341 157.2 119.548 157.4 119.694 157.64C119.854 157.867 119.934 158.213 119.934 158.68V163L121.394 161.54L122.854 163V158.64H126.254V166H123.134L121.394 164.16L119.674 166H116.554V158.64ZM135.609 166V157.14L135.169 156.72L134.209 157.52H134.089L133.129 156.72L132.689 157.14V163.24L131.869 162.48H132.129C132.795 162.48 133.289 162.627 133.609 162.92C133.942 163.213 134.109 163.66 134.109 164.26C134.109 164.873 133.915 165.34 133.529 165.66C133.155 165.967 132.549 166.12 131.709 166.12C130.882 166.12 130.269 166.007 129.869 165.78C129.482 165.553 129.289 165.213 129.289 164.76V156.4L132.109 153.68H132.349L134.149 155.04L135.949 153.68H136.189L139.009 156.4V166H135.609ZM132.209 165C132.635 165 132.849 164.767 132.849 164.3C132.849 163.833 132.635 163.6 132.209 163.6V165ZM141.929 157.36C141.929 156.72 141.595 156.4 140.929 156.4H140.409L138.569 157.68L137.529 155.76L140.089 153.88H141.949C143.015 153.88 143.842 154.113 144.429 154.58C145.029 155.047 145.329 155.86 145.329 157.02V166H141.929V157.36ZM138.468 171.36C137.615 171.36 136.962 171.167 136.508 170.78C136.055 170.407 135.828 169.88 135.828 169.2C135.828 168.893 135.882 168.56 135.988 168.2C136.095 167.84 136.348 167.44 136.748 167H139.768V167.12C139.435 167.533 139.208 167.867 139.088 168.12C138.955 168.387 138.888 168.667 138.888 168.96C138.888 169.2 138.928 169.393 139.008 169.54C139.088 169.687 139.175 169.76 139.268 169.76L140.128 168.96L141.468 169.76C141.708 169.76 141.882 169.713 141.988 169.62C142.082 169.527 142.128 169.42 142.128 169.3V168.88L143.188 168.76C143.188 168.973 143.115 169.133 142.968 169.24C142.808 169.36 142.635 169.42 142.448 169.42C141.982 169.42 141.622 169.3 141.368 169.06C141.102 168.833 140.968 168.533 140.968 168.16C140.968 167.747 141.122 167.413 141.428 167.16C141.722 166.92 142.215 166.8 142.908 166.8C143.535 166.8 144.022 166.927 144.368 167.18C144.702 167.447 144.868 167.813 144.868 168.28V169.06C144.868 169.793 144.608 170.36 144.088 170.76C143.568 171.16 142.908 171.36 142.108 171.36H141.528L140.208 170.46L139.328 171.36H138.468ZM142.908 168.5C143.015 168.5 143.108 168.467 143.188 168.4C143.255 168.333 143.288 168.253 143.288 168.16C143.288 168.053 143.255 167.967 143.188 167.9C143.108 167.847 143.015 167.82 142.908 167.82C142.802 167.82 142.715 167.847 142.648 167.9C142.568 167.967 142.528 168.053 142.528 168.16C142.528 168.253 142.568 168.333 142.648 168.4C142.715 168.467 142.802 168.5 142.908 168.5ZM145.908 170.08L144.008 169.68V168.2L145.908 168.6V170.08ZM141.156 175.36C140.143 175.36 139.39 175.207 138.896 174.9C138.39 174.607 138.136 174.16 138.136 173.56V172.16H140.456V173.36C140.456 173.547 140.51 173.687 140.616 173.78C140.723 173.887 140.876 173.94 141.076 173.94C141.276 173.94 141.43 173.887 141.536 173.78C141.643 173.687 141.696 173.547 141.696 173.36V172.16H144.616V173.56C144.616 174.16 144.33 174.607 143.756 174.9C143.183 175.207 142.316 175.36 141.156 175.36ZM154.291 166.2C153.651 166.2 153.091 166.107 152.611 165.92C152.144 165.72 151.764 165.447 151.471 165.1C151.177 164.74 150.971 164.313 150.851 163.82L151.371 162.72C151.411 162.88 151.511 163.047 151.671 163.22C151.831 163.393 152.037 163.54 152.291 163.66C152.544 163.78 152.824 163.84 153.131 163.84C153.491 163.84 153.784 163.753 154.011 163.58C154.237 163.393 154.351 163.14 154.351 162.82V162.1C153.377 161.953 152.497 161.767 151.711 161.54C150.937 161.313 150.271 161.033 149.711 160.7C149.164 160.353 148.744 159.927 148.451 159.42C148.157 158.9 148.011 158.28 148.011 157.56C148.011 156.227 148.471 155.247 149.391 154.62C150.324 153.993 151.544 153.68 153.051 153.68C154.557 153.68 155.724 153.947 156.551 154.48C157.391 155.013 157.811 155.787 157.811 156.8C157.811 157.613 157.551 158.22 157.031 158.62C156.511 159.02 155.797 159.22 154.891 159.22C154.611 159.22 154.331 159.2 154.051 159.16C153.784 159.12 153.577 159.073 153.431 159.02V157.34C153.497 157.353 153.577 157.373 153.671 157.4C153.764 157.427 153.851 157.44 153.931 157.44C154.091 157.44 154.224 157.393 154.331 157.3C154.437 157.193 154.491 157.06 154.491 156.9C154.491 156.647 154.364 156.44 154.111 156.28C153.871 156.12 153.531 156.04 153.091 156.04C152.571 156.04 152.151 156.18 151.831 156.46C151.524 156.74 151.371 157.133 151.371 157.64C151.371 158.267 151.637 158.76 152.171 159.12C152.704 159.467 153.444 159.733 154.391 159.92C155.337 160.093 156.437 160.247 157.691 160.38V163.28C157.691 164.213 157.391 164.933 156.791 165.44C156.191 165.947 155.357 166.2 154.291 166.2ZM148.251 166V162.2H151.451V164.14L151.151 166H148.251ZM67.0593 194.12C66.2727 194.12 65.6927 194.007 65.3193 193.78C64.946 193.553 64.7593 193.213 64.7593 192.76V186.64C64.7593 186.293 64.6793 186.04 64.5193 185.88C64.3727 185.707 64.1593 185.58 63.8793 185.5V184.04C63.8793 183.333 64.0527 182.8 64.3993 182.44C64.746 182.067 65.2593 181.88 65.9393 181.88H68.3193V184.44H67.0793C66.8393 184.44 66.7193 184.573 66.7193 184.84V185.04C67.226 185.2 67.5927 185.407 67.8193 185.66C68.046 185.9 68.1593 186.253 68.1593 186.72V191.24L67.1793 190.48H67.4393C68.0927 190.48 68.5793 190.627 68.8993 190.92C69.2327 191.213 69.3993 191.66 69.3993 192.26C69.3993 193.5 68.6193 194.12 67.0593 194.12ZM67.5193 193C67.946 193 68.1593 192.767 68.1593 192.3C68.1593 191.833 67.946 191.6 67.5193 191.6V193ZM84.1581 185.72C84.1581 184.867 83.7648 184.44 82.9781 184.44H80.2781V181.88H84.1781C86.4314 181.88 87.5581 183.013 87.5581 185.28V194H84.1581V185.72ZM71.3981 194V186.88H74.7981V191L76.2581 189.3L77.7181 191V186.88H81.1181V194H77.9981L76.2581 192.16L74.5181 194H71.3981ZM75.7381 186.24C74.2448 186.24 73.1248 186.033 72.3781 185.62C71.6314 185.207 71.2581 184.593 71.2581 183.78C71.2581 183.033 71.5114 182.513 72.0181 182.22C72.5381 181.913 73.2048 181.76 74.0181 181.76C74.2848 181.76 74.5514 181.78 74.8181 181.82C75.0981 181.847 75.3248 181.893 75.4981 181.96V183.38C75.4048 183.353 75.3248 183.34 75.2581 183.34C75.2048 183.327 75.1448 183.32 75.0781 183.32C74.9848 183.32 74.9048 183.353 74.8381 183.42C74.7848 183.473 74.7581 183.54 74.7581 183.62C74.7581 183.793 74.8581 183.913 75.0581 183.98C75.2714 184.047 75.5581 184.08 75.9181 184.08C76.6248 184.08 77.1314 183.947 77.4381 183.68C77.7581 183.413 77.9181 183.007 77.9181 182.46V181.32H81.2381V182.46C81.2381 183.7 80.7648 184.64 79.8181 185.28C78.8848 185.92 77.5248 186.24 75.7381 186.24ZM95.0573 194.2C93.6573 194.2 92.564 193.873 91.7773 193.22C90.9906 192.553 90.5973 191.613 90.5973 190.4V183.12C90.5973 182.893 90.6506 182.68 90.7573 182.48C90.8773 182.267 91.104 182.093 91.4373 181.96C91.7706 181.827 92.264 181.76 92.9173 181.76C94.4773 181.76 95.2573 182.38 95.2573 183.62C95.2573 184.22 95.084 184.667 94.7373 184.96C94.404 185.253 93.9106 185.4 93.2573 185.4H92.9973L93.9973 184.86V190.4C93.9973 190.84 94.124 191.187 94.3773 191.44C94.644 191.68 95.004 191.8 95.4573 191.8C95.9106 191.8 96.264 191.68 96.5173 191.44C96.784 191.187 96.9173 190.84 96.9173 190.4V186.64C96.9173 186.293 96.8573 186.04 96.7373 185.88C96.6307 185.707 96.4773 185.58 96.2773 185.5V184.04C96.2773 183.333 96.4506 182.8 96.7973 182.44C97.144 182.067 97.6573 181.88 98.3373 181.88H100.437V184.44H99.4773C99.2373 184.44 99.1173 184.573 99.1173 184.84V185.04C99.544 185.2 99.8507 185.407 100.037 185.66C100.224 185.9 100.317 186.253 100.317 186.72V190.4C100.317 190.84 100.444 191.187 100.697 191.44C100.964 191.68 101.324 191.8 101.777 191.8C102.231 191.8 102.584 191.68 102.837 191.44C103.104 191.187 103.237 190.84 103.237 190.4V186.64C103.237 186.293 103.177 186.04 103.057 185.88C102.951 185.707 102.797 185.58 102.597 185.5V184.04C102.597 183.333 102.771 182.8 103.117 182.44C103.464 182.067 103.977 181.88 104.657 181.88H106.757V184.44H105.797C105.557 184.44 105.437 184.573 105.437 184.84V185.04C105.864 185.2 106.171 185.407 106.357 185.66C106.544 185.9 106.637 186.253 106.637 186.72V190.4C106.637 191.613 106.244 192.553 105.457 193.22C104.671 193.873 103.577 194.2 102.177 194.2C101.337 194.2 100.591 194.053 99.9373 193.76C99.284 193.453 98.724 192.953 98.2573 192.26H98.9773C98.4973 192.953 97.9307 193.453 97.2773 193.76C96.624 194.053 95.884 194.2 95.0573 194.2ZM93.3173 184.28C93.7573 184.28 93.9773 184.047 93.9773 183.58C93.9773 183.113 93.7573 182.88 93.3173 182.88V184.28ZM116.159 189.28C116.159 188.84 116.019 188.5 115.739 188.26C115.459 188.007 115.086 187.88 114.619 187.88C114.166 187.88 113.793 188.007 113.499 188.26C113.219 188.5 113.079 188.84 113.079 189.28V191.24L112.259 190.48H112.519C113.186 190.48 113.679 190.627 113.999 190.92C114.333 191.213 114.499 191.66 114.499 192.26C114.499 192.873 114.306 193.34 113.919 193.66C113.546 193.967 112.939 194.12 112.099 194.12C111.273 194.12 110.659 194.007 110.259 193.78C109.873 193.553 109.679 193.213 109.679 192.76V189.28C109.679 188.067 110.119 187.133 110.999 186.48C111.879 185.813 113.086 185.48 114.619 185.48C116.166 185.48 117.373 185.813 118.239 186.48C119.119 187.133 119.559 188.067 119.559 189.28V194H116.159V189.28ZM112.599 193C113.026 193 113.239 192.767 113.239 192.3C113.239 191.833 113.026 191.6 112.599 191.6V193ZM110.159 186.1C109.906 185.9 109.686 185.633 109.499 185.3C109.326 184.953 109.239 184.547 109.239 184.08C109.239 183.453 109.426 182.933 109.799 182.52C110.186 182.093 110.739 181.88 111.459 181.88H113.319L115.639 182.24H115.879C116.026 182.24 116.153 182.213 116.259 182.16C116.379 182.093 116.439 181.953 116.439 181.74V181.32H119.639V182.36C119.639 183.093 119.433 183.66 119.019 184.06C118.619 184.447 118.026 184.64 117.239 184.64H115.639L113.319 184.2H112.599C112.479 184.2 112.379 184.247 112.299 184.34C112.219 184.42 112.179 184.533 112.179 184.68C112.179 184.76 112.199 184.847 112.239 184.94C112.279 185.02 112.333 185.087 112.399 185.14L110.159 186.1ZM129.089 189.28C129.089 188.84 128.949 188.5 128.669 188.26C128.389 188.007 128.016 187.88 127.549 187.88C127.096 187.88 126.722 188.007 126.429 188.26C126.149 188.5 126.009 188.84 126.009 189.28V191.24L125.189 190.48H125.449C126.116 190.48 126.609 190.627 126.929 190.92C127.262 191.213 127.429 191.66 127.429 192.26C127.429 192.873 127.236 193.34 126.849 193.66C126.476 193.967 125.869 194.12 125.029 194.12C124.202 194.12 123.589 194.007 123.189 193.78C122.802 193.553 122.609 193.213 122.609 192.76V189.28C122.609 188.067 123.049 187.133 123.929 186.48C124.809 185.813 126.016 185.48 127.549 185.48C129.096 185.48 130.302 185.813 131.169 186.48C132.049 187.133 132.489 188.067 132.489 189.28V194H129.089V189.28ZM125.529 193C125.956 193 126.169 192.767 126.169 192.3C126.169 191.833 125.956 191.6 125.529 191.6V193ZM122.529 184.44V181.88H132.569V184.44H122.529ZM135.539 189.28C135.539 188.067 135.979 187.133 136.859 186.48C137.739 185.813 138.945 185.48 140.479 185.48C142.025 185.48 143.232 185.813 144.099 186.48C144.979 187.133 145.419 188.067 145.419 189.28V194H142.019V189.28C142.019 188.84 141.879 188.5 141.599 188.26C141.319 188.007 140.945 187.88 140.479 187.88C140.025 187.88 139.652 188.007 139.359 188.26C139.079 188.5 138.939 188.84 138.939 189.28V191.72H138.699C138.792 191.133 139.012 190.653 139.359 190.28C139.719 189.907 140.265 189.72 140.999 189.72H141.219V191.84H140.999C140.652 191.84 140.345 191.873 140.079 191.94C139.812 191.993 139.585 192.1 139.399 192.26C139.212 192.42 139.059 192.653 138.939 192.96V194H135.539V189.28ZM135.459 184.44V181.88H145.499V184.44H135.459ZM138.977 180.6C138.07 180.6 137.384 180.433 136.917 180.1C136.45 179.753 136.217 179.24 136.217 178.56C136.217 177.84 136.497 177.233 137.057 176.74C137.604 176.247 138.424 176 139.517 176C140.277 176 140.984 176.113 141.637 176.34C142.277 176.553 142.857 176.833 143.377 177.18C143.884 177.513 144.31 177.86 144.657 178.22C145.004 178.58 145.257 178.907 145.417 179.2V180.6H138.977ZM139.817 179.26H142.957C142.757 179.06 142.49 178.873 142.157 178.7C141.81 178.527 141.444 178.387 141.057 178.28C140.67 178.16 140.304 178.1 139.957 178.1C139.624 178.1 139.39 178.153 139.257 178.26C139.11 178.367 139.037 178.513 139.037 178.7C139.037 178.873 139.104 179.013 139.237 179.12C139.357 179.213 139.55 179.26 139.817 179.26ZM154.948 189.28C154.948 188.84 154.808 188.5 154.528 188.26C154.248 188.007 153.875 187.88 153.408 187.88C152.955 187.88 152.582 188.007 152.288 188.26C152.008 188.5 151.868 188.84 151.868 189.28V191.24L151.048 190.48H151.308C151.975 190.48 152.468 190.627 152.788 190.92C153.122 191.213 153.288 191.66 153.288 192.26C153.288 192.873 153.095 193.34 152.708 193.66C152.335 193.967 151.728 194.12 150.888 194.12C150.062 194.12 149.448 194.007 149.048 193.78C148.662 193.553 148.468 193.213 148.468 192.76V189.28C148.468 188.067 148.908 187.133 149.788 186.48C150.668 185.813 151.875 185.48 153.408 185.48C154.955 185.48 156.162 185.813 157.028 186.48C157.908 187.133 158.348 188.067 158.348 189.28V194H154.948V189.28ZM151.388 193C151.815 193 152.028 192.767 152.028 192.3C152.028 191.833 151.815 191.6 151.388 191.6V193ZM148.388 184.44V181.88H158.428V184.44H148.388ZM162.958 181.32C162.211 181.32 161.651 181.18 161.278 180.9C160.918 180.607 160.738 180.213 160.738 179.72C160.738 179.6 160.745 179.48 160.758 179.36C160.785 179.227 160.818 179.107 160.858 179H162.498C162.471 179.067 162.451 179.14 162.438 179.22C162.425 179.287 162.418 179.34 162.418 179.38C162.418 179.513 162.465 179.613 162.558 179.68C162.651 179.733 162.751 179.76 162.858 179.76C163.018 179.76 163.138 179.7 163.218 179.58C163.311 179.447 163.358 179.273 163.358 179.06C163.358 178.78 163.291 178.56 163.158 178.4C163.025 178.24 162.771 178.16 162.398 178.16H160.758L160.198 175.6H162.438L162.678 176.6H162.918C163.878 176.6 164.558 176.813 164.958 177.24C165.358 177.667 165.558 178.253 165.558 179C165.558 179.853 165.311 180.453 164.818 180.8C164.338 181.147 163.718 181.32 162.958 181.32ZM163.778 194.12C162.991 194.12 162.411 194.007 162.038 193.78C161.665 193.553 161.478 193.213 161.478 192.76V186.64C161.478 186.293 161.398 186.04 161.238 185.88C161.091 185.707 160.878 185.58 160.598 185.5V184.04C160.598 183.333 160.771 182.8 161.118 182.44C161.465 182.067 161.978 181.88 162.658 181.88H165.038V184.44H163.798C163.558 184.44 163.438 184.573 163.438 184.84V185.04C163.945 185.2 164.311 185.407 164.538 185.66C164.765 185.9 164.878 186.253 164.878 186.72V191.24L163.898 190.48H164.158C164.811 190.48 165.298 190.627 165.618 190.92C165.951 191.213 166.118 191.66 166.118 192.26C166.118 193.5 165.338 194.12 163.778 194.12ZM164.238 193C164.665 193 164.878 192.767 164.878 192.3C164.878 191.833 164.665 191.6 164.238 191.6V193ZM173.057 194.2C171.484 194.2 170.264 193.873 169.397 193.22C168.544 192.553 168.117 191.613 168.117 190.4V186.64C168.117 186.36 168.07 186.127 167.977 185.94C167.884 185.74 167.724 185.58 167.497 185.46V184.24C167.497 183.453 167.704 182.867 168.117 182.48C168.53 182.08 169.124 181.88 169.897 181.88H172.297L174.237 182.64H174.477C174.624 182.64 174.75 182.613 174.857 182.56C174.977 182.493 175.037 182.353 175.037 182.14V181.32H177.997V182.64C177.997 183.027 177.937 183.393 177.817 183.74C177.71 184.087 177.484 184.373 177.137 184.6C176.804 184.813 176.29 184.92 175.597 184.92H173.557L172.277 184.44H171.097C171.004 184.44 170.904 184.467 170.797 184.52C170.704 184.56 170.657 184.68 170.657 184.88V185.04C170.924 185.2 171.13 185.4 171.277 185.64C171.437 185.867 171.517 186.213 171.517 186.68V190.4C171.517 190.84 171.657 191.187 171.937 191.44C172.217 191.68 172.59 191.8 173.057 191.8C173.524 191.8 173.897 191.68 174.177 191.44C174.457 191.187 174.597 190.84 174.597 190.4V188.76L175.417 189.52H175.157C174.504 189.52 174.01 189.373 173.677 189.08C173.344 188.787 173.177 188.34 173.177 187.74C173.177 187.113 173.364 186.647 173.737 186.34C174.124 186.033 174.737 185.88 175.577 185.88C176.404 185.88 177.01 185.993 177.397 186.22C177.797 186.433 177.997 186.773 177.997 187.24V190.4C177.997 191.613 177.557 192.553 176.677 193.22C175.81 193.873 174.604 194.2 173.057 194.2ZM175.077 187C174.65 187 174.437 187.233 174.437 187.7C174.437 188.167 174.65 188.4 175.077 188.4V187ZM170.887 199.28C170.101 199.28 169.481 199.08 169.027 198.68C168.561 198.28 168.327 197.733 168.327 197.04C168.327 196.333 168.567 195.78 169.047 195.38C169.527 194.993 170.174 194.8 170.987 194.8C171.574 194.8 172.041 194.873 172.387 195.02C172.721 195.18 172.994 195.387 173.207 195.64C173.407 195.893 173.594 196.18 173.767 196.5C173.901 196.74 174.007 196.913 174.087 197.02C174.154 197.14 174.227 197.2 174.307 197.2C174.387 197.2 174.454 197.133 174.507 197C174.547 196.88 174.594 196.647 174.647 196.3C174.701 195.953 174.761 195.453 174.827 194.8L177.727 195.12C177.554 196.2 177.367 197.04 177.167 197.64C176.967 198.24 176.721 198.66 176.427 198.9C176.121 199.153 175.707 199.28 175.187 199.28C174.734 199.28 174.361 199.193 174.067 199.02C173.761 198.86 173.507 198.64 173.307 198.36C173.094 198.08 172.887 197.773 172.687 197.44C172.541 197.187 172.401 196.98 172.267 196.82C172.134 196.673 171.974 196.6 171.787 196.6C171.641 196.6 171.521 196.647 171.427 196.74C171.334 196.833 171.287 196.967 171.287 197.14C171.287 197.313 171.334 197.46 171.427 197.58C171.507 197.7 171.614 197.76 171.747 197.76C171.801 197.76 171.874 197.747 171.967 197.72C172.047 197.707 172.134 197.673 172.227 197.62V199.1C172.094 199.14 171.907 199.18 171.667 199.22C171.427 199.26 171.167 199.28 170.887 199.28Z" fill="white"/>
<path d="M168.637 92.751L165.998 82.1963C166.719 82.0431 167.261 81.403 167.261 80.6362V78.9345C167.261 75.2396 164.255 72.2337 160.56 72.2337H148.541V68.7237C148.541 66.9055 147.062 65.4264 145.244 65.4264H122.896L136.476 59.9941C137.295 59.6669 137.692 58.7383 137.365 57.9202C137.038 57.1022 136.11 56.704 135.291 57.0314L124.172 61.4791C127.56 59.3051 130.912 56.9124 132.189 55.2391C134.673 51.9814 134.044 47.3097 130.786 44.8251C127.529 42.3402 122.857 42.9696 120.372 46.2273C118.557 48.6079 116.162 55.297 114.611 60.0106C113.061 55.2974 110.666 48.6079 108.85 46.2273C106.366 42.9696 101.694 42.3406 98.4362 44.8251C95.1786 47.3095 94.5495 51.9812 97.034 55.2391C98.3103 56.9126 101.662 59.3051 105.051 61.4791L93.9313 57.0314C93.1128 56.7036 92.1846 57.102 91.8574 57.9202C91.53 58.7383 91.9281 59.6669 92.7462 59.9941L106.327 65.4264H83.9789C82.1607 65.4264 80.6816 66.9055 80.6816 68.7237V97.6543C80.6816 98.5354 81.3959 99.2498 82.2771 99.2498C83.1581 99.2498 83.8726 98.5356 83.8726 97.6543V68.7237C83.8726 68.6649 83.9201 68.6174 83.9789 68.6174H145.244C145.302 68.6174 145.35 68.6649 145.35 68.7237V97.6547C145.35 98.5358 146.064 99.2502 146.945 99.2502C147.826 99.2502 148.541 98.536 148.541 97.6547V95.8461H167.361C167.363 95.8461 167.364 95.8465 167.366 95.8465C167.368 95.8465 167.369 95.8463 167.371 95.8463C169.687 95.8481 171.653 97.3681 172.328 99.4626H167.367C166.486 99.4626 165.771 100.177 165.771 101.058V104.462C165.771 107.218 168.014 109.461 170.77 109.461H172.579V116.48H168.407C167.037 112.524 163.275 109.673 158.858 109.673C154.441 109.673 150.679 112.523 149.309 116.48H148.541V104.461C148.541 103.58 147.826 102.866 146.945 102.866C146.064 102.866 145.35 103.58 145.35 104.461V116.48H112.248C110.877 112.523 107.116 109.673 102.699 109.673C98.2816 109.673 94.5198 112.523 93.1496 116.48H83.9789C83.9201 116.48 83.8726 116.433 83.8726 116.374V112.864H90.7861C91.6672 112.864 92.3816 112.15 92.3816 111.268C92.3816 110.387 91.6674 109.673 90.7861 109.673H75.47C74.589 109.673 73.8745 110.387 73.8745 111.268C73.8745 112.15 74.5888 112.864 75.47 112.864H80.6818V116.374C80.6818 118.192 82.1609 119.671 83.9791 119.671H92.5972C92.5968 119.707 92.5944 119.742 92.5944 119.778C92.5944 125.349 97.1273 129.882 102.699 129.882C108.27 129.882 112.803 125.349 112.803 119.778C112.803 119.742 112.801 119.707 112.8 119.671H148.756C148.756 119.707 148.753 119.742 148.753 119.778C148.753 125.349 153.286 129.882 158.858 129.882C164.429 129.882 168.962 125.349 168.962 119.778C168.962 119.742 168.96 119.707 168.959 119.671H174.174C175.055 119.671 175.77 118.957 175.77 118.076V101.058C175.77 96.8559 172.67 93.3648 168.637 92.751ZM108.284 59.7388C101.991 55.8279 100.124 54.0287 99.5712 53.3038C98.1536 51.4453 98.5127 48.7799 100.371 47.3623C101.138 46.778 102.041 46.4956 102.937 46.4956C104.215 46.4956 105.48 47.0699 106.313 48.1625C107.857 50.1861 110.274 56.997 111.869 61.9048C110.792 61.2708 109.555 60.5287 108.284 59.7388ZM117.354 61.9046C118.949 56.997 121.366 50.1863 122.91 48.1623C124.327 46.3037 126.993 45.9449 128.851 47.3623C130.71 48.7799 131.069 51.4453 129.651 53.3038C129.099 54.0285 127.232 55.8279 120.939 59.7386C119.669 60.5283 118.431 61.2706 117.354 61.9046ZM148.541 75.4243H160.56C162.495 75.4243 164.07 76.9989 164.07 78.9343V79.0405H148.541V75.4243ZM148.541 92.6551V82.2315H162.718L165.324 92.6551H148.541ZM102.699 126.691C98.8866 126.691 95.7852 123.59 95.7852 119.778C95.7852 115.965 98.8866 112.864 102.699 112.864C106.511 112.864 109.612 115.965 109.612 119.778C109.612 123.59 106.511 126.691 102.699 126.691ZM158.858 126.691C155.046 126.691 151.945 123.59 151.945 119.778C151.945 115.965 155.046 112.864 158.858 112.864C162.67 112.864 165.772 115.965 165.772 119.778C165.772 123.59 162.67 126.691 158.858 126.691ZM172.579 106.269H170.771C169.774 106.269 168.962 105.458 168.962 104.461V102.653H172.579V106.269H172.579Z" fill="url(#paint0_linear_2052_10)"/>
<path d="M102.699 116.48C100.881 116.48 99.4014 117.959 99.4014 119.777C99.4014 121.595 100.881 123.075 102.699 123.075C104.517 123.075 105.996 121.595 105.996 119.777C105.996 117.959 104.517 116.48 102.699 116.48Z" fill="url(#paint1_linear_2052_10)"/>
<path d="M158.858 116.48C157.04 116.48 155.561 117.959 155.561 119.777C155.561 121.595 157.04 123.075 158.858 123.075C160.676 123.075 162.155 121.595 162.155 119.777C162.155 117.959 160.676 116.48 158.858 116.48Z" fill="url(#paint2_linear_2052_10)"/>
<path d="M140.138 109.673H116.313C115.432 109.673 114.718 110.387 114.718 111.268C114.718 112.15 115.432 112.864 116.313 112.864H140.138C141.019 112.864 141.734 112.15 141.734 111.268C141.734 110.387 141.019 109.673 140.138 109.673Z" fill="url(#paint3_linear_2052_10)"/>
<path d="M99.2952 102.866H78.8736C77.9925 102.866 77.2781 103.58 77.2781 104.461C77.2781 105.342 77.9923 106.057 78.8736 106.057H99.2952C100.176 106.057 100.891 105.342 100.891 104.461C100.891 103.58 100.176 102.866 99.2952 102.866Z" fill="url(#paint4_linear_2052_10)"/>
<path d="M99.2951 79.0405H92.4878C91.6068 79.0405 90.8923 79.7548 90.8923 80.636V94.2504C90.8923 95.1314 91.6066 95.8459 92.4878 95.8459C93.3691 95.8459 94.0833 95.1316 94.0833 94.2504V89.0386H97.5933C98.4744 89.0386 99.1888 88.3243 99.1888 87.4431C99.1888 86.5619 98.4746 85.8476 97.5933 85.8476H94.0833V82.2315H99.2951C100.176 82.2315 100.891 81.5173 100.891 80.636C100.89 79.755 100.176 79.0405 99.2951 79.0405Z" fill="url(#paint5_linear_2052_10)"/>
<path d="M111.851 89.7867C113.447 88.7409 114.505 86.9374 114.505 84.8905C114.505 81.6647 111.881 79.0405 108.655 79.0405H104.4C103.519 79.0405 102.805 79.7548 102.805 80.636V94.2504C102.805 95.1314 103.519 95.8459 104.4 95.8459C105.282 95.8459 105.996 95.1316 105.996 94.2504V90.7404H108.652L111.582 95.1352C111.889 95.5963 112.395 95.8459 112.911 95.8459C113.215 95.8459 113.522 95.7591 113.794 95.5776C114.528 95.089 114.726 94.0983 114.237 93.3654L111.851 89.7867ZM108.655 87.5496H105.996V82.2315H108.655C110.121 82.2315 111.314 83.4242 111.314 84.8905C111.314 86.3569 110.121 87.5496 108.655 87.5496Z" fill="url(#paint6_linear_2052_10)"/>
<path d="M124.822 92.6551H119.61V89.0334C119.646 89.0358 119.681 89.0388 119.717 89.0388H123.12C124.001 89.0388 124.716 88.3245 124.716 87.4433C124.716 86.5621 124.001 85.8478 123.12 85.8478H119.717C119.681 85.8478 119.646 85.8508 119.61 85.8532V82.2315H124.822C125.703 82.2315 126.418 81.5173 126.418 80.636C126.418 79.755 125.703 79.0405 124.822 79.0405H118.015C117.134 79.0405 116.419 79.7548 116.419 80.636V94.2504C116.419 95.1314 117.134 95.8459 118.015 95.8459H124.822C125.703 95.8459 126.418 95.1316 126.418 94.2504C126.418 93.3691 125.703 92.6551 124.822 92.6551Z" fill="url(#paint7_linear_2052_10)"/>
<path d="M136.735 92.6551H131.523V89.0388H133.331C134.212 89.0388 134.927 88.3245 134.927 87.4433C134.927 86.5621 134.212 85.8478 133.331 85.8478H131.523V82.2315H136.735C137.616 82.2315 138.33 81.5173 138.33 80.636C138.33 79.755 137.616 79.0405 136.735 79.0405H129.927C129.046 79.0405 128.332 79.7548 128.332 80.636V94.2504C128.332 95.1314 129.046 95.8459 129.927 95.8459H136.735C137.616 95.8459 138.33 95.1316 138.33 94.2504C138.33 93.3691 137.616 92.6551 136.735 92.6551Z" fill="url(#paint8_linear_2052_10)"/>
<defs>
<linearGradient id="paint0_linear_2052_10" x1="73.8745" y1="86.5833" x2="175.77" y2="86.5833" gradientUnits="userSpaceOnUse">
<stop stop-color="#B57E10"/>
<stop offset="0.09" stop-color="#E5C35C"/>
<stop offset="0.14" stop-color="#F9DF7B"/>
<stop offset="0.26" stop-color="#FFF3A6"/>
<stop offset="0.36" stop-color="#F9DF7B"/>
<stop offset="0.49" stop-color="#B57E10"/>
<stop offset="0.57" stop-color="#E5C35C"/>
<stop offset="0.61" stop-color="#F9DF7B"/>
<stop offset="0.72" stop-color="#FFF3A6"/>
<stop offset="0.84" stop-color="#F9DF7B"/>
<stop offset="1" stop-color="#B57E10"/>
</linearGradient>
<linearGradient id="paint1_linear_2052_10" x1="99.4014" y1="119.776" x2="105.996" y2="119.776" gradientUnits="userSpaceOnUse">
<stop stop-color="#B57E10"/>
<stop offset="0.09" stop-color="#E5C35C"/>
<stop offset="0.14" stop-color="#F9DF7B"/>
<stop offset="0.26" stop-color="#FFF3A6"/>
<stop offset="0.36" stop-color="#F9DF7B"/>
<stop offset="0.49" stop-color="#B57E10"/>
<stop offset="0.57" stop-color="#E5C35C"/>
<stop offset="0.61" stop-color="#F9DF7B"/>
<stop offset="0.72" stop-color="#FFF3A6"/>
<stop offset="0.84" stop-color="#F9DF7B"/>
<stop offset="1" stop-color="#B57E10"/>
</linearGradient>
<linearGradient id="paint2_linear_2052_10" x1="155.561" y1="119.776" x2="162.155" y2="119.776" gradientUnits="userSpaceOnUse">
<stop stop-color="#B57E10"/>
<stop offset="0.09" stop-color="#E5C35C"/>
<stop offset="0.14" stop-color="#F9DF7B"/>
<stop offset="0.26" stop-color="#FFF3A6"/>
<stop offset="0.36" stop-color="#F9DF7B"/>
<stop offset="0.49" stop-color="#B57E10"/>
<stop offset="0.57" stop-color="#E5C35C"/>
<stop offset="0.61" stop-color="#F9DF7B"/>
<stop offset="0.72" stop-color="#FFF3A6"/>
<stop offset="0.84" stop-color="#F9DF7B"/>
<stop offset="1" stop-color="#B57E10"/>
</linearGradient>
<linearGradient id="paint3_linear_2052_10" x1="114.718" y1="111.268" x2="141.734" y2="111.268" gradientUnits="userSpaceOnUse">
<stop stop-color="#B57E10"/>
<stop offset="0.09" stop-color="#E5C35C"/>
<stop offset="0.14" stop-color="#F9DF7B"/>
<stop offset="0.26" stop-color="#FFF3A6"/>
<stop offset="0.36" stop-color="#F9DF7B"/>
<stop offset="0.49" stop-color="#B57E10"/>
<stop offset="0.57" stop-color="#E5C35C"/>
<stop offset="0.61" stop-color="#F9DF7B"/>
<stop offset="0.72" stop-color="#FFF3A6"/>
<stop offset="0.84" stop-color="#F9DF7B"/>
<stop offset="1" stop-color="#B57E10"/>
</linearGradient>
<linearGradient id="paint4_linear_2052_10" x1="77.2781" y1="104.461" x2="100.891" y2="104.461" gradientUnits="userSpaceOnUse">
<stop stop-color="#B57E10"/>
<stop offset="0.09" stop-color="#E5C35C"/>
<stop offset="0.14" stop-color="#F9DF7B"/>
<stop offset="0.26" stop-color="#FFF3A6"/>
<stop offset="0.36" stop-color="#F9DF7B"/>
<stop offset="0.49" stop-color="#B57E10"/>
<stop offset="0.57" stop-color="#E5C35C"/>
<stop offset="0.61" stop-color="#F9DF7B"/>
<stop offset="0.72" stop-color="#FFF3A6"/>
<stop offset="0.84" stop-color="#F9DF7B"/>
<stop offset="1" stop-color="#B57E10"/>
</linearGradient>
<linearGradient id="paint5_linear_2052_10" x1="90.8923" y1="87.4412" x2="100.891" y2="87.4412" gradientUnits="userSpaceOnUse">
<stop stop-color="#B57E10"/>
<stop offset="0.09" stop-color="#E5C35C"/>
<stop offset="0.14" stop-color="#F9DF7B"/>
<stop offset="0.26" stop-color="#FFF3A6"/>
<stop offset="0.36" stop-color="#F9DF7B"/>
<stop offset="0.49" stop-color="#B57E10"/>
<stop offset="0.57" stop-color="#E5C35C"/>
<stop offset="0.61" stop-color="#F9DF7B"/>
<stop offset="0.72" stop-color="#FFF3A6"/>
<stop offset="0.84" stop-color="#F9DF7B"/>
<stop offset="1" stop-color="#B57E10"/>
</linearGradient>
<linearGradient id="paint6_linear_2052_10" x1="102.805" y1="87.4412" x2="114.505" y2="87.4412" gradientUnits="userSpaceOnUse">
<stop stop-color="#B57E10"/>
<stop offset="0.09" stop-color="#E5C35C"/>
<stop offset="0.14" stop-color="#F9DF7B"/>
<stop offset="0.26" stop-color="#FFF3A6"/>
<stop offset="0.36" stop-color="#F9DF7B"/>
<stop offset="0.49" stop-color="#B57E10"/>
<stop offset="0.57" stop-color="#E5C35C"/>
<stop offset="0.61" stop-color="#F9DF7B"/>
<stop offset="0.72" stop-color="#FFF3A6"/>
<stop offset="0.84" stop-color="#F9DF7B"/>
<stop offset="1" stop-color="#B57E10"/>
</linearGradient>
<linearGradient id="paint7_linear_2052_10" x1="116.419" y1="87.4412" x2="126.418" y2="87.4412" gradientUnits="userSpaceOnUse">
<stop stop-color="#B57E10"/>
<stop offset="0.09" stop-color="#E5C35C"/>
<stop offset="0.14" stop-color="#F9DF7B"/>
<stop offset="0.26" stop-color="#FFF3A6"/>
<stop offset="0.36" stop-color="#F9DF7B"/>
<stop offset="0.49" stop-color="#B57E10"/>
<stop offset="0.57" stop-color="#E5C35C"/>
<stop offset="0.61" stop-color="#F9DF7B"/>
<stop offset="0.72" stop-color="#FFF3A6"/>
<stop offset="0.84" stop-color="#F9DF7B"/>
<stop offset="1" stop-color="#B57E10"/>
</linearGradient>
<linearGradient id="paint8_linear_2052_10" x1="128.332" y1="87.4412" x2="138.33" y2="87.4412" gradientUnits="userSpaceOnUse">
<stop stop-color="#B57E10"/>
<stop offset="0.09" stop-color="#E5C35C"/>
<stop offset="0.14" stop-color="#F9DF7B"/>
<stop offset="0.26" stop-color="#FFF3A6"/>
<stop offset="0.36" stop-color="#F9DF7B"/>
<stop offset="0.49" stop-color="#B57E10"/>
<stop offset="0.57" stop-color="#E5C35C"/>
<stop offset="0.61" stop-color="#F9DF7B"/>
<stop offset="0.72" stop-color="#FFF3A6"/>
<stop offset="0.84" stop-color="#F9DF7B"/>
<stop offset="1" stop-color="#B57E10"/>
</linearGradient>
</defs>
</svg>
