<svg width="250" height="250" viewBox="0 0 250 250" fill="none" xmlns="http://www.w3.org/2000/svg">
<circle cx="124.822" cy="124.822" r="124.822" fill="#349440"/>
<path d="M45.1431 149V134.455H48.2184V140.456H54.4613V134.455H57.5295V149H54.4613V142.991H48.2184V149H45.1431ZM64.9371 149.213C63.8339 149.213 62.8799 148.979 62.0749 148.51C61.2747 148.036 60.6568 147.378 60.2212 146.536C59.7856 145.688 59.5678 144.705 59.5678 143.588C59.5678 142.461 59.7856 141.476 60.2212 140.634C60.6568 139.786 61.2747 139.128 62.0749 138.659C62.8799 138.186 63.8339 137.949 64.9371 137.949C66.0404 137.949 66.9921 138.186 67.7923 138.659C68.5972 139.128 69.2174 139.786 69.6531 140.634C70.0887 141.476 70.3065 142.461 70.3065 143.588C70.3065 144.705 70.0887 145.688 69.6531 146.536C69.2174 147.378 68.5972 148.036 67.7923 148.51C66.9921 148.979 66.0404 149.213 64.9371 149.213ZM64.9513 146.869C65.4532 146.869 65.8723 146.727 66.2085 146.443C66.5446 146.154 66.7979 145.761 66.9684 145.264C67.1436 144.767 67.2312 144.201 67.2312 143.567C67.2312 142.932 67.1436 142.366 66.9684 141.869C66.7979 141.372 66.5446 140.979 66.2085 140.69C65.8723 140.402 65.4532 140.257 64.9513 140.257C64.4447 140.257 64.0186 140.402 63.6729 140.69C63.332 140.979 63.074 141.372 62.8988 141.869C62.7283 142.366 62.6431 142.932 62.6431 143.567C62.6431 144.201 62.7283 144.767 62.8988 145.264C63.074 145.761 63.332 146.154 63.6729 146.443C64.0186 146.727 64.4447 146.869 64.9513 146.869ZM72.2738 149V138.091H75.1573V140.016H75.2852C75.5124 139.376 75.8912 138.872 76.4215 138.503C76.9518 138.134 77.5863 137.949 78.3249 137.949C79.073 137.949 79.7099 138.136 80.2354 138.51C80.761 138.879 81.1114 139.381 81.2866 140.016H81.4002C81.6228 139.391 82.0252 138.891 82.6076 138.517C83.1947 138.138 83.8884 137.949 84.6886 137.949C85.7066 137.949 86.5328 138.273 87.1673 138.922C87.8065 139.566 88.1261 140.48 88.1261 141.663V149H85.1076V142.26C85.1076 141.654 84.9466 141.199 84.6246 140.896C84.3027 140.593 83.9002 140.442 83.4173 140.442C82.868 140.442 82.4395 140.617 82.1317 140.967C81.824 141.313 81.6701 141.77 81.6701 142.338V149H78.7369V142.196C78.7369 141.661 78.583 141.235 78.2752 140.918C77.9722 140.6 77.5721 140.442 77.0749 140.442C76.7388 140.442 76.4357 140.527 76.1658 140.697C75.9007 140.863 75.69 141.098 75.5337 141.401C75.3775 141.699 75.2994 142.049 75.2994 142.452V149H72.2738ZM95.4876 149.213C94.3654 149.213 93.3995 148.986 92.5898 148.531C91.7849 148.072 91.1647 147.423 90.729 146.585C90.2934 145.742 90.0756 144.746 90.0756 143.595C90.0756 142.473 90.2934 141.488 90.729 140.641C91.1647 139.793 91.7778 139.133 92.5685 138.659C93.364 138.186 94.2968 137.949 95.3668 137.949C96.0865 137.949 96.7565 138.065 97.3768 138.297C98.0018 138.524 98.5463 138.867 99.0103 139.327C99.479 139.786 99.8436 140.364 100.104 141.06C100.364 141.751 100.495 142.561 100.495 143.489V144.32H91.283V142.445H97.6467C97.6467 142.009 97.552 141.623 97.3626 141.287C97.1732 140.951 96.9104 140.688 96.5742 140.499C96.2428 140.304 95.8569 140.207 95.4165 140.207C94.9573 140.207 94.5501 140.314 94.195 140.527C93.8446 140.735 93.57 141.017 93.3711 141.372C93.1722 141.723 93.0704 142.113 93.0657 142.544V144.327C93.0657 144.866 93.1651 145.333 93.364 145.726C93.5676 146.119 93.854 146.422 94.2234 146.635C94.5927 146.848 95.0307 146.955 95.5373 146.955C95.8735 146.955 96.1812 146.907 96.4606 146.812C96.7399 146.718 96.979 146.576 97.1779 146.386C97.3768 146.197 97.5283 145.965 97.6325 145.69L100.431 145.875C100.289 146.547 99.9975 147.134 99.5572 147.636C99.1216 148.134 98.5581 148.522 97.8668 148.801C97.1803 149.076 96.3872 149.213 95.4876 149.213ZM116.8 139.156C116.7 138.811 116.561 138.505 116.381 138.24C116.201 137.97 115.981 137.743 115.72 137.558C115.464 137.369 115.171 137.224 114.839 137.125C114.513 137.026 114.151 136.976 113.753 136.976C113.009 136.976 112.356 137.161 111.793 137.53C111.234 137.899 110.798 138.437 110.486 139.142C110.173 139.843 110.017 140.7 110.017 141.713C110.017 142.726 110.171 143.588 110.479 144.298C110.786 145.009 111.222 145.551 111.786 145.925C112.349 146.294 113.014 146.479 113.781 146.479C114.477 146.479 115.071 146.356 115.564 146.109C116.061 145.858 116.44 145.506 116.7 145.051C116.965 144.597 117.098 144.059 117.098 143.439L117.723 143.531H113.973V141.216H120.06V143.048C120.06 144.327 119.79 145.425 119.25 146.344C118.71 147.258 117.967 147.963 117.02 148.46C116.073 148.953 114.989 149.199 113.767 149.199C112.403 149.199 111.205 148.898 110.173 148.297C109.141 147.691 108.336 146.831 107.759 145.719C107.186 144.601 106.899 143.276 106.899 141.741C106.899 140.562 107.07 139.511 107.411 138.588C107.756 137.66 108.239 136.874 108.859 136.23C109.48 135.586 110.202 135.096 111.026 134.76C111.849 134.424 112.742 134.256 113.703 134.256C114.527 134.256 115.294 134.376 116.004 134.618C116.714 134.855 117.344 135.191 117.893 135.626C118.447 136.062 118.9 136.58 119.25 137.182C119.6 137.778 119.825 138.437 119.925 139.156H116.8ZM122.313 149V138.091H125.246V139.994H125.36C125.559 139.317 125.892 138.806 126.361 138.46C126.83 138.11 127.37 137.935 127.98 137.935C128.132 137.935 128.295 137.944 128.471 137.963C128.646 137.982 128.8 138.008 128.932 138.041V140.726C128.79 140.683 128.594 140.645 128.343 140.612C128.092 140.579 127.862 140.562 127.654 140.562C127.209 140.562 126.811 140.66 126.461 140.854C126.115 141.043 125.84 141.308 125.637 141.649C125.438 141.99 125.338 142.383 125.338 142.828V149H122.313ZM134.918 149.213C133.814 149.213 132.86 148.979 132.055 148.51C131.255 148.036 130.637 147.378 130.202 146.536C129.766 145.688 129.548 144.705 129.548 143.588C129.548 142.461 129.766 141.476 130.202 140.634C130.637 139.786 131.255 139.128 132.055 138.659C132.86 138.186 133.814 137.949 134.918 137.949C136.021 137.949 136.973 138.186 137.773 138.659C138.578 139.128 139.198 139.786 139.634 140.634C140.069 141.476 140.287 142.461 140.287 143.588C140.287 144.705 140.069 145.688 139.634 146.536C139.198 147.378 138.578 148.036 137.773 148.51C136.973 148.979 136.021 149.213 134.918 149.213ZM134.932 146.869C135.434 146.869 135.853 146.727 136.189 146.443C136.525 146.154 136.778 145.761 136.949 145.264C137.124 144.767 137.212 144.201 137.212 143.567C137.212 142.932 137.124 142.366 136.949 141.869C136.778 141.372 136.525 140.979 136.189 140.69C135.853 140.402 135.434 140.257 134.932 140.257C134.425 140.257 133.999 140.402 133.653 140.69C133.313 140.979 133.054 141.372 132.879 141.869C132.709 142.366 132.624 142.932 132.624 143.567C132.624 144.201 132.709 144.767 132.879 145.264C133.054 145.761 133.313 146.154 133.653 146.443C133.999 146.727 134.425 146.869 134.932 146.869ZM144.133 149L141.164 138.091H144.225L145.915 145.42H146.015L147.776 138.091H150.781L152.57 145.378H152.663L154.325 138.091H157.379L154.417 149H151.214L149.339 142.139H149.204L147.329 149H144.133ZM162.018 142.693V149H158.993V138.091H161.876V140.016H162.004C162.245 139.381 162.65 138.879 163.218 138.51C163.787 138.136 164.475 137.949 165.285 137.949C166.043 137.949 166.703 138.115 167.267 138.446C167.83 138.777 168.268 139.251 168.581 139.866C168.893 140.477 169.049 141.206 169.049 142.054V149H166.024V142.594C166.029 141.926 165.858 141.405 165.512 141.031C165.167 140.652 164.691 140.463 164.085 140.463C163.678 140.463 163.318 140.551 163.005 140.726C162.698 140.901 162.456 141.157 162.281 141.493C162.11 141.824 162.023 142.224 162.018 142.693ZM176.12 149V134.455H181.858C182.957 134.455 183.894 134.651 184.671 135.044C185.452 135.432 186.046 135.984 186.453 136.699C186.865 137.409 187.071 138.245 187.071 139.206C187.071 140.172 186.863 141.003 186.446 141.699C186.03 142.39 185.426 142.92 184.635 143.29C183.849 143.659 182.898 143.844 181.78 143.844H177.938V141.372H181.283C181.87 141.372 182.358 141.292 182.746 141.131C183.134 140.97 183.423 140.728 183.613 140.406C183.807 140.084 183.904 139.684 183.904 139.206C183.904 138.723 183.807 138.316 183.613 137.984C183.423 137.653 183.132 137.402 182.739 137.232C182.351 137.056 181.861 136.969 181.269 136.969H179.195V149H176.12ZM183.975 142.381L187.59 149H184.195L180.658 142.381H183.975ZM189.188 149V138.091H192.213V149H189.188ZM190.708 136.685C190.258 136.685 189.872 136.536 189.55 136.237C189.233 135.934 189.074 135.572 189.074 135.151C189.074 134.734 189.233 134.376 189.55 134.078C189.872 133.775 190.258 133.624 190.708 133.624C191.158 133.624 191.541 133.775 191.858 134.078C192.18 134.376 192.341 134.734 192.341 135.151C192.341 135.572 192.18 135.934 191.858 136.237C191.541 136.536 191.158 136.685 190.708 136.685ZM199.566 149.213C198.449 149.213 197.487 148.976 196.683 148.503C195.882 148.025 195.267 147.362 194.836 146.514C194.41 145.667 194.197 144.691 194.197 143.588C194.197 142.471 194.412 141.491 194.843 140.648C195.279 139.8 195.897 139.14 196.697 138.666C197.497 138.188 198.449 137.949 199.552 137.949C200.504 137.949 201.337 138.122 202.052 138.467C202.767 138.813 203.333 139.298 203.749 139.923C204.166 140.548 204.396 141.282 204.438 142.125H201.583C201.503 141.58 201.29 141.143 200.944 140.811C200.603 140.475 200.156 140.307 199.602 140.307C199.133 140.307 198.723 140.435 198.373 140.69C198.027 140.941 197.757 141.308 197.563 141.791C197.369 142.274 197.272 142.859 197.272 143.545C197.272 144.241 197.367 144.833 197.556 145.321C197.75 145.809 198.022 146.18 198.373 146.436C198.723 146.692 199.133 146.82 199.602 146.82C199.947 146.82 200.257 146.749 200.532 146.607C200.811 146.464 201.041 146.259 201.221 145.989C201.406 145.714 201.526 145.385 201.583 145.001H204.438C204.391 145.835 204.164 146.569 203.756 147.203C203.354 147.833 202.798 148.325 202.087 148.68C201.377 149.036 200.537 149.213 199.566 149.213ZM211.347 149.213C210.225 149.213 209.259 148.986 208.449 148.531C207.644 148.072 207.024 147.423 206.588 146.585C206.153 145.742 205.935 144.746 205.935 143.595C205.935 142.473 206.153 141.488 206.588 140.641C207.024 139.793 207.637 139.133 208.428 138.659C209.223 138.186 210.156 137.949 211.226 137.949C211.946 137.949 212.616 138.065 213.236 138.297C213.861 138.524 214.406 138.867 214.87 139.327C215.338 139.786 215.703 140.364 215.963 141.06C216.224 141.751 216.354 142.561 216.354 143.489V144.32H207.142V142.445H213.506C213.506 142.009 213.411 141.623 213.222 141.287C213.033 140.951 212.77 140.688 212.434 140.499C212.102 140.304 211.716 140.207 211.276 140.207C210.817 140.207 210.409 140.314 210.054 140.527C209.704 140.735 209.429 141.017 209.23 141.372C209.032 141.723 208.93 142.113 208.925 142.544V144.327C208.925 144.866 209.025 145.333 209.223 145.726C209.427 146.119 209.713 146.422 210.083 146.635C210.452 146.848 210.89 146.955 211.397 146.955C211.733 146.955 212.041 146.907 212.32 146.812C212.599 146.718 212.838 146.576 213.037 146.386C213.236 146.197 213.388 145.965 213.492 145.69L216.29 145.875C216.148 146.547 215.857 147.134 215.417 147.636C214.981 148.134 214.417 148.522 213.726 148.801C213.04 149.076 212.247 149.213 211.347 149.213Z" fill="white"/>
<path d="M87.6568 237H82.5005V222.455H87.6994C89.1625 222.455 90.4219 222.746 91.4778 223.328C92.5337 223.906 93.3457 224.737 93.9139 225.821C94.4868 226.905 94.7733 228.203 94.7733 229.713C94.7733 231.228 94.4868 232.53 93.9139 233.619C93.3457 234.708 92.5289 235.544 91.4636 236.126C90.403 236.709 89.1341 237 87.6568 237ZM85.5758 234.365H87.5289C88.438 234.365 89.2027 234.204 89.823 233.882C90.448 233.555 90.9167 233.051 91.2292 232.369C91.5465 231.683 91.7051 230.797 91.7051 229.713C91.7051 228.638 91.5465 227.76 91.2292 227.078C90.9167 226.396 90.4503 225.894 89.8301 225.572C89.2098 225.25 88.4451 225.089 87.536 225.089H85.5758V234.365ZM101.966 237.213C100.844 237.213 99.878 236.986 99.0684 236.531C98.2634 236.072 97.6432 235.423 97.2076 234.585C96.772 233.742 96.5542 232.746 96.5542 231.595C96.5542 230.473 96.772 229.488 97.2076 228.641C97.6432 227.793 98.2563 227.133 99.0471 226.659C99.8425 226.186 100.775 225.949 101.845 225.949C102.565 225.949 103.235 226.065 103.855 226.297C104.48 226.524 105.025 226.867 105.489 227.327C105.958 227.786 106.322 228.364 106.583 229.06C106.843 229.751 106.973 230.561 106.973 231.489V232.32H97.7615V230.445H104.125C104.125 230.009 104.03 229.623 103.841 229.287C103.652 228.951 103.389 228.688 103.053 228.499C102.721 228.304 102.335 228.207 101.895 228.207C101.436 228.207 101.029 228.314 100.673 228.527C100.323 228.735 100.048 229.017 99.8496 229.372C99.6507 229.723 99.5489 230.113 99.5442 230.544V232.327C99.5442 232.866 99.6436 233.333 99.8425 233.726C100.046 234.119 100.333 234.422 100.702 234.635C101.071 234.848 101.509 234.955 102.016 234.955C102.352 234.955 102.66 234.907 102.939 234.812C103.218 234.718 103.458 234.576 103.656 234.386C103.855 234.197 104.007 233.965 104.111 233.69L106.909 233.875C106.767 234.547 106.476 235.134 106.036 235.636C105.6 236.134 105.037 236.522 104.345 236.801C103.659 237.076 102.866 237.213 101.966 237.213ZM111.973 222.455V237H108.948V222.455H111.973ZM114.397 237V226.091H117.422V237H114.397ZM115.917 224.685C115.467 224.685 115.081 224.536 114.759 224.237C114.442 223.934 114.283 223.572 114.283 223.151C114.283 222.734 114.442 222.376 114.759 222.078C115.081 221.775 115.467 221.624 115.917 221.624C116.367 221.624 116.75 221.775 117.067 222.078C117.389 222.376 117.55 222.734 117.55 223.151C117.55 223.572 117.389 223.934 117.067 224.237C116.75 224.536 116.367 224.685 115.917 224.685ZM124.775 237.213C123.658 237.213 122.696 236.976 121.892 236.503C121.091 236.025 120.476 235.362 120.045 234.514C119.619 233.667 119.406 232.691 119.406 231.588C119.406 230.471 119.621 229.491 120.052 228.648C120.488 227.8 121.106 227.14 121.906 226.666C122.706 226.188 123.658 225.949 124.761 225.949C125.713 225.949 126.546 226.122 127.261 226.467C127.976 226.813 128.542 227.298 128.958 227.923C129.375 228.548 129.605 229.282 129.647 230.125H126.792C126.712 229.58 126.499 229.143 126.153 228.811C125.812 228.475 125.365 228.307 124.811 228.307C124.342 228.307 123.932 228.435 123.582 228.69C123.236 228.941 122.966 229.308 122.772 229.791C122.578 230.274 122.481 230.859 122.481 231.545C122.481 232.241 122.576 232.833 122.765 233.321C122.959 233.809 123.231 234.18 123.582 234.436C123.932 234.692 124.342 234.82 124.811 234.82C125.156 234.82 125.466 234.749 125.741 234.607C126.02 234.464 126.25 234.259 126.43 233.989C126.615 233.714 126.735 233.385 126.792 233.001H129.647C129.6 233.835 129.373 234.569 128.965 235.203C128.563 235.833 128.007 236.325 127.296 236.68C126.586 237.036 125.746 237.213 124.775 237.213ZM131.584 237V226.091H134.61V237H131.584ZM133.104 224.685C132.654 224.685 132.269 224.536 131.947 224.237C131.629 223.934 131.471 223.572 131.471 223.151C131.471 222.734 131.629 222.376 131.947 222.078C132.269 221.775 132.654 221.624 133.104 221.624C133.554 221.624 133.938 221.775 134.255 222.078C134.577 222.376 134.738 222.734 134.738 223.151C134.738 223.572 134.577 223.934 134.255 224.237C133.938 224.536 133.554 224.685 133.104 224.685ZM141.963 237.213C140.859 237.213 139.905 236.979 139.1 236.51C138.3 236.036 137.682 235.378 137.247 234.536C136.811 233.688 136.593 232.705 136.593 231.588C136.593 230.461 136.811 229.476 137.247 228.634C137.682 227.786 138.3 227.128 139.1 226.659C139.905 226.186 140.859 225.949 141.963 225.949C143.066 225.949 144.017 226.186 144.818 226.659C145.623 227.128 146.243 227.786 146.678 228.634C147.114 229.476 147.332 230.461 147.332 231.588C147.332 232.705 147.114 233.688 146.678 234.536C146.243 235.378 145.623 236.036 144.818 236.51C144.017 236.979 143.066 237.213 141.963 237.213ZM141.977 234.869C142.479 234.869 142.898 234.727 143.234 234.443C143.57 234.154 143.823 233.761 143.994 233.264C144.169 232.767 144.257 232.201 144.257 231.567C144.257 230.932 144.169 230.366 143.994 229.869C143.823 229.372 143.57 228.979 143.234 228.69C142.898 228.402 142.479 228.257 141.977 228.257C141.47 228.257 141.044 228.402 140.698 228.69C140.357 228.979 140.099 229.372 139.924 229.869C139.754 230.366 139.669 230.932 139.669 231.567C139.669 232.201 139.754 232.767 139.924 233.264C140.099 233.761 140.357 234.154 140.698 234.443C141.044 234.727 141.47 234.869 141.977 234.869ZM156.295 232.355V226.091H159.32V237H156.416V235.018H156.302C156.056 235.658 155.646 236.171 155.073 236.56C154.505 236.948 153.811 237.142 152.992 237.142C152.263 237.142 151.622 236.976 151.068 236.645C150.514 236.313 150.08 235.842 149.768 235.232C149.46 234.621 149.304 233.889 149.299 233.037V226.091H152.325V232.497C152.329 233.141 152.502 233.65 152.843 234.024C153.184 234.398 153.641 234.585 154.214 234.585C154.579 234.585 154.919 234.502 155.237 234.337C155.554 234.166 155.81 233.915 156.004 233.584C156.203 233.252 156.3 232.843 156.295 232.355ZM170.817 229.202L168.047 229.372C168 229.135 167.898 228.922 167.742 228.733C167.586 228.539 167.38 228.385 167.124 228.271C166.873 228.153 166.573 228.094 166.222 228.094C165.753 228.094 165.358 228.193 165.036 228.392C164.714 228.586 164.553 228.847 164.553 229.173C164.553 229.434 164.657 229.654 164.866 229.834C165.074 230.014 165.431 230.158 165.938 230.267L167.912 230.665C168.973 230.883 169.764 231.233 170.285 231.716C170.805 232.199 171.066 232.833 171.066 233.619C171.066 234.334 170.855 234.962 170.434 235.501C170.017 236.041 169.444 236.463 168.715 236.766C167.991 237.064 167.155 237.213 166.208 237.213C164.764 237.213 163.613 236.912 162.756 236.311C161.904 235.705 161.404 234.881 161.258 233.839L164.233 233.683C164.323 234.124 164.541 234.46 164.887 234.692C165.233 234.919 165.675 235.033 166.215 235.033C166.745 235.033 167.171 234.931 167.493 234.727C167.82 234.519 167.986 234.251 167.991 233.925C167.986 233.65 167.87 233.425 167.643 233.25C167.415 233.07 167.065 232.933 166.591 232.838L164.702 232.462C163.637 232.249 162.844 231.879 162.323 231.354C161.807 230.828 161.549 230.158 161.549 229.344C161.549 228.643 161.738 228.039 162.117 227.533C162.501 227.026 163.038 226.635 163.729 226.361C164.425 226.086 165.24 225.949 166.172 225.949C167.55 225.949 168.635 226.24 169.425 226.822C170.221 227.405 170.685 228.198 170.817 229.202Z" fill="white"/>
<path d="M52.2662 204.638C52.2093 204.065 51.9655 203.62 51.5346 203.303C51.1038 202.985 50.519 202.827 49.7804 202.827C49.2785 202.827 48.8547 202.898 48.5091 203.04C48.1634 203.177 47.8983 203.369 47.7136 203.615C47.5337 203.861 47.4437 204.141 47.4437 204.453C47.4342 204.714 47.4887 204.941 47.6071 205.135C47.7302 205.329 47.8983 205.497 48.1113 205.639C48.3244 205.777 48.5706 205.897 48.85 206.001C49.1293 206.101 49.4276 206.186 49.7449 206.257L51.0517 206.57C51.6861 206.712 52.2685 206.901 52.7988 207.138C53.3291 207.375 53.7884 207.666 54.1767 208.011C54.5649 208.357 54.8656 208.764 55.0787 209.233C55.2965 209.702 55.4077 210.239 55.4125 210.845C55.4077 211.735 55.1805 212.507 54.7306 213.161C54.2856 213.809 53.6416 214.313 52.7988 214.673C51.9608 215.028 50.9499 215.206 49.7662 215.206C48.5919 215.206 47.5692 215.026 46.698 214.666C45.8315 214.306 45.1544 213.774 44.6667 213.068C44.1838 212.358 43.9305 211.48 43.9068 210.433H46.8826C46.9158 210.921 47.0555 211.328 47.3017 211.655C47.5526 211.977 47.8864 212.221 48.3031 212.386C48.7245 212.547 49.2003 212.628 49.7306 212.628C50.2515 212.628 50.7037 212.552 51.0872 212.401C51.4754 212.249 51.7761 212.038 51.9892 211.768C52.2022 211.499 52.3088 211.188 52.3088 210.838C52.3088 210.511 52.2117 210.237 52.0176 210.014C51.8282 209.792 51.5488 209.602 51.1795 209.446C50.8149 209.29 50.3675 209.148 49.8372 209.02L48.2534 208.622C47.027 208.324 46.0588 207.857 45.3485 207.223C44.6383 206.589 44.2856 205.734 44.2903 204.659C44.2856 203.778 44.5199 203.009 44.9934 202.351C45.4717 201.693 46.1274 201.179 46.9608 200.81C47.7941 200.44 48.7411 200.256 49.8017 200.256C50.8812 200.256 51.8234 200.44 52.6284 200.81C53.438 201.179 54.0678 201.693 54.5176 202.351C54.9674 203.009 55.1994 203.771 55.2136 204.638H52.2662ZM60.535 215.206C59.839 215.206 59.2187 215.085 58.6742 214.844C58.1297 214.598 57.6988 214.235 57.3816 213.757C57.0691 213.274 56.9128 212.673 56.9128 211.953C56.9128 211.347 57.0241 210.838 57.2466 210.426C57.4692 210.014 57.7722 209.683 58.1557 209.432C58.5392 209.181 58.9748 208.991 59.4625 208.864C59.955 208.736 60.4711 208.646 61.0108 208.594C61.6453 208.527 62.1567 208.466 62.5449 208.409C62.9332 208.348 63.2149 208.258 63.3901 208.139C63.5653 208.021 63.6529 207.846 63.6529 207.614V207.571C63.6529 207.121 63.5108 206.773 63.2267 206.527C62.9474 206.281 62.5497 206.158 62.0336 206.158C61.4891 206.158 61.0558 206.278 60.7338 206.52C60.4119 206.757 60.1988 207.055 60.0946 207.415L57.2963 207.188C57.4384 206.525 57.7177 205.952 58.1344 205.469C58.5511 204.981 59.0885 204.607 59.7466 204.347C60.4095 204.081 61.1766 203.949 62.0478 203.949C62.6538 203.949 63.2338 204.02 63.7878 204.162C64.3465 204.304 64.8413 204.524 65.2722 204.822C65.7078 205.121 66.0511 205.504 66.302 205.973C66.553 206.437 66.6784 206.993 66.6784 207.642V215H63.8091V213.487H63.7239C63.5487 213.828 63.3143 214.129 63.0208 214.389C62.7272 214.645 62.3745 214.846 61.9625 214.993C61.5506 215.135 61.0748 215.206 60.535 215.206ZM61.4015 213.118C61.8465 213.118 62.2395 213.03 62.5804 212.855C62.9213 212.675 63.1889 212.434 63.383 212.131C63.5771 211.828 63.6742 211.484 63.6742 211.101V209.943C63.5795 210.005 63.4493 210.062 63.2836 210.114C63.1226 210.161 62.9403 210.206 62.7367 210.249C62.5331 210.286 62.3295 210.322 62.1259 210.355C61.9223 210.384 61.7376 210.41 61.5719 210.433C61.2168 210.485 60.9067 210.568 60.6415 210.682C60.3764 210.795 60.1704 210.949 60.0236 211.143C59.8768 211.333 59.8034 211.57 59.8034 211.854C59.8034 212.266 59.9526 212.58 60.2509 212.798C60.5539 213.011 60.9374 213.118 61.4015 213.118ZM74.8922 204.091V206.364H68.1593V204.091H74.8922ZM69.7005 215V203.303C69.7005 202.512 69.8543 201.856 70.1621 201.335C70.4746 200.814 70.9007 200.424 71.4405 200.163C71.9803 199.903 72.5935 199.773 73.28 199.773C73.744 199.773 74.1678 199.808 74.5513 199.879C74.9396 199.95 75.2284 200.014 75.4178 200.071L74.878 202.344C74.7596 202.306 74.6129 202.27 74.4377 202.237C74.2672 202.204 74.092 202.188 73.9121 202.188C73.467 202.188 73.1569 202.292 72.9817 202.5C72.8065 202.704 72.7189 202.99 72.7189 203.359V215H69.7005ZM81.3216 215.213C80.1994 215.213 79.2335 214.986 78.4238 214.531C77.6189 214.072 76.9986 213.423 76.563 212.585C76.1274 211.742 75.9096 210.746 75.9096 209.595C75.9096 208.473 76.1274 207.488 76.563 206.641C76.9986 205.793 77.6118 205.133 78.4025 204.659C79.198 204.186 80.1307 203.949 81.2008 203.949C81.9205 203.949 82.5905 204.065 83.2108 204.297C83.8358 204.524 84.3803 204.867 84.8443 205.327C85.313 205.786 85.6776 206.364 85.938 207.06C86.1984 207.751 86.3287 208.561 86.3287 209.489V210.32H77.117V208.445H83.4806C83.4806 208.009 83.3859 207.623 83.1966 207.287C83.0072 206.951 82.7444 206.688 82.4082 206.499C82.0768 206.304 81.6909 206.207 81.2505 206.207C80.7913 206.207 80.3841 206.314 80.0289 206.527C79.6786 206.735 79.4039 207.017 79.2051 207.372C79.0062 207.723 78.9044 208.113 78.8997 208.544V210.327C78.8997 210.866 78.9991 211.333 79.198 211.726C79.4016 212.119 79.688 212.422 80.0574 212.635C80.4267 212.848 80.8646 212.955 81.3713 212.955C81.7074 212.955 82.0152 212.907 82.2946 212.812C82.5739 212.718 82.813 212.576 83.0119 212.386C83.2108 212.197 83.3623 211.965 83.4664 211.69L86.2647 211.875C86.1227 212.547 85.8315 213.134 85.3912 213.636C84.9556 214.134 84.3921 214.522 83.7008 214.801C83.0143 215.076 82.2212 215.213 81.3216 215.213ZM98.7346 204.091V206.364H92.165V204.091H98.7346ZM93.6564 201.477H96.682V211.648C96.682 211.927 96.7246 212.145 96.8098 212.301C96.8951 212.453 97.0134 212.559 97.165 212.621C97.3212 212.682 97.5011 212.713 97.7047 212.713C97.8468 212.713 97.9888 212.701 98.1309 212.678C98.2729 212.649 98.3818 212.628 98.4576 212.614L98.9334 214.865C98.7819 214.912 98.5688 214.967 98.2942 215.028C98.0196 215.095 97.6858 215.135 97.2928 215.149C96.5636 215.178 95.9244 215.08 95.3752 214.858C94.8307 214.635 94.4069 214.29 94.1039 213.821C93.8008 213.352 93.6517 212.76 93.6564 212.045V201.477ZM105.517 215.213C104.414 215.213 103.46 214.979 102.655 214.51C101.855 214.036 101.237 213.378 100.801 212.536C100.366 211.688 100.148 210.705 100.148 209.588C100.148 208.461 100.366 207.476 100.801 206.634C101.237 205.786 101.855 205.128 102.655 204.659C103.46 204.186 104.414 203.949 105.517 203.949C106.62 203.949 107.572 204.186 108.372 204.659C109.177 205.128 109.798 205.786 110.233 206.634C110.669 207.476 110.887 208.461 110.887 209.588C110.887 210.705 110.669 211.688 110.233 212.536C109.798 213.378 109.177 214.036 108.372 214.51C107.572 214.979 106.62 215.213 105.517 215.213ZM105.531 212.869C106.033 212.869 106.452 212.727 106.789 212.443C107.125 212.154 107.378 211.761 107.548 211.264C107.724 210.767 107.811 210.201 107.811 209.567C107.811 208.932 107.724 208.366 107.548 207.869C107.378 207.372 107.125 206.979 106.789 206.69C106.452 206.402 106.033 206.257 105.531 206.257C105.025 206.257 104.599 206.402 104.253 206.69C103.912 206.979 103.654 207.372 103.479 207.869C103.308 208.366 103.223 208.932 103.223 209.567C103.223 210.201 103.308 210.767 103.479 211.264C103.654 211.761 103.912 212.154 104.253 212.443C104.599 212.727 105.025 212.869 105.531 212.869ZM130.373 205.547H127.263C127.206 205.144 127.09 204.787 126.915 204.474C126.739 204.157 126.515 203.887 126.24 203.665C125.965 203.442 125.648 203.272 125.288 203.153C124.933 203.035 124.547 202.976 124.131 202.976C123.378 202.976 122.722 203.163 122.163 203.537C121.604 203.906 121.171 204.446 120.863 205.156C120.556 205.862 120.402 206.719 120.402 207.727C120.402 208.764 120.556 209.635 120.863 210.341C121.176 211.046 121.612 211.579 122.17 211.939C122.729 212.299 123.375 212.479 124.109 212.479C124.521 212.479 124.902 212.424 125.253 212.315C125.608 212.206 125.923 212.048 126.197 211.839C126.472 211.626 126.699 211.368 126.879 211.065C127.064 210.762 127.192 210.417 127.263 210.028L130.373 210.043C130.293 210.71 130.092 211.354 129.77 211.974C129.452 212.59 129.024 213.142 128.484 213.629C127.949 214.112 127.31 214.496 126.567 214.78C125.828 215.059 124.992 215.199 124.059 215.199C122.762 215.199 121.602 214.905 120.579 214.318C119.561 213.731 118.756 212.881 118.165 211.768C117.577 210.656 117.284 209.309 117.284 207.727C117.284 206.141 117.582 204.792 118.179 203.679C118.775 202.566 119.585 201.719 120.608 201.136C121.631 200.549 122.781 200.256 124.059 200.256C124.902 200.256 125.684 200.374 126.403 200.611C127.128 200.848 127.769 201.193 128.328 201.648C128.887 202.098 129.341 202.649 129.692 203.303C130.047 203.956 130.274 204.704 130.373 205.547ZM137.451 215.213C136.348 215.213 135.394 214.979 134.589 214.51C133.788 214.036 133.171 213.378 132.735 212.536C132.299 211.688 132.081 210.705 132.081 209.588C132.081 208.461 132.299 207.476 132.735 206.634C133.171 205.786 133.788 205.128 134.589 204.659C135.394 204.186 136.348 203.949 137.451 203.949C138.554 203.949 139.506 204.186 140.306 204.659C141.111 205.128 141.731 205.786 142.167 206.634C142.602 207.476 142.82 208.461 142.82 209.588C142.82 210.705 142.602 211.688 142.167 212.536C141.731 213.378 141.111 214.036 140.306 214.51C139.506 214.979 138.554 215.213 137.451 215.213ZM137.465 212.869C137.967 212.869 138.386 212.727 138.722 212.443C139.058 212.154 139.312 211.761 139.482 211.264C139.657 210.767 139.745 210.201 139.745 209.567C139.745 208.932 139.657 208.366 139.482 207.869C139.312 207.372 139.058 206.979 138.722 206.69C138.386 206.402 137.967 206.257 137.465 206.257C136.958 206.257 136.532 206.402 136.187 206.69C135.846 206.979 135.588 207.372 135.412 207.869C135.242 208.366 135.157 208.932 135.157 209.567C135.157 210.201 135.242 210.767 135.412 211.264C135.588 211.761 135.846 212.154 136.187 212.443C136.532 212.727 136.958 212.869 137.465 212.869ZM147.813 208.693V215H144.787V204.091H147.671V206.016H147.799C148.04 205.381 148.445 204.879 149.013 204.51C149.581 204.136 150.27 203.949 151.08 203.949C151.838 203.949 152.498 204.115 153.062 204.446C153.625 204.777 154.063 205.251 154.376 205.866C154.688 206.477 154.844 207.206 154.844 208.054V215H151.819V208.594C151.823 207.926 151.653 207.405 151.307 207.031C150.962 206.652 150.486 206.463 149.88 206.463C149.473 206.463 149.113 206.551 148.8 206.726C148.492 206.901 148.251 207.157 148.076 207.493C147.905 207.824 147.818 208.224 147.813 208.693ZM166.306 207.202L163.536 207.372C163.488 207.135 163.387 206.922 163.23 206.733C163.074 206.539 162.868 206.385 162.612 206.271C162.361 206.153 162.061 206.094 161.71 206.094C161.242 206.094 160.846 206.193 160.524 206.392C160.202 206.586 160.041 206.847 160.041 207.173C160.041 207.434 160.146 207.654 160.354 207.834C160.562 208.014 160.92 208.158 161.426 208.267L163.401 208.665C164.461 208.883 165.252 209.233 165.773 209.716C166.294 210.199 166.554 210.833 166.554 211.619C166.554 212.334 166.343 212.962 165.922 213.501C165.505 214.041 164.932 214.463 164.203 214.766C163.479 215.064 162.643 215.213 161.696 215.213C160.252 215.213 159.102 214.912 158.244 214.311C157.392 213.705 156.893 212.881 156.746 211.839L159.722 211.683C159.812 212.124 160.03 212.46 160.375 212.692C160.721 212.919 161.164 213.033 161.703 213.033C162.234 213.033 162.66 212.931 162.982 212.727C163.308 212.519 163.474 212.251 163.479 211.925C163.474 211.65 163.358 211.425 163.131 211.25C162.904 211.07 162.553 210.933 162.08 210.838L160.191 210.462C159.125 210.249 158.332 209.879 157.811 209.354C157.295 208.828 157.037 208.158 157.037 207.344C157.037 206.643 157.227 206.039 157.605 205.533C157.989 205.026 158.526 204.635 159.218 204.361C159.914 204.086 160.728 203.949 161.661 203.949C163.039 203.949 164.123 204.24 164.914 204.822C165.709 205.405 166.173 206.198 166.306 207.202ZM175.455 210.355V204.091H178.481V215H175.576V213.018H175.462C175.216 213.658 174.806 214.171 174.233 214.56C173.665 214.948 172.972 215.142 172.153 215.142C171.423 215.142 170.782 214.976 170.228 214.645C169.674 214.313 169.241 213.842 168.928 213.232C168.62 212.621 168.464 211.889 168.459 211.037V204.091H171.485V210.497C171.49 211.141 171.662 211.65 172.003 212.024C172.344 212.398 172.801 212.585 173.374 212.585C173.739 212.585 174.08 212.502 174.397 212.337C174.714 212.166 174.97 211.915 175.164 211.584C175.363 211.252 175.46 210.843 175.455 210.355ZM180.901 215V204.091H183.784V206.016H183.912C184.139 205.376 184.518 204.872 185.048 204.503C185.579 204.134 186.213 203.949 186.952 203.949C187.7 203.949 188.337 204.136 188.862 204.51C189.388 204.879 189.738 205.381 189.914 206.016H190.027C190.25 205.391 190.652 204.891 191.235 204.517C191.822 204.138 192.515 203.949 193.316 203.949C194.334 203.949 195.16 204.273 195.794 204.922C196.433 205.566 196.753 206.48 196.753 207.663V215H193.735V208.26C193.735 207.654 193.574 207.199 193.252 206.896C192.93 206.593 192.527 206.442 192.044 206.442C191.495 206.442 191.066 206.617 190.759 206.967C190.451 207.313 190.297 207.77 190.297 208.338V215H187.364V208.196C187.364 207.661 187.21 207.235 186.902 206.918C186.599 206.6 186.199 206.442 185.702 206.442C185.366 206.442 185.063 206.527 184.793 206.697C184.528 206.863 184.317 207.098 184.161 207.401C184.004 207.699 183.926 208.049 183.926 208.452V215H180.901ZM204.115 215.213C202.992 215.213 202.026 214.986 201.217 214.531C200.412 214.072 199.792 213.423 199.356 212.585C198.92 211.742 198.703 210.746 198.703 209.595C198.703 208.473 198.92 207.488 199.356 206.641C199.792 205.793 200.405 205.133 201.195 204.659C201.991 204.186 202.924 203.949 203.994 203.949C204.713 203.949 205.383 204.065 206.004 204.297C206.629 204.524 207.173 204.867 207.637 205.327C208.106 205.786 208.471 206.364 208.731 207.06C208.991 207.751 209.122 208.561 209.122 209.489V210.32H199.91V208.445H206.274C206.274 208.009 206.179 207.623 205.99 207.287C205.8 206.951 205.537 206.688 205.201 206.499C204.87 206.304 204.484 206.207 204.044 206.207C203.584 206.207 203.177 206.314 202.822 206.527C202.472 206.735 202.197 207.017 201.998 207.372C201.799 207.723 201.697 208.113 201.693 208.544V210.327C201.693 210.866 201.792 211.333 201.991 211.726C202.195 212.119 202.481 212.422 202.85 212.635C203.22 212.848 203.658 212.955 204.164 212.955C204.5 212.955 204.808 212.907 205.088 212.812C205.367 212.718 205.606 212.576 205.805 212.386C206.004 212.197 206.155 211.965 206.259 211.69L209.058 211.875C208.916 212.547 208.624 213.134 208.184 213.636C207.749 214.134 207.185 214.522 206.494 214.801C205.807 215.076 205.014 215.213 204.115 215.213Z" fill="white"/>
<path d="M78.1531 153.455V168H75.4968L69.1687 158.845H69.0621V168H65.9869V153.455H68.6857L74.9641 162.602H75.092V153.455H78.1531ZM85.5661 168.213C84.4628 168.213 83.5088 167.979 82.7038 167.51C81.9036 167.036 81.2857 166.378 80.8501 165.536C80.4145 164.688 80.1967 163.705 80.1967 162.588C80.1967 161.461 80.4145 160.476 80.8501 159.634C81.2857 158.786 81.9036 158.128 82.7038 157.659C83.5088 157.186 84.4628 156.949 85.5661 156.949C86.6693 156.949 87.621 157.186 88.4212 157.659C89.2261 158.128 89.8464 158.786 90.282 159.634C90.7176 160.476 90.9354 161.461 90.9354 162.588C90.9354 163.705 90.7176 164.688 90.282 165.536C89.8464 166.378 89.2261 167.036 88.4212 167.51C87.621 167.979 86.6693 168.213 85.5661 168.213ZM85.5803 165.869C86.0821 165.869 86.5012 165.727 86.8374 165.443C87.1735 165.154 87.4268 164.761 87.5973 164.264C87.7725 163.767 87.8601 163.201 87.8601 162.567C87.8601 161.932 87.7725 161.366 87.5973 160.869C87.4268 160.372 87.1735 159.979 86.8374 159.69C86.5012 159.402 86.0821 159.257 85.5803 159.257C85.0736 159.257 84.6475 159.402 84.3018 159.69C83.9609 159.979 83.7029 160.372 83.5277 160.869C83.3572 161.366 83.272 161.932 83.272 162.567C83.272 163.201 83.3572 163.767 83.5277 164.264C83.7029 164.761 83.9609 165.154 84.3018 165.443C84.6475 165.727 85.0736 165.869 85.5803 165.869ZM110.422 158.547H107.311C107.255 158.144 107.139 157.787 106.963 157.474C106.788 157.157 106.563 156.887 106.289 156.665C106.014 156.442 105.697 156.272 105.337 156.153C104.982 156.035 104.596 155.976 104.179 155.976C103.426 155.976 102.771 156.163 102.212 156.537C101.653 156.906 101.22 157.446 100.912 158.156C100.605 158.862 100.451 159.719 100.451 160.727C100.451 161.764 100.605 162.635 100.912 163.341C101.225 164.046 101.66 164.579 102.219 164.939C102.778 165.299 103.424 165.479 104.158 165.479C104.57 165.479 104.951 165.424 105.301 165.315C105.657 165.206 105.971 165.048 106.246 164.839C106.521 164.626 106.748 164.368 106.928 164.065C107.113 163.762 107.24 163.417 107.311 163.028L110.422 163.043C110.342 163.71 110.141 164.354 109.819 164.974C109.501 165.59 109.073 166.142 108.533 166.629C107.998 167.112 107.359 167.496 106.615 167.78C105.877 168.059 105.041 168.199 104.108 168.199C102.811 168.199 101.651 167.905 100.628 167.318C99.6102 166.731 98.8053 165.881 98.2134 164.768C97.6263 163.656 97.3327 162.309 97.3327 160.727C97.3327 159.141 97.631 157.792 98.2276 156.679C98.8242 155.566 99.6339 154.719 100.657 154.136C101.679 153.549 102.83 153.256 104.108 153.256C104.951 153.256 105.732 153.374 106.452 153.611C107.176 153.848 107.818 154.193 108.377 154.648C108.935 155.098 109.39 155.649 109.74 156.303C110.096 156.956 110.323 157.704 110.422 158.547ZM115.596 161.693V168H112.571V153.455H115.511V159.016H115.639C115.885 158.372 116.283 157.867 116.832 157.503C117.381 157.134 118.07 156.949 118.899 156.949C119.656 156.949 120.317 157.115 120.88 157.446C121.449 157.773 121.889 158.244 122.201 158.859C122.519 159.47 122.675 160.202 122.67 161.054V168H119.645V161.594C119.649 160.921 119.479 160.398 119.133 160.024C118.792 159.65 118.314 159.463 117.699 159.463C117.287 159.463 116.922 159.551 116.605 159.726C116.292 159.901 116.046 160.157 115.866 160.493C115.691 160.824 115.601 161.224 115.596 161.693ZM130.023 168.213C128.901 168.213 127.935 167.986 127.125 167.531C126.32 167.072 125.7 166.423 125.264 165.585C124.829 164.742 124.611 163.746 124.611 162.595C124.611 161.473 124.829 160.488 125.264 159.641C125.7 158.793 126.313 158.133 127.104 157.659C127.899 157.186 128.832 156.949 129.902 156.949C130.622 156.949 131.292 157.065 131.912 157.297C132.537 157.524 133.081 157.867 133.545 158.327C134.014 158.786 134.379 159.364 134.639 160.06C134.9 160.751 135.03 161.561 135.03 162.489V163.32H125.818V161.445H132.182C132.182 161.009 132.087 160.623 131.898 160.287C131.708 159.951 131.446 159.688 131.109 159.499C130.778 159.304 130.392 159.207 129.952 159.207C129.492 159.207 129.085 159.314 128.73 159.527C128.38 159.735 128.105 160.017 127.906 160.372C127.707 160.723 127.606 161.113 127.601 161.544V163.327C127.601 163.866 127.7 164.333 127.899 164.726C128.103 165.119 128.389 165.422 128.759 165.635C129.128 165.848 129.566 165.955 130.072 165.955C130.409 165.955 130.716 165.907 130.996 165.812C131.275 165.718 131.514 165.576 131.713 165.386C131.912 165.197 132.063 164.965 132.168 164.69L134.966 164.875C134.824 165.547 134.533 166.134 134.092 166.636C133.657 167.134 133.093 167.522 132.402 167.801C131.715 168.076 130.922 168.213 130.023 168.213ZM137.004 168V157.091H139.888V159.016H140.016C140.243 158.376 140.622 157.872 141.152 157.503C141.682 157.134 142.317 156.949 143.055 156.949C143.804 156.949 144.44 157.136 144.966 157.51C145.491 157.879 145.842 158.381 146.017 159.016H146.131C146.353 158.391 146.756 157.891 147.338 157.517C147.925 157.138 148.619 156.949 149.419 156.949C150.437 156.949 151.263 157.273 151.898 157.922C152.537 158.566 152.857 159.48 152.857 160.663V168H149.838V161.26C149.838 160.654 149.677 160.199 149.355 159.896C149.033 159.593 148.631 159.442 148.148 159.442C147.598 159.442 147.17 159.617 146.862 159.967C146.554 160.313 146.401 160.77 146.401 161.338V168H143.467V161.196C143.467 160.661 143.313 160.235 143.006 159.918C142.703 159.6 142.303 159.442 141.805 159.442C141.469 159.442 141.166 159.527 140.896 159.697C140.631 159.863 140.42 160.098 140.264 160.401C140.108 160.699 140.03 161.049 140.03 161.452V168H137.004ZM155.246 168V157.091H158.272V168H155.246ZM156.766 155.685C156.317 155.685 155.931 155.536 155.609 155.237C155.291 154.934 155.133 154.572 155.133 154.151C155.133 153.734 155.291 153.376 155.609 153.078C155.931 152.775 156.317 152.624 156.766 152.624C157.216 152.624 157.6 152.775 157.917 153.078C158.239 153.376 158.4 153.734 158.4 154.151C158.4 154.572 158.239 154.934 157.917 155.237C157.6 155.536 157.216 155.685 156.766 155.685ZM165.625 168.213C164.507 168.213 163.546 167.976 162.741 167.503C161.941 167.025 161.325 166.362 160.895 165.514C160.468 164.667 160.255 163.691 160.255 162.588C160.255 161.471 160.471 160.491 160.902 159.648C161.337 158.8 161.955 158.14 162.755 157.666C163.556 157.188 164.507 156.949 165.61 156.949C166.562 156.949 167.395 157.122 168.11 157.467C168.825 157.813 169.391 158.298 169.808 158.923C170.225 159.548 170.454 160.282 170.497 161.125H167.642C167.561 160.58 167.348 160.143 167.002 159.811C166.662 159.475 166.214 159.307 165.66 159.307C165.191 159.307 164.782 159.435 164.431 159.69C164.086 159.941 163.816 160.308 163.622 160.791C163.428 161.274 163.331 161.859 163.331 162.545C163.331 163.241 163.425 163.833 163.615 164.321C163.809 164.809 164.081 165.18 164.431 165.436C164.782 165.692 165.191 165.82 165.66 165.82C166.006 165.82 166.316 165.749 166.591 165.607C166.87 165.464 167.1 165.259 167.279 164.989C167.464 164.714 167.585 164.385 167.642 164.001H170.497C170.449 164.835 170.222 165.569 169.815 166.203C169.413 166.833 168.856 167.325 168.146 167.68C167.436 168.036 166.595 168.213 165.625 168.213ZM175.545 168.206C174.849 168.206 174.228 168.085 173.684 167.844C173.139 167.598 172.709 167.235 172.391 166.757C172.079 166.274 171.923 165.673 171.923 164.953C171.923 164.347 172.034 163.838 172.256 163.426C172.479 163.014 172.782 162.683 173.165 162.432C173.549 162.181 173.985 161.991 174.472 161.864C174.965 161.736 175.481 161.646 176.021 161.594C176.655 161.527 177.166 161.466 177.555 161.409C177.943 161.348 178.225 161.258 178.4 161.139C178.575 161.021 178.663 160.846 178.663 160.614V160.571C178.663 160.121 178.521 159.773 178.237 159.527C177.957 159.281 177.559 159.158 177.043 159.158C176.499 159.158 176.066 159.278 175.744 159.52C175.422 159.757 175.209 160.055 175.104 160.415L172.306 160.188C172.448 159.525 172.728 158.952 173.144 158.469C173.561 157.981 174.098 157.607 174.756 157.347C175.419 157.081 176.186 156.949 177.058 156.949C177.664 156.949 178.244 157.02 178.798 157.162C179.356 157.304 179.851 157.524 180.282 157.822C180.718 158.121 181.061 158.504 181.312 158.973C181.563 159.437 181.688 159.993 181.688 160.642V168H178.819V166.487H178.734C178.558 166.828 178.324 167.129 178.031 167.389C177.737 167.645 177.384 167.846 176.972 167.993C176.56 168.135 176.085 168.206 175.545 168.206ZM176.411 166.118C176.856 166.118 177.249 166.03 177.59 165.855C177.931 165.675 178.199 165.434 178.393 165.131C178.587 164.828 178.684 164.484 178.684 164.101V162.943C178.589 163.005 178.459 163.062 178.293 163.114C178.132 163.161 177.95 163.206 177.746 163.249C177.543 163.286 177.339 163.322 177.136 163.355C176.932 163.384 176.747 163.41 176.582 163.433C176.227 163.485 175.916 163.568 175.651 163.682C175.386 163.795 175.18 163.949 175.033 164.143C174.887 164.333 174.813 164.57 174.813 164.854C174.813 165.266 174.962 165.58 175.261 165.798C175.564 166.011 175.947 166.118 176.411 166.118ZM187.061 153.455V168H184.036V153.455H187.061ZM54.3658 181.638C54.3089 181.065 54.0651 180.62 53.6342 180.303C53.2034 179.985 52.6186 179.827 51.88 179.827C51.3781 179.827 50.9543 179.898 50.6087 180.04C50.263 180.177 49.9979 180.369 49.8132 180.615C49.6333 180.861 49.5433 181.141 49.5433 181.453C49.5339 181.714 49.5883 181.941 49.7067 182.135C49.8298 182.329 49.9979 182.497 50.2109 182.639C50.424 182.777 50.6702 182.897 50.9496 183.001C51.2289 183.101 51.5272 183.186 51.8445 183.257L53.1513 183.57C53.7857 183.712 54.3681 183.901 54.8984 184.138C55.4287 184.375 55.888 184.666 56.2763 185.011C56.6645 185.357 56.9652 185.764 57.1783 186.233C57.3961 186.702 57.5073 187.239 57.5121 187.845C57.5073 188.735 57.2801 189.507 56.8303 190.161C56.3852 190.809 55.7412 191.313 54.8984 191.673C54.0604 192.028 53.0495 192.206 51.8658 192.206C50.6915 192.206 49.6688 192.026 48.7976 191.666C47.9311 191.306 47.254 190.774 46.7663 190.068C46.2834 189.358 46.0301 188.48 46.0064 187.433H48.9822C49.0154 187.921 49.1551 188.328 49.4013 188.655C49.6522 188.977 49.986 189.221 50.4027 189.386C50.8241 189.547 51.3 189.628 51.8303 189.628C52.3511 189.628 52.8033 189.552 53.1868 189.401C53.575 189.249 53.8757 189.038 54.0888 188.768C54.3018 188.499 54.4084 188.188 54.4084 187.838C54.4084 187.511 54.3113 187.237 54.1172 187.014C53.9278 186.792 53.6484 186.602 53.2791 186.446C52.9145 186.29 52.4671 186.148 51.9368 186.02L50.353 185.622C49.1267 185.324 48.1584 184.857 47.4482 184.223C46.7379 183.589 46.3852 182.734 46.3899 181.659C46.3852 180.778 46.6196 180.009 47.093 179.351C47.5713 178.693 48.227 178.179 49.0604 177.81C49.8937 177.44 50.8407 177.256 51.9013 177.256C52.9808 177.256 53.9231 177.44 54.728 177.81C55.5376 178.179 56.1674 178.693 56.6172 179.351C57.067 180.009 57.299 180.771 57.3132 181.638H54.3658ZM66.5195 187.355V181.091H69.5451V192H66.6403V190.018H66.5266C66.2804 190.658 65.8709 191.171 65.2979 191.56C64.7298 191.948 64.0361 192.142 63.217 192.142C62.4878 192.142 61.8462 191.976 61.2923 191.645C60.7383 191.313 60.305 190.842 59.9925 190.232C59.6848 189.621 59.5285 188.889 59.5238 188.037V181.091H62.5494V187.497C62.5541 188.141 62.7269 188.65 63.0678 189.024C63.4087 189.398 63.8656 189.585 64.4386 189.585C64.8031 189.585 65.1441 189.502 65.4613 189.337C65.7785 189.166 66.0342 188.915 66.2283 188.584C66.4272 188.252 66.5243 187.843 66.5195 187.355ZM72.022 192V177.455H75.0476V182.923H75.1399C75.2725 182.63 75.4643 182.331 75.7152 182.028C75.9709 181.721 76.3023 181.465 76.7095 181.261C77.1214 181.053 77.6328 180.949 78.2436 180.949C79.0391 180.949 79.773 181.157 80.4453 181.574C81.1177 181.986 81.6551 182.608 82.0575 183.442C82.46 184.27 82.6612 185.31 82.6612 186.56C82.6612 187.777 82.4647 188.804 82.0717 189.642C81.6835 190.475 81.1532 191.107 80.4808 191.538C79.8132 191.964 79.0651 192.178 78.2365 192.178C77.6494 192.178 77.1499 192.08 76.7379 191.886C76.3307 191.692 75.9969 191.448 75.7365 191.155C75.4761 190.857 75.2772 190.556 75.1399 190.253H75.005V192H72.022ZM74.9837 186.545C74.9837 187.194 75.0736 187.76 75.2536 188.243C75.4335 188.726 75.6939 189.102 76.0348 189.372C76.3757 189.637 76.79 189.77 77.2777 189.77C77.7701 189.77 78.1868 189.635 78.5277 189.365C78.8686 189.09 79.1267 188.712 79.3018 188.229C79.4818 187.741 79.5717 187.18 79.5717 186.545C79.5717 185.916 79.4841 185.362 79.3089 184.884C79.1338 184.405 78.8757 184.031 78.5348 183.761C78.1939 183.491 77.7749 183.357 77.2777 183.357C76.7853 183.357 76.3686 183.487 76.0277 183.747C75.6915 184.008 75.4335 184.377 75.2536 184.855C75.0736 185.333 74.9837 185.897 74.9837 186.545ZM93.7567 184.202L90.9869 184.372C90.9395 184.135 90.8377 183.922 90.6815 183.733C90.5252 183.539 90.3192 183.385 90.0636 183.271C89.8126 183.153 89.512 183.094 89.1616 183.094C88.6928 183.094 88.2975 183.193 87.9755 183.392C87.6535 183.586 87.4925 183.847 87.4925 184.173C87.4925 184.434 87.5967 184.654 87.805 184.834C88.0134 185.014 88.3709 185.158 88.8775 185.267L90.8519 185.665C91.9125 185.883 92.7032 186.233 93.2241 186.716C93.7449 187.199 94.0053 187.833 94.0053 188.619C94.0053 189.334 93.7946 189.962 93.3732 190.501C92.9566 191.041 92.3836 191.463 91.6545 191.766C90.93 192.064 90.0943 192.213 89.1474 192.213C87.7032 192.213 86.5527 191.912 85.6957 191.311C84.8434 190.705 84.3439 189.881 84.1971 188.839L87.1729 188.683C87.2629 189.124 87.4807 189.46 87.8263 189.692C88.172 189.919 88.6147 190.033 89.1545 190.033C89.6848 190.033 90.1109 189.931 90.4329 189.727C90.7596 189.519 90.9253 189.251 90.93 188.925C90.9253 188.65 90.8093 188.425 90.582 188.25C90.3548 188.07 90.0044 187.933 89.5309 187.838L87.6417 187.462C86.5763 187.249 85.7833 186.879 85.2624 186.354C84.7463 185.828 84.4883 185.158 84.4883 184.344C84.4883 183.643 84.6777 183.039 85.0565 182.533C85.44 182.026 85.9774 181.635 86.6687 181.361C87.3647 181.086 88.1791 180.949 89.1119 180.949C90.4897 180.949 91.574 181.24 92.3647 181.822C93.1602 182.405 93.6242 183.198 93.7567 184.202ZM101.713 181.091V183.364H95.1435V181.091H101.713ZM96.6349 178.477H99.6605V188.648C99.6605 188.927 99.7031 189.145 99.7884 189.301C99.8736 189.453 99.992 189.559 100.143 189.621C100.3 189.682 100.48 189.713 100.683 189.713C100.825 189.713 100.967 189.701 101.109 189.678C101.251 189.649 101.36 189.628 101.436 189.614L101.912 191.865C101.76 191.912 101.547 191.967 101.273 192.028C100.998 192.095 100.664 192.135 100.271 192.149C99.5421 192.178 98.9029 192.08 98.3537 191.858C97.8092 191.635 97.3854 191.29 97.0824 190.821C96.7794 190.352 96.6302 189.76 96.6349 189.045V178.477ZM106.795 192.206C106.099 192.206 105.478 192.085 104.934 191.844C104.389 191.598 103.959 191.235 103.641 190.757C103.329 190.274 103.173 189.673 103.173 188.953C103.173 188.347 103.284 187.838 103.506 187.426C103.729 187.014 104.032 186.683 104.415 186.432C104.799 186.181 105.235 185.991 105.722 185.864C106.215 185.736 106.731 185.646 107.271 185.594C107.905 185.527 108.416 185.466 108.805 185.409C109.193 185.348 109.475 185.258 109.65 185.139C109.825 185.021 109.913 184.846 109.913 184.614V184.571C109.913 184.121 109.771 183.773 109.487 183.527C109.207 183.281 108.809 183.158 108.293 183.158C107.749 183.158 107.316 183.278 106.994 183.52C106.672 183.757 106.459 184.055 106.354 184.415L103.556 184.188C103.698 183.525 103.978 182.952 104.394 182.469C104.811 181.981 105.348 181.607 106.006 181.347C106.669 181.081 107.436 180.949 108.308 180.949C108.914 180.949 109.494 181.02 110.048 181.162C110.606 181.304 111.101 181.524 111.532 181.822C111.968 182.121 112.311 182.504 112.562 182.973C112.813 183.437 112.938 183.993 112.938 184.642V192H110.069V190.487H109.984C109.808 190.828 109.574 191.129 109.281 191.389C108.987 191.645 108.634 191.846 108.222 191.993C107.81 192.135 107.335 192.206 106.795 192.206ZM107.661 190.118C108.106 190.118 108.499 190.03 108.84 189.855C109.181 189.675 109.449 189.434 109.643 189.131C109.837 188.828 109.934 188.484 109.934 188.101V186.943C109.839 187.005 109.709 187.062 109.543 187.114C109.382 187.161 109.2 187.206 108.996 187.249C108.793 187.286 108.589 187.322 108.386 187.355C108.182 187.384 107.997 187.41 107.832 187.433C107.477 187.485 107.166 187.568 106.901 187.682C106.636 187.795 106.43 187.949 106.283 188.143C106.137 188.333 106.063 188.57 106.063 188.854C106.063 189.266 106.212 189.58 106.511 189.798C106.814 190.011 107.197 190.118 107.661 190.118ZM118.311 185.693V192H115.286V181.091H118.169V183.016H118.297C118.538 182.381 118.943 181.879 119.511 181.51C120.08 181.136 120.768 180.949 121.578 180.949C122.336 180.949 122.996 181.115 123.56 181.446C124.123 181.777 124.561 182.251 124.874 182.866C125.186 183.477 125.342 184.206 125.342 185.054V192H122.317V185.594C122.321 184.926 122.151 184.405 121.805 184.031C121.46 183.652 120.984 183.463 120.378 183.463C119.971 183.463 119.611 183.551 119.298 183.726C118.991 183.901 118.749 184.157 118.574 184.493C118.403 184.824 118.316 185.224 118.311 185.693ZM132.656 192.213C131.538 192.213 130.577 191.976 129.772 191.503C128.972 191.025 128.357 190.362 127.926 189.514C127.5 188.667 127.287 187.691 127.287 186.588C127.287 185.471 127.502 184.491 127.933 183.648C128.368 182.8 128.986 182.14 129.787 181.666C130.587 181.188 131.538 180.949 132.642 180.949C133.593 180.949 134.427 181.122 135.142 181.467C135.857 181.813 136.422 182.298 136.839 182.923C137.256 183.548 137.485 184.282 137.528 185.125H134.673C134.592 184.58 134.379 184.143 134.034 183.811C133.693 183.475 133.245 183.307 132.691 183.307C132.223 183.307 131.813 183.435 131.463 183.69C131.117 183.941 130.847 184.308 130.653 184.791C130.459 185.274 130.362 185.859 130.362 186.545C130.362 187.241 130.457 187.833 130.646 188.321C130.84 188.809 131.112 189.18 131.463 189.436C131.813 189.692 132.223 189.82 132.691 189.82C133.037 189.82 133.347 189.749 133.622 189.607C133.901 189.464 134.131 189.259 134.311 188.989C134.495 188.714 134.616 188.385 134.673 188.001H137.528C137.481 188.835 137.253 189.569 136.846 190.203C136.444 190.833 135.887 191.325 135.177 191.68C134.467 192.036 133.627 192.213 132.656 192.213ZM144.437 192.213C143.315 192.213 142.349 191.986 141.539 191.531C140.734 191.072 140.114 190.423 139.678 189.585C139.243 188.742 139.025 187.746 139.025 186.595C139.025 185.473 139.243 184.488 139.678 183.641C140.114 182.793 140.727 182.133 141.518 181.659C142.313 181.186 143.246 180.949 144.316 180.949C145.036 180.949 145.706 181.065 146.326 181.297C146.951 181.524 147.496 181.867 147.96 182.327C148.428 182.786 148.793 183.364 149.053 184.06C149.314 184.751 149.444 185.561 149.444 186.489V187.32H140.232V185.445H146.596C146.596 185.009 146.501 184.623 146.312 184.287C146.122 183.951 145.86 183.688 145.523 183.499C145.192 183.304 144.806 183.207 144.366 183.207C143.906 183.207 143.499 183.314 143.144 183.527C142.794 183.735 142.519 184.017 142.32 184.372C142.121 184.723 142.02 185.113 142.015 185.544V187.327C142.015 187.866 142.114 188.333 142.313 188.726C142.517 189.119 142.803 189.422 143.173 189.635C143.542 189.848 143.98 189.955 144.487 189.955C144.823 189.955 145.13 189.907 145.41 189.812C145.689 189.718 145.928 189.576 146.127 189.386C146.326 189.197 146.478 188.965 146.582 188.69L149.38 188.875C149.238 189.547 148.947 190.134 148.506 190.636C148.071 191.134 147.507 191.522 146.816 191.801C146.129 192.076 145.336 192.213 144.437 192.213ZM156.104 192V177.455H159.179V183.456H165.422V177.455H168.49V192H165.422V185.991H159.179V192H156.104ZM174.08 192.206C173.384 192.206 172.764 192.085 172.219 191.844C171.675 191.598 171.244 191.235 170.926 190.757C170.614 190.274 170.458 189.673 170.458 188.953C170.458 188.347 170.569 187.838 170.792 187.426C171.014 187.014 171.317 186.683 171.701 186.432C172.084 186.181 172.52 185.991 173.007 185.864C173.5 185.736 174.016 185.646 174.556 185.594C175.19 185.527 175.702 185.466 176.09 185.409C176.478 185.348 176.76 185.258 176.935 185.139C177.11 185.021 177.198 184.846 177.198 184.614V184.571C177.198 184.121 177.056 183.773 176.772 183.527C176.492 183.281 176.095 183.158 175.578 183.158C175.034 183.158 174.601 183.278 174.279 183.52C173.957 183.757 173.744 184.055 173.64 184.415L170.841 184.188C170.983 183.525 171.263 182.952 171.679 182.469C172.096 181.981 172.633 181.607 173.292 181.347C173.954 181.081 174.721 180.949 175.593 180.949C176.199 180.949 176.779 181.02 177.333 181.162C177.891 181.304 178.386 181.524 178.817 181.822C179.253 182.121 179.596 182.504 179.847 182.973C180.098 183.437 180.223 183.993 180.223 184.642V192H177.354V190.487H177.269C177.094 190.828 176.859 191.129 176.566 191.389C176.272 191.645 175.919 191.846 175.507 191.993C175.096 192.135 174.62 192.206 174.08 192.206ZM174.946 190.118C175.391 190.118 175.784 190.03 176.125 189.855C176.466 189.675 176.734 189.434 176.928 189.131C177.122 188.828 177.219 188.484 177.219 188.101V186.943C177.124 187.005 176.994 187.062 176.828 187.114C176.667 187.161 176.485 187.206 176.282 187.249C176.078 187.286 175.874 187.322 175.671 187.355C175.467 187.384 175.283 187.41 175.117 187.433C174.762 187.485 174.452 187.568 174.186 187.682C173.921 187.795 173.715 187.949 173.569 188.143C173.422 188.333 173.348 188.57 173.348 188.854C173.348 189.266 173.498 189.58 173.796 189.798C174.099 190.011 174.482 190.118 174.946 190.118ZM182.571 192V181.091H185.504V182.994H185.618C185.816 182.317 186.15 181.806 186.619 181.46C187.088 181.11 187.627 180.935 188.238 180.935C188.39 180.935 188.553 180.944 188.728 180.963C188.904 180.982 189.057 181.008 189.19 181.041V183.726C189.048 183.683 188.851 183.645 188.6 183.612C188.35 183.579 188.12 183.562 187.912 183.562C187.467 183.562 187.069 183.66 186.718 183.854C186.373 184.043 186.098 184.308 185.895 184.649C185.696 184.99 185.596 185.383 185.596 185.828V192H182.571ZM190.754 192V181.091H193.638V183.016H193.766C193.993 182.376 194.372 181.872 194.902 181.503C195.432 181.134 196.067 180.949 196.805 180.949C197.554 180.949 198.19 181.136 198.716 181.51C199.241 181.879 199.592 182.381 199.767 183.016H199.881C200.103 182.391 200.506 181.891 201.088 181.517C201.675 181.138 202.369 180.949 203.169 180.949C204.187 180.949 205.013 181.273 205.648 181.922C206.287 182.566 206.607 183.48 206.607 184.663V192H203.588V185.26C203.588 184.654 203.427 184.199 203.105 183.896C202.783 183.593 202.381 183.442 201.898 183.442C201.348 183.442 200.92 183.617 200.612 183.967C200.304 184.313 200.151 184.77 200.151 185.338V192H197.217V185.196C197.217 184.661 197.063 184.235 196.756 183.918C196.453 183.6 196.053 183.442 195.555 183.442C195.219 183.442 194.916 183.527 194.646 183.697C194.381 183.863 194.17 184.098 194.014 184.401C193.858 184.699 193.78 185.049 193.78 185.452V192H190.754Z" fill="white"/>
<path d="M123.747 105.061V108.092C123.747 108.223 123.799 108.349 123.892 108.442C123.985 108.535 124.111 108.587 124.242 108.587C124.373 108.587 124.499 108.535 124.591 108.442C124.684 108.349 124.736 108.223 124.736 108.092V105.061H125.155C126.666 105.059 128.116 104.458 129.184 103.389C130.253 102.32 130.854 100.871 130.856 99.3591V98.8801H130.404C128.999 98.8819 127.643 99.4022 126.597 100.341C125.551 101.28 124.889 102.572 124.736 103.969V99.1881H125.155C126.666 99.1863 128.116 98.5851 129.184 97.5162C130.253 96.4473 130.854 94.9981 130.856 93.4865V93.0075H130.404C128.999 93.0093 127.643 93.5296 126.597 94.4686C125.551 95.4077 124.889 96.6995 124.736 98.0968V93.3157H125.155C126.666 93.314 128.116 92.7128 129.184 91.6439C130.253 90.575 130.854 89.1258 130.856 87.6142V87.1352H130.404C128.999 87.137 127.643 87.6573 126.597 88.5963C125.551 89.5354 124.889 90.8272 124.736 92.2245V87.4432H125.155C126.666 87.4415 128.116 86.8403 129.184 85.7714C130.253 84.7025 130.854 83.2533 130.856 81.7417V81.2628H130.404C128.999 81.2646 127.643 81.7848 126.597 82.7239C125.551 83.6629 124.889 84.9548 124.736 86.352V83.5042C125.746 82.4242 126.297 80.994 126.272 79.5155C126.247 78.0371 125.648 76.6262 124.602 75.5809L124.264 75.2422L123.944 75.5618C122.911 76.597 122.315 77.9889 122.279 79.4506C122.242 80.9123 122.768 82.3323 123.747 83.4179V85.9325C123.505 84.6224 122.812 83.4383 121.788 82.5855C120.764 81.7326 119.475 81.2647 118.142 81.2628H117.69V81.7417C117.692 83.2533 118.293 84.7025 119.362 85.7714C120.431 86.8403 121.88 87.4415 123.392 87.4432H123.747V91.8052C123.505 90.495 122.812 89.3109 121.788 88.458C120.765 87.6051 119.475 87.1371 118.142 87.1352H117.69V87.6141C117.692 89.1258 118.293 90.575 119.362 91.6438C120.431 92.7127 121.88 93.3139 123.392 93.3156H123.747V97.6777C123.505 96.3675 122.812 95.1834 121.788 94.3305C120.765 93.4776 119.475 93.0096 118.142 93.0077H117.69V93.4867C117.692 94.9983 118.293 96.4474 119.362 97.5163C120.431 98.5851 121.88 99.1863 123.392 99.1881H123.747V103.55C123.505 102.24 122.812 101.056 121.788 100.203C120.765 99.3501 119.475 98.8821 118.142 98.8801H117.69V99.3591C117.692 100.871 118.293 102.32 119.362 103.389C120.431 104.458 121.88 105.059 123.392 105.061H123.747Z" fill="url(#paint0_linear_2065_4)"/>
<path d="M145.597 90.5313C144.479 91.0925 143.579 92.0086 143.037 93.136L143.887 90.5508C145.176 89.8365 146.138 88.6503 146.572 87.2414C147.005 85.8325 146.876 84.3105 146.211 82.9949L145.995 82.5674L145.592 82.7712C144.282 83.4326 143.278 84.5735 142.788 85.9565C142.298 87.3395 142.361 88.8581 142.962 90.1964L142.151 92.6637C142.356 91.3293 142.082 89.9652 141.377 88.8138C140.672 87.6624 139.582 86.7982 138.3 86.3746L137.87 86.2335L137.721 86.6885C137.25 88.125 137.369 89.6895 138.05 91.0388C138.732 92.388 139.921 93.4118 141.356 93.8855L141.711 94.0021L140.32 98.2328C140.525 96.8993 140.25 95.5364 139.544 94.3865C138.838 93.2367 137.748 92.3745 136.466 91.9533L136.037 91.8122L135.887 92.2672C135.417 93.7037 135.535 95.2682 136.217 96.6175C136.898 97.9667 138.087 98.9905 139.523 99.4642L139.877 99.5808L138.486 103.811C138.691 102.478 138.416 101.115 137.71 99.9649C137.004 98.815 135.914 97.9528 134.632 97.5317L134.203 97.3905L134.053 97.8455C133.583 99.2821 133.701 100.847 134.383 102.196C135.064 103.545 136.253 104.569 137.689 105.043L138.043 105.159L136.652 109.39C136.857 108.056 136.582 106.694 135.876 105.544C135.17 104.394 134.08 103.532 132.798 103.111L132.369 102.97L132.219 103.425C131.749 104.861 131.867 106.426 132.549 107.775C133.23 109.124 134.419 110.148 135.855 110.622L136.209 110.738L135.267 113.603C135.226 113.727 135.237 113.863 135.296 113.98C135.355 114.097 135.458 114.186 135.583 114.227C135.707 114.268 135.843 114.258 135.96 114.199C136.077 114.139 136.166 114.036 136.207 113.912L137.149 111.047L137.529 111.172C138.966 111.644 140.531 111.527 141.881 110.845C143.231 110.163 144.254 108.973 144.726 107.536L144.876 107.082L144.447 106.94C143.135 106.509 141.711 106.568 140.44 107.108C139.169 107.647 138.136 108.629 137.535 109.872L138.983 105.468L139.363 105.593C140.8 106.066 142.365 105.948 143.715 105.266C145.065 104.584 146.088 103.394 146.56 101.957L146.71 101.502L146.28 101.361C144.969 100.93 143.545 100.989 142.274 101.528C141.002 102.068 139.97 103.05 139.369 104.293L140.816 99.889L141.197 100.014C142.634 100.486 144.199 100.369 145.549 99.687C146.898 99.0053 147.922 97.8153 148.394 96.3788L148.544 95.9238L148.115 95.7827C146.803 95.3513 145.379 95.4108 144.108 95.9501C142.837 96.4894 141.804 97.4718 141.203 98.7147L142.651 94.3106L143.031 94.4359C144.468 94.9082 146.033 94.7905 147.383 94.1087C148.732 93.4269 149.756 92.2369 150.228 90.8005L150.378 90.3455L149.949 90.2043C149.238 89.9684 148.487 89.8758 147.74 89.9319C146.993 89.988 146.265 90.1917 145.597 90.5313Z" fill="url(#paint1_linear_2065_4)"/>
<path d="M103.025 90.5313C104.143 91.0925 105.044 92.0086 105.586 93.136L104.736 90.5508C103.446 89.8365 102.484 88.6503 102.05 87.2414C101.617 85.8325 101.746 84.3105 102.411 82.9949L102.627 82.5674L103.03 82.7712C104.34 83.4326 105.344 84.5735 105.834 85.9565C106.324 87.3395 106.262 88.8581 105.66 90.1964L106.471 92.6637C106.266 91.3293 106.54 89.9652 107.245 88.8138C107.95 87.6624 109.041 86.7982 110.322 86.3746L110.752 86.2335L110.901 86.6885C111.372 88.125 111.253 89.6895 110.572 91.0388C109.89 92.388 108.701 93.4118 107.266 93.8855L106.911 94.0021L108.302 98.2328C108.097 96.8993 108.372 95.5364 109.078 94.3865C109.784 93.2367 110.874 92.3745 112.156 91.9533L112.586 91.8122L112.735 92.2672C113.206 93.7037 113.087 95.2682 112.406 96.6175C111.724 97.9667 110.535 98.9905 109.1 99.4642L108.745 99.5808L110.136 103.811C109.931 102.478 110.206 101.115 110.912 99.9649C111.618 98.815 112.708 97.9528 113.99 97.5317L114.42 97.3905L114.569 97.8455C115.04 99.2821 114.921 100.847 114.24 102.196C113.558 103.545 112.369 104.569 110.934 105.043L110.579 105.159L111.97 109.39C111.766 108.056 112.041 106.694 112.746 105.544C113.452 104.394 114.542 103.532 115.824 103.111L116.253 102.97L116.403 103.425C116.873 104.861 116.755 106.426 116.073 107.775C115.392 109.124 114.203 110.148 112.767 110.622L112.413 110.738L113.355 113.603C113.396 113.727 113.386 113.863 113.326 113.98C113.267 114.097 113.164 114.186 113.04 114.227C112.915 114.268 112.779 114.258 112.662 114.199C112.545 114.139 112.456 114.036 112.415 113.912L111.474 111.047L111.093 111.172C109.656 111.644 108.091 111.527 106.741 110.845C105.392 110.163 104.368 108.973 103.896 107.536L103.746 107.082L104.176 106.94C105.487 106.509 106.911 106.568 108.182 107.108C109.454 107.647 110.486 108.629 111.087 109.872L109.64 105.468L109.259 105.593C107.822 106.066 106.257 105.948 104.907 105.266C103.558 104.584 102.534 103.394 102.062 101.957L101.912 101.502L102.342 101.361C103.653 100.93 105.077 100.989 106.349 101.528C107.62 102.068 108.652 103.05 109.254 104.293L107.806 99.889L107.425 100.014C105.988 100.486 104.423 100.369 103.073 99.687C101.724 99.0053 100.7 97.8153 100.228 96.3788L100.078 95.9238L100.508 95.7827C101.819 95.3513 103.243 95.4108 104.514 95.9501C105.786 96.4894 106.818 97.4718 107.419 98.7147L105.972 94.3106L105.591 94.4359C104.154 94.9082 102.589 94.7905 101.239 94.1087C99.8897 93.4269 98.8661 92.2369 98.3938 90.8005L98.2442 90.3455L98.6736 90.2043C99.3845 89.9684 100.135 89.8758 100.882 89.9319C101.629 89.988 102.357 90.1917 103.025 90.5313Z" fill="url(#paint2_linear_2065_4)"/>
<path d="M142.409 130.21H106.363C102.286 130.361 98.3148 128.898 95.3112 126.138C92.3076 123.378 90.5145 119.544 90.3215 115.469V96.1458C90.3215 95.3245 90.6478 94.5368 91.2286 93.9561C91.8093 93.3753 92.597 93.0491 93.4183 93.0491C94.2396 93.0491 95.0272 93.3753 95.608 93.9561C96.1887 94.5368 96.515 95.3245 96.515 96.1458V115.469C96.7053 117.902 97.8449 120.162 99.6874 121.761C101.53 123.36 103.928 124.17 106.363 124.016H142.409C144.843 124.17 147.241 123.36 149.084 121.761C150.926 120.162 152.066 117.902 152.256 115.469V96.1458C152.256 95.3245 152.582 94.5368 153.163 93.9561C153.744 93.3753 154.532 93.0491 155.353 93.0491C156.174 93.0491 156.962 93.3753 157.543 93.9561C158.123 94.5368 158.45 95.3245 158.45 96.1458V115.469C158.257 119.544 156.464 123.378 153.46 126.138C150.456 128.898 146.485 130.361 142.409 130.21ZM166.842 89.0543C167.132 88.7664 167.362 88.4239 167.52 88.0465C167.677 87.6692 167.758 87.2644 167.758 86.8556C167.758 86.4468 167.677 86.042 167.52 85.6647C167.362 85.2873 167.132 84.9448 166.842 84.6569L126.584 44.3994C126.296 44.1092 125.954 43.8788 125.577 43.7216C125.199 43.5643 124.794 43.4834 124.386 43.4834C123.977 43.4834 123.572 43.5643 123.195 43.7216C122.817 43.8788 122.475 44.1092 122.187 44.3994L81.9294 84.6569C81.3463 85.24 81.0187 86.0309 81.0187 86.8556C81.0187 87.6803 81.3463 88.4712 81.9294 89.0543C82.5125 89.6374 83.3034 89.965 84.1281 89.965C84.9527 89.965 85.7436 89.6374 86.3268 89.0543L124.386 50.9645L162.444 89.0543C162.732 89.3445 163.075 89.5749 163.452 89.7321C163.83 89.8893 164.234 89.9703 164.643 89.9703C165.052 89.9703 165.457 89.8893 165.834 89.7321C166.211 89.5749 166.554 89.3445 166.842 89.0543Z" fill="url(#paint3_linear_2065_4)"/>
<defs>
<linearGradient id="paint0_linear_2065_4" x1="117.69" y1="91.9105" x2="130.856" y2="91.9105" gradientUnits="userSpaceOnUse">
<stop stop-color="#B57E10"/>
<stop offset="0.09" stop-color="#E5C35C"/>
<stop offset="0.14" stop-color="#F9DF7B"/>
<stop offset="0.26" stop-color="#FFF3A6"/>
<stop offset="0.36" stop-color="#F9DF7B"/>
<stop offset="0.49" stop-color="#B57E10"/>
<stop offset="0.57" stop-color="#E5C35C"/>
<stop offset="0.61" stop-color="#F9DF7B"/>
<stop offset="0.72" stop-color="#FFF3A6"/>
<stop offset="0.84" stop-color="#F9DF7B"/>
<stop offset="1" stop-color="#B57E10"/>
</linearGradient>
<linearGradient id="paint1_linear_2065_4" x1="131.936" y1="98.4057" x2="150.378" y2="98.4057" gradientUnits="userSpaceOnUse">
<stop stop-color="#B57E10"/>
<stop offset="0.09" stop-color="#E5C35C"/>
<stop offset="0.14" stop-color="#F9DF7B"/>
<stop offset="0.26" stop-color="#FFF3A6"/>
<stop offset="0.36" stop-color="#F9DF7B"/>
<stop offset="0.49" stop-color="#B57E10"/>
<stop offset="0.57" stop-color="#E5C35C"/>
<stop offset="0.61" stop-color="#F9DF7B"/>
<stop offset="0.72" stop-color="#FFF3A6"/>
<stop offset="0.84" stop-color="#F9DF7B"/>
<stop offset="1" stop-color="#B57E10"/>
</linearGradient>
<linearGradient id="paint2_linear_2065_4" x1="116.687" y1="98.4057" x2="98.2442" y2="98.4057" gradientUnits="userSpaceOnUse">
<stop stop-color="#B57E10"/>
<stop offset="0.09" stop-color="#E5C35C"/>
<stop offset="0.14" stop-color="#F9DF7B"/>
<stop offset="0.26" stop-color="#FFF3A6"/>
<stop offset="0.36" stop-color="#F9DF7B"/>
<stop offset="0.49" stop-color="#B57E10"/>
<stop offset="0.57" stop-color="#E5C35C"/>
<stop offset="0.61" stop-color="#F9DF7B"/>
<stop offset="0.72" stop-color="#FFF3A6"/>
<stop offset="0.84" stop-color="#F9DF7B"/>
<stop offset="1" stop-color="#B57E10"/>
</linearGradient>
<linearGradient id="paint3_linear_2065_4" x1="81.0187" y1="86.8415" x2="167.758" y2="86.8415" gradientUnits="userSpaceOnUse">
<stop stop-color="#B57E10"/>
<stop offset="0.09" stop-color="#E5C35C"/>
<stop offset="0.14" stop-color="#F9DF7B"/>
<stop offset="0.26" stop-color="#FFF3A6"/>
<stop offset="0.36" stop-color="#F9DF7B"/>
<stop offset="0.49" stop-color="#B57E10"/>
<stop offset="0.57" stop-color="#E5C35C"/>
<stop offset="0.61" stop-color="#F9DF7B"/>
<stop offset="0.72" stop-color="#FFF3A6"/>
<stop offset="0.84" stop-color="#F9DF7B"/>
<stop offset="1" stop-color="#B57E10"/>
</linearGradient>
</defs>
</svg>
