<svg width="250" height="250" viewBox="0 0 250 250" fill="none" xmlns="http://www.w3.org/2000/svg">
<circle cx="124.822" cy="124.822" r="124.822" fill="#349440"/>
<path d="M59.9404 141.64C59.9404 141.36 59.8871 141.127 59.7804 140.94C59.6871 140.74 59.5271 140.58 59.3004 140.46V139.24C59.3004 138.453 59.5071 137.867 59.9204 137.48C60.3337 137.08 60.9271 136.88 61.7004 136.88H64.1004L66.0404 137.64H66.2804C66.4271 137.64 66.5537 137.613 66.6604 137.56C66.7804 137.493 66.8404 137.353 66.8404 137.14V136.32H69.8004V137.64C69.8004 138.027 69.7404 138.393 69.6204 138.74C69.5137 139.087 69.2871 139.373 68.9404 139.6C68.6071 139.813 68.0937 139.92 67.4004 139.92H65.3604L64.0804 139.44H62.9004C62.8071 139.44 62.7071 139.467 62.6004 139.52C62.5071 139.56 62.4604 139.68 62.4604 139.88V140.04C62.7271 140.2 62.9337 140.4 63.0804 140.64C63.2404 140.867 63.3204 141.213 63.3204 141.68V146.12L64.8604 144.66L66.4004 146.12V143.76L67.2204 144.52H66.9604C66.3071 144.52 65.8137 144.373 65.4804 144.08C65.1471 143.787 64.9804 143.34 64.9804 142.74C64.9804 142.113 65.1671 141.647 65.5404 141.34C65.9271 141.033 66.5404 140.88 67.3804 140.88C68.2071 140.88 68.8137 140.993 69.2004 141.22C69.6004 141.433 69.8004 141.773 69.8004 142.24V149H66.6804L64.8604 147.16L63.0604 149H59.9404V141.64ZM66.8804 142C66.4537 142 66.2404 142.233 66.2404 142.7C66.2404 143.167 66.4537 143.4 66.8804 143.4V142ZM84.0501 149.2C82.5167 149.2 81.3234 148.873 80.4701 148.22C79.6301 147.553 79.2101 146.613 79.2101 145.4V140.48C79.2101 140.04 79.0767 139.7 78.8101 139.46C78.5434 139.207 78.1834 139.08 77.7301 139.08C77.2767 139.08 76.9167 139.207 76.6501 139.46C76.3834 139.7 76.2501 140.04 76.2501 140.48V146.24L75.4301 145.48H75.6901C76.3567 145.48 76.8501 145.627 77.1701 145.92C77.5034 146.213 77.6701 146.66 77.6701 147.26C77.6701 147.873 77.4767 148.34 77.0901 148.66C76.7167 148.967 76.1101 149.12 75.2701 149.12C74.4434 149.12 73.8301 149.007 73.4301 148.78C73.0434 148.553 72.8501 148.213 72.8501 147.76V140.48C72.8501 139.267 73.2767 138.333 74.1301 137.68C74.9967 137.013 76.1967 136.68 77.7301 136.68C79.2634 136.68 80.4567 137.013 81.3101 137.68C82.1767 138.333 82.6101 139.267 82.6101 140.48V145.4C82.6101 145.84 82.7367 146.187 82.9901 146.44C83.2434 146.68 83.5967 146.8 84.0501 146.8C84.5034 146.8 84.8567 146.68 85.1101 146.44C85.3634 146.187 85.4901 145.84 85.4901 145.4V141.64C85.4901 141.293 85.4301 141.04 85.3101 140.88C85.2034 140.707 85.0501 140.58 84.8501 140.5V139.04C84.8501 138.333 85.0234 137.8 85.3701 137.44C85.7167 137.067 86.2301 136.88 86.9101 136.88H89.0101V139.44H88.0501C87.8101 139.44 87.6901 139.573 87.6901 139.84V140.04C88.1167 140.2 88.4234 140.407 88.6101 140.66C88.7967 140.9 88.8901 141.253 88.8901 141.72V145.4C88.8901 146.613 88.4634 147.553 87.6101 148.22C86.7701 148.873 85.5834 149.2 84.0501 149.2ZM75.7701 148C76.1967 148 76.4101 147.767 76.4101 147.3C76.4101 146.833 76.1967 146.6 75.7701 146.6V148ZM82.4409 135.6C81.5342 135.6 80.8475 135.433 80.3809 135.1C79.9142 134.753 79.6809 134.24 79.6809 133.56C79.6809 132.84 79.9609 132.233 80.5209 131.74C81.0675 131.247 81.8875 131 82.9809 131C83.7409 131 84.4475 131.113 85.1009 131.34C85.7409 131.553 86.3209 131.833 86.8409 132.18C87.3475 132.513 87.7742 132.86 88.1209 133.22C88.4675 133.58 88.7209 133.907 88.8809 134.2V135.6H82.4409ZM83.2809 134.26H86.4209C86.2209 134.06 85.9542 133.873 85.6209 133.7C85.2742 133.527 84.9075 133.387 84.5209 133.28C84.1342 133.16 83.7675 133.1 83.4209 133.1C83.0875 133.1 82.8542 133.153 82.7209 133.26C82.5742 133.367 82.5009 133.513 82.5009 133.7C82.5009 133.873 82.5675 134.013 82.7009 134.12C82.8209 134.213 83.0142 134.26 83.2809 134.26ZM98.4121 144.28C98.4121 143.84 98.2721 143.5 97.9921 143.26C97.7121 143.007 97.3388 142.88 96.8721 142.88C96.4188 142.88 96.0454 143.007 95.7521 143.26C95.4721 143.5 95.3321 143.84 95.3321 144.28V146.24L94.5121 145.48H94.7721C95.4388 145.48 95.9321 145.627 96.2521 145.92C96.5854 146.213 96.7521 146.66 96.7521 147.26C96.7521 147.873 96.5588 148.34 96.1721 148.66C95.7988 148.967 95.1921 149.12 94.3521 149.12C93.5254 149.12 92.9121 149.007 92.5121 148.78C92.1254 148.553 91.9321 148.213 91.9321 147.76V144.28C91.9321 143.067 92.3721 142.133 93.2521 141.48C94.1321 140.813 95.3388 140.48 96.8721 140.48C98.4188 140.48 99.6254 140.813 100.492 141.48C101.372 142.133 101.812 143.067 101.812 144.28V149H98.4121V144.28ZM94.8521 148C95.2788 148 95.4921 147.767 95.4921 147.3C95.4921 146.833 95.2788 146.6 94.8521 146.6V148ZM91.8521 139.44V136.88H101.892V139.44H91.8521ZM107.242 149.12C106.455 149.12 105.875 149.007 105.502 148.78C105.128 148.553 104.942 148.213 104.942 147.76V141.64C104.942 141.293 104.862 141.04 104.702 140.88C104.555 140.707 104.342 140.58 104.062 140.5V139.04C104.062 138.333 104.235 137.8 104.582 137.44C104.928 137.067 105.442 136.88 106.122 136.88H108.502V139.44H107.262C107.022 139.44 106.902 139.573 106.902 139.84V140.04C107.408 140.2 107.775 140.407 108.002 140.66C108.228 140.9 108.342 141.253 108.342 141.72V146.24L107.362 145.48H107.622C108.275 145.48 108.762 145.627 109.082 145.92C109.415 146.213 109.582 146.66 109.582 147.26C109.582 148.5 108.802 149.12 107.242 149.12ZM107.702 148C108.128 148 108.342 147.767 108.342 147.3C108.342 146.833 108.128 146.6 107.702 146.6V148ZM123.941 138.92V135.08C123.941 134.76 123.781 134.6 123.461 134.6H122.741V132.52H125.181C125.847 132.52 126.347 132.667 126.681 132.96C127.014 133.253 127.181 133.707 127.181 134.32V136.32C127.181 136.64 127.041 136.973 126.761 137.32C126.481 137.667 126.121 137.98 125.681 138.26C125.254 138.54 124.807 138.76 124.341 138.92H123.941ZM123.781 140.18C123.781 139.86 123.714 139.653 123.581 139.56C123.447 139.453 123.254 139.4 123.001 139.4H122.561L120.241 140.44L119.781 138.14L122.561 136.88H123.881C124.987 136.88 125.814 137.12 126.361 137.6C126.907 138.08 127.181 138.8 127.181 139.76V149H123.781V140.18ZM117.501 149.2C116.861 149.2 116.301 149.107 115.821 148.92C115.354 148.72 114.974 148.447 114.681 148.1C114.387 147.74 114.181 147.313 114.061 146.82L114.581 145.72C114.621 145.88 114.721 146.047 114.881 146.22C115.041 146.393 115.247 146.54 115.501 146.66C115.754 146.78 116.034 146.84 116.341 146.84C116.701 146.84 116.994 146.753 117.221 146.58C117.447 146.393 117.561 146.14 117.561 145.82V145.1C116.587 144.953 115.707 144.767 114.921 144.54C114.147 144.313 113.481 144.033 112.921 143.7C112.374 143.353 111.954 142.927 111.661 142.42C111.367 141.9 111.221 141.28 111.221 140.56C111.221 139.227 111.681 138.247 112.601 137.62C113.534 136.993 114.754 136.68 116.261 136.68C117.767 136.68 118.934 136.947 119.761 137.48C120.601 138.013 121.021 138.787 121.021 139.8C121.021 140.613 120.761 141.22 120.241 141.62C119.721 142.02 119.007 142.22 118.101 142.22C117.821 142.22 117.541 142.2 117.261 142.16C116.994 142.12 116.787 142.073 116.641 142.02V140.34C116.707 140.353 116.787 140.373 116.881 140.4C116.974 140.427 117.061 140.44 117.141 140.44C117.301 140.44 117.434 140.393 117.541 140.3C117.647 140.193 117.701 140.06 117.701 139.9C117.701 139.647 117.574 139.44 117.321 139.28C117.081 139.12 116.741 139.04 116.301 139.04C115.781 139.04 115.361 139.18 115.041 139.46C114.734 139.74 114.581 140.133 114.581 140.64C114.581 141.267 114.847 141.76 115.381 142.12C115.914 142.467 116.654 142.733 117.601 142.92C118.547 143.093 119.647 143.247 120.901 143.38V146.28C120.901 147.213 120.601 147.933 120.001 148.44C119.401 148.947 118.567 149.2 117.501 149.2ZM111.461 149V145.2H114.661V147.14L114.361 149H111.461ZM130.213 144.28C130.213 143.067 130.653 142.133 131.533 141.48C132.413 140.813 133.627 140.48 135.173 140.48C136.707 140.48 137.907 140.813 138.773 141.48C139.653 142.133 140.093 143.067 140.093 144.28V149H136.693V144.28C136.693 143.827 136.553 143.48 136.273 143.24C135.993 143 135.62 142.88 135.153 142.88C134.7 142.88 134.327 143 134.033 143.24C133.753 143.48 133.613 143.827 133.613 144.28V149H130.213V144.28ZM130.133 139.44V136.88H140.173V139.44H130.133ZM132.943 154.28C132.17 154.28 131.556 154.087 131.103 153.7C130.65 153.327 130.423 152.813 130.423 152.16C130.423 151.453 130.676 150.913 131.183 150.54C131.676 150.18 132.37 150 133.263 150H139.743V151.28H134.243C133.976 151.28 133.77 151.34 133.623 151.46C133.463 151.58 133.383 151.753 133.383 151.98C133.383 152.193 133.45 152.353 133.583 152.46C133.716 152.58 133.89 152.64 134.103 152.64C134.263 152.64 134.436 152.607 134.623 152.54C134.796 152.487 134.976 152.42 135.163 152.34C135.35 152.273 135.53 152.207 135.703 152.14C135.876 152.087 136.043 152.06 136.203 152.06H136.423V153.46H136.203C136.003 153.46 135.796 153.5 135.583 153.58C135.37 153.66 135.136 153.753 134.883 153.86C134.63 153.98 134.343 154.08 134.023 154.16C133.703 154.24 133.343 154.28 132.943 154.28ZM138.423 153.5C138.57 153.5 138.69 153.46 138.783 153.38C138.863 153.313 138.903 153.213 138.903 153.08C138.903 152.947 138.863 152.84 138.783 152.76C138.69 152.693 138.57 152.66 138.423 152.66V153.5ZM137.923 154.28C137.27 154.28 136.803 154.187 136.523 154C136.243 153.827 136.103 153.573 136.103 153.24V150.46H138.903V152.26L138.343 151.9H138.503C138.89 151.9 139.196 151.987 139.423 152.16C139.636 152.347 139.743 152.633 139.743 153.02C139.743 153.46 139.603 153.78 139.323 153.98C139.03 154.18 138.563 154.28 137.923 154.28ZM136.292 158.16V155.16H139.252V158.16H136.292ZM143.163 149V144.76H142.223V142.76H146.563V146L148.083 144.54L149.623 146V142.12C149.623 141.893 149.59 141.693 149.523 141.52C149.456 141.333 149.23 141.16 148.843 141L151.243 139.84C151.976 140.12 152.456 140.44 152.683 140.8C152.91 141.16 153.023 141.6 153.023 142.12V149H149.903L148.083 147.18L146.283 149H143.163ZM146.503 141.82C145.423 141.82 144.576 141.667 143.963 141.36C143.35 141.04 143.043 140.567 143.043 139.94C143.043 139.647 143.09 139.353 143.183 139.06C143.276 138.767 143.323 138.54 143.323 138.38C143.323 138.26 143.29 138.187 143.223 138.16C143.156 138.133 143.07 138.12 142.963 138.12H142.623V136.32H144.723C145.336 136.32 145.776 136.433 146.043 136.66C146.323 136.873 146.463 137.207 146.463 137.66C146.463 137.993 146.416 138.273 146.323 138.5C146.23 138.713 146.183 138.933 146.183 139.16C146.183 139.427 146.276 139.64 146.463 139.8C146.663 139.96 146.93 140.04 147.263 140.04C147.623 140.04 147.943 139.96 148.223 139.8C148.516 139.627 148.83 139.353 149.163 138.98L149.563 140.36C149.07 140.36 148.656 140.193 148.323 139.86C147.99 139.527 147.823 139.113 147.823 138.62C147.823 138.033 148.03 137.58 148.443 137.26C148.856 136.927 149.43 136.76 150.163 136.76C150.91 136.76 151.483 136.927 151.883 137.26C152.296 137.58 152.503 138.033 152.503 138.62C152.503 139.047 152.396 139.4 152.183 139.68C151.97 139.96 151.696 140.173 151.363 140.32C151.043 140.453 150.723 140.54 150.403 140.58C150.283 140.687 150.05 140.84 149.703 141.04C149.37 141.24 148.93 141.42 148.383 141.58C147.85 141.74 147.223 141.82 146.503 141.82ZM150.163 139.16C150.31 139.16 150.423 139.113 150.503 139.02C150.596 138.927 150.643 138.807 150.643 138.66C150.643 138.513 150.596 138.393 150.503 138.3C150.423 138.207 150.31 138.16 150.163 138.16C150.03 138.16 149.916 138.207 149.823 138.3C149.73 138.393 149.683 138.513 149.683 138.66C149.683 138.807 149.73 138.927 149.823 139.02C149.916 139.113 150.03 139.16 150.163 139.16ZM160.583 154.36C159.036 154.36 157.829 154.027 156.963 153.36C156.096 152.707 155.663 151.773 155.663 150.56V141.64C155.663 141.293 155.603 141.04 155.483 140.88C155.376 140.707 155.223 140.58 155.023 140.5V139.04C155.023 138.333 155.196 137.8 155.543 137.44C155.889 137.067 156.403 136.88 157.083 136.88H159.183V139.44H158.223C157.983 139.44 157.863 139.573 157.863 139.84V140.04C158.289 140.2 158.596 140.407 158.783 140.66C158.969 140.9 159.063 141.253 159.063 141.72V150.56C159.063 151 159.196 151.34 159.463 151.58C159.729 151.833 160.103 151.96 160.583 151.96C161.063 151.96 161.436 151.833 161.703 151.58C161.969 151.34 162.103 151 162.103 150.56V150H165.503V150.56C165.503 151.773 165.069 152.707 164.203 153.36C163.336 154.027 162.129 154.36 160.583 154.36ZM173.308 149.2C171.775 149.2 170.581 148.873 169.728 148.22C168.888 147.553 168.468 146.613 168.468 145.4V143.96C168.468 143.547 168.335 143.227 168.068 143C167.801 142.76 167.441 142.64 166.988 142.64C166.535 142.64 166.175 142.76 165.908 143C165.641 143.227 165.508 143.547 165.508 143.96V146.24L164.688 145.48H164.948C165.615 145.48 166.108 145.627 166.428 145.92C166.761 146.213 166.928 146.66 166.928 147.26C166.928 147.873 166.735 148.34 166.348 148.66C165.975 148.967 165.368 149.12 164.528 149.12C163.701 149.12 163.088 149.007 162.688 148.78C162.301 148.553 162.108 148.213 162.108 147.76V143.96C162.108 142.787 162.535 141.88 163.388 141.24C164.255 140.6 165.455 140.28 166.988 140.28C168.521 140.28 169.715 140.6 170.568 141.24C171.435 141.88 171.868 142.787 171.868 143.96V145.4C171.868 145.84 171.995 146.187 172.248 146.44C172.501 146.68 172.855 146.8 173.308 146.8C173.761 146.8 174.115 146.68 174.368 146.44C174.621 146.187 174.748 145.84 174.748 145.4V141.64C174.748 141.293 174.688 141.04 174.568 140.88C174.461 140.707 174.308 140.58 174.108 140.5V139.04C174.108 138.333 174.281 137.8 174.628 137.44C174.975 137.067 175.488 136.88 176.168 136.88H178.268V139.44H177.308C177.068 139.44 176.948 139.573 176.948 139.84V140.04C177.375 140.2 177.681 140.407 177.868 140.66C178.055 140.9 178.148 141.253 178.148 141.72V145.4C178.148 146.613 177.721 147.553 176.868 148.22C176.028 148.873 174.841 149.2 173.308 149.2ZM165.028 148C165.455 148 165.668 147.767 165.668 147.3C165.668 146.833 165.455 146.6 165.028 146.6V148ZM164.728 142.18L162.728 140.3V139.04C162.728 138.333 162.901 137.8 163.248 137.44C163.608 137.067 164.135 136.88 164.828 136.88H170.648V139.44H165.948C165.841 139.44 165.748 139.473 165.668 139.54C165.601 139.607 165.568 139.707 165.568 139.84V140.04L166.808 141.16L164.728 142.18ZM174.863 154.16V150H177.943V154.16H174.863ZM181.19 144.28C181.19 143.067 181.63 142.133 182.51 141.48C183.39 140.813 184.603 140.48 186.15 140.48C187.683 140.48 188.883 140.813 189.75 141.48C190.63 142.133 191.07 143.067 191.07 144.28V149H187.67V144.28C187.67 143.827 187.53 143.48 187.25 143.24C186.97 143 186.597 142.88 186.13 142.88C185.677 142.88 185.303 143 185.01 143.24C184.73 143.48 184.59 143.827 184.59 144.28V149H181.19V144.28ZM181.11 139.44V136.88H191.15V139.44H181.11Z" fill="white"/>
<path d="M80.2625 232.12C79.4092 232.12 78.7892 231.967 78.4025 231.66C78.0158 231.34 77.8225 230.873 77.8225 230.26C77.8225 229.66 77.9825 229.213 78.3025 228.92C78.6358 228.627 79.1292 228.48 79.7825 228.48H80.0425L79.2625 229.24V224.64C79.2625 224.293 79.1825 224.04 79.0225 223.88C78.8758 223.707 78.6625 223.58 78.3825 223.5V222.04C78.3825 221.333 78.5558 220.8 78.9025 220.44C79.2492 220.067 79.7625 219.88 80.4425 219.88H82.8225V222.44H81.5825C81.3425 222.44 81.2225 222.573 81.2225 222.84V223.04C81.7292 223.2 82.0958 223.407 82.3225 223.66C82.5492 223.9 82.6625 224.253 82.6625 224.72V230.76C82.6625 231.667 81.8625 232.12 80.2625 232.12ZM79.9025 229.6C79.4758 229.6 79.2625 229.833 79.2625 230.3C79.2625 230.767 79.4758 231 79.9025 231V229.6ZM97.0286 232.2C95.4953 232.2 94.3019 231.873 93.4486 231.22C92.6086 230.553 92.1886 229.613 92.1886 228.4V226.96C92.1886 226.547 92.0553 226.227 91.7886 226C91.5219 225.76 91.1619 225.64 90.7086 225.64C90.2553 225.64 89.8953 225.76 89.6286 226C89.3619 226.227 89.2286 226.547 89.2286 226.96V229.24L88.4086 228.48H88.6686C89.3353 228.48 89.8286 228.627 90.1486 228.92C90.4819 229.213 90.6486 229.66 90.6486 230.26C90.6486 230.873 90.4553 231.34 90.0686 231.66C89.6953 231.967 89.0886 232.12 88.2486 232.12C87.4219 232.12 86.8086 232.007 86.4086 231.78C86.0219 231.553 85.8286 231.213 85.8286 230.76V226.96C85.8286 225.787 86.2553 224.88 87.1086 224.24C87.9753 223.6 89.1753 223.28 90.7086 223.28C92.2419 223.28 93.4353 223.6 94.2886 224.24C95.1553 224.88 95.5886 225.787 95.5886 226.96V228.4C95.5886 228.84 95.7153 229.187 95.9686 229.44C96.2219 229.68 96.5753 229.8 97.0286 229.8C97.4819 229.8 97.8353 229.68 98.0886 229.44C98.3419 229.187 98.4686 228.84 98.4686 228.4V224.64C98.4686 224.293 98.4086 224.04 98.2886 223.88C98.1819 223.707 98.0286 223.58 97.8286 223.5V222.04C97.8286 221.333 98.0019 220.8 98.3486 220.44C98.6953 220.067 99.2086 219.88 99.8886 219.88H101.989V222.44H101.029C100.789 222.44 100.669 222.573 100.669 222.84V223.04C101.095 223.2 101.402 223.407 101.589 223.66C101.775 223.9 101.869 224.253 101.869 224.72V228.4C101.869 229.613 101.442 230.553 100.589 231.22C99.7486 231.873 98.5619 232.2 97.0286 232.2ZM88.7486 231C89.1753 231 89.3886 230.767 89.3886 230.3C89.3886 229.833 89.1753 229.6 88.7486 229.6V231ZM88.4486 225.18L86.4486 223.3V222.04C86.4486 221.333 86.6219 220.8 86.9686 220.44C87.3286 220.067 87.8553 219.88 88.5486 219.88H94.3686V222.44H89.6686C89.5619 222.44 89.4686 222.473 89.3886 222.54C89.3219 222.607 89.2886 222.707 89.2886 222.84V223.04L90.5286 224.16L88.4486 225.18ZM117.671 223.28C117.671 222.973 117.584 222.733 117.411 222.56C117.237 222.387 116.997 222.3 116.691 222.3H115.871L114.011 222.76C113.784 222.813 113.597 222.853 113.451 222.88C113.304 222.907 113.117 222.92 112.891 222.92H112.091V220.94H113.271L116.311 219.88H117.571C118.784 219.88 119.671 220.153 120.231 220.7C120.791 221.247 121.071 222.067 121.071 223.16V232H117.671V223.28ZM104.911 224.64C104.911 224.36 104.857 224.127 104.751 223.94C104.657 223.74 104.497 223.58 104.271 223.46V222.24C104.271 221.453 104.477 220.867 104.891 220.48C105.304 220.08 105.897 219.88 106.671 219.88H108.891L110.851 220.64H111.091C111.237 220.64 111.364 220.613 111.471 220.56C111.591 220.493 111.651 220.353 111.651 220.14V219.32H114.611V220.64C114.611 221.027 114.551 221.393 114.431 221.74C114.324 222.087 114.097 222.373 113.751 222.6C113.417 222.813 112.904 222.92 112.211 222.92H110.171L108.891 222.44H107.871C107.777 222.44 107.677 222.467 107.571 222.52C107.477 222.56 107.431 222.68 107.431 222.88V223.04C107.697 223.2 107.904 223.4 108.051 223.64C108.211 223.867 108.291 224.213 108.291 224.68V229L109.751 227.54L111.211 229V224.64H114.611V232H111.491L109.751 230.16L108.031 232H104.911V224.64ZM130.59 227.28C130.59 226.84 130.45 226.5 130.17 226.26C129.89 226.007 129.517 225.88 129.05 225.88C128.597 225.88 128.223 226.007 127.93 226.26C127.65 226.5 127.51 226.84 127.51 227.28V229.24L126.69 228.48H126.95C127.617 228.48 128.11 228.627 128.43 228.92C128.763 229.213 128.93 229.66 128.93 230.26C128.93 230.873 128.737 231.34 128.35 231.66C127.977 231.967 127.37 232.12 126.53 232.12C125.703 232.12 125.09 232.007 124.69 231.78C124.303 231.553 124.11 231.213 124.11 230.76V227.28C124.11 226.067 124.55 225.133 125.43 224.48C126.31 223.813 127.517 223.48 129.05 223.48C130.597 223.48 131.803 223.813 132.67 224.48C133.55 225.133 133.99 226.067 133.99 227.28V232H130.59V227.28ZM127.03 231C127.457 231 127.67 230.767 127.67 230.3C127.67 229.833 127.457 229.6 127.03 229.6V231ZM124.03 222.44V219.88H134.07V222.44H124.03ZM127.548 218.6C126.642 218.6 125.955 218.433 125.488 218.1C125.022 217.753 124.788 217.24 124.788 216.56C124.788 215.84 125.068 215.233 125.628 214.74C126.175 214.247 126.995 214 128.088 214C128.848 214 129.555 214.113 130.208 214.34C130.848 214.553 131.428 214.833 131.948 215.18C132.455 215.513 132.882 215.86 133.228 216.22C133.575 216.58 133.828 216.907 133.988 217.2V218.6H127.548ZM128.388 217.26H131.528C131.328 217.06 131.062 216.873 130.728 216.7C130.382 216.527 130.015 216.387 129.628 216.28C129.242 216.16 128.875 216.1 128.528 216.1C128.195 216.1 127.962 216.153 127.828 216.26C127.682 216.367 127.608 216.513 127.608 216.7C127.608 216.873 127.675 217.013 127.808 217.12C127.928 217.213 128.122 217.26 128.388 217.26ZM149.94 223.72C149.94 222.867 149.546 222.44 148.76 222.44H146.66V219.88H149.96C152.213 219.88 153.34 221.013 153.34 223.28V232H149.94V223.72ZM137.42 232C137.046 231.613 136.76 231.233 136.56 230.86C136.373 230.473 136.28 230.04 136.28 229.56C136.28 229.2 136.34 228.907 136.46 228.68C136.593 228.453 136.786 228.253 137.04 228.08V224.64C137.04 224.333 136.986 224.087 136.88 223.9C136.773 223.713 136.613 223.567 136.4 223.46V222.24C136.4 221.453 136.606 220.867 137.02 220.48C137.433 220.08 138.026 219.88 138.8 219.88H146.98V222.44H140C139.92 222.44 139.826 222.46 139.72 222.5C139.613 222.54 139.56 222.667 139.56 222.88V223.04C139.826 223.2 140.04 223.4 140.2 223.64C140.36 223.867 140.44 224.213 140.44 224.68V232H137.42ZM144.4 232.12C143.706 232.12 143.173 232 142.8 231.76C142.44 231.52 142.086 231.227 141.74 230.88C141.513 230.627 141.326 230.453 141.18 230.36C141.033 230.253 140.906 230.193 140.8 230.18C140.706 230.153 140.6 230.14 140.48 230.14H139.9V228.08H140.5C140.766 228.08 141 228.1 141.2 228.14C141.413 228.167 141.613 228.227 141.8 228.32C141.986 228.4 142.16 228.52 142.32 228.68C142.466 228.813 142.606 228.96 142.74 229.12C142.886 229.28 143.026 229.36 143.16 229.36C143.266 229.36 143.346 229.327 143.4 229.26C143.466 229.193 143.5 229.093 143.5 228.96V226.44L144.32 227.2H144.06C143.406 227.2 142.913 227.053 142.58 226.76C142.246 226.467 142.08 226.02 142.08 225.42C142.08 224.793 142.266 224.327 142.64 224.02C143.026 223.713 143.64 223.56 144.48 223.56C145.306 223.56 145.913 223.673 146.3 223.9C146.7 224.113 146.9 224.453 146.9 224.92V229.72C146.9 230.627 146.666 231.253 146.2 231.6C145.733 231.947 145.133 232.12 144.4 232.12ZM143.98 224.68C143.553 224.68 143.34 224.913 143.34 225.38C143.34 225.847 143.553 226.08 143.98 226.08V224.68ZM141.07 237.36C139.91 237.36 139.003 237.173 138.35 236.8C137.697 236.427 137.37 235.853 137.37 235.08C137.37 234.36 137.63 233.833 138.15 233.5C138.67 233.167 139.397 233 140.33 233C140.597 233 140.823 233.007 141.01 233.02C141.197 233.047 141.337 233.073 141.43 233.1V234.66C141.377 234.633 141.31 234.607 141.23 234.58C141.137 234.553 141.043 234.54 140.95 234.54C140.777 234.54 140.643 234.58 140.55 234.66C140.457 234.753 140.41 234.86 140.41 234.98C140.41 235.14 140.49 235.26 140.65 235.34C140.797 235.433 141.003 235.48 141.27 235.48C141.683 235.48 142.05 235.387 142.37 235.2C142.677 235.027 142.923 234.767 143.11 234.42C143.283 234.087 143.37 233.687 143.37 233.22V233H146.49V233.26C146.49 234.46 146.03 235.44 145.11 236.2C144.177 236.973 142.83 237.36 141.07 237.36ZM167.695 237.16C166.909 237.16 166.182 237.107 165.515 237C164.862 236.893 164.235 236.76 163.635 236.6C163.049 236.453 162.462 236.3 161.875 236.14C161.302 235.993 160.702 235.867 160.075 235.76C159.449 235.653 158.762 235.6 158.015 235.6H157.375V233.4H158.015C158.949 233.4 159.789 233.453 160.535 233.56C161.282 233.667 161.962 233.793 162.575 233.94C163.202 234.1 163.789 234.253 164.335 234.4C164.895 234.56 165.442 234.693 165.975 234.8C166.522 234.907 167.095 234.96 167.695 234.96H169.035C169.249 234.96 169.409 234.92 169.515 234.84C169.635 234.773 169.695 234.673 169.695 234.54C169.695 234.433 169.662 234.353 169.595 234.3C169.529 234.247 169.429 234.22 169.295 234.22C169.202 234.22 169.089 234.227 168.955 234.24C168.835 234.267 168.729 234.293 168.635 234.32V232.98C168.822 232.94 169.042 232.907 169.295 232.88C169.562 232.853 169.815 232.84 170.055 232.84C171.002 232.84 171.649 233.027 171.995 233.4C172.355 233.787 172.535 234.273 172.535 234.86C172.535 235.687 172.275 236.273 171.755 236.62C171.235 236.98 170.402 237.16 169.255 237.16H167.695ZM162.695 232V223.14L162.255 222.72L161.295 223.52H161.175L160.215 222.72L159.775 223.14V229.24L158.955 228.48H159.215C159.882 228.48 160.375 228.627 160.695 228.92C161.029 229.213 161.195 229.66 161.195 230.26C161.195 230.873 161.002 231.34 160.615 231.66C160.242 231.967 159.635 232.12 158.795 232.12C157.969 232.12 157.355 232.007 156.955 231.78C156.569 231.553 156.375 231.213 156.375 230.76V222.4L159.195 219.68H159.435L161.235 221.04L163.035 219.68H163.275L166.095 222.4V232H162.695ZM159.295 231C159.722 231 159.935 230.767 159.935 230.3C159.935 229.833 159.722 229.6 159.295 229.6V231ZM169.015 223.36C169.015 222.72 168.682 222.4 168.015 222.4H167.495L165.655 223.68L164.615 221.76L167.175 219.88H169.035C170.102 219.88 170.929 220.113 171.515 220.58C172.115 221.047 172.415 221.86 172.415 223.02V232H169.015V223.36ZM166.251 218.6V214.64H168.891V218.6H166.251Z" fill="white"/>
<path d="M89.2134 166.72C89.2134 165.867 88.8201 165.44 88.0334 165.44H85.9334V162.88H89.2334C91.4868 162.88 92.6134 164.013 92.6134 166.28V175H89.2134V166.72ZM76.2934 170.28C76.2934 169.067 76.7334 168.133 77.6134 167.48C78.4934 166.813 79.7068 166.48 81.2534 166.48C82.7868 166.48 83.9868 166.813 84.8534 167.48C85.7334 168.133 86.1734 169.067 86.1734 170.28V175H82.7734V170.28C82.7734 169.827 82.6334 169.48 82.3534 169.24C82.0734 169 81.7001 168.88 81.2334 168.88C80.7801 168.88 80.4068 169 80.1134 169.24C79.8334 169.48 79.6934 169.827 79.6934 170.28V172.72H79.4534C79.5468 172.133 79.7668 171.653 80.1134 171.28C80.4734 170.907 81.0201 170.72 81.7534 170.72H81.9734V172.84H81.7534C81.4068 172.84 81.1001 172.873 80.8334 172.94C80.5668 172.993 80.3401 173.1 80.1534 173.26C79.9668 173.42 79.8134 173.653 79.6934 173.96V175H76.2934V170.28ZM76.2134 165.44V162.88H86.2534V165.44H76.2134ZM84.2231 180.24C83.5565 180.24 83.0698 180.14 82.7631 179.94C82.4565 179.74 82.3031 179.427 82.3031 179V176H85.3431V177.9L84.6631 177.54H84.9431C85.3431 177.54 85.6565 177.64 85.8831 177.84C86.1098 178.053 86.2231 178.393 86.2231 178.86C86.2231 179.34 86.0698 179.687 85.7631 179.9C85.4431 180.127 84.9298 180.24 84.2231 180.24ZM84.7431 179.46C84.8898 179.46 85.0165 179.407 85.1231 179.3C85.2165 179.193 85.2631 179.053 85.2631 178.88C85.2631 178.693 85.2165 178.547 85.1231 178.44C85.0165 178.347 84.8898 178.3 84.7431 178.3V179.46ZM79.5231 180.04C78.9631 180.04 78.4698 179.98 78.0431 179.86C77.6165 179.753 77.2098 179.607 76.8231 179.42L77.2431 177.42C77.5498 177.593 77.9165 177.76 78.3431 177.92C78.7698 178.08 79.2298 178.16 79.7231 178.16C80.1098 178.16 80.4898 178.113 80.8631 178.02C81.2365 177.94 81.5831 177.847 81.9031 177.74C82.2231 177.647 82.4831 177.58 82.6831 177.54V179.22C82.5231 179.26 82.2898 179.347 81.9831 179.48C81.6631 179.613 81.2965 179.74 80.8831 179.86C80.4698 179.98 80.0165 180.04 79.5231 180.04ZM101.569 175.2C100.929 175.2 100.369 175.107 99.8889 174.92C99.4222 174.72 99.0422 174.447 98.7489 174.1C98.4556 173.74 98.2489 173.313 98.1289 172.82L98.6489 171.72C98.6889 171.88 98.7889 172.047 98.9489 172.22C99.1089 172.393 99.3156 172.54 99.5689 172.66C99.8222 172.78 100.102 172.84 100.409 172.84C100.769 172.84 101.062 172.753 101.289 172.58C101.516 172.393 101.629 172.14 101.629 171.82V171.1C100.656 170.953 99.7756 170.767 98.9889 170.54C98.2156 170.313 97.5489 170.033 96.9889 169.7C96.4422 169.353 96.0222 168.927 95.7289 168.42C95.4356 167.9 95.2889 167.28 95.2889 166.56C95.2889 165.227 95.7489 164.247 96.6689 163.62C97.6022 162.993 98.8222 162.68 100.329 162.68C101.836 162.68 103.002 162.947 103.829 163.48C104.669 164.013 105.089 164.787 105.089 165.8C105.089 166.613 104.829 167.22 104.309 167.62C103.789 168.02 103.076 168.22 102.169 168.22C101.889 168.22 101.609 168.2 101.329 168.16C101.062 168.12 100.856 168.073 100.709 168.02V166.34C100.776 166.353 100.856 166.373 100.949 166.4C101.042 166.427 101.129 166.44 101.209 166.44C101.369 166.44 101.502 166.393 101.609 166.3C101.716 166.193 101.769 166.06 101.769 165.9C101.769 165.647 101.642 165.44 101.389 165.28C101.149 165.12 100.809 165.04 100.369 165.04C99.8489 165.04 99.4289 165.18 99.1089 165.46C98.8022 165.74 98.6489 166.133 98.6489 166.64C98.6489 167.267 98.9156 167.76 99.4489 168.12C99.9822 168.467 100.722 168.733 101.669 168.92C102.616 169.093 103.716 169.247 104.969 169.38V172.28C104.969 173.213 104.669 173.933 104.069 174.44C103.469 174.947 102.636 175.2 101.569 175.2ZM95.5289 175V171.2H98.7289V173.14L98.4289 175H95.5289ZM120.616 166.28C120.616 165.973 120.529 165.733 120.356 165.56C120.183 165.387 119.943 165.3 119.636 165.3H118.816L116.956 165.76C116.729 165.813 116.543 165.853 116.396 165.88C116.249 165.907 116.063 165.92 115.836 165.92H115.036V163.94H116.216L119.256 162.88H120.516C121.729 162.88 122.616 163.153 123.176 163.7C123.736 164.247 124.016 165.067 124.016 166.16V175H120.616V166.28ZM107.856 167.64C107.856 167.36 107.803 167.127 107.696 166.94C107.603 166.74 107.443 166.58 107.216 166.46V165.24C107.216 164.453 107.423 163.867 107.836 163.48C108.249 163.08 108.843 162.88 109.616 162.88H111.836L113.796 163.64H114.036C114.183 163.64 114.309 163.613 114.416 163.56C114.536 163.493 114.596 163.353 114.596 163.14V162.32H117.556V163.64C117.556 164.027 117.496 164.393 117.376 164.74C117.269 165.087 117.043 165.373 116.696 165.6C116.363 165.813 115.849 165.92 115.156 165.92H113.116L111.836 165.44H110.816C110.723 165.44 110.623 165.467 110.516 165.52C110.423 165.56 110.376 165.68 110.376 165.88V166.04C110.643 166.2 110.849 166.4 110.996 166.64C111.156 166.867 111.236 167.213 111.236 167.68V172L112.696 170.54L114.156 172V167.64H117.556V175H114.436L112.696 173.16L110.976 175H107.856V167.64ZM133.535 170.28C133.535 169.84 133.395 169.5 133.115 169.26C132.835 169.007 132.462 168.88 131.995 168.88C131.542 168.88 131.168 169.007 130.875 169.26C130.595 169.5 130.455 169.84 130.455 170.28V172.24L129.635 171.48H129.895C130.562 171.48 131.055 171.627 131.375 171.92C131.708 172.213 131.875 172.66 131.875 173.26C131.875 173.873 131.682 174.34 131.295 174.66C130.922 174.967 130.315 175.12 129.475 175.12C128.648 175.12 128.035 175.007 127.635 174.78C127.248 174.553 127.055 174.213 127.055 173.76V170.28C127.055 169.067 127.495 168.133 128.375 167.48C129.255 166.813 130.462 166.48 131.995 166.48C133.542 166.48 134.748 166.813 135.615 167.48C136.495 168.133 136.935 169.067 136.935 170.28V175H133.535V170.28ZM129.975 174C130.402 174 130.615 173.767 130.615 173.3C130.615 172.833 130.402 172.6 129.975 172.6V174ZM126.975 165.44V162.88H137.015V165.44H126.975ZM130.494 161.6C129.587 161.6 128.9 161.433 128.434 161.1C127.967 160.753 127.734 160.24 127.734 159.56C127.734 158.84 128.014 158.233 128.574 157.74C129.12 157.247 129.94 157 131.034 157C131.794 157 132.5 157.113 133.154 157.34C133.794 157.553 134.374 157.833 134.894 158.18C135.4 158.513 135.827 158.86 136.174 159.22C136.52 159.58 136.774 159.907 136.934 160.2V161.6H130.494ZM131.334 160.26H134.474C134.274 160.06 134.007 159.873 133.674 159.7C133.327 159.527 132.96 159.387 132.574 159.28C132.187 159.16 131.82 159.1 131.474 159.1C131.14 159.1 130.907 159.153 130.774 159.26C130.627 159.367 130.554 159.513 130.554 159.7C130.554 159.873 130.62 160.013 130.754 160.12C130.874 160.213 131.067 160.26 131.334 160.26ZM139.985 170.28C139.985 169.067 140.425 168.133 141.305 167.48C142.185 166.813 143.392 166.48 144.925 166.48C146.472 166.48 147.678 166.813 148.545 167.48C149.425 168.133 149.865 169.067 149.865 170.28V175H146.465V170.28C146.465 169.84 146.325 169.5 146.045 169.26C145.765 169.007 145.392 168.88 144.925 168.88C144.472 168.88 144.098 169.007 143.805 169.26C143.525 169.5 143.385 169.84 143.385 170.28V172.72H143.145C143.238 172.133 143.458 171.653 143.805 171.28C144.165 170.907 144.712 170.72 145.445 170.72H145.665V172.84H145.445C145.098 172.84 144.792 172.873 144.525 172.94C144.258 172.993 144.032 173.1 143.845 173.26C143.658 173.42 143.505 173.653 143.385 173.96V175H139.985V170.28ZM139.905 165.44V162.88H149.945V165.44H139.905ZM143.423 161.6C142.517 161.6 141.83 161.433 141.363 161.1C140.897 160.753 140.663 160.233 140.663 159.54C140.663 158.793 140.93 158.187 141.463 157.72C141.997 157.24 142.75 157 143.723 157C144.297 157 144.817 157.08 145.283 157.24C145.75 157.387 146.163 157.593 146.523 157.86C146.87 158.113 147.157 158.4 147.383 158.72H147.463V157H149.863V161.6H143.423ZM144.263 160.26H147.183C147.01 160.06 146.763 159.873 146.443 159.7C146.123 159.527 145.783 159.387 145.423 159.28C145.063 159.16 144.723 159.1 144.403 159.1C144.07 159.1 143.837 159.153 143.703 159.26C143.557 159.367 143.483 159.513 143.483 159.7C143.483 159.873 143.55 160.013 143.683 160.12C143.803 160.213 143.997 160.26 144.263 160.26ZM157.815 175.2C156.281 175.2 155.081 174.873 154.215 174.22C153.348 173.553 152.915 172.613 152.915 171.4V167.64C152.915 167.293 152.855 167.04 152.735 166.88C152.628 166.707 152.475 166.58 152.275 166.5V165.04C152.275 164.333 152.448 163.8 152.795 163.44C153.141 163.067 153.655 162.88 154.335 162.88H156.435V165.44H155.475C155.235 165.44 155.115 165.573 155.115 165.84V166.04C155.541 166.2 155.848 166.407 156.035 166.66C156.221 166.9 156.315 167.253 156.315 167.72V171.4C156.315 171.84 156.448 172.187 156.715 172.44C156.995 172.68 157.361 172.8 157.815 172.8C158.281 172.8 158.648 172.68 158.915 172.44C159.181 172.187 159.315 171.84 159.315 171.4V167.64C159.315 167.293 159.255 167.04 159.135 166.88C159.028 166.707 158.875 166.58 158.675 166.5V165.04C158.675 164.333 158.848 163.8 159.195 163.44C159.541 163.067 160.055 162.88 160.735 162.88H162.835V165.44H161.875C161.635 165.44 161.515 165.573 161.515 165.84V166.04C161.941 166.2 162.248 166.407 162.435 166.66C162.621 166.9 162.715 167.253 162.715 167.72V171.4C162.715 172.613 162.281 173.553 161.415 174.22C160.561 174.873 159.361 175.2 157.815 175.2ZM154.475 170.34V168.14H161.155V170.34H154.475ZM156.04 161.6C155.134 161.6 154.447 161.433 153.98 161.1C153.514 160.753 153.28 160.233 153.28 159.54C153.28 158.793 153.547 158.187 154.08 157.72C154.614 157.24 155.367 157 156.34 157C156.914 157 157.434 157.08 157.9 157.24C158.367 157.387 158.78 157.593 159.14 157.86C159.487 158.113 159.774 158.4 160 158.72H160.08V157H162.48V161.6H156.04ZM156.88 160.26H159.8C159.627 160.06 159.38 159.873 159.06 159.7C158.74 159.527 158.4 159.387 158.04 159.28C157.68 159.16 157.34 159.1 157.02 159.1C156.687 159.1 156.454 159.153 156.32 159.26C156.174 159.367 156.1 159.513 156.1 159.7C156.1 159.873 156.167 160.013 156.3 160.12C156.42 160.213 156.614 160.26 156.88 160.26Z" fill="white"/>
<path d="M43.1888 204.2C41.6554 204.2 40.4621 203.873 39.6088 203.22C38.7688 202.553 38.3488 201.613 38.3488 200.4V198.96C38.3488 198.547 38.2154 198.227 37.9488 198C37.6821 197.76 37.3221 197.64 36.8688 197.64C36.4154 197.64 36.0554 197.76 35.7888 198C35.5221 198.227 35.3888 198.547 35.3888 198.96V201.24L34.5688 200.48H34.8288C35.4954 200.48 35.9888 200.627 36.3088 200.92C36.6421 201.213 36.8088 201.66 36.8088 202.26C36.8088 202.873 36.6154 203.34 36.2288 203.66C35.8554 203.967 35.2488 204.12 34.4088 204.12C33.5821 204.12 32.9688 204.007 32.5688 203.78C32.1821 203.553 31.9888 203.213 31.9888 202.76V198.96C31.9888 197.787 32.4154 196.88 33.2688 196.24C34.1354 195.6 35.3354 195.28 36.8688 195.28C38.4021 195.28 39.5954 195.6 40.4488 196.24C41.3154 196.88 41.7488 197.787 41.7488 198.96V200.4C41.7488 200.84 41.8754 201.187 42.1288 201.44C42.3821 201.68 42.7354 201.8 43.1888 201.8C43.6421 201.8 43.9954 201.68 44.2488 201.44C44.5021 201.187 44.6288 200.84 44.6288 200.4V196.64C44.6288 196.293 44.5688 196.04 44.4488 195.88C44.3421 195.707 44.1888 195.58 43.9888 195.5V194.04C43.9888 193.333 44.1621 192.8 44.5088 192.44C44.8554 192.067 45.3688 191.88 46.0488 191.88H48.1488V194.44H47.1888C46.9488 194.44 46.8288 194.573 46.8288 194.84V195.04C47.2554 195.2 47.5621 195.407 47.7488 195.66C47.9354 195.9 48.0288 196.253 48.0288 196.72V200.4C48.0288 201.613 47.6021 202.553 46.7488 203.22C45.9088 203.873 44.7221 204.2 43.1888 204.2ZM34.9088 203C35.3354 203 35.5488 202.767 35.5488 202.3C35.5488 201.833 35.3354 201.6 34.9088 201.6V203ZM34.6088 197.18L32.6088 195.3V194.04C32.6088 193.333 32.7821 192.8 33.1288 192.44C33.4888 192.067 34.0154 191.88 34.7088 191.88H40.5288V194.44H35.8288C35.7221 194.44 35.6288 194.473 35.5488 194.54C35.4821 194.607 35.4488 194.707 35.4488 194.84V195.04L36.6888 196.16L34.6088 197.18ZM44.7442 209.16V205H47.8242V209.16H44.7442ZM52.7508 204.12C51.8974 204.12 51.2774 203.967 50.8908 203.66C50.5041 203.34 50.3108 202.873 50.3108 202.26C50.3108 201.66 50.4708 201.213 50.7908 200.92C51.1241 200.627 51.6174 200.48 52.2708 200.48H52.5308L51.7508 201.24V196.74C51.7508 196.513 51.6974 196.327 51.5908 196.18C51.4974 196.02 51.3574 195.893 51.1708 195.8C50.9841 195.693 50.7641 195.613 50.5108 195.56V193.22C50.5108 192.327 50.8908 191.88 51.6508 191.88H52.3708L53.5708 192.62L52.9508 192.72V191.16H55.8308V193.5C55.8308 193.86 55.7308 194.133 55.5308 194.32C55.3441 194.493 55.0774 194.58 54.7308 194.58H54.5508L53.7108 194.38H53.5908C53.3774 194.38 53.2708 194.5 53.2708 194.74V194.98C53.9108 195.14 54.3841 195.373 54.6908 195.68C54.9974 195.973 55.1508 196.353 55.1508 196.82V202.76C55.1508 203.667 54.3508 204.12 52.7508 204.12ZM52.3908 201.6C51.9641 201.6 51.7508 201.833 51.7508 202.3C51.7508 202.767 51.9641 203 52.3908 203V201.6ZM64.7969 199.28C64.7969 198.84 64.6569 198.5 64.3769 198.26C64.0969 198.007 63.7235 197.88 63.2569 197.88C62.8035 197.88 62.4302 198.007 62.1369 198.26C61.8569 198.5 61.7169 198.84 61.7169 199.28V201.24L60.8969 200.48H61.1569C61.8235 200.48 62.3169 200.627 62.6369 200.92C62.9702 201.213 63.1369 201.66 63.1369 202.26C63.1369 202.873 62.9435 203.34 62.5569 203.66C62.1835 203.967 61.5769 204.12 60.7369 204.12C59.9102 204.12 59.2969 204.007 58.8969 203.78C58.5102 203.553 58.3169 203.213 58.3169 202.76V199.28C58.3169 198.067 58.7569 197.133 59.6369 196.48C60.5169 195.813 61.7235 195.48 63.2569 195.48C64.8035 195.48 66.0102 195.813 66.8769 196.48C67.7569 197.133 68.1969 198.067 68.1969 199.28V204H64.7969V199.28ZM61.2369 203C61.6635 203 61.8769 202.767 61.8769 202.3C61.8769 201.833 61.6635 201.6 61.2369 201.6V203ZM58.2369 194.44V191.88H68.2769V194.44H58.2369ZM61.5066 209.28C60.6266 209.28 59.9399 209.1 59.4466 208.74C58.9399 208.38 58.6866 207.833 58.6866 207.1C58.6866 206.407 58.9199 205.847 59.3866 205.42C59.8532 205.007 60.5866 204.8 61.5866 204.8C62.1999 204.8 62.7266 204.873 63.1666 205.02C63.5932 205.167 63.9799 205.347 64.3266 205.56C64.6732 205.773 65.0066 205.987 65.3266 206.2C65.6332 206.427 65.9666 206.613 66.3266 206.76C66.6732 206.907 67.0799 206.98 67.5466 206.98H67.8866V209.16H67.5466C66.7866 209.16 66.1599 209.073 65.6666 208.9C65.1599 208.74 64.7466 208.533 64.4266 208.28C64.1066 208.027 63.8332 207.773 63.6066 207.52C63.3799 207.267 63.1732 207.053 62.9866 206.88C62.7866 206.72 62.5666 206.64 62.3266 206.64C62.1532 206.64 62.0199 206.687 61.9266 206.78C61.8199 206.873 61.7666 207 61.7666 207.16C61.7666 207.32 61.8199 207.447 61.9266 207.54C62.0199 207.633 62.1532 207.68 62.3266 207.68C62.3799 207.68 62.4466 207.673 62.5266 207.66C62.5932 207.647 62.6599 207.613 62.7266 207.56V209.1C62.6332 209.14 62.4866 209.18 62.2866 209.22C62.0866 209.26 61.8266 209.28 61.5066 209.28ZM61.7553 190.6C60.8486 190.6 60.162 190.433 59.6953 190.1C59.2286 189.753 58.9953 189.24 58.9953 188.56C58.9953 187.84 59.2753 187.233 59.8353 186.74C60.382 186.247 61.202 186 62.2953 186C63.0553 186 63.762 186.113 64.4153 186.34C65.0553 186.553 65.6353 186.833 66.1553 187.18C66.662 187.513 67.0886 187.86 67.4353 188.22C67.782 188.58 68.0353 188.907 68.1953 189.2V190.6H61.7553ZM62.5953 189.26H65.7353C65.5353 189.06 65.2686 188.873 64.9353 188.7C64.5886 188.527 64.222 188.387 63.8353 188.28C63.4486 188.16 63.082 188.1 62.7353 188.1C62.402 188.1 62.1686 188.153 62.0353 188.26C61.8886 188.367 61.8153 188.513 61.8153 188.7C61.8153 188.873 61.882 189.013 62.0153 189.12C62.1353 189.213 62.3286 189.26 62.5953 189.26ZM84.1666 195.72C84.1666 194.867 83.7732 194.44 82.9866 194.44H80.8866V191.88H84.1866C86.4399 191.88 87.5666 193.013 87.5666 195.28V204H84.1666V195.72ZM72.7466 204.16C72.2266 204.16 71.7932 204.093 71.4466 203.96C71.0999 203.813 70.8132 203.593 70.5866 203.3C70.3599 202.993 70.1666 202.607 70.0066 202.14L71.5266 201.5C71.5932 201.78 71.6866 202.033 71.8066 202.26C71.9266 202.487 72.0599 202.653 72.2066 202.76H72.2466C72.2732 202.72 72.2932 202.673 72.3066 202.62C72.3199 202.567 72.3266 202.513 72.3266 202.46C72.3266 202.287 72.2799 202.093 72.1866 201.88C72.0932 201.667 71.9799 201.427 71.8466 201.16C71.7266 200.88 71.6199 200.573 71.5266 200.24C71.4332 199.907 71.3866 199.54 71.3866 199.14C71.3866 198.047 71.8066 197.167 72.6466 196.5C73.4866 195.82 74.6866 195.48 76.2466 195.48C77.7532 195.48 78.9399 195.813 79.8066 196.48C80.6866 197.133 81.1266 198.067 81.1266 199.28V204H77.7266V199.28C77.7266 198.84 77.5866 198.5 77.3066 198.26C77.0266 198.007 76.6532 197.88 76.1866 197.88C75.7732 197.88 75.4399 198.007 75.1866 198.26C74.9466 198.5 74.8266 198.833 74.8266 199.26C74.8266 199.473 74.8532 199.707 74.9066 199.96C74.9599 200.2 75.0266 200.447 75.1066 200.7C75.1866 200.953 75.2532 201.207 75.3066 201.46C75.3599 201.713 75.3866 201.96 75.3866 202.2C75.3866 202.893 75.1332 203.393 74.6266 203.7C74.1332 204.007 73.5066 204.16 72.7466 204.16ZM71.1866 194.44V191.88H81.2066V194.44H71.1866ZM97.082 204V195L96.522 194.5L95.602 195.22H95.482L94.562 194.5L94.002 195V201.24L93.182 200.48H93.442C94.1087 200.48 94.602 200.627 94.922 200.92C95.2554 201.213 95.422 201.66 95.422 202.26C95.422 202.873 95.2287 203.34 94.842 203.66C94.4687 203.967 93.862 204.12 93.022 204.12C92.1954 204.12 91.582 204.007 91.182 203.78C90.7954 203.553 90.602 203.213 90.602 202.76V194.22L93.522 191.68H93.762L95.542 192.96L97.322 191.68H97.562L100.482 194.22V204H97.082ZM93.522 203C93.9487 203 94.162 202.767 94.162 202.3C94.162 201.833 93.9487 201.6 93.522 201.6V203ZM103.532 204V196.88H106.932V201L108.392 199.3L109.852 201V196.88H113.252V204H110.132L108.392 202.16L106.652 204H103.532ZM107.872 196.24C106.378 196.24 105.258 196.033 104.512 195.62C103.765 195.207 103.392 194.593 103.392 193.78C103.392 193.033 103.645 192.513 104.152 192.22C104.672 191.913 105.338 191.76 106.152 191.76C106.418 191.76 106.685 191.78 106.952 191.82C107.232 191.847 107.458 191.893 107.632 191.96V193.38C107.538 193.353 107.458 193.34 107.392 193.34C107.338 193.327 107.278 193.32 107.212 193.32C107.118 193.32 107.038 193.353 106.972 193.42C106.918 193.473 106.892 193.54 106.892 193.62C106.892 193.793 106.992 193.913 107.192 193.98C107.405 194.047 107.692 194.08 108.052 194.08C108.758 194.08 109.265 193.947 109.572 193.68C109.892 193.413 110.052 193.007 110.052 192.46V191.32H113.372V192.46C113.372 193.7 112.898 194.64 111.952 195.28C111.018 195.92 109.658 196.24 107.872 196.24ZM127.486 204.2C125.952 204.2 124.759 203.873 123.906 203.22C123.066 202.553 122.646 201.613 122.646 200.4V195.48C122.646 195.04 122.512 194.7 122.246 194.46C121.979 194.207 121.619 194.08 121.166 194.08C120.712 194.08 120.352 194.207 120.086 194.46C119.819 194.7 119.686 195.04 119.686 195.48V201.24L118.866 200.48H119.126C119.792 200.48 120.286 200.627 120.606 200.92C120.939 201.213 121.106 201.66 121.106 202.26C121.106 202.873 120.912 203.34 120.526 203.66C120.152 203.967 119.546 204.12 118.706 204.12C117.879 204.12 117.266 204.007 116.866 203.78C116.479 203.553 116.286 203.213 116.286 202.76V195.48C116.286 194.267 116.712 193.333 117.566 192.68C118.432 192.013 119.632 191.68 121.166 191.68C122.699 191.68 123.892 192.013 124.746 192.68C125.612 193.333 126.046 194.267 126.046 195.48V200.4C126.046 200.84 126.172 201.187 126.426 201.44C126.679 201.68 127.032 201.8 127.486 201.8C127.939 201.8 128.292 201.68 128.546 201.44C128.799 201.187 128.926 200.84 128.926 200.4V196.64C128.926 196.293 128.866 196.04 128.746 195.88C128.639 195.707 128.486 195.58 128.286 195.5V194.04C128.286 193.333 128.459 192.8 128.806 192.44C129.152 192.067 129.666 191.88 130.346 191.88H132.446V194.44H131.486C131.246 194.44 131.126 194.573 131.126 194.84V195.04C131.552 195.2 131.859 195.407 132.046 195.66C132.232 195.9 132.326 196.253 132.326 196.72V200.4C132.326 201.613 131.899 202.553 131.046 203.22C130.206 203.873 129.019 204.2 127.486 204.2ZM119.206 203C119.632 203 119.846 202.767 119.846 202.3C119.846 201.833 119.632 201.6 119.206 201.6V203ZM126.161 190.6V186.64H128.801V190.6H126.161ZM148.288 195.72C148.288 194.867 147.894 194.44 147.108 194.44H145.008V191.88H148.308C150.561 191.88 151.688 193.013 151.688 195.28V204H148.288V195.72ZM135.368 199.28C135.368 198.067 135.808 197.133 136.688 196.48C137.568 195.813 138.781 195.48 140.328 195.48C141.861 195.48 143.061 195.813 143.928 196.48C144.808 197.133 145.248 198.067 145.248 199.28V204H141.848V199.28C141.848 198.827 141.708 198.48 141.428 198.24C141.148 198 140.774 197.88 140.308 197.88C139.854 197.88 139.481 198 139.188 198.24C138.908 198.48 138.768 198.827 138.768 199.28V204H135.368V199.28ZM135.288 194.44V191.88H145.328V194.44H135.288ZM156.403 204.12C155.55 204.12 154.93 203.967 154.543 203.66C154.156 203.34 153.963 202.873 153.963 202.26C153.963 201.66 154.123 201.213 154.443 200.92C154.776 200.627 155.27 200.48 155.923 200.48H156.183L155.403 201.24V196.64C155.403 196.293 155.323 196.04 155.163 195.88C155.016 195.707 154.803 195.58 154.523 195.5V194.04C154.523 193.333 154.696 192.8 155.043 192.44C155.39 192.067 155.903 191.88 156.583 191.88H158.963V194.44H157.723C157.483 194.44 157.363 194.573 157.363 194.84V195.04C157.87 195.2 158.236 195.407 158.463 195.66C158.69 195.9 158.803 196.253 158.803 196.72V202.76C158.803 203.667 158.003 204.12 156.403 204.12ZM156.043 201.6C155.616 201.6 155.403 201.833 155.403 202.3C155.403 202.767 155.616 203 156.043 203V201.6ZM166.869 204.2C165.336 204.2 164.136 203.873 163.269 203.22C162.403 202.553 161.969 201.613 161.969 200.4V196.64C161.969 196.293 161.909 196.04 161.789 195.88C161.683 195.707 161.529 195.58 161.329 195.5V194.04C161.329 193.333 161.503 192.8 161.849 192.44C162.196 192.067 162.709 191.88 163.389 191.88H165.489V194.44H164.529C164.289 194.44 164.169 194.573 164.169 194.84V195.04C164.596 195.2 164.903 195.407 165.089 195.66C165.276 195.9 165.369 196.253 165.369 196.72V200.4C165.369 200.84 165.503 201.187 165.769 201.44C166.049 201.68 166.416 201.8 166.869 201.8C167.336 201.8 167.703 201.68 167.969 201.44C168.236 201.187 168.369 200.84 168.369 200.4V196.64C168.369 196.293 168.309 196.04 168.189 195.88C168.083 195.707 167.929 195.58 167.729 195.5V194.04C167.729 193.333 167.903 192.8 168.249 192.44C168.596 192.067 169.109 191.88 169.789 191.88H171.889V194.44H170.929C170.689 194.44 170.569 194.573 170.569 194.84V195.04C170.996 195.2 171.303 195.407 171.489 195.66C171.676 195.9 171.769 196.253 171.769 196.72V200.4C171.769 201.613 171.336 202.553 170.469 203.22C169.616 203.873 168.416 204.2 166.869 204.2ZM176.481 204.12C175.628 204.12 175.008 203.967 174.621 203.66C174.235 203.34 174.041 202.873 174.041 202.26C174.041 201.66 174.201 201.213 174.521 200.92C174.855 200.627 175.348 200.48 176.001 200.48H176.261L175.481 201.24V196.64C175.481 196.293 175.401 196.04 175.241 195.88C175.095 195.707 174.881 195.58 174.601 195.5V194.04C174.601 193.333 174.775 192.8 175.121 192.44C175.468 192.067 175.981 191.88 176.661 191.88H179.041V194.44H177.801C177.561 194.44 177.441 194.573 177.441 194.84V195.04C177.948 195.2 178.315 195.407 178.541 195.66C178.768 195.9 178.881 196.253 178.881 196.72V202.76C178.881 203.667 178.081 204.12 176.481 204.12ZM176.121 201.6C175.695 201.6 175.481 201.833 175.481 202.3C175.481 202.767 175.695 203 176.121 203V201.6ZM174.955 190.6C174.142 190.6 173.529 190.433 173.115 190.1C172.702 189.753 172.495 189.24 172.495 188.56C172.495 187.84 172.742 187.233 173.235 186.74C173.715 186.247 174.455 186 175.455 186C176.135 186 176.762 186.113 177.335 186.34C177.909 186.553 178.429 186.833 178.895 187.18C179.349 187.513 179.729 187.86 180.035 188.22C180.342 188.58 180.562 188.907 180.695 189.2V190.6H174.955ZM175.855 189.24H178.395C178.262 189.093 178.095 188.947 177.895 188.8C177.695 188.653 177.482 188.527 177.255 188.42C177.029 188.3 176.802 188.207 176.575 188.14C176.335 188.073 176.115 188.04 175.915 188.04C175.702 188.04 175.535 188.1 175.415 188.22C175.282 188.327 175.215 188.473 175.215 188.66C175.215 188.833 175.275 188.973 175.395 189.08C175.502 189.187 175.655 189.24 175.855 189.24ZM184.427 204.12C183.641 204.12 183.061 204.007 182.687 203.78C182.314 203.553 182.127 203.213 182.127 202.76V196.64C182.127 196.293 182.047 196.04 181.887 195.88C181.741 195.707 181.527 195.58 181.247 195.5V194.04C181.247 193.333 181.421 192.8 181.767 192.44C182.114 192.067 182.627 191.88 183.307 191.88H185.687V194.44H184.447C184.207 194.44 184.087 194.573 184.087 194.84V195.04C184.594 195.2 184.961 195.407 185.187 195.66C185.414 195.9 185.527 196.253 185.527 196.72V201.24L184.547 200.48H184.807C185.461 200.48 185.947 200.627 186.267 200.92C186.601 201.213 186.767 201.66 186.767 202.26C186.767 203.5 185.987 204.12 184.427 204.12ZM184.887 203C185.314 203 185.527 202.767 185.527 202.3C185.527 201.833 185.314 201.6 184.887 201.6V203ZM201.686 195.72C201.686 194.867 201.293 194.44 200.506 194.44H198.406V191.88H201.706C203.959 191.88 205.086 193.013 205.086 195.28V204H201.686V195.72ZM190.266 204.16C189.746 204.16 189.313 204.093 188.966 203.96C188.619 203.813 188.333 203.593 188.106 203.3C187.879 202.993 187.686 202.607 187.526 202.14L189.046 201.5C189.113 201.78 189.206 202.033 189.326 202.26C189.446 202.487 189.579 202.653 189.726 202.76H189.766C189.793 202.72 189.813 202.673 189.826 202.62C189.839 202.567 189.846 202.513 189.846 202.46C189.846 202.287 189.799 202.093 189.706 201.88C189.613 201.667 189.499 201.427 189.366 201.16C189.246 200.88 189.139 200.573 189.046 200.24C188.953 199.907 188.906 199.54 188.906 199.14C188.906 198.047 189.326 197.167 190.166 196.5C191.006 195.82 192.206 195.48 193.766 195.48C195.273 195.48 196.459 195.813 197.326 196.48C198.206 197.133 198.646 198.067 198.646 199.28V204H195.246V199.28C195.246 198.84 195.106 198.5 194.826 198.26C194.546 198.007 194.173 197.88 193.706 197.88C193.293 197.88 192.959 198.007 192.706 198.26C192.466 198.5 192.346 198.833 192.346 199.26C192.346 199.473 192.373 199.707 192.426 199.96C192.479 200.2 192.546 200.447 192.626 200.7C192.706 200.953 192.773 201.207 192.826 201.46C192.879 201.713 192.906 201.96 192.906 202.2C192.906 202.893 192.653 203.393 192.146 203.7C191.653 204.007 191.026 204.16 190.266 204.16ZM188.706 194.44V191.88H198.726V194.44H188.706ZM208.122 199.28C208.122 198.067 208.562 197.133 209.442 196.48C210.322 195.813 211.528 195.48 213.062 195.48C214.608 195.48 215.815 195.813 216.682 196.48C217.562 197.133 218.002 198.067 218.002 199.28V204H214.602V199.28C214.602 198.84 214.462 198.5 214.182 198.26C213.902 198.007 213.528 197.88 213.062 197.88C212.608 197.88 212.235 198.007 211.942 198.26C211.662 198.5 211.522 198.84 211.522 199.28V201.72H211.282C211.375 201.133 211.595 200.653 211.942 200.28C212.302 199.907 212.848 199.72 213.582 199.72H213.802V201.84H213.582C213.235 201.84 212.928 201.873 212.662 201.94C212.395 201.993 212.168 202.1 211.982 202.26C211.795 202.42 211.642 202.653 211.522 202.96V204H208.122V199.28ZM208.042 194.44V191.88H218.082V194.44H208.042Z" fill="white"/>
<path d="M124.245 104.883V107.915C124.245 108.046 124.297 108.172 124.39 108.264C124.483 108.357 124.609 108.409 124.74 108.409C124.871 108.409 124.996 108.357 125.089 108.264C125.182 108.172 125.234 108.046 125.234 107.915V104.883H125.653C127.164 104.881 128.613 104.28 129.682 103.211C130.751 102.142 131.352 100.693 131.354 99.1814V98.7024H130.902C129.497 98.7042 128.141 99.2244 127.095 100.163C126.049 101.103 125.387 102.394 125.234 103.792V99.0103H125.653C127.164 99.0086 128.613 98.4074 129.682 97.3385C130.751 96.2696 131.352 94.8204 131.354 93.3088V92.8298H130.902C129.497 92.8316 128.141 93.3518 127.095 94.2909C126.049 95.2299 125.387 96.5218 125.234 97.9191V93.138H125.653C127.164 93.1363 128.613 92.535 129.682 91.4662C130.751 90.3973 131.352 88.9481 131.354 87.4365V86.9575H130.902C129.497 86.9593 128.141 87.4795 127.095 88.4186C126.049 89.3576 125.387 90.6495 125.234 92.0468V87.2655H125.653C127.164 87.2638 128.614 86.6626 129.682 85.5937C130.751 84.5248 131.352 83.0756 131.354 81.564V81.0851H130.902C129.497 81.0868 128.141 81.6071 127.095 82.5461C126.049 83.4852 125.387 84.777 125.234 86.1743V83.3265C126.244 82.2465 126.795 80.8162 126.77 79.3378C126.745 77.8594 126.146 76.4485 125.1 75.4032L124.762 75.0645L124.442 75.3841C123.409 76.4192 122.813 77.8112 122.777 79.2729C122.74 80.7346 123.266 82.1546 124.245 83.2402V85.7547C124.003 84.4446 123.31 83.2606 122.286 82.4077C121.262 81.5549 119.973 81.087 118.64 81.0851H118.188V81.564C118.19 83.0756 118.791 84.5248 119.86 85.5937C120.929 86.6626 122.378 87.2638 123.89 87.2655H124.245V91.6274C124.003 90.3173 123.31 89.1331 122.286 88.2802C121.262 87.4273 119.973 86.9594 118.64 86.9574H118.188V87.4364C118.19 88.948 118.791 90.3972 119.86 91.4661C120.929 92.5349 122.378 93.1362 123.89 93.1379H124.245V97.5C124.003 96.1898 123.31 95.0057 122.286 94.1528C121.262 93.2999 119.973 92.8319 118.64 92.83H118.188V93.3089C118.19 94.8205 118.791 96.2697 119.86 97.3385C120.929 98.4074 122.378 99.0086 123.89 99.0103H124.245V103.373C124.003 102.062 123.31 100.878 122.286 100.025C121.263 99.1723 119.973 98.7044 118.64 98.7024H118.188V99.1814C118.19 100.693 118.791 102.142 119.86 103.211C120.929 104.28 122.378 104.881 123.89 104.883H124.245Z" fill="url(#paint0_linear_2052_41)"/>
<path d="M146.095 90.3535C144.977 90.9148 144.077 91.8308 143.535 92.9583L144.385 90.3731C145.674 89.6587 146.637 88.4726 147.07 87.0637C147.504 85.6548 147.374 84.1328 146.709 82.8171L146.494 82.3896L146.09 82.5934C144.78 83.2549 143.776 84.3958 143.286 85.7788C142.796 87.1618 142.859 88.6804 143.46 90.0187L142.649 92.4859C142.854 91.1515 142.58 89.7875 141.875 88.6361C141.17 87.4847 140.08 86.6204 138.798 86.1969L138.368 86.0557L138.219 86.5107C137.748 87.9473 137.867 89.5118 138.548 90.861C139.23 92.2103 140.419 93.2341 141.854 93.7078L142.209 93.8243L140.818 98.0551C141.023 96.7215 140.748 95.3586 140.042 94.2088C139.337 93.059 138.246 92.1968 136.964 91.7756L136.535 91.6344L136.385 92.0894C135.915 93.526 136.033 95.0905 136.715 96.4397C137.396 97.789 138.585 98.8128 140.021 99.2865L140.375 99.403L138.984 103.633C139.189 102.3 138.914 100.937 138.208 99.7871C137.503 98.6373 136.412 97.7751 135.13 97.3539L134.701 97.2128L134.551 97.6678C134.081 99.1043 134.199 100.669 134.881 102.018C135.562 103.367 136.751 104.391 138.187 104.865L138.541 104.981L137.15 109.212C137.355 107.879 137.08 106.516 136.374 105.366C135.668 104.216 134.578 103.354 133.296 102.933L132.867 102.792L132.717 103.247C132.247 104.683 132.365 106.248 133.047 107.597C133.728 108.946 134.917 109.97 136.353 110.444L136.707 110.56L135.765 113.425C135.724 113.55 135.735 113.685 135.794 113.803C135.853 113.92 135.956 114.008 136.081 114.049C136.205 114.09 136.341 114.08 136.458 114.021C136.575 113.962 136.664 113.859 136.705 113.734L137.647 110.869L138.027 110.994C139.464 111.467 141.029 111.349 142.379 110.667C143.729 109.985 144.752 108.795 145.224 107.359L145.374 106.904L144.945 106.763C143.633 106.331 142.209 106.391 140.938 106.93C139.667 107.469 138.634 108.452 138.033 109.695L139.481 105.291L139.861 105.416C141.298 105.888 142.863 105.77 144.213 105.088C145.563 104.406 146.586 103.216 147.058 101.779L147.208 101.324L146.779 101.183C145.467 100.752 144.043 100.811 142.772 101.351C141.5 101.89 140.468 102.872 139.867 104.115L141.314 99.7113L141.695 99.8364C143.132 100.309 144.697 100.191 146.047 99.5093C147.396 98.8275 148.42 97.6375 148.892 96.2011L149.042 95.7461L148.613 95.605C147.301 95.1736 145.877 95.2331 144.606 95.7724C143.335 96.3116 142.302 97.294 141.701 98.537L143.149 94.1329L143.529 94.2581C144.966 94.7304 146.531 94.6127 147.881 93.931C149.231 93.2492 150.254 92.0592 150.726 90.6227L150.876 90.1677L150.447 90.0266C149.736 89.7906 148.985 89.698 148.238 89.7542C147.491 89.8103 146.763 90.014 146.095 90.3535Z" fill="url(#paint1_linear_2052_41)"/>
<path d="M103.523 90.3535C104.641 90.9148 105.542 91.8308 106.084 92.9583L105.234 90.3731C103.944 89.6587 102.982 88.4726 102.548 87.0637C102.115 85.6548 102.244 84.1328 102.909 82.8171L103.125 82.3896L103.529 82.5934C104.838 83.2549 105.842 84.3958 106.332 85.7788C106.822 87.1618 106.76 88.6804 106.158 90.0187L106.969 92.4859C106.764 91.1515 107.038 89.7875 107.743 88.6361C108.448 87.4847 109.539 86.6204 110.821 86.1969L111.25 86.0557L111.399 86.5107C111.87 87.9473 111.751 89.5118 111.07 90.861C110.388 92.2103 109.199 93.2341 107.764 93.7078L107.409 93.8243L108.8 98.0551C108.595 96.7215 108.87 95.3586 109.576 94.2088C110.282 93.059 111.373 92.1968 112.654 91.7756L113.084 91.6344L113.233 92.0894C113.704 93.526 113.585 95.0905 112.904 96.4397C112.222 97.789 111.033 98.8128 109.598 99.2865L109.243 99.403L110.634 103.633C110.429 102.3 110.704 100.937 111.41 99.7871C112.116 98.6373 113.207 97.7751 114.488 97.3539L114.918 97.2128L115.067 97.6678C115.538 99.1043 115.419 100.669 114.738 102.018C114.056 103.367 112.867 104.391 111.432 104.865L111.077 104.981L112.468 109.212C112.264 107.879 112.539 106.516 113.244 105.366C113.95 104.216 115.041 103.354 116.322 102.933L116.751 102.792L116.901 103.247C117.372 104.683 117.253 106.248 116.571 107.597C115.89 108.946 114.701 109.97 113.265 110.444L112.911 110.56L113.853 113.425C113.894 113.55 113.884 113.685 113.824 113.803C113.765 113.92 113.662 114.008 113.538 114.049C113.413 114.09 113.277 114.08 113.16 114.021C113.043 113.962 112.954 113.859 112.914 113.734L111.972 110.869L111.591 110.994C110.154 111.467 108.589 111.349 107.239 110.667C105.89 109.985 104.866 108.795 104.394 107.359L104.244 106.904L104.674 106.763C105.985 106.331 107.409 106.391 108.68 106.93C109.952 107.469 110.984 108.452 111.586 109.695L110.138 105.291L109.757 105.416C108.32 105.888 106.755 105.77 105.405 105.088C104.056 104.406 103.032 103.216 102.56 101.779L102.41 101.324L102.84 101.183C104.152 100.752 105.575 100.811 106.847 101.351C108.118 101.89 109.15 102.872 109.752 104.115L108.304 99.7113L107.923 99.8364C106.486 100.309 104.921 100.191 103.572 99.5093C102.222 98.8275 101.198 97.6375 100.726 96.2011L100.576 95.7461L101.006 95.605C102.318 95.1736 103.741 95.2331 105.012 95.7724C106.284 96.3116 107.316 97.294 107.917 98.537L106.47 94.1329L106.089 94.2581C104.652 94.7304 103.087 94.6127 101.737 93.931C100.388 93.2492 99.3642 92.0592 98.8919 90.6227L98.7422 90.1677L99.1716 90.0266C99.8825 89.7906 100.633 89.698 101.38 89.7542C102.127 89.8103 102.855 90.014 103.523 90.3535Z" fill="url(#paint2_linear_2052_41)"/>
<path d="M142.907 130.032H106.861C102.784 130.184 98.8129 128.72 95.8093 125.96C92.8057 123.2 91.0126 119.366 90.8196 115.292V95.9681C90.8196 95.1468 91.1459 94.3591 91.7266 93.7783C92.3074 93.1976 93.095 92.8713 93.9163 92.8713C94.7376 92.8713 95.5253 93.1976 96.106 93.7783C96.6868 94.3591 97.0131 95.1468 97.0131 95.9681V115.292C97.2034 117.724 98.3429 119.984 100.185 121.583C102.028 123.182 104.426 123.992 106.861 123.839H142.907C145.342 123.992 147.739 123.182 149.582 121.583C151.424 119.984 152.564 117.724 152.754 115.292V95.9681C152.754 95.1468 153.08 94.3591 153.661 93.7783C154.242 93.1976 155.03 92.8713 155.851 92.8713C156.672 92.8713 157.46 93.1976 158.041 93.7783C158.621 94.3591 158.948 95.1468 158.948 95.9681V115.292C158.755 119.366 156.962 123.2 153.958 125.96C150.954 128.72 146.983 130.184 142.907 130.032ZM167.34 88.8765C167.63 88.5887 167.86 88.2462 168.018 87.8688C168.175 87.4914 168.256 87.0867 168.256 86.6779C168.256 86.2691 168.175 85.8643 168.018 85.4869C167.86 85.1096 167.63 84.7671 167.34 84.4792L127.082 44.2217C126.794 43.9314 126.452 43.701 126.075 43.5438C125.697 43.3866 125.292 43.3057 124.884 43.3057C124.475 43.3057 124.07 43.3866 123.693 43.5438C123.315 43.701 122.973 43.9314 122.685 44.2217L82.4274 84.4792C81.8443 85.0623 81.5167 85.8532 81.5167 86.6779C81.5167 87.5025 81.8443 88.2934 82.4274 88.8765C83.0106 89.4597 83.8015 89.7873 84.6261 89.7873C85.4508 89.7873 86.2417 89.4597 86.8248 88.8765L124.884 50.7867L162.942 88.8765C163.23 89.1668 163.573 89.3972 163.95 89.5544C164.328 89.7116 164.732 89.7926 165.141 89.7926C165.55 89.7926 165.955 89.7116 166.332 89.5544C166.709 89.3972 167.052 89.1668 167.34 88.8765Z" fill="url(#paint3_linear_2052_41)"/>
<defs>
<linearGradient id="paint0_linear_2052_41" x1="118.188" y1="91.7327" x2="131.354" y2="91.7327" gradientUnits="userSpaceOnUse">
<stop stop-color="#B57E10"/>
<stop offset="0.09" stop-color="#E5C35C"/>
<stop offset="0.14" stop-color="#F9DF7B"/>
<stop offset="0.26" stop-color="#FFF3A6"/>
<stop offset="0.36" stop-color="#F9DF7B"/>
<stop offset="0.49" stop-color="#B57E10"/>
<stop offset="0.57" stop-color="#E5C35C"/>
<stop offset="0.61" stop-color="#F9DF7B"/>
<stop offset="0.72" stop-color="#FFF3A6"/>
<stop offset="0.84" stop-color="#F9DF7B"/>
<stop offset="1" stop-color="#B57E10"/>
</linearGradient>
<linearGradient id="paint1_linear_2052_41" x1="132.434" y1="98.228" x2="150.876" y2="98.228" gradientUnits="userSpaceOnUse">
<stop stop-color="#B57E10"/>
<stop offset="0.09" stop-color="#E5C35C"/>
<stop offset="0.14" stop-color="#F9DF7B"/>
<stop offset="0.26" stop-color="#FFF3A6"/>
<stop offset="0.36" stop-color="#F9DF7B"/>
<stop offset="0.49" stop-color="#B57E10"/>
<stop offset="0.57" stop-color="#E5C35C"/>
<stop offset="0.61" stop-color="#F9DF7B"/>
<stop offset="0.72" stop-color="#FFF3A6"/>
<stop offset="0.84" stop-color="#F9DF7B"/>
<stop offset="1" stop-color="#B57E10"/>
</linearGradient>
<linearGradient id="paint2_linear_2052_41" x1="117.185" y1="98.228" x2="98.7422" y2="98.228" gradientUnits="userSpaceOnUse">
<stop stop-color="#B57E10"/>
<stop offset="0.09" stop-color="#E5C35C"/>
<stop offset="0.14" stop-color="#F9DF7B"/>
<stop offset="0.26" stop-color="#FFF3A6"/>
<stop offset="0.36" stop-color="#F9DF7B"/>
<stop offset="0.49" stop-color="#B57E10"/>
<stop offset="0.57" stop-color="#E5C35C"/>
<stop offset="0.61" stop-color="#F9DF7B"/>
<stop offset="0.72" stop-color="#FFF3A6"/>
<stop offset="0.84" stop-color="#F9DF7B"/>
<stop offset="1" stop-color="#B57E10"/>
</linearGradient>
<linearGradient id="paint3_linear_2052_41" x1="81.5167" y1="86.6638" x2="168.256" y2="86.6638" gradientUnits="userSpaceOnUse">
<stop stop-color="#B57E10"/>
<stop offset="0.09" stop-color="#E5C35C"/>
<stop offset="0.14" stop-color="#F9DF7B"/>
<stop offset="0.26" stop-color="#FFF3A6"/>
<stop offset="0.36" stop-color="#F9DF7B"/>
<stop offset="0.49" stop-color="#B57E10"/>
<stop offset="0.57" stop-color="#E5C35C"/>
<stop offset="0.61" stop-color="#F9DF7B"/>
<stop offset="0.72" stop-color="#FFF3A6"/>
<stop offset="0.84" stop-color="#F9DF7B"/>
<stop offset="1" stop-color="#B57E10"/>
</linearGradient>
</defs>
</svg>
