<svg width="250" height="250" viewBox="0 0 250 250" fill="none" xmlns="http://www.w3.org/2000/svg">
<circle cx="124.822" cy="124.822" r="124.822" fill="#349440"/>
<path d="M110.868 167.844V156.207H118.572V158.236H113.328V161.009H118.061V163.037H113.328V167.844H110.868ZM120.041 167.844V159.116H122.388V160.639H122.479C122.638 160.098 122.905 159.688 123.28 159.412C123.655 159.132 124.086 158.991 124.575 158.991C124.696 158.991 124.827 158.999 124.967 159.014C125.107 159.029 125.23 159.05 125.336 159.077V161.224C125.223 161.19 125.066 161.16 124.865 161.134C124.664 161.107 124.48 161.094 124.314 161.094C123.958 161.094 123.64 161.171 123.359 161.327C123.083 161.478 122.863 161.69 122.7 161.963C122.541 162.236 122.461 162.55 122.461 162.906V167.844H120.041ZM130.159 168.014C129.261 168.014 128.488 167.832 127.841 167.469C127.197 167.101 126.701 166.582 126.352 165.912C126.004 165.238 125.829 164.44 125.829 163.52C125.829 162.622 126.004 161.834 126.352 161.156C126.701 160.478 127.191 159.95 127.824 159.571C128.46 159.192 129.206 159.003 130.062 159.003C130.638 159.003 131.174 159.096 131.67 159.281C132.17 159.463 132.606 159.738 132.977 160.105C133.352 160.473 133.644 160.935 133.852 161.491C134.06 162.045 134.165 162.692 134.165 163.435V164.099H126.795V162.599H131.886C131.886 162.251 131.81 161.942 131.659 161.673C131.507 161.404 131.297 161.194 131.028 161.043C130.763 160.887 130.454 160.81 130.102 160.81C129.735 160.81 129.409 160.895 129.125 161.065C128.845 161.232 128.625 161.457 128.466 161.741C128.307 162.022 128.225 162.334 128.221 162.679V164.105C128.221 164.537 128.301 164.91 128.46 165.224C128.623 165.539 128.852 165.781 129.148 165.952C129.443 166.122 129.793 166.207 130.199 166.207C130.468 166.207 130.714 166.17 130.937 166.094C131.161 166.018 131.352 165.904 131.511 165.753C131.67 165.601 131.792 165.416 131.875 165.196L134.113 165.344C134 165.882 133.767 166.351 133.415 166.753C133.066 167.151 132.615 167.461 132.062 167.685C131.513 167.904 130.879 168.014 130.159 168.014ZM139.721 168.014C138.824 168.014 138.051 167.832 137.403 167.469C136.759 167.101 136.263 166.582 135.915 165.912C135.566 165.238 135.392 164.44 135.392 163.52C135.392 162.622 135.566 161.834 135.915 161.156C136.263 160.478 136.754 159.95 137.386 159.571C138.023 159.192 138.769 159.003 139.625 159.003C140.201 159.003 140.737 159.096 141.233 159.281C141.733 159.463 142.168 159.738 142.54 160.105C142.915 160.473 143.206 160.935 143.415 161.491C143.623 162.045 143.727 162.692 143.727 163.435V164.099H136.358V162.599H141.449C141.449 162.251 141.373 161.942 141.221 161.673C141.07 161.404 140.86 161.194 140.591 161.043C140.326 160.887 140.017 160.81 139.665 160.81C139.297 160.81 138.971 160.895 138.687 161.065C138.407 161.232 138.187 161.457 138.028 161.741C137.869 162.022 137.788 162.334 137.784 162.679V164.105C137.784 164.537 137.863 164.91 138.023 165.224C138.185 165.539 138.415 165.781 138.71 165.952C139.006 166.122 139.356 166.207 139.761 166.207C140.03 166.207 140.276 166.17 140.5 166.094C140.723 166.018 140.915 165.904 141.074 165.753C141.233 165.601 141.354 165.416 141.437 165.196L143.676 165.344C143.562 165.882 143.329 166.351 142.977 166.753C142.629 167.151 142.178 167.461 141.625 167.685C141.076 167.904 140.441 168.014 139.721 168.014ZM98.0005 186.844H93.8755V175.207H98.0346C99.2051 175.207 100.213 175.44 101.057 175.906C101.902 176.368 102.552 177.033 103.006 177.901C103.465 178.768 103.694 179.806 103.694 181.014C103.694 182.226 103.465 183.268 103.006 184.139C102.552 185.01 101.898 185.679 101.046 186.145C100.198 186.611 99.1824 186.844 98.0005 186.844ZM96.3358 184.736H97.8983C98.6255 184.736 99.2373 184.607 99.7335 184.349C100.234 184.088 100.609 183.685 100.859 183.139C101.112 182.59 101.239 181.882 101.239 181.014C101.239 180.154 101.112 179.452 100.859 178.906C100.609 178.361 100.235 177.959 99.7392 177.702C99.243 177.444 98.6312 177.315 97.904 177.315H96.3358V184.736ZM109.448 187.014C108.55 187.014 107.778 186.832 107.13 186.469C106.486 186.101 105.99 185.582 105.641 184.912C105.293 184.238 105.118 183.44 105.118 182.52C105.118 181.622 105.293 180.834 105.641 180.156C105.99 179.478 106.48 178.95 107.113 178.571C107.749 178.192 108.495 178.003 109.351 178.003C109.927 178.003 110.463 178.096 110.959 178.281C111.459 178.463 111.895 178.738 112.266 179.105C112.641 179.473 112.933 179.935 113.141 180.491C113.35 181.045 113.454 181.692 113.454 182.435V183.099H106.084V181.599H111.175C111.175 181.251 111.1 180.942 110.948 180.673C110.796 180.404 110.586 180.194 110.317 180.043C110.052 179.887 109.743 179.81 109.391 179.81C109.024 179.81 108.698 179.895 108.414 180.065C108.134 180.232 107.914 180.457 107.755 180.741C107.596 181.022 107.514 181.334 107.51 181.679V183.105C107.51 183.537 107.59 183.91 107.749 184.224C107.912 184.539 108.141 184.781 108.437 184.952C108.732 185.122 109.082 185.207 109.488 185.207C109.757 185.207 110.003 185.17 110.226 185.094C110.45 185.018 110.641 184.904 110.8 184.753C110.959 184.601 111.081 184.416 111.164 184.196L113.403 184.344C113.289 184.882 113.056 185.351 112.704 185.753C112.355 186.151 111.904 186.461 111.351 186.685C110.802 186.904 110.168 187.014 109.448 187.014ZM117.454 175.207V186.844H115.033V175.207H117.454ZM119.393 186.844V178.116H121.813V186.844H119.393ZM120.608 176.991C120.249 176.991 119.94 176.872 119.682 176.634C119.429 176.391 119.302 176.101 119.302 175.764C119.302 175.431 119.429 175.145 119.682 174.906C119.94 174.664 120.249 174.543 120.608 174.543C120.968 174.543 121.275 174.664 121.529 174.906C121.787 175.145 121.915 175.431 121.915 175.764C121.915 176.101 121.787 176.391 121.529 176.634C121.275 176.872 120.968 176.991 120.608 176.991ZM131.888 178.116L128.837 186.844H126.11L123.059 178.116H125.616L127.428 184.361H127.519L129.326 178.116H131.888ZM136.823 187.014C135.925 187.014 135.153 186.832 134.505 186.469C133.861 186.101 133.365 185.582 133.016 184.912C132.668 184.238 132.493 183.44 132.493 182.52C132.493 181.622 132.668 180.834 133.016 180.156C133.365 179.478 133.855 178.95 134.488 178.571C135.124 178.192 135.87 178.003 136.726 178.003C137.302 178.003 137.838 178.096 138.334 178.281C138.834 178.463 139.27 178.738 139.641 179.105C140.016 179.473 140.308 179.935 140.516 180.491C140.725 181.045 140.829 181.692 140.829 182.435V183.099H133.459V181.599H138.55C138.55 181.251 138.475 180.942 138.323 180.673C138.171 180.404 137.961 180.194 137.692 180.043C137.427 179.887 137.118 179.81 136.766 179.81C136.399 179.81 136.073 179.895 135.789 180.065C135.509 180.232 135.289 180.457 135.13 180.741C134.971 181.022 134.889 181.334 134.885 181.679V183.105C134.885 183.537 134.965 183.91 135.124 184.224C135.287 184.539 135.516 184.781 135.812 184.952C136.107 185.122 136.457 185.207 136.863 185.207C137.132 185.207 137.378 185.17 137.601 185.094C137.825 185.018 138.016 184.904 138.175 184.753C138.334 184.601 138.456 184.416 138.539 184.196L140.778 184.344C140.664 184.882 140.431 185.351 140.079 185.753C139.73 186.151 139.279 186.461 138.726 186.685C138.177 186.904 137.543 187.014 136.823 187.014ZM142.408 186.844V178.116H144.755V179.639H144.846C145.005 179.098 145.272 178.688 145.647 178.412C146.022 178.132 146.454 177.991 146.942 177.991C147.064 177.991 147.194 177.999 147.334 178.014C147.475 178.029 147.598 178.05 147.704 178.077V180.224C147.59 180.19 147.433 180.16 147.232 180.134C147.031 180.107 146.848 180.094 146.681 180.094C146.325 180.094 146.007 180.171 145.726 180.327C145.45 180.478 145.23 180.69 145.067 180.963C144.908 181.236 144.829 181.55 144.829 181.906V186.844H142.408ZM150.715 190.116C150.408 190.116 150.12 190.092 149.851 190.043C149.586 189.997 149.367 189.938 149.192 189.866L149.738 188.06C150.022 188.147 150.278 188.194 150.505 188.202C150.736 188.209 150.935 188.156 151.101 188.043C151.272 187.929 151.41 187.736 151.516 187.463L151.658 187.094L148.528 178.116H151.073L152.88 184.526H152.971L154.795 178.116H157.357L153.965 187.787C153.802 188.257 153.581 188.666 153.3 189.014C153.024 189.366 152.673 189.637 152.249 189.827C151.825 190.02 151.314 190.116 150.715 190.116Z" fill="white"/>
<path d="M168.637 92.751L165.998 82.1963C166.719 82.0431 167.261 81.403 167.261 80.6362V78.9345C167.261 75.2396 164.255 72.2337 160.56 72.2337H148.541V68.7237C148.541 66.9055 147.062 65.4264 145.244 65.4264H122.896L136.476 59.9941C137.295 59.6669 137.692 58.7383 137.365 57.9202C137.038 57.1022 136.11 56.704 135.291 57.0314L124.172 61.4791C127.56 59.3051 130.912 56.9124 132.189 55.2391C134.673 51.9814 134.044 47.3097 130.786 44.8251C127.529 42.3402 122.857 42.9696 120.372 46.2273C118.557 48.6079 116.162 55.297 114.611 60.0106C113.061 55.2974 110.666 48.6079 108.85 46.2273C106.366 42.9696 101.694 42.3406 98.4362 44.8251C95.1786 47.3095 94.5495 51.9812 97.034 55.2391C98.3103 56.9126 101.662 59.3051 105.051 61.4791L93.9313 57.0314C93.1128 56.7036 92.1846 57.102 91.8574 57.9202C91.53 58.7383 91.9281 59.6669 92.7462 59.9941L106.327 65.4264H83.9789C82.1607 65.4264 80.6816 66.9055 80.6816 68.7237V97.6543C80.6816 98.5354 81.3959 99.2498 82.2771 99.2498C83.1581 99.2498 83.8726 98.5356 83.8726 97.6543V68.7237C83.8726 68.6649 83.9201 68.6174 83.9789 68.6174H145.244C145.302 68.6174 145.35 68.6649 145.35 68.7237V97.6547C145.35 98.5358 146.064 99.2502 146.945 99.2502C147.826 99.2502 148.541 98.536 148.541 97.6547V95.8461H167.361C167.363 95.8461 167.364 95.8465 167.366 95.8465C167.368 95.8465 167.369 95.8463 167.371 95.8463C169.687 95.8481 171.653 97.3681 172.328 99.4626H167.367C166.486 99.4626 165.771 100.177 165.771 101.058V104.462C165.771 107.218 168.014 109.461 170.77 109.461H172.579V116.48H168.407C167.037 112.524 163.275 109.673 158.858 109.673C154.441 109.673 150.679 112.523 149.309 116.48H148.541V104.461C148.541 103.58 147.826 102.866 146.945 102.866C146.064 102.866 145.35 103.58 145.35 104.461V116.48H112.248C110.877 112.523 107.116 109.673 102.699 109.673C98.2816 109.673 94.5198 112.523 93.1496 116.48H83.9789C83.9201 116.48 83.8726 116.433 83.8726 116.374V112.864H90.7861C91.6672 112.864 92.3816 112.15 92.3816 111.268C92.3816 110.387 91.6674 109.673 90.7861 109.673H75.47C74.589 109.673 73.8745 110.387 73.8745 111.268C73.8745 112.15 74.5888 112.864 75.47 112.864H80.6818V116.374C80.6818 118.192 82.1609 119.671 83.9791 119.671H92.5972C92.5968 119.707 92.5944 119.742 92.5944 119.778C92.5944 125.349 97.1273 129.882 102.699 129.882C108.27 129.882 112.803 125.349 112.803 119.778C112.803 119.742 112.801 119.707 112.8 119.671H148.756C148.756 119.707 148.753 119.742 148.753 119.778C148.753 125.349 153.286 129.882 158.858 129.882C164.429 129.882 168.962 125.349 168.962 119.778C168.962 119.742 168.96 119.707 168.959 119.671H174.174C175.055 119.671 175.77 118.957 175.77 118.076V101.058C175.77 96.8559 172.67 93.3648 168.637 92.751ZM108.284 59.7388C101.991 55.8279 100.124 54.0287 99.5712 53.3038C98.1536 51.4453 98.5127 48.7799 100.371 47.3623C101.138 46.778 102.041 46.4956 102.937 46.4956C104.215 46.4956 105.48 47.0699 106.313 48.1625C107.857 50.1861 110.274 56.997 111.869 61.9048C110.792 61.2708 109.555 60.5287 108.284 59.7388ZM117.354 61.9046C118.949 56.997 121.366 50.1863 122.91 48.1623C124.327 46.3037 126.993 45.9449 128.851 47.3623C130.71 48.7799 131.069 51.4453 129.651 53.3038C129.099 54.0285 127.232 55.8279 120.939 59.7386C119.669 60.5283 118.431 61.2706 117.354 61.9046ZM148.541 75.4243H160.56C162.495 75.4243 164.07 76.9989 164.07 78.9343V79.0405H148.541V75.4243ZM148.541 92.6551V82.2315H162.718L165.324 92.6551H148.541ZM102.699 126.691C98.8866 126.691 95.7852 123.59 95.7852 119.778C95.7852 115.965 98.8866 112.864 102.699 112.864C106.511 112.864 109.612 115.965 109.612 119.778C109.612 123.59 106.511 126.691 102.699 126.691ZM158.858 126.691C155.046 126.691 151.945 123.59 151.945 119.778C151.945 115.965 155.046 112.864 158.858 112.864C162.67 112.864 165.772 115.965 165.772 119.778C165.772 123.59 162.67 126.691 158.858 126.691ZM172.579 106.269H170.771C169.774 106.269 168.962 105.458 168.962 104.461V102.653H172.579V106.269H172.579Z" fill="url(#paint0_linear_2067_2)"/>
<path d="M102.699 116.48C100.88 116.48 99.4014 117.959 99.4014 119.777C99.4014 121.595 100.88 123.075 102.699 123.075C104.517 123.075 105.996 121.595 105.996 119.777C105.996 117.959 104.517 116.48 102.699 116.48Z" fill="url(#paint1_linear_2067_2)"/>
<path d="M158.858 116.48C157.04 116.48 155.561 117.959 155.561 119.777C155.561 121.595 157.04 123.075 158.858 123.075C160.676 123.075 162.155 121.595 162.155 119.777C162.155 117.959 160.676 116.48 158.858 116.48Z" fill="url(#paint2_linear_2067_2)"/>
<path d="M140.138 109.673H116.313C115.432 109.673 114.718 110.387 114.718 111.268C114.718 112.15 115.432 112.864 116.313 112.864H140.138C141.019 112.864 141.734 112.15 141.734 111.268C141.734 110.387 141.019 109.673 140.138 109.673Z" fill="url(#paint3_linear_2067_2)"/>
<path d="M99.2952 102.866H78.8736C77.9925 102.866 77.2781 103.58 77.2781 104.461C77.2781 105.342 77.9923 106.057 78.8736 106.057H99.2952C100.176 106.057 100.891 105.342 100.891 104.461C100.891 103.58 100.176 102.866 99.2952 102.866Z" fill="url(#paint4_linear_2067_2)"/>
<path d="M99.2951 79.0405H92.4878C91.6068 79.0405 90.8923 79.7548 90.8923 80.636V94.2504C90.8923 95.1314 91.6066 95.8459 92.4878 95.8459C93.3691 95.8459 94.0833 95.1316 94.0833 94.2504V89.0386H97.5933C98.4744 89.0386 99.1888 88.3243 99.1888 87.4431C99.1888 86.5619 98.4746 85.8476 97.5933 85.8476H94.0833V82.2315H99.2951C100.176 82.2315 100.891 81.5173 100.891 80.636C100.89 79.755 100.176 79.0405 99.2951 79.0405Z" fill="url(#paint5_linear_2067_2)"/>
<path d="M111.851 89.7867C113.447 88.7409 114.505 86.9374 114.505 84.8905C114.505 81.6647 111.881 79.0405 108.655 79.0405H104.4C103.519 79.0405 102.805 79.7548 102.805 80.636V94.2504C102.805 95.1314 103.519 95.8459 104.4 95.8459C105.282 95.8459 105.996 95.1316 105.996 94.2504V90.7404H108.652L111.582 95.1352C111.889 95.5963 112.395 95.8459 112.911 95.8459C113.215 95.8459 113.522 95.7591 113.794 95.5776C114.527 95.089 114.725 94.0983 114.236 93.3654L111.851 89.7867ZM108.655 87.5496H105.996V82.2315H108.655C110.121 82.2315 111.314 83.4242 111.314 84.8905C111.314 86.3569 110.121 87.5496 108.655 87.5496Z" fill="url(#paint6_linear_2067_2)"/>
<path d="M124.822 92.6551H119.61V89.0334C119.646 89.0358 119.681 89.0388 119.717 89.0388H123.12C124.001 89.0388 124.716 88.3245 124.716 87.4433C124.716 86.5621 124.001 85.8478 123.12 85.8478H119.717C119.681 85.8478 119.646 85.8508 119.61 85.8532V82.2315H124.822C125.703 82.2315 126.418 81.5173 126.418 80.636C126.418 79.755 125.703 79.0405 124.822 79.0405H118.015C117.134 79.0405 116.419 79.7548 116.419 80.636V94.2504C116.419 95.1314 117.134 95.8459 118.015 95.8459H124.822C125.703 95.8459 126.418 95.1316 126.418 94.2504C126.418 93.3691 125.703 92.6551 124.822 92.6551Z" fill="url(#paint7_linear_2067_2)"/>
<path d="M136.735 92.6551H131.523V89.0388H133.331C134.212 89.0388 134.927 88.3245 134.927 87.4433C134.927 86.5621 134.212 85.8478 133.331 85.8478H131.523V82.2315H136.735C137.616 82.2315 138.33 81.5173 138.33 80.636C138.33 79.755 137.616 79.0405 136.735 79.0405H129.927C129.046 79.0405 128.332 79.7548 128.332 80.636V94.2504C128.332 95.1314 129.046 95.8459 129.927 95.8459H136.735C137.616 95.8459 138.33 95.1316 138.33 94.2504C138.33 93.3691 137.616 92.6551 136.735 92.6551Z" fill="url(#paint8_linear_2067_2)"/>
<defs>
<linearGradient id="paint0_linear_2067_2" x1="73.8745" y1="86.5833" x2="175.77" y2="86.5833" gradientUnits="userSpaceOnUse">
<stop stop-color="#B57E10"/>
<stop offset="0.09" stop-color="#E5C35C"/>
<stop offset="0.14" stop-color="#F9DF7B"/>
<stop offset="0.26" stop-color="#FFF3A6"/>
<stop offset="0.36" stop-color="#F9DF7B"/>
<stop offset="0.49" stop-color="#B57E10"/>
<stop offset="0.57" stop-color="#E5C35C"/>
<stop offset="0.61" stop-color="#F9DF7B"/>
<stop offset="0.72" stop-color="#FFF3A6"/>
<stop offset="0.84" stop-color="#F9DF7B"/>
<stop offset="1" stop-color="#B57E10"/>
</linearGradient>
<linearGradient id="paint1_linear_2067_2" x1="99.4014" y1="119.776" x2="105.996" y2="119.776" gradientUnits="userSpaceOnUse">
<stop stop-color="#B57E10"/>
<stop offset="0.09" stop-color="#E5C35C"/>
<stop offset="0.14" stop-color="#F9DF7B"/>
<stop offset="0.26" stop-color="#FFF3A6"/>
<stop offset="0.36" stop-color="#F9DF7B"/>
<stop offset="0.49" stop-color="#B57E10"/>
<stop offset="0.57" stop-color="#E5C35C"/>
<stop offset="0.61" stop-color="#F9DF7B"/>
<stop offset="0.72" stop-color="#FFF3A6"/>
<stop offset="0.84" stop-color="#F9DF7B"/>
<stop offset="1" stop-color="#B57E10"/>
</linearGradient>
<linearGradient id="paint2_linear_2067_2" x1="155.561" y1="119.776" x2="162.155" y2="119.776" gradientUnits="userSpaceOnUse">
<stop stop-color="#B57E10"/>
<stop offset="0.09" stop-color="#E5C35C"/>
<stop offset="0.14" stop-color="#F9DF7B"/>
<stop offset="0.26" stop-color="#FFF3A6"/>
<stop offset="0.36" stop-color="#F9DF7B"/>
<stop offset="0.49" stop-color="#B57E10"/>
<stop offset="0.57" stop-color="#E5C35C"/>
<stop offset="0.61" stop-color="#F9DF7B"/>
<stop offset="0.72" stop-color="#FFF3A6"/>
<stop offset="0.84" stop-color="#F9DF7B"/>
<stop offset="1" stop-color="#B57E10"/>
</linearGradient>
<linearGradient id="paint3_linear_2067_2" x1="114.718" y1="111.268" x2="141.734" y2="111.268" gradientUnits="userSpaceOnUse">
<stop stop-color="#B57E10"/>
<stop offset="0.09" stop-color="#E5C35C"/>
<stop offset="0.14" stop-color="#F9DF7B"/>
<stop offset="0.26" stop-color="#FFF3A6"/>
<stop offset="0.36" stop-color="#F9DF7B"/>
<stop offset="0.49" stop-color="#B57E10"/>
<stop offset="0.57" stop-color="#E5C35C"/>
<stop offset="0.61" stop-color="#F9DF7B"/>
<stop offset="0.72" stop-color="#FFF3A6"/>
<stop offset="0.84" stop-color="#F9DF7B"/>
<stop offset="1" stop-color="#B57E10"/>
</linearGradient>
<linearGradient id="paint4_linear_2067_2" x1="77.2781" y1="104.461" x2="100.891" y2="104.461" gradientUnits="userSpaceOnUse">
<stop stop-color="#B57E10"/>
<stop offset="0.09" stop-color="#E5C35C"/>
<stop offset="0.14" stop-color="#F9DF7B"/>
<stop offset="0.26" stop-color="#FFF3A6"/>
<stop offset="0.36" stop-color="#F9DF7B"/>
<stop offset="0.49" stop-color="#B57E10"/>
<stop offset="0.57" stop-color="#E5C35C"/>
<stop offset="0.61" stop-color="#F9DF7B"/>
<stop offset="0.72" stop-color="#FFF3A6"/>
<stop offset="0.84" stop-color="#F9DF7B"/>
<stop offset="1" stop-color="#B57E10"/>
</linearGradient>
<linearGradient id="paint5_linear_2067_2" x1="90.8923" y1="87.4412" x2="100.891" y2="87.4412" gradientUnits="userSpaceOnUse">
<stop stop-color="#B57E10"/>
<stop offset="0.09" stop-color="#E5C35C"/>
<stop offset="0.14" stop-color="#F9DF7B"/>
<stop offset="0.26" stop-color="#FFF3A6"/>
<stop offset="0.36" stop-color="#F9DF7B"/>
<stop offset="0.49" stop-color="#B57E10"/>
<stop offset="0.57" stop-color="#E5C35C"/>
<stop offset="0.61" stop-color="#F9DF7B"/>
<stop offset="0.72" stop-color="#FFF3A6"/>
<stop offset="0.84" stop-color="#F9DF7B"/>
<stop offset="1" stop-color="#B57E10"/>
</linearGradient>
<linearGradient id="paint6_linear_2067_2" x1="102.805" y1="87.4412" x2="114.505" y2="87.4412" gradientUnits="userSpaceOnUse">
<stop stop-color="#B57E10"/>
<stop offset="0.09" stop-color="#E5C35C"/>
<stop offset="0.14" stop-color="#F9DF7B"/>
<stop offset="0.26" stop-color="#FFF3A6"/>
<stop offset="0.36" stop-color="#F9DF7B"/>
<stop offset="0.49" stop-color="#B57E10"/>
<stop offset="0.57" stop-color="#E5C35C"/>
<stop offset="0.61" stop-color="#F9DF7B"/>
<stop offset="0.72" stop-color="#FFF3A6"/>
<stop offset="0.84" stop-color="#F9DF7B"/>
<stop offset="1" stop-color="#B57E10"/>
</linearGradient>
<linearGradient id="paint7_linear_2067_2" x1="116.419" y1="87.4412" x2="126.418" y2="87.4412" gradientUnits="userSpaceOnUse">
<stop stop-color="#B57E10"/>
<stop offset="0.09" stop-color="#E5C35C"/>
<stop offset="0.14" stop-color="#F9DF7B"/>
<stop offset="0.26" stop-color="#FFF3A6"/>
<stop offset="0.36" stop-color="#F9DF7B"/>
<stop offset="0.49" stop-color="#B57E10"/>
<stop offset="0.57" stop-color="#E5C35C"/>
<stop offset="0.61" stop-color="#F9DF7B"/>
<stop offset="0.72" stop-color="#FFF3A6"/>
<stop offset="0.84" stop-color="#F9DF7B"/>
<stop offset="1" stop-color="#B57E10"/>
</linearGradient>
<linearGradient id="paint8_linear_2067_2" x1="128.332" y1="87.4412" x2="138.33" y2="87.4412" gradientUnits="userSpaceOnUse">
<stop stop-color="#B57E10"/>
<stop offset="0.09" stop-color="#E5C35C"/>
<stop offset="0.14" stop-color="#F9DF7B"/>
<stop offset="0.26" stop-color="#FFF3A6"/>
<stop offset="0.36" stop-color="#F9DF7B"/>
<stop offset="0.49" stop-color="#B57E10"/>
<stop offset="0.57" stop-color="#E5C35C"/>
<stop offset="0.61" stop-color="#F9DF7B"/>
<stop offset="0.72" stop-color="#FFF3A6"/>
<stop offset="0.84" stop-color="#F9DF7B"/>
<stop offset="1" stop-color="#B57E10"/>
</linearGradient>
</defs>
</svg>
