<svg width="250" height="250" viewBox="0 0 250 250" fill="none" xmlns="http://www.w3.org/2000/svg">
<circle cx="124.822" cy="124.822" r="124.822" fill="#349440"/>
<path d="M62.2145 145V133.364H64.6747V138.165H69.669V133.364H72.1236V145H69.669V140.193H64.6747V145H62.2145ZM78.0497 145.17C77.1671 145.17 76.4039 144.983 75.7599 144.608C75.1198 144.229 74.6255 143.703 74.277 143.028C73.9285 142.35 73.7543 141.564 73.7543 140.67C73.7543 139.769 73.9285 138.981 74.277 138.307C74.6255 137.629 75.1198 137.102 75.7599 136.727C76.4039 136.348 77.1671 136.159 78.0497 136.159C78.9323 136.159 79.6937 136.348 80.3338 136.727C80.9777 137.102 81.474 137.629 81.8224 138.307C82.1709 138.981 82.3452 139.769 82.3452 140.67C82.3452 141.564 82.1709 142.35 81.8224 143.028C81.474 143.703 80.9777 144.229 80.3338 144.608C79.6937 144.983 78.9323 145.17 78.0497 145.17ZM78.0611 143.295C78.4626 143.295 78.7978 143.182 79.0668 142.955C79.3357 142.723 79.5384 142.409 79.6747 142.011C79.8149 141.614 79.8849 141.161 79.8849 140.653C79.8849 140.146 79.8149 139.693 79.6747 139.295C79.5384 138.898 79.3357 138.583 79.0668 138.352C78.7978 138.121 78.4626 138.006 78.0611 138.006C77.6558 138.006 77.3149 138.121 77.0384 138.352C76.7656 138.583 76.5592 138.898 76.419 139.295C76.2827 139.693 76.2145 140.146 76.2145 140.653C76.2145 141.161 76.2827 141.614 76.419 142.011C76.5592 142.409 76.7656 142.723 77.0384 142.955C77.3149 143.182 77.6558 143.295 78.0611 143.295ZM83.919 145V136.273H86.2259V137.812H86.3281C86.5099 137.301 86.813 136.898 87.2372 136.602C87.6615 136.307 88.169 136.159 88.7599 136.159C89.3584 136.159 89.8679 136.309 90.2884 136.608C90.7088 136.903 90.9891 137.305 91.1293 137.812H91.2202C91.3982 137.312 91.7202 136.913 92.1861 136.614C92.6558 136.311 93.2107 136.159 93.8509 136.159C94.6652 136.159 95.3262 136.419 95.8338 136.938C96.3452 137.453 96.6009 138.184 96.6009 139.131V145H94.1861V139.608C94.1861 139.123 94.0573 138.759 93.7997 138.517C93.5421 138.275 93.2202 138.153 92.8338 138.153C92.3944 138.153 92.0516 138.294 91.8054 138.574C91.5592 138.85 91.4361 139.216 91.4361 139.67V145H89.0895V139.557C89.0895 139.129 88.9664 138.788 88.7202 138.534C88.4777 138.28 88.1577 138.153 87.7599 138.153C87.491 138.153 87.2486 138.222 87.0327 138.358C86.8205 138.491 86.652 138.678 86.527 138.92C86.402 139.159 86.3395 139.439 86.3395 139.761V145H83.919ZM102.49 145.17C101.592 145.17 100.82 144.989 100.172 144.625C99.5279 144.258 99.0317 143.739 98.6832 143.068C98.3348 142.394 98.1605 141.597 98.1605 140.676C98.1605 139.778 98.3348 138.991 98.6832 138.312C99.0317 137.634 99.5223 137.106 100.155 136.727C100.791 136.348 101.537 136.159 102.393 136.159C102.969 136.159 103.505 136.252 104.001 136.438C104.501 136.619 104.937 136.894 105.308 137.261C105.683 137.629 105.975 138.091 106.183 138.648C106.392 139.201 106.496 139.848 106.496 140.591V141.256H99.1264V139.756H104.217C104.217 139.407 104.142 139.098 103.99 138.83C103.839 138.561 103.628 138.35 103.359 138.199C103.094 138.044 102.786 137.966 102.433 137.966C102.066 137.966 101.74 138.051 101.456 138.222C101.176 138.388 100.956 138.614 100.797 138.898C100.638 139.178 100.556 139.491 100.553 139.835V141.261C100.553 141.693 100.632 142.066 100.791 142.381C100.954 142.695 101.183 142.938 101.479 143.108C101.774 143.278 102.125 143.364 102.53 143.364C102.799 143.364 103.045 143.326 103.268 143.25C103.492 143.174 103.683 143.061 103.842 142.909C104.001 142.758 104.123 142.572 104.206 142.352L106.445 142.5C106.331 143.038 106.098 143.508 105.746 143.909C105.397 144.307 104.946 144.617 104.393 144.841C103.844 145.061 103.21 145.17 102.49 145.17ZM119.54 137.125C119.46 136.848 119.348 136.604 119.205 136.392C119.061 136.176 118.884 135.994 118.676 135.847C118.472 135.695 118.237 135.58 117.972 135.5C117.71 135.42 117.42 135.381 117.102 135.381C116.508 135.381 115.985 135.528 115.534 135.824C115.087 136.119 114.739 136.549 114.489 137.114C114.239 137.674 114.114 138.36 114.114 139.17C114.114 139.981 114.237 140.67 114.483 141.239C114.729 141.807 115.078 142.241 115.528 142.54C115.979 142.835 116.511 142.983 117.125 142.983C117.682 142.983 118.157 142.884 118.551 142.688C118.949 142.487 119.252 142.205 119.46 141.841C119.672 141.477 119.778 141.047 119.778 140.551L120.278 140.625H117.278V138.773H122.148V140.239C122.148 141.261 121.932 142.14 121.5 142.875C121.068 143.606 120.473 144.17 119.716 144.568C118.958 144.962 118.091 145.159 117.114 145.159C116.023 145.159 115.064 144.919 114.239 144.438C113.413 143.953 112.769 143.265 112.307 142.375C111.848 141.481 111.619 140.42 111.619 139.193C111.619 138.25 111.756 137.409 112.028 136.67C112.305 135.928 112.691 135.299 113.188 134.784C113.684 134.269 114.261 133.877 114.92 133.608C115.58 133.339 116.294 133.205 117.062 133.205C117.722 133.205 118.335 133.301 118.903 133.494C119.472 133.684 119.975 133.953 120.415 134.301C120.858 134.65 121.22 135.064 121.5 135.545C121.78 136.023 121.96 136.549 122.04 137.125H119.54ZM123.95 145V136.273H126.297V137.795H126.388C126.547 137.254 126.814 136.845 127.189 136.568C127.564 136.288 127.996 136.148 128.484 136.148C128.606 136.148 128.736 136.155 128.876 136.17C129.017 136.186 129.14 136.206 129.246 136.233V138.381C129.132 138.347 128.975 138.316 128.774 138.29C128.573 138.263 128.39 138.25 128.223 138.25C127.867 138.25 127.549 138.328 127.268 138.483C126.992 138.634 126.772 138.847 126.609 139.119C126.45 139.392 126.371 139.706 126.371 140.062V145H123.95ZM134.034 145.17C133.152 145.17 132.388 144.983 131.744 144.608C131.104 144.229 130.61 143.703 130.261 143.028C129.913 142.35 129.739 141.564 129.739 140.67C129.739 139.769 129.913 138.981 130.261 138.307C130.61 137.629 131.104 137.102 131.744 136.727C132.388 136.348 133.152 136.159 134.034 136.159C134.917 136.159 135.678 136.348 136.318 136.727C136.962 137.102 137.458 137.629 137.807 138.307C138.155 138.981 138.33 139.769 138.33 140.67C138.33 141.564 138.155 142.35 137.807 143.028C137.458 143.703 136.962 144.229 136.318 144.608C135.678 144.983 134.917 145.17 134.034 145.17ZM134.045 143.295C134.447 143.295 134.782 143.182 135.051 142.955C135.32 142.723 135.523 142.409 135.659 142.011C135.799 141.614 135.869 141.161 135.869 140.653C135.869 140.146 135.799 139.693 135.659 139.295C135.523 138.898 135.32 138.583 135.051 138.352C134.782 138.121 134.447 138.006 134.045 138.006C133.64 138.006 133.299 138.121 133.023 138.352C132.75 138.583 132.544 138.898 132.403 139.295C132.267 139.693 132.199 140.146 132.199 140.653C132.199 141.161 132.267 141.614 132.403 142.011C132.544 142.409 132.75 142.723 133.023 142.955C133.299 143.182 133.64 143.295 134.045 143.295ZM141.406 145L139.031 136.273H141.48L142.832 142.136H142.912L144.321 136.273H146.724L148.156 142.102H148.23L149.56 136.273H152.003L149.634 145H147.071L145.571 139.511H145.463L143.963 145H141.406ZM155.714 139.955V145H153.294V136.273H155.601V137.812H155.703C155.896 137.305 156.22 136.903 156.675 136.608C157.129 136.309 157.68 136.159 158.328 136.159C158.934 136.159 159.463 136.292 159.913 136.557C160.364 136.822 160.714 137.201 160.964 137.693C161.214 138.182 161.339 138.765 161.339 139.443V145H158.919V139.875C158.923 139.341 158.786 138.924 158.51 138.625C158.233 138.322 157.853 138.17 157.368 138.17C157.042 138.17 156.754 138.241 156.504 138.381C156.258 138.521 156.065 138.725 155.925 138.994C155.788 139.259 155.718 139.58 155.714 139.955ZM166.996 145V133.364H171.587C172.465 133.364 173.215 133.521 173.837 133.835C174.462 134.146 174.937 134.587 175.263 135.159C175.592 135.727 175.757 136.396 175.757 137.165C175.757 137.937 175.59 138.602 175.257 139.159C174.924 139.712 174.441 140.136 173.808 140.432C173.179 140.727 172.418 140.875 171.524 140.875H168.45V138.898H171.126C171.596 138.898 171.986 138.833 172.297 138.705C172.607 138.576 172.839 138.383 172.99 138.125C173.145 137.867 173.223 137.547 173.223 137.165C173.223 136.778 173.145 136.453 172.99 136.188C172.839 135.922 172.606 135.722 172.291 135.585C171.981 135.445 171.589 135.375 171.115 135.375H169.456V145H166.996ZM173.28 139.705L176.172 145H173.456L170.626 139.705H173.28ZM177.45 145V136.273H179.871V145H177.45ZM178.666 135.148C178.306 135.148 177.998 135.028 177.74 134.79C177.486 134.547 177.359 134.258 177.359 133.92C177.359 133.587 177.486 133.301 177.74 133.062C177.998 132.82 178.306 132.699 178.666 132.699C179.026 132.699 179.333 132.82 179.587 133.062C179.844 133.301 179.973 133.587 179.973 133.92C179.973 134.258 179.844 134.547 179.587 134.79C179.333 135.028 179.026 135.148 178.666 135.148ZM185.753 145.17C184.859 145.17 184.09 144.981 183.446 144.602C182.806 144.22 182.313 143.689 181.969 143.011C181.628 142.333 181.457 141.553 181.457 140.67C181.457 139.777 181.63 138.992 181.974 138.318C182.323 137.64 182.817 137.112 183.457 136.733C184.098 136.35 184.859 136.159 185.741 136.159C186.503 136.159 187.17 136.297 187.741 136.574C188.313 136.85 188.766 137.239 189.099 137.739C189.433 138.239 189.616 138.826 189.651 139.5H187.366C187.302 139.064 187.132 138.714 186.855 138.449C186.582 138.18 186.224 138.045 185.781 138.045C185.406 138.045 185.079 138.148 184.798 138.352C184.522 138.553 184.306 138.847 184.151 139.233C183.995 139.619 183.918 140.087 183.918 140.636C183.918 141.193 183.993 141.667 184.145 142.057C184.3 142.447 184.518 142.744 184.798 142.949C185.079 143.153 185.406 143.256 185.781 143.256C186.058 143.256 186.306 143.199 186.526 143.085C186.749 142.972 186.933 142.807 187.077 142.591C187.224 142.371 187.321 142.108 187.366 141.801H189.651C189.613 142.468 189.431 143.055 189.105 143.562C188.783 144.066 188.338 144.46 187.77 144.744C187.202 145.028 186.529 145.17 185.753 145.17ZM195.178 145.17C194.28 145.17 193.507 144.989 192.859 144.625C192.215 144.258 191.719 143.739 191.371 143.068C191.022 142.394 190.848 141.597 190.848 140.676C190.848 139.778 191.022 138.991 191.371 138.312C191.719 137.634 192.21 137.106 192.842 136.727C193.479 136.348 194.225 136.159 195.081 136.159C195.657 136.159 196.193 136.252 196.689 136.438C197.189 136.619 197.625 136.894 197.996 137.261C198.371 137.629 198.662 138.091 198.871 138.648C199.079 139.201 199.183 139.848 199.183 140.591V141.256H191.814V139.756H196.905C196.905 139.407 196.829 139.098 196.678 138.83C196.526 138.561 196.316 138.35 196.047 138.199C195.782 138.044 195.473 137.966 195.121 137.966C194.753 137.966 194.428 138.051 194.143 138.222C193.863 138.388 193.643 138.614 193.484 138.898C193.325 139.178 193.244 139.491 193.24 139.835V141.261C193.24 141.693 193.32 142.066 193.479 142.381C193.642 142.695 193.871 142.938 194.166 143.108C194.462 143.278 194.812 143.364 195.217 143.364C195.486 143.364 195.732 143.326 195.956 143.25C196.179 143.174 196.371 143.061 196.53 142.909C196.689 142.758 196.81 142.572 196.893 142.352L199.132 142.5C199.018 143.038 198.786 143.508 198.433 143.909C198.085 144.307 197.634 144.617 197.081 144.841C196.532 145.061 195.897 145.17 195.178 145.17Z" fill="white"/>
<path d="M93.4254 221H89.3004V209.364H93.4595C94.63 209.364 95.6375 209.597 96.4822 210.062C97.3269 210.525 97.9766 211.189 98.4311 212.057C98.8894 212.924 99.1186 213.962 99.1186 215.17C99.1186 216.383 98.8894 217.424 98.4311 218.295C97.9766 219.167 97.3232 219.835 96.4709 220.301C95.6224 220.767 94.6072 221 93.4254 221ZM91.7607 218.892H93.3232C94.0504 218.892 94.6622 218.763 95.1584 218.506C95.6584 218.244 96.0334 217.841 96.2834 217.295C96.5372 216.746 96.6641 216.038 96.6641 215.17C96.6641 214.311 96.5372 213.608 96.2834 213.062C96.0334 212.517 95.6603 212.116 95.1641 211.858C94.6679 211.6 94.0561 211.472 93.3288 211.472H91.7607V218.892ZM104.873 221.17C103.975 221.17 103.202 220.989 102.555 220.625C101.911 220.258 101.415 219.739 101.066 219.068C100.718 218.394 100.543 217.597 100.543 216.676C100.543 215.778 100.718 214.991 101.066 214.312C101.415 213.634 101.905 213.106 102.538 212.727C103.174 212.348 103.92 212.159 104.776 212.159C105.352 212.159 105.888 212.252 106.384 212.438C106.884 212.619 107.32 212.894 107.691 213.261C108.066 213.629 108.358 214.091 108.566 214.648C108.774 215.201 108.879 215.848 108.879 216.591V217.256H101.509V215.756H106.6C106.6 215.407 106.524 215.098 106.373 214.83C106.221 214.561 106.011 214.35 105.742 214.199C105.477 214.044 105.168 213.966 104.816 213.966C104.449 213.966 104.123 214.051 103.839 214.222C103.558 214.388 103.339 214.614 103.18 214.898C103.021 215.178 102.939 215.491 102.935 215.835V217.261C102.935 217.693 103.015 218.066 103.174 218.381C103.337 218.695 103.566 218.938 103.862 219.108C104.157 219.278 104.507 219.364 104.913 219.364C105.182 219.364 105.428 219.326 105.651 219.25C105.875 219.174 106.066 219.061 106.225 218.909C106.384 218.758 106.505 218.572 106.589 218.352L108.827 218.5C108.714 219.038 108.481 219.508 108.129 219.909C107.78 220.307 107.329 220.617 106.776 220.841C106.227 221.061 105.593 221.17 104.873 221.17ZM112.879 209.364V221H110.458V209.364H112.879ZM114.817 221V212.273H117.238V221H114.817ZM116.033 211.148C115.674 211.148 115.365 211.028 115.107 210.79C114.853 210.547 114.727 210.258 114.727 209.92C114.727 209.587 114.853 209.301 115.107 209.062C115.365 208.82 115.674 208.699 116.033 208.699C116.393 208.699 116.7 208.82 116.954 209.062C117.211 209.301 117.34 209.587 117.34 209.92C117.34 210.258 117.211 210.547 116.954 210.79C116.7 211.028 116.393 211.148 116.033 211.148ZM123.12 221.17C122.226 221.17 121.457 220.981 120.813 220.602C120.173 220.22 119.681 219.689 119.336 219.011C118.995 218.333 118.825 217.553 118.825 216.67C118.825 215.777 118.997 214.992 119.342 214.318C119.69 213.64 120.184 213.112 120.825 212.733C121.465 212.35 122.226 212.159 123.109 212.159C123.87 212.159 124.537 212.297 125.109 212.574C125.681 212.85 126.133 213.239 126.467 213.739C126.8 214.239 126.984 214.826 127.018 215.5H124.734C124.669 215.064 124.499 214.714 124.222 214.449C123.95 214.18 123.592 214.045 123.148 214.045C122.773 214.045 122.446 214.148 122.165 214.352C121.889 214.553 121.673 214.847 121.518 215.233C121.362 215.619 121.285 216.087 121.285 216.636C121.285 217.193 121.361 217.667 121.512 218.057C121.667 218.447 121.885 218.744 122.165 218.949C122.446 219.153 122.773 219.256 123.148 219.256C123.425 219.256 123.673 219.199 123.893 219.085C124.116 218.972 124.3 218.807 124.444 218.591C124.592 218.371 124.688 218.108 124.734 217.801H127.018C126.98 218.468 126.798 219.055 126.472 219.562C126.15 220.066 125.705 220.46 125.137 220.744C124.569 221.028 123.897 221.17 123.12 221.17ZM128.567 221V212.273H130.988V221H128.567ZM129.783 211.148C129.424 211.148 129.115 211.028 128.857 210.79C128.603 210.547 128.477 210.258 128.477 209.92C128.477 209.587 128.603 209.301 128.857 209.062C129.115 208.82 129.424 208.699 129.783 208.699C130.143 208.699 130.45 208.82 130.704 209.062C130.961 209.301 131.09 209.587 131.09 209.92C131.09 210.258 130.961 210.547 130.704 210.79C130.45 211.028 130.143 211.148 129.783 211.148ZM136.87 221.17C135.987 221.17 135.224 220.983 134.58 220.608C133.94 220.229 133.446 219.703 133.097 219.028C132.749 218.35 132.575 217.564 132.575 216.67C132.575 215.769 132.749 214.981 133.097 214.307C133.446 213.629 133.94 213.102 134.58 212.727C135.224 212.348 135.987 212.159 136.87 212.159C137.753 212.159 138.514 212.348 139.154 212.727C139.798 213.102 140.294 213.629 140.643 214.307C140.991 214.981 141.165 215.769 141.165 216.67C141.165 217.564 140.991 218.35 140.643 219.028C140.294 219.703 139.798 220.229 139.154 220.608C138.514 220.983 137.753 221.17 136.87 221.17ZM136.881 219.295C137.283 219.295 137.618 219.182 137.887 218.955C138.156 218.723 138.359 218.409 138.495 218.011C138.635 217.614 138.705 217.161 138.705 216.653C138.705 216.146 138.635 215.693 138.495 215.295C138.359 214.898 138.156 214.583 137.887 214.352C137.618 214.121 137.283 214.006 136.881 214.006C136.476 214.006 136.135 214.121 135.859 214.352C135.586 214.583 135.379 214.898 135.239 215.295C135.103 215.693 135.035 216.146 135.035 216.653C135.035 217.161 135.103 217.614 135.239 218.011C135.379 218.409 135.586 218.723 135.859 218.955C136.135 219.182 136.476 219.295 136.881 219.295ZM148.336 217.284V212.273H150.756V221H148.433V219.415H148.342C148.145 219.926 147.817 220.337 147.359 220.648C146.904 220.958 146.349 221.114 145.694 221.114C145.111 221.114 144.597 220.981 144.154 220.716C143.711 220.451 143.364 220.074 143.114 219.585C142.868 219.097 142.743 218.511 142.739 217.83V212.273H145.16V217.398C145.164 217.913 145.302 218.32 145.575 218.619C145.847 218.919 146.213 219.068 146.671 219.068C146.963 219.068 147.236 219.002 147.489 218.869C147.743 218.733 147.948 218.532 148.103 218.267C148.262 218.002 148.34 217.674 148.336 217.284ZM159.954 214.761L157.738 214.898C157.7 214.708 157.619 214.538 157.494 214.386C157.369 214.231 157.204 214.108 156.999 214.017C156.799 213.922 156.558 213.875 156.278 213.875C155.903 213.875 155.586 213.955 155.329 214.114C155.071 214.269 154.942 214.477 154.942 214.739C154.942 214.947 155.026 215.123 155.192 215.267C155.359 215.411 155.645 215.527 156.05 215.614L157.63 215.932C158.478 216.106 159.111 216.386 159.528 216.773C159.944 217.159 160.153 217.667 160.153 218.295C160.153 218.867 159.984 219.369 159.647 219.801C159.314 220.233 158.855 220.57 158.272 220.812C157.692 221.051 157.024 221.17 156.266 221.17C155.111 221.17 154.191 220.93 153.505 220.449C152.823 219.964 152.424 219.305 152.306 218.472L154.687 218.347C154.759 218.699 154.933 218.968 155.21 219.153C155.486 219.335 155.84 219.426 156.272 219.426C156.696 219.426 157.037 219.345 157.295 219.182C157.556 219.015 157.689 218.801 157.692 218.54C157.689 218.32 157.596 218.14 157.414 218C157.232 217.856 156.952 217.746 156.573 217.67L155.062 217.369C154.21 217.199 153.575 216.903 153.158 216.483C152.746 216.062 152.539 215.527 152.539 214.875C152.539 214.314 152.691 213.831 152.994 213.426C153.3 213.021 153.73 212.708 154.283 212.489C154.84 212.269 155.492 212.159 156.238 212.159C157.34 212.159 158.208 212.392 158.84 212.858C159.477 213.324 159.848 213.958 159.954 214.761Z" fill="white"/>
<path d="M67.1129 184.71C67.0675 184.252 66.8724 183.896 66.5277 183.642C66.183 183.388 65.7152 183.261 65.1243 183.261C64.7228 183.261 64.3838 183.318 64.1072 183.432C63.8307 183.542 63.6186 183.695 63.4709 183.892C63.3269 184.089 63.255 184.312 63.255 184.562C63.2474 184.771 63.291 184.953 63.3857 185.108C63.4841 185.263 63.6186 185.398 63.7891 185.511C63.9595 185.621 64.1565 185.718 64.38 185.801C64.6035 185.881 64.8421 185.949 65.0959 186.006L66.1413 186.256C66.6489 186.369 67.1148 186.521 67.5391 186.71C67.9633 186.9 68.3307 187.133 68.6413 187.409C68.9519 187.686 69.1925 188.011 69.3629 188.386C69.5372 188.761 69.6262 189.191 69.63 189.676C69.6262 190.388 69.4444 191.006 69.0845 191.528C68.7285 192.047 68.2133 192.451 67.5391 192.739C66.8686 193.023 66.0599 193.165 65.1129 193.165C64.1735 193.165 63.3554 193.021 62.6584 192.733C61.9652 192.445 61.4235 192.019 61.0334 191.455C60.647 190.886 60.4444 190.184 60.4254 189.347H62.8061C62.8326 189.737 62.9444 190.062 63.1413 190.324C63.3421 190.581 63.6091 190.777 63.9425 190.909C64.2796 191.038 64.6603 191.102 65.0845 191.102C65.5012 191.102 65.8629 191.042 66.1697 190.92C66.4804 190.799 66.7209 190.631 66.8913 190.415C67.0618 190.199 67.147 189.951 67.147 189.67C67.147 189.409 67.0694 189.189 66.9141 189.011C66.7625 188.833 66.5391 188.682 66.2436 188.557C65.9519 188.432 65.594 188.318 65.1697 188.216L63.9027 187.898C62.9216 187.659 62.147 187.286 61.5788 186.778C61.0107 186.271 60.7285 185.587 60.7322 184.727C60.7285 184.023 60.916 183.407 61.2947 182.881C61.6773 182.354 62.2019 181.943 62.8686 181.648C63.5353 181.352 64.2929 181.205 65.1413 181.205C66.005 181.205 66.7588 181.352 67.4027 181.648C68.0504 181.943 68.5542 182.354 68.9141 182.881C69.2739 183.407 69.4595 184.017 69.4709 184.71H67.1129ZM73.728 193.165C73.1712 193.165 72.675 193.068 72.2393 192.875C71.8037 192.678 71.459 192.388 71.2053 192.006C70.9553 191.619 70.8303 191.138 70.8303 190.562C70.8303 190.078 70.9193 189.67 71.0973 189.341C71.2753 189.011 71.5178 188.746 71.8246 188.545C72.1314 188.345 72.4799 188.193 72.87 188.091C73.264 187.989 73.6768 187.917 74.1087 187.875C74.6162 187.822 75.0253 187.773 75.3359 187.727C75.6465 187.678 75.8719 187.606 76.0121 187.511C76.1522 187.417 76.2223 187.277 76.2223 187.091V187.057C76.2223 186.697 76.1087 186.419 75.8814 186.222C75.6579 186.025 75.3397 185.926 74.9268 185.926C74.4912 185.926 74.1446 186.023 73.8871 186.216C73.6295 186.405 73.459 186.644 73.3757 186.932L71.1371 186.75C71.2507 186.22 71.4742 185.761 71.8075 185.375C72.1409 184.985 72.5708 184.686 73.0973 184.477C73.6276 184.265 74.2412 184.159 74.9382 184.159C75.4231 184.159 75.8871 184.216 76.3303 184.33C76.7772 184.443 77.1731 184.619 77.5178 184.858C77.8662 185.097 78.1409 185.403 78.3416 185.778C78.5424 186.15 78.6428 186.595 78.6428 187.114V193H76.3473V191.79H76.2791C76.139 192.062 75.9515 192.303 75.7166 192.511C75.4818 192.716 75.1996 192.877 74.87 192.994C74.5405 193.108 74.1598 193.165 73.728 193.165ZM74.4212 191.494C74.7772 191.494 75.0916 191.424 75.3643 191.284C75.6371 191.14 75.8511 190.947 76.0064 190.705C76.1617 190.462 76.2393 190.187 76.2393 189.881V188.955C76.1636 189.004 76.0594 189.049 75.9268 189.091C75.7981 189.129 75.6522 189.165 75.4893 189.199C75.3265 189.229 75.1636 189.258 75.0007 189.284C74.8378 189.307 74.6901 189.328 74.5575 189.347C74.2734 189.388 74.0253 189.455 73.8132 189.545C73.6011 189.636 73.4363 189.759 73.3189 189.915C73.2015 190.066 73.1428 190.256 73.1428 190.483C73.1428 190.812 73.2621 191.064 73.5007 191.239C73.7431 191.409 74.05 191.494 74.4212 191.494ZM85.2138 184.273V186.091H79.8274V184.273H85.2138ZM81.0604 193V183.642C81.0604 183.009 81.1835 182.485 81.4297 182.068C81.6797 181.652 82.0206 181.339 82.4524 181.131C82.8842 180.922 83.3748 180.818 83.924 180.818C84.2952 180.818 84.6342 180.847 84.9411 180.903C85.2517 180.96 85.4827 181.011 85.6342 181.057L85.2024 182.875C85.1077 182.845 84.9903 182.816 84.8501 182.79C84.7138 182.763 84.5736 182.75 84.4297 182.75C84.0736 182.75 83.8255 182.833 83.6854 183C83.5452 183.163 83.4751 183.392 83.4751 183.688V193H81.0604ZM90.3572 193.17C89.4595 193.17 88.6868 192.989 88.0391 192.625C87.3951 192.258 86.8989 191.739 86.5504 191.068C86.2019 190.394 86.0277 189.597 86.0277 188.676C86.0277 187.778 86.2019 186.991 86.5504 186.312C86.8989 185.634 87.3894 185.106 88.022 184.727C88.6584 184.348 89.4046 184.159 90.2607 184.159C90.8364 184.159 91.3724 184.252 91.8686 184.438C92.3686 184.619 92.8042 184.894 93.1754 185.261C93.5504 185.629 93.8421 186.091 94.0504 186.648C94.2588 187.201 94.3629 187.848 94.3629 188.591V189.256H86.9936V187.756H92.0845C92.0845 187.407 92.0088 187.098 91.8572 186.83C91.7057 186.561 91.4955 186.35 91.2266 186.199C90.9614 186.044 90.6527 185.966 90.3004 185.966C89.933 185.966 89.6072 186.051 89.3232 186.222C89.0429 186.388 88.8232 186.614 88.6641 186.898C88.505 187.178 88.4235 187.491 88.4197 187.835V189.261C88.4197 189.693 88.4993 190.066 88.6584 190.381C88.8213 190.695 89.0504 190.938 89.3459 191.108C89.6413 191.278 89.9917 191.364 90.397 191.364C90.666 191.364 90.9122 191.326 91.1357 191.25C91.3591 191.174 91.5504 191.061 91.7095 190.909C91.8686 190.758 91.9898 190.572 92.0732 190.352L94.3118 190.5C94.1982 191.038 93.9652 191.508 93.6129 191.909C93.2644 192.307 92.8137 192.617 92.2607 192.841C91.7114 193.061 91.0769 193.17 90.3572 193.17ZM104.288 184.273V186.091H99.032V184.273H104.288ZM100.225 182.182H102.646V190.318C102.646 190.542 102.68 190.716 102.748 190.841C102.816 190.962 102.911 191.047 103.032 191.097C103.157 191.146 103.301 191.17 103.464 191.17C103.577 191.17 103.691 191.161 103.805 191.142C103.918 191.119 104.005 191.102 104.066 191.091L104.447 192.892C104.326 192.93 104.155 192.973 103.935 193.023C103.716 193.076 103.449 193.108 103.134 193.119C102.551 193.142 102.04 193.064 101.6 192.886C101.165 192.708 100.826 192.432 100.583 192.057C100.341 191.682 100.221 191.208 100.225 190.636V182.182ZM109.714 193.17C108.831 193.17 108.068 192.983 107.424 192.608C106.784 192.229 106.29 191.703 105.941 191.028C105.593 190.35 105.418 189.564 105.418 188.67C105.418 187.769 105.593 186.981 105.941 186.307C106.29 185.629 106.784 185.102 107.424 184.727C108.068 184.348 108.831 184.159 109.714 184.159C110.596 184.159 111.358 184.348 111.998 184.727C112.642 185.102 113.138 185.629 113.487 186.307C113.835 186.981 114.009 187.769 114.009 188.67C114.009 189.564 113.835 190.35 113.487 191.028C113.138 191.703 112.642 192.229 111.998 192.608C111.358 192.983 110.596 193.17 109.714 193.17ZM109.725 191.295C110.127 191.295 110.462 191.182 110.731 190.955C111 190.723 111.202 190.409 111.339 190.011C111.479 189.614 111.549 189.161 111.549 188.653C111.549 188.146 111.479 187.693 111.339 187.295C111.202 186.898 111 186.583 110.731 186.352C110.462 186.121 110.127 186.006 109.725 186.006C109.32 186.006 108.979 186.121 108.702 186.352C108.43 186.583 108.223 186.898 108.083 187.295C107.947 187.693 107.879 188.146 107.879 188.653C107.879 189.161 107.947 189.614 108.083 190.011C108.223 190.409 108.43 190.723 108.702 190.955C108.979 191.182 109.32 191.295 109.725 191.295ZM129.599 185.438H127.11C127.065 185.116 126.972 184.83 126.832 184.58C126.692 184.326 126.512 184.11 126.292 183.932C126.072 183.754 125.818 183.617 125.531 183.523C125.246 183.428 124.938 183.381 124.604 183.381C124.002 183.381 123.478 183.53 123.031 183.83C122.584 184.125 122.237 184.557 121.991 185.125C121.745 185.689 121.621 186.375 121.621 187.182C121.621 188.011 121.745 188.708 121.991 189.273C122.241 189.837 122.589 190.263 123.036 190.551C123.483 190.839 124 190.983 124.587 190.983C124.917 190.983 125.222 190.939 125.502 190.852C125.786 190.765 126.038 190.638 126.258 190.472C126.478 190.301 126.659 190.095 126.803 189.852C126.951 189.61 127.053 189.333 127.11 189.023L129.599 189.034C129.534 189.568 129.373 190.083 129.116 190.58C128.862 191.072 128.519 191.513 128.087 191.903C127.659 192.29 127.148 192.597 126.553 192.824C125.962 193.047 125.294 193.159 124.548 193.159C123.51 193.159 122.582 192.924 121.763 192.455C120.949 191.985 120.305 191.305 119.832 190.415C119.362 189.525 119.127 188.447 119.127 187.182C119.127 185.913 119.366 184.833 119.843 183.943C120.32 183.053 120.968 182.375 121.786 181.909C122.604 181.439 123.525 181.205 124.548 181.205C125.222 181.205 125.847 181.299 126.423 181.489C127.002 181.678 127.515 181.955 127.962 182.318C128.409 182.678 128.773 183.119 129.053 183.642C129.337 184.165 129.519 184.763 129.599 185.438ZM135.261 193.17C134.378 193.17 133.615 192.983 132.971 192.608C132.331 192.229 131.836 191.703 131.488 191.028C131.139 190.35 130.965 189.564 130.965 188.67C130.965 187.769 131.139 186.981 131.488 186.307C131.836 185.629 132.331 185.102 132.971 184.727C133.615 184.348 134.378 184.159 135.261 184.159C136.143 184.159 136.905 184.348 137.545 184.727C138.189 185.102 138.685 185.629 139.033 186.307C139.382 186.981 139.556 187.769 139.556 188.67C139.556 189.564 139.382 190.35 139.033 191.028C138.685 191.703 138.189 192.229 137.545 192.608C136.905 192.983 136.143 193.17 135.261 193.17ZM135.272 191.295C135.674 191.295 136.009 191.182 136.278 190.955C136.547 190.723 136.749 190.409 136.886 190.011C137.026 189.614 137.096 189.161 137.096 188.653C137.096 188.146 137.026 187.693 136.886 187.295C136.749 186.898 136.547 186.583 136.278 186.352C136.009 186.121 135.674 186.006 135.272 186.006C134.867 186.006 134.526 186.121 134.249 186.352C133.977 186.583 133.77 186.898 133.63 187.295C133.494 187.693 133.425 188.146 133.425 188.653C133.425 189.161 133.494 189.614 133.63 190.011C133.77 190.409 133.977 190.723 134.249 190.955C134.526 191.182 134.867 191.295 135.272 191.295ZM143.55 187.955V193H141.13V184.273H143.437V185.812H143.539C143.732 185.305 144.056 184.903 144.511 184.608C144.965 184.309 145.516 184.159 146.164 184.159C146.77 184.159 147.299 184.292 147.749 184.557C148.2 184.822 148.55 185.201 148.8 185.693C149.05 186.182 149.175 186.765 149.175 187.443V193H146.755V187.875C146.759 187.341 146.622 186.924 146.346 186.625C146.069 186.322 145.689 186.17 145.204 186.17C144.878 186.17 144.59 186.241 144.34 186.381C144.094 186.521 143.901 186.725 143.761 186.994C143.624 187.259 143.554 187.58 143.55 187.955ZM158.344 186.761L156.129 186.898C156.091 186.708 156.009 186.538 155.884 186.386C155.759 186.231 155.594 186.108 155.39 186.017C155.189 185.922 154.949 185.875 154.668 185.875C154.293 185.875 153.977 185.955 153.719 186.114C153.462 186.269 153.333 186.477 153.333 186.739C153.333 186.947 153.416 187.123 153.583 187.267C153.75 187.411 154.036 187.527 154.441 187.614L156.021 187.932C156.869 188.106 157.502 188.386 157.918 188.773C158.335 189.159 158.543 189.667 158.543 190.295C158.543 190.867 158.375 191.369 158.038 191.801C157.704 192.233 157.246 192.57 156.663 192.812C156.083 193.051 155.415 193.17 154.657 193.17C153.502 193.17 152.581 192.93 151.896 192.449C151.214 191.964 150.814 191.305 150.697 190.472L153.077 190.347C153.149 190.699 153.324 190.968 153.6 191.153C153.877 191.335 154.231 191.426 154.663 191.426C155.087 191.426 155.428 191.345 155.685 191.182C155.947 191.015 156.079 190.801 156.083 190.54C156.079 190.32 155.987 190.14 155.805 190C155.623 189.856 155.343 189.746 154.964 189.67L153.452 189.369C152.6 189.199 151.966 188.903 151.549 188.483C151.136 188.062 150.93 187.527 150.93 186.875C150.93 186.314 151.081 185.831 151.384 185.426C151.691 185.021 152.121 184.708 152.674 184.489C153.231 184.269 153.882 184.159 154.629 184.159C155.731 184.159 156.598 184.392 157.231 184.858C157.867 185.324 158.238 185.958 158.344 186.761ZM165.664 189.284V184.273H168.085V193H165.761V191.415H165.67C165.473 191.926 165.145 192.337 164.687 192.648C164.232 192.958 163.677 193.114 163.022 193.114C162.439 193.114 161.925 192.981 161.482 192.716C161.039 192.451 160.692 192.074 160.442 191.585C160.196 191.097 160.071 190.511 160.067 189.83V184.273H162.488V189.398C162.492 189.913 162.63 190.32 162.903 190.619C163.175 190.919 163.541 191.068 163.999 191.068C164.291 191.068 164.564 191.002 164.817 190.869C165.071 190.733 165.276 190.532 165.431 190.267C165.59 190.002 165.668 189.674 165.664 189.284ZM170.021 193V184.273H172.327V185.812H172.43C172.612 185.301 172.915 184.898 173.339 184.602C173.763 184.307 174.271 184.159 174.862 184.159C175.46 184.159 175.969 184.309 176.39 184.608C176.81 184.903 177.091 185.305 177.231 185.812H177.322C177.5 185.312 177.822 184.913 178.288 184.614C178.757 184.311 179.312 184.159 179.952 184.159C180.767 184.159 181.428 184.419 181.935 184.938C182.447 185.453 182.702 186.184 182.702 187.131V193H180.288V187.608C180.288 187.123 180.159 186.759 179.901 186.517C179.644 186.275 179.322 186.153 178.935 186.153C178.496 186.153 178.153 186.294 177.907 186.574C177.661 186.85 177.538 187.216 177.538 187.67V193H175.191V187.557C175.191 187.129 175.068 186.788 174.822 186.534C174.579 186.28 174.259 186.153 173.862 186.153C173.593 186.153 173.35 186.222 173.134 186.358C172.922 186.491 172.754 186.678 172.629 186.92C172.504 187.159 172.441 187.439 172.441 187.761V193H170.021ZM188.592 193.17C187.694 193.17 186.921 192.989 186.273 192.625C185.629 192.258 185.133 191.739 184.785 191.068C184.436 190.394 184.262 189.597 184.262 188.676C184.262 187.778 184.436 186.991 184.785 186.312C185.133 185.634 185.624 185.106 186.256 184.727C186.893 184.348 187.639 184.159 188.495 184.159C189.071 184.159 189.607 184.252 190.103 184.438C190.603 184.619 191.039 184.894 191.41 185.261C191.785 185.629 192.076 186.091 192.285 186.648C192.493 187.201 192.597 187.848 192.597 188.591V189.256H185.228V187.756H190.319C190.319 187.407 190.243 187.098 190.092 186.83C189.94 186.561 189.73 186.35 189.461 186.199C189.196 186.044 188.887 185.966 188.535 185.966C188.167 185.966 187.842 186.051 187.558 186.222C187.277 186.388 187.058 186.614 186.898 186.898C186.739 187.178 186.658 187.491 186.654 187.835V189.261C186.654 189.693 186.734 190.066 186.893 190.381C187.056 190.695 187.285 190.938 187.58 191.108C187.876 191.278 188.226 191.364 188.631 191.364C188.9 191.364 189.147 191.326 189.37 191.25C189.594 191.174 189.785 191.061 189.944 190.909C190.103 190.758 190.224 190.572 190.308 190.352L192.546 190.5C192.433 191.038 192.2 191.508 191.847 191.909C191.499 192.307 191.048 192.617 190.495 192.841C189.946 193.061 189.311 193.17 188.592 193.17Z" fill="white"/>
<path d="M18.9396 157.364V169H16.8146L11.7521 161.676H11.6669V169H9.20668V157.364H11.3658L16.3885 164.682H16.4908V157.364H18.9396ZM24.87 169.17C23.9875 169.17 23.2242 168.983 22.5803 168.608C21.9401 168.229 21.4458 167.703 21.0973 167.028C20.7488 166.35 20.5746 165.564 20.5746 164.67C20.5746 163.769 20.7488 162.981 21.0973 162.307C21.4458 161.629 21.9401 161.102 22.5803 160.727C23.2242 160.348 23.9875 160.159 24.87 160.159C25.7526 160.159 26.514 160.348 27.1541 160.727C27.7981 161.102 28.2943 161.629 28.6428 162.307C28.9912 162.981 29.1655 163.769 29.1655 164.67C29.1655 165.564 28.9912 166.35 28.6428 167.028C28.2943 167.703 27.7981 168.229 27.1541 168.608C26.514 168.983 25.7526 169.17 24.87 169.17ZM24.8814 167.295C25.2829 167.295 25.6181 167.182 25.8871 166.955C26.156 166.723 26.3587 166.409 26.495 166.011C26.6352 165.614 26.7053 165.161 26.7053 164.653C26.7053 164.146 26.6352 163.693 26.495 163.295C26.3587 162.898 26.156 162.583 25.8871 162.352C25.6181 162.121 25.2829 162.006 24.8814 162.006C24.4761 162.006 24.1352 162.121 23.8587 162.352C23.5859 162.583 23.3795 162.898 23.2393 163.295C23.103 163.693 23.0348 164.146 23.0348 164.653C23.0348 165.161 23.103 165.614 23.2393 166.011C23.3795 166.409 23.5859 166.723 23.8587 166.955C24.1352 167.182 24.4761 167.295 24.8814 167.295ZM44.755 161.438H42.2663C42.2209 161.116 42.1281 160.83 41.9879 160.58C41.8478 160.326 41.6679 160.11 41.4482 159.932C41.2285 159.754 40.9747 159.617 40.6868 159.523C40.4027 159.428 40.094 159.381 39.7607 159.381C39.1584 159.381 38.6338 159.53 38.1868 159.83C37.7398 160.125 37.3932 160.557 37.147 161.125C36.9008 161.689 36.7777 162.375 36.7777 163.182C36.7777 164.011 36.9008 164.708 37.147 165.273C37.397 165.837 37.7455 166.263 38.1925 166.551C38.6394 166.839 39.1565 166.983 39.7436 166.983C40.0732 166.983 40.3781 166.939 40.6584 166.852C40.9425 166.765 41.1944 166.638 41.4141 166.472C41.6338 166.301 41.8156 166.095 41.9595 165.852C42.1072 165.61 42.2095 165.333 42.2663 165.023L44.755 165.034C44.6906 165.568 44.5296 166.083 44.272 166.58C44.0182 167.072 43.6754 167.513 43.2436 167.903C42.8156 168.29 42.3042 168.597 41.7095 168.824C41.1186 169.047 40.45 169.159 39.7038 169.159C38.666 169.159 37.7379 168.924 36.9197 168.455C36.1054 167.985 35.4614 167.305 34.9879 166.415C34.5182 165.525 34.2834 164.447 34.2834 163.182C34.2834 161.913 34.522 160.833 34.9993 159.943C35.4766 159.053 36.1243 158.375 36.9425 157.909C37.7607 157.439 38.6811 157.205 39.7038 157.205C40.3781 157.205 41.0031 157.299 41.5788 157.489C42.1584 157.678 42.6716 157.955 43.1186 158.318C43.5656 158.678 43.9292 159.119 44.2095 159.642C44.4936 160.165 44.6754 160.763 44.755 161.438ZM48.8942 163.955V169H46.4737V157.364H48.826V161.812H48.9283C49.1252 161.297 49.4434 160.894 49.8828 160.602C50.3222 160.307 50.8733 160.159 51.5362 160.159C52.1423 160.159 52.6707 160.292 53.1214 160.557C53.576 160.818 53.9283 161.195 54.1783 161.688C54.4321 162.176 54.5571 162.761 54.5533 163.443V169H52.1328V163.875C52.1366 163.337 52.0002 162.919 51.7237 162.619C51.451 162.32 51.0684 162.17 50.576 162.17C50.2464 162.17 49.9548 162.241 49.701 162.381C49.451 162.521 49.254 162.725 49.1101 162.994C48.9699 163.259 48.898 163.58 48.8942 163.955ZM60.4354 169.17C59.5376 169.17 58.7649 168.989 58.1172 168.625C57.4732 168.258 56.977 167.739 56.6286 167.068C56.2801 166.394 56.1058 165.597 56.1058 164.676C56.1058 163.778 56.2801 162.991 56.6286 162.312C56.977 161.634 57.4676 161.106 58.1001 160.727C58.7365 160.348 59.4827 160.159 60.3388 160.159C60.9145 160.159 61.4505 160.252 61.9467 160.438C62.4467 160.619 62.8823 160.894 63.2536 161.261C63.6286 161.629 63.9202 162.091 64.1286 162.648C64.3369 163.201 64.4411 163.848 64.4411 164.591V165.256H57.0717V163.756H62.1626C62.1626 163.407 62.0869 163.098 61.9354 162.83C61.7839 162.561 61.5736 162.35 61.3047 162.199C61.0395 162.044 60.7308 161.966 60.3786 161.966C60.0111 161.966 59.6854 162.051 59.4013 162.222C59.121 162.388 58.9013 162.614 58.7422 162.898C58.5831 163.178 58.5017 163.491 58.4979 163.835V165.261C58.4979 165.693 58.5774 166.066 58.7365 166.381C58.8994 166.695 59.1286 166.938 59.424 167.108C59.7195 167.278 60.0698 167.364 60.4751 167.364C60.7441 167.364 60.9903 167.326 61.2138 167.25C61.4373 167.174 61.6286 167.061 61.7876 166.909C61.9467 166.758 62.0679 166.572 62.1513 166.352L64.3899 166.5C64.2763 167.038 64.0433 167.508 63.6911 167.909C63.3426 168.307 62.8918 168.617 62.3388 168.841C61.7895 169.061 61.1551 169.17 60.4354 169.17ZM66.0206 169V160.273H68.3274V161.812H68.4297C68.6115 161.301 68.9145 160.898 69.3388 160.602C69.763 160.307 70.2706 160.159 70.8615 160.159C71.46 160.159 71.9695 160.309 72.3899 160.608C72.8104 160.903 73.0907 161.305 73.2308 161.812H73.3217C73.4998 161.312 73.8217 160.913 74.2876 160.614C74.7573 160.311 75.3123 160.159 75.9524 160.159C76.7668 160.159 77.4278 160.419 77.9354 160.938C78.4467 161.453 78.7024 162.184 78.7024 163.131V169H76.2876V163.608C76.2876 163.123 76.1589 162.759 75.9013 162.517C75.6437 162.275 75.3217 162.153 74.9354 162.153C74.496 162.153 74.1532 162.294 73.907 162.574C73.6607 162.85 73.5376 163.216 73.5376 163.67V169H71.1911V163.557C71.1911 163.129 71.0679 162.788 70.8217 162.534C70.5793 162.28 70.2592 162.153 69.8615 162.153C69.5926 162.153 69.3501 162.222 69.1342 162.358C68.9221 162.491 68.7536 162.678 68.6286 162.92C68.5036 163.159 68.4411 163.439 68.4411 163.761V169H66.0206ZM80.6143 169V160.273H83.0348V169H80.6143ZM81.8303 159.148C81.4704 159.148 81.1617 159.028 80.9041 158.79C80.6503 158.547 80.5234 158.258 80.5234 157.92C80.5234 157.587 80.6503 157.301 80.9041 157.062C81.1617 156.82 81.4704 156.699 81.8303 156.699C82.1901 156.699 82.4969 156.82 82.7507 157.062C83.0083 157.301 83.1371 157.587 83.1371 157.92C83.1371 158.258 83.0083 158.547 82.7507 158.79C82.4969 159.028 82.1901 159.148 81.8303 159.148ZM88.9169 169.17C88.023 169.17 87.254 168.981 86.6101 168.602C85.9699 168.22 85.4775 167.689 85.1328 167.011C84.7919 166.333 84.6214 165.553 84.6214 164.67C84.6214 163.777 84.7938 162.992 85.1385 162.318C85.487 161.64 85.9813 161.112 86.6214 160.733C87.2616 160.35 88.023 160.159 88.9055 160.159C89.6669 160.159 90.3336 160.297 90.9055 160.574C91.4775 160.85 91.9302 161.239 92.2635 161.739C92.5968 162.239 92.7805 162.826 92.8146 163.5H90.5305C90.4661 163.064 90.2957 162.714 90.0192 162.449C89.7464 162.18 89.3885 162.045 88.9453 162.045C88.5703 162.045 88.2427 162.148 87.9624 162.352C87.6858 162.553 87.4699 162.847 87.3146 163.233C87.1593 163.619 87.0817 164.087 87.0817 164.636C87.0817 165.193 87.1574 165.667 87.3089 166.057C87.4643 166.447 87.6821 166.744 87.9624 166.949C88.2427 167.153 88.5703 167.256 88.9453 167.256C89.2218 167.256 89.4699 167.199 89.6896 167.085C89.9131 166.972 90.0968 166.807 90.2408 166.591C90.3885 166.371 90.4851 166.108 90.5305 165.801H92.8146C92.7768 166.468 92.5949 167.055 92.2692 167.562C91.9472 168.066 91.5021 168.46 90.9339 168.744C90.3658 169.028 89.6934 169.17 88.9169 169.17ZM96.853 169.165C96.2962 169.165 95.8 169.068 95.3643 168.875C94.9287 168.678 94.584 168.388 94.3303 168.006C94.0803 167.619 93.9553 167.138 93.9553 166.562C93.9553 166.078 94.0443 165.67 94.2223 165.341C94.4003 165.011 94.6428 164.746 94.9496 164.545C95.2564 164.345 95.6049 164.193 95.995 164.091C96.389 163.989 96.8018 163.917 97.2337 163.875C97.7412 163.822 98.1503 163.773 98.4609 163.727C98.7715 163.678 98.9969 163.606 99.1371 163.511C99.2772 163.417 99.3473 163.277 99.3473 163.091V163.057C99.3473 162.697 99.2337 162.419 99.0064 162.222C98.7829 162.025 98.4647 161.926 98.0518 161.926C97.6162 161.926 97.2696 162.023 97.0121 162.216C96.7545 162.405 96.584 162.644 96.5007 162.932L94.2621 162.75C94.3757 162.22 94.5992 161.761 94.9325 161.375C95.2659 160.985 95.6958 160.686 96.2223 160.477C96.7526 160.265 97.3662 160.159 98.0632 160.159C98.5481 160.159 99.0121 160.216 99.4553 160.33C99.9022 160.443 100.298 160.619 100.643 160.858C100.991 161.097 101.266 161.403 101.467 161.778C101.667 162.15 101.768 162.595 101.768 163.114V169H99.4723V167.79H99.4041C99.264 168.062 99.0765 168.303 98.8416 168.511C98.6068 168.716 98.3246 168.877 97.995 168.994C97.6655 169.108 97.2848 169.165 96.853 169.165ZM97.5462 167.494C97.9022 167.494 98.2166 167.424 98.4893 167.284C98.7621 167.14 98.9761 166.947 99.1314 166.705C99.2867 166.462 99.3643 166.187 99.3643 165.881V164.955C99.2886 165.004 99.1844 165.049 99.0518 165.091C98.9231 165.129 98.7772 165.165 98.6143 165.199C98.4515 165.229 98.2886 165.258 98.1257 165.284C97.9628 165.307 97.8151 165.328 97.6825 165.347C97.3984 165.388 97.1503 165.455 96.9382 165.545C96.7261 165.636 96.5613 165.759 96.4439 165.915C96.3265 166.066 96.2678 166.256 96.2678 166.483C96.2678 166.812 96.3871 167.064 96.6257 167.239C96.8681 167.409 97.175 167.494 97.5462 167.494ZM106.066 157.364V169H103.646V157.364H106.066ZM118.066 160.71C118.021 160.252 117.826 159.896 117.481 159.642C117.136 159.388 116.668 159.261 116.077 159.261C115.676 159.261 115.337 159.318 115.06 159.432C114.784 159.542 114.572 159.695 114.424 159.892C114.28 160.089 114.208 160.312 114.208 160.562C114.201 160.771 114.244 160.953 114.339 161.108C114.437 161.263 114.572 161.398 114.742 161.511C114.913 161.621 115.11 161.718 115.333 161.801C115.557 161.881 115.795 161.949 116.049 162.006L117.094 162.256C117.602 162.369 118.068 162.521 118.492 162.71C118.916 162.9 119.284 163.133 119.594 163.409C119.905 163.686 120.146 164.011 120.316 164.386C120.49 164.761 120.579 165.191 120.583 165.676C120.579 166.388 120.397 167.006 120.038 167.528C119.682 168.047 119.166 168.451 118.492 168.739C117.822 169.023 117.013 169.165 116.066 169.165C115.127 169.165 114.308 169.021 113.612 168.733C112.918 168.445 112.377 168.019 111.987 167.455C111.6 166.886 111.397 166.184 111.379 165.347H113.759C113.786 165.737 113.897 166.062 114.094 166.324C114.295 166.581 114.562 166.777 114.896 166.909C115.233 167.038 115.613 167.102 116.038 167.102C116.454 167.102 116.816 167.042 117.123 166.92C117.433 166.799 117.674 166.631 117.844 166.415C118.015 166.199 118.1 165.951 118.1 165.67C118.1 165.409 118.022 165.189 117.867 165.011C117.716 164.833 117.492 164.682 117.197 164.557C116.905 164.432 116.547 164.318 116.123 164.216L114.856 163.898C113.875 163.659 113.1 163.286 112.532 162.778C111.964 162.271 111.682 161.587 111.685 160.727C111.682 160.023 111.869 159.407 112.248 158.881C112.63 158.354 113.155 157.943 113.822 157.648C114.488 157.352 115.246 157.205 116.094 157.205C116.958 157.205 117.712 157.352 118.356 157.648C119.004 157.943 119.507 158.354 119.867 158.881C120.227 159.407 120.413 160.017 120.424 160.71H118.066ZM127.789 165.284V160.273H130.21V169H127.886V167.415H127.795C127.598 167.926 127.27 168.337 126.812 168.648C126.357 168.958 125.802 169.114 125.147 169.114C124.564 169.114 124.05 168.981 123.607 168.716C123.164 168.451 122.817 168.074 122.567 167.585C122.321 167.097 122.196 166.511 122.192 165.83V160.273H124.613V165.398C124.617 165.913 124.755 166.32 125.028 166.619C125.3 166.919 125.666 167.068 126.124 167.068C126.416 167.068 126.689 167.002 126.942 166.869C127.196 166.733 127.401 166.532 127.556 166.267C127.715 166.002 127.793 165.674 127.789 165.284ZM132.191 169V157.364H134.612V161.739H134.685C134.791 161.504 134.945 161.265 135.146 161.023C135.35 160.777 135.615 160.572 135.941 160.409C136.271 160.242 136.68 160.159 137.168 160.159C137.805 160.159 138.392 160.326 138.93 160.659C139.468 160.989 139.897 161.487 140.219 162.153C140.541 162.816 140.702 163.648 140.702 164.648C140.702 165.621 140.545 166.443 140.231 167.114C139.92 167.78 139.496 168.286 138.958 168.631C138.424 168.972 137.826 169.142 137.163 169.142C136.693 169.142 136.293 169.064 135.964 168.909C135.638 168.754 135.371 168.559 135.163 168.324C134.954 168.085 134.795 167.845 134.685 167.602H134.577V169H132.191ZM134.56 164.636C134.56 165.155 134.632 165.608 134.776 165.994C134.92 166.381 135.129 166.682 135.401 166.898C135.674 167.11 136.005 167.216 136.396 167.216C136.79 167.216 137.123 167.108 137.396 166.892C137.668 166.672 137.875 166.369 138.015 165.983C138.159 165.593 138.231 165.144 138.231 164.636C138.231 164.133 138.161 163.689 138.021 163.307C137.88 162.924 137.674 162.625 137.401 162.409C137.129 162.193 136.793 162.085 136.396 162.085C136.002 162.085 135.668 162.189 135.396 162.398C135.127 162.606 134.92 162.902 134.776 163.284C134.632 163.667 134.56 164.117 134.56 164.636ZM149.579 162.761L147.363 162.898C147.325 162.708 147.244 162.538 147.119 162.386C146.994 162.231 146.829 162.108 146.624 162.017C146.424 161.922 146.183 161.875 145.903 161.875C145.528 161.875 145.211 161.955 144.954 162.114C144.696 162.269 144.567 162.477 144.567 162.739C144.567 162.947 144.651 163.123 144.817 163.267C144.984 163.411 145.27 163.527 145.675 163.614L147.255 163.932C148.103 164.106 148.736 164.386 149.153 164.773C149.569 165.159 149.778 165.667 149.778 166.295C149.778 166.867 149.609 167.369 149.272 167.801C148.939 168.233 148.48 168.57 147.897 168.812C147.317 169.051 146.649 169.17 145.891 169.17C144.736 169.17 143.816 168.93 143.13 168.449C142.448 167.964 142.049 167.305 141.931 166.472L144.312 166.347C144.384 166.699 144.558 166.968 144.835 167.153C145.111 167.335 145.465 167.426 145.897 167.426C146.321 167.426 146.662 167.345 146.92 167.182C147.181 167.015 147.314 166.801 147.317 166.54C147.314 166.32 147.221 166.14 147.039 166C146.857 165.856 146.577 165.746 146.198 165.67L144.687 165.369C143.835 165.199 143.2 164.903 142.783 164.483C142.371 164.062 142.164 163.527 142.164 162.875C142.164 162.314 142.316 161.831 142.619 161.426C142.925 161.021 143.355 160.708 143.908 160.489C144.465 160.269 145.117 160.159 145.863 160.159C146.965 160.159 147.833 160.392 148.465 160.858C149.102 161.324 149.473 161.958 149.579 162.761ZM155.944 160.273V162.091H150.688V160.273H155.944ZM151.881 158.182H154.302V166.318C154.302 166.542 154.336 166.716 154.404 166.841C154.472 166.962 154.567 167.047 154.688 167.097C154.813 167.146 154.957 167.17 155.12 167.17C155.234 167.17 155.347 167.161 155.461 167.142C155.575 167.119 155.662 167.102 155.722 167.091L156.103 168.892C155.982 168.93 155.811 168.973 155.592 169.023C155.372 169.076 155.105 169.108 154.79 169.119C154.207 169.142 153.696 169.064 153.256 168.886C152.821 168.708 152.482 168.432 152.239 168.057C151.997 167.682 151.878 167.208 151.881 166.636V158.182ZM160.009 169.165C159.452 169.165 158.956 169.068 158.521 168.875C158.085 168.678 157.74 168.388 157.487 168.006C157.237 167.619 157.112 167.138 157.112 166.562C157.112 166.078 157.201 165.67 157.379 165.341C157.557 165.011 157.799 164.746 158.106 164.545C158.413 164.345 158.761 164.193 159.151 164.091C159.545 163.989 159.958 163.917 160.39 163.875C160.897 163.822 161.307 163.773 161.617 163.727C161.928 163.678 162.153 163.606 162.293 163.511C162.433 163.417 162.504 163.277 162.504 163.091V163.057C162.504 162.697 162.39 162.419 162.163 162.222C161.939 162.025 161.621 161.926 161.208 161.926C160.772 161.926 160.426 162.023 160.168 162.216C159.911 162.405 159.74 162.644 159.657 162.932L157.418 162.75C157.532 162.22 157.755 161.761 158.089 161.375C158.422 160.985 158.852 160.686 159.379 160.477C159.909 160.265 160.522 160.159 161.219 160.159C161.704 160.159 162.168 160.216 162.612 160.33C163.058 160.443 163.454 160.619 163.799 160.858C164.147 161.097 164.422 161.403 164.623 161.778C164.824 162.15 164.924 162.595 164.924 163.114V169H162.629V167.79H162.56C162.42 168.062 162.233 168.303 161.998 168.511C161.763 168.716 161.481 168.877 161.151 168.994C160.822 169.108 160.441 169.165 160.009 169.165ZM160.702 167.494C161.058 167.494 161.373 167.424 161.646 167.284C161.918 167.14 162.132 166.947 162.288 166.705C162.443 166.462 162.521 166.187 162.521 165.881V164.955C162.445 165.004 162.341 165.049 162.208 165.091C162.079 165.129 161.933 165.165 161.771 165.199C161.608 165.229 161.445 165.258 161.282 165.284C161.119 165.307 160.971 165.328 160.839 165.347C160.555 165.388 160.307 165.455 160.094 165.545C159.882 165.636 159.718 165.759 159.6 165.915C159.483 166.066 159.424 166.256 159.424 166.483C159.424 166.812 159.543 167.064 159.782 167.239C160.024 167.409 160.331 167.494 160.702 167.494ZM169.222 163.955V169H166.802V160.273H169.109V161.812H169.211C169.404 161.305 169.728 160.903 170.183 160.608C170.637 160.309 171.188 160.159 171.836 160.159C172.442 160.159 172.97 160.292 173.421 160.557C173.872 160.822 174.222 161.201 174.472 161.693C174.722 162.182 174.847 162.765 174.847 163.443V169H172.427V163.875C172.431 163.341 172.294 162.924 172.018 162.625C171.741 162.322 171.361 162.17 170.876 162.17C170.55 162.17 170.262 162.241 170.012 162.381C169.766 162.521 169.573 162.725 169.433 162.994C169.296 163.259 169.226 163.58 169.222 163.955ZM180.698 169.17C179.804 169.17 179.035 168.981 178.391 168.602C177.751 168.22 177.259 167.689 176.914 167.011C176.573 166.333 176.403 165.553 176.403 164.67C176.403 163.777 176.575 162.992 176.92 162.318C177.268 161.64 177.763 161.112 178.403 160.733C179.043 160.35 179.804 160.159 180.687 160.159C181.448 160.159 182.115 160.297 182.687 160.574C183.259 160.85 183.711 161.239 184.045 161.739C184.378 162.239 184.562 162.826 184.596 163.5H182.312C182.247 163.064 182.077 162.714 181.8 162.449C181.528 162.18 181.17 162.045 180.727 162.045C180.352 162.045 180.024 162.148 179.744 162.352C179.467 162.553 179.251 162.847 179.096 163.233C178.941 163.619 178.863 164.087 178.863 164.636C178.863 165.193 178.939 165.667 179.09 166.057C179.246 166.447 179.463 166.744 179.744 166.949C180.024 167.153 180.352 167.256 180.727 167.256C181.003 167.256 181.251 167.199 181.471 167.085C181.694 166.972 181.878 166.807 182.022 166.591C182.17 166.371 182.266 166.108 182.312 165.801H184.596C184.558 166.468 184.376 167.055 184.05 167.562C183.728 168.066 183.283 168.46 182.715 168.744C182.147 169.028 181.475 169.17 180.698 169.17ZM190.123 169.17C189.225 169.17 188.452 168.989 187.805 168.625C187.161 168.258 186.665 167.739 186.316 167.068C185.968 166.394 185.793 165.597 185.793 164.676C185.793 163.778 185.968 162.991 186.316 162.312C186.665 161.634 187.155 161.106 187.788 160.727C188.424 160.348 189.17 160.159 190.026 160.159C190.602 160.159 191.138 160.252 191.634 160.438C192.134 160.619 192.57 160.894 192.941 161.261C193.316 161.629 193.608 162.091 193.816 162.648C194.024 163.201 194.129 163.848 194.129 164.591V165.256H186.759V163.756H191.85C191.85 163.407 191.774 163.098 191.623 162.83C191.471 162.561 191.261 162.35 190.992 162.199C190.727 162.044 190.418 161.966 190.066 161.966C189.699 161.966 189.373 162.051 189.089 162.222C188.808 162.388 188.589 162.614 188.43 162.898C188.271 163.178 188.189 163.491 188.185 163.835V165.261C188.185 165.693 188.265 166.066 188.424 166.381C188.587 166.695 188.816 166.938 189.112 167.108C189.407 167.278 189.757 167.364 190.163 167.364C190.432 167.364 190.678 167.326 190.901 167.25C191.125 167.174 191.316 167.061 191.475 166.909C191.634 166.758 191.755 166.572 191.839 166.352L194.077 166.5C193.964 167.038 193.731 167.508 193.379 167.909C193.03 168.307 192.579 168.617 192.026 168.841C191.477 169.061 190.843 169.17 190.123 169.17ZM199.457 169V157.364H201.917V162.165H206.911V157.364H209.366V169H206.911V164.193H201.917V169H199.457ZM213.837 169.165C213.281 169.165 212.784 169.068 212.349 168.875C211.913 168.678 211.568 168.388 211.315 168.006C211.065 167.619 210.94 167.138 210.94 166.562C210.94 166.078 211.029 165.67 211.207 165.341C211.385 165.011 211.627 164.746 211.934 164.545C212.241 164.345 212.589 164.193 212.979 164.091C213.373 163.989 213.786 163.917 214.218 163.875C214.726 163.822 215.135 163.773 215.445 163.727C215.756 163.678 215.981 163.606 216.121 163.511C216.262 163.417 216.332 163.277 216.332 163.091V163.057C216.332 162.697 216.218 162.419 215.991 162.222C215.767 162.025 215.449 161.926 215.036 161.926C214.601 161.926 214.254 162.023 213.996 162.216C213.739 162.405 213.568 162.644 213.485 162.932L211.246 162.75C211.36 162.22 211.584 161.761 211.917 161.375C212.25 160.985 212.68 160.686 213.207 160.477C213.737 160.265 214.351 160.159 215.048 160.159C215.532 160.159 215.996 160.216 216.44 160.33C216.887 160.443 217.282 160.619 217.627 160.858C217.976 161.097 218.25 161.403 218.451 161.778C218.652 162.15 218.752 162.595 218.752 163.114V169H216.457V167.79H216.388C216.248 168.062 216.061 168.303 215.826 168.511C215.591 168.716 215.309 168.877 214.979 168.994C214.65 169.108 214.269 169.165 213.837 169.165ZM214.531 167.494C214.887 167.494 215.201 167.424 215.474 167.284C215.746 167.14 215.96 166.947 216.116 166.705C216.271 166.462 216.349 166.187 216.349 165.881V164.955C216.273 165.004 216.169 165.049 216.036 165.091C215.907 165.129 215.762 165.165 215.599 165.199C215.436 165.229 215.273 165.258 215.11 165.284C214.947 165.307 214.799 165.328 214.667 165.347C214.383 165.388 214.135 165.455 213.923 165.545C213.71 165.636 213.546 165.759 213.428 165.915C213.311 166.066 213.252 166.256 213.252 166.483C213.252 166.812 213.371 167.064 213.61 167.239C213.853 167.409 214.159 167.494 214.531 167.494ZM220.63 169V160.273H222.977V161.795H223.067C223.227 161.254 223.494 160.845 223.869 160.568C224.244 160.288 224.675 160.148 225.164 160.148C225.285 160.148 225.416 160.155 225.556 160.17C225.696 160.186 225.819 160.206 225.925 160.233V162.381C225.812 162.347 225.655 162.316 225.454 162.29C225.253 162.263 225.069 162.25 224.903 162.25C224.547 162.25 224.228 162.328 223.948 162.483C223.672 162.634 223.452 162.847 223.289 163.119C223.13 163.392 223.05 163.706 223.05 164.062V169H220.63ZM227.177 169V160.273H229.484V161.812H229.586C229.768 161.301 230.071 160.898 230.495 160.602C230.919 160.307 231.427 160.159 232.018 160.159C232.616 160.159 233.126 160.309 233.546 160.608C233.967 160.903 234.247 161.305 234.387 161.812H234.478C234.656 161.312 234.978 160.913 235.444 160.614C235.914 160.311 236.469 160.159 237.109 160.159C237.923 160.159 238.584 160.419 239.092 160.938C239.603 161.453 239.859 162.184 239.859 163.131V169H237.444V163.608C237.444 163.123 237.315 162.759 237.058 162.517C236.8 162.275 236.478 162.153 236.092 162.153C235.652 162.153 235.309 162.294 235.063 162.574C234.817 162.85 234.694 163.216 234.694 163.67V169H232.347V163.557C232.347 163.129 232.224 162.788 231.978 162.534C231.736 162.28 231.415 162.153 231.018 162.153C230.749 162.153 230.506 162.222 230.29 162.358C230.078 162.491 229.91 162.678 229.785 162.92C229.66 163.159 229.597 163.439 229.597 163.761V169H227.177Z" fill="white"/>
<path d="M123.747 105.061V108.092C123.747 108.223 123.799 108.349 123.892 108.442C123.985 108.535 124.111 108.587 124.242 108.587C124.373 108.587 124.499 108.535 124.591 108.442C124.684 108.349 124.736 108.223 124.736 108.092V105.061H125.155C126.666 105.059 128.116 104.458 129.184 103.389C130.253 102.32 130.854 100.871 130.856 99.3591V98.8801H130.404C128.999 98.8819 127.643 99.4022 126.597 100.341C125.551 101.28 124.889 102.572 124.736 103.969V99.1881H125.155C126.666 99.1863 128.116 98.5851 129.184 97.5162C130.253 96.4473 130.854 94.9981 130.856 93.4865V93.0075H130.404C128.999 93.0093 127.643 93.5296 126.597 94.4686C125.551 95.4077 124.889 96.6995 124.736 98.0968V93.3157H125.155C126.666 93.314 128.116 92.7128 129.184 91.6439C130.253 90.575 130.854 89.1258 130.856 87.6142V87.1352H130.404C128.999 87.137 127.643 87.6573 126.597 88.5963C125.551 89.5354 124.889 90.8272 124.736 92.2245V87.4432H125.155C126.666 87.4415 128.116 86.8403 129.184 85.7714C130.253 84.7025 130.854 83.2533 130.856 81.7417V81.2628H130.404C128.999 81.2646 127.643 81.7848 126.597 82.7239C125.551 83.6629 124.889 84.9548 124.736 86.352V83.5042C125.746 82.4242 126.297 80.994 126.272 79.5155C126.247 78.0371 125.648 76.6262 124.602 75.5809L124.264 75.2422L123.944 75.5618C122.911 76.597 122.315 77.9889 122.279 79.4506C122.242 80.9123 122.768 82.3323 123.747 83.4179V85.9325C123.505 84.6224 122.812 83.4383 121.788 82.5855C120.764 81.7326 119.475 81.2647 118.142 81.2628H117.69V81.7417C117.692 83.2533 118.293 84.7025 119.362 85.7714C120.431 86.8403 121.88 87.4415 123.392 87.4432H123.747V91.8052C123.505 90.495 122.812 89.3109 121.788 88.458C120.765 87.6051 119.475 87.1371 118.142 87.1352H117.69V87.6141C117.692 89.1258 118.293 90.575 119.362 91.6438C120.431 92.7127 121.88 93.3139 123.392 93.3156H123.747V97.6777C123.505 96.3675 122.812 95.1834 121.788 94.3305C120.765 93.4776 119.475 93.0096 118.142 93.0077H117.69V93.4867C117.692 94.9983 118.293 96.4474 119.362 97.5163C120.431 98.5851 121.88 99.1863 123.392 99.1881H123.747V103.55C123.505 102.24 122.812 101.056 121.788 100.203C120.765 99.3501 119.475 98.8821 118.142 98.8801H117.69V99.3591C117.692 100.871 118.293 102.32 119.362 103.389C120.431 104.458 121.88 105.059 123.392 105.061H123.747Z" fill="url(#paint0_linear_2065_4)"/>
<path d="M145.597 90.5313C144.479 91.0925 143.579 92.0086 143.037 93.136L143.887 90.5508C145.176 89.8365 146.138 88.6503 146.572 87.2414C147.005 85.8325 146.876 84.3105 146.211 82.9949L145.995 82.5674L145.592 82.7712C144.282 83.4326 143.278 84.5735 142.788 85.9565C142.298 87.3395 142.361 88.8581 142.962 90.1964L142.151 92.6637C142.356 91.3293 142.082 89.9652 141.377 88.8138C140.672 87.6624 139.582 86.7982 138.3 86.3746L137.87 86.2335L137.721 86.6885C137.25 88.125 137.369 89.6895 138.05 91.0388C138.732 92.388 139.921 93.4118 141.356 93.8855L141.711 94.0021L140.32 98.2328C140.525 96.8993 140.25 95.5364 139.544 94.3865C138.838 93.2367 137.748 92.3745 136.466 91.9533L136.037 91.8122L135.887 92.2672C135.417 93.7037 135.535 95.2682 136.217 96.6175C136.898 97.9667 138.087 98.9905 139.523 99.4642L139.877 99.5808L138.486 103.811C138.691 102.478 138.416 101.115 137.71 99.9649C137.004 98.815 135.914 97.9528 134.632 97.5317L134.203 97.3905L134.053 97.8455C133.583 99.2821 133.701 100.847 134.383 102.196C135.064 103.545 136.253 104.569 137.689 105.043L138.043 105.159L136.652 109.39C136.857 108.056 136.582 106.694 135.876 105.544C135.17 104.394 134.08 103.532 132.798 103.111L132.369 102.97L132.219 103.425C131.749 104.861 131.867 106.426 132.549 107.775C133.23 109.124 134.419 110.148 135.855 110.622L136.209 110.738L135.267 113.603C135.226 113.727 135.237 113.863 135.296 113.98C135.355 114.097 135.458 114.186 135.583 114.227C135.707 114.268 135.843 114.258 135.96 114.199C136.077 114.139 136.166 114.036 136.207 113.912L137.149 111.047L137.529 111.172C138.966 111.644 140.531 111.527 141.881 110.845C143.231 110.163 144.254 108.973 144.726 107.536L144.876 107.082L144.447 106.94C143.135 106.509 141.711 106.568 140.44 107.108C139.169 107.647 138.136 108.629 137.535 109.872L138.983 105.468L139.363 105.593C140.8 106.066 142.365 105.948 143.715 105.266C145.065 104.584 146.088 103.394 146.56 101.957L146.71 101.502L146.28 101.361C144.969 100.93 143.545 100.989 142.274 101.528C141.002 102.068 139.97 103.05 139.369 104.293L140.816 99.889L141.197 100.014C142.634 100.486 144.199 100.369 145.549 99.687C146.898 99.0053 147.922 97.8153 148.394 96.3788L148.544 95.9238L148.115 95.7827C146.803 95.3513 145.379 95.4108 144.108 95.9501C142.837 96.4894 141.804 97.4718 141.203 98.7147L142.651 94.3106L143.031 94.4359C144.468 94.9082 146.033 94.7905 147.383 94.1087C148.732 93.4269 149.756 92.2369 150.228 90.8005L150.378 90.3455L149.949 90.2043C149.238 89.9684 148.487 89.8758 147.74 89.9319C146.993 89.988 146.265 90.1917 145.597 90.5313Z" fill="url(#paint1_linear_2065_4)"/>
<path d="M103.025 90.5313C104.143 91.0925 105.044 92.0086 105.586 93.136L104.736 90.5508C103.446 89.8365 102.484 88.6503 102.05 87.2414C101.617 85.8325 101.746 84.3105 102.411 82.9949L102.627 82.5674L103.03 82.7712C104.34 83.4326 105.344 84.5735 105.834 85.9565C106.324 87.3395 106.262 88.8581 105.66 90.1964L106.471 92.6637C106.266 91.3293 106.54 89.9652 107.245 88.8138C107.95 87.6624 109.041 86.7982 110.322 86.3746L110.752 86.2335L110.901 86.6885C111.372 88.125 111.253 89.6895 110.572 91.0388C109.89 92.388 108.701 93.4118 107.266 93.8855L106.911 94.0021L108.302 98.2328C108.097 96.8993 108.372 95.5364 109.078 94.3865C109.784 93.2367 110.874 92.3745 112.156 91.9533L112.586 91.8122L112.735 92.2672C113.206 93.7037 113.087 95.2682 112.406 96.6175C111.724 97.9667 110.535 98.9905 109.1 99.4642L108.745 99.5808L110.136 103.811C109.931 102.478 110.206 101.115 110.912 99.9649C111.618 98.815 112.708 97.9528 113.99 97.5317L114.42 97.3905L114.569 97.8455C115.04 99.2821 114.921 100.847 114.24 102.196C113.558 103.545 112.369 104.569 110.934 105.043L110.579 105.159L111.97 109.39C111.766 108.056 112.041 106.694 112.746 105.544C113.452 104.394 114.542 103.532 115.824 103.111L116.253 102.97L116.403 103.425C116.873 104.861 116.755 106.426 116.073 107.775C115.392 109.124 114.203 110.148 112.767 110.622L112.413 110.738L113.355 113.603C113.396 113.727 113.386 113.863 113.326 113.98C113.267 114.097 113.164 114.186 113.04 114.227C112.915 114.268 112.779 114.258 112.662 114.199C112.545 114.139 112.456 114.036 112.415 113.912L111.474 111.047L111.093 111.172C109.656 111.644 108.091 111.527 106.741 110.845C105.392 110.163 104.368 108.973 103.896 107.536L103.746 107.082L104.176 106.94C105.487 106.509 106.911 106.568 108.182 107.108C109.454 107.647 110.486 108.629 111.087 109.872L109.64 105.468L109.259 105.593C107.822 106.066 106.257 105.948 104.907 105.266C103.558 104.584 102.534 103.394 102.062 101.957L101.912 101.502L102.342 101.361C103.653 100.93 105.077 100.989 106.349 101.528C107.62 102.068 108.652 103.05 109.254 104.293L107.806 99.889L107.425 100.014C105.988 100.486 104.423 100.369 103.073 99.687C101.724 99.0053 100.7 97.8153 100.228 96.3788L100.078 95.9238L100.508 95.7827C101.819 95.3513 103.243 95.4108 104.514 95.9501C105.786 96.4894 106.818 97.4718 107.419 98.7147L105.972 94.3106L105.591 94.4359C104.154 94.9082 102.589 94.7905 101.239 94.1087C99.8897 93.4269 98.8661 92.2369 98.3938 90.8005L98.2442 90.3455L98.6736 90.2043C99.3845 89.9684 100.135 89.8758 100.882 89.9319C101.629 89.988 102.357 90.1917 103.025 90.5313Z" fill="url(#paint2_linear_2065_4)"/>
<path d="M142.409 130.21H106.363C102.286 130.361 98.3148 128.898 95.3112 126.138C92.3076 123.378 90.5145 119.544 90.3215 115.469V96.1458C90.3215 95.3245 90.6478 94.5368 91.2286 93.9561C91.8093 93.3753 92.597 93.0491 93.4183 93.0491C94.2396 93.0491 95.0272 93.3753 95.608 93.9561C96.1887 94.5368 96.515 95.3245 96.515 96.1458V115.469C96.7053 117.902 97.8449 120.162 99.6874 121.761C101.53 123.36 103.928 124.17 106.363 124.016H142.409C144.843 124.17 147.241 123.36 149.084 121.761C150.926 120.162 152.066 117.902 152.256 115.469V96.1458C152.256 95.3245 152.582 94.5368 153.163 93.9561C153.744 93.3753 154.532 93.0491 155.353 93.0491C156.174 93.0491 156.962 93.3753 157.543 93.9561C158.123 94.5368 158.45 95.3245 158.45 96.1458V115.469C158.257 119.544 156.464 123.378 153.46 126.138C150.456 128.898 146.485 130.361 142.409 130.21ZM166.842 89.0543C167.132 88.7664 167.362 88.4239 167.52 88.0465C167.677 87.6692 167.758 87.2644 167.758 86.8556C167.758 86.4468 167.677 86.042 167.52 85.6647C167.362 85.2873 167.132 84.9448 166.842 84.6569L126.584 44.3994C126.296 44.1092 125.954 43.8788 125.577 43.7216C125.199 43.5643 124.794 43.4834 124.386 43.4834C123.977 43.4834 123.572 43.5643 123.195 43.7216C122.817 43.8788 122.475 44.1092 122.187 44.3994L81.9294 84.6569C81.3463 85.24 81.0187 86.0309 81.0187 86.8556C81.0187 87.6803 81.3463 88.4712 81.9294 89.0543C82.5125 89.6374 83.3034 89.965 84.1281 89.965C84.9527 89.965 85.7436 89.6374 86.3268 89.0543L124.386 50.9645L162.444 89.0543C162.732 89.3445 163.075 89.5749 163.452 89.7321C163.83 89.8893 164.234 89.9703 164.643 89.9703C165.052 89.9703 165.457 89.8893 165.834 89.7321C166.211 89.5749 166.554 89.3445 166.842 89.0543Z" fill="url(#paint3_linear_2065_4)"/>
<defs>
<linearGradient id="paint0_linear_2065_4" x1="117.69" y1="91.9105" x2="130.856" y2="91.9105" gradientUnits="userSpaceOnUse">
<stop stop-color="#B57E10"/>
<stop offset="0.09" stop-color="#E5C35C"/>
<stop offset="0.14" stop-color="#F9DF7B"/>
<stop offset="0.26" stop-color="#FFF3A6"/>
<stop offset="0.36" stop-color="#F9DF7B"/>
<stop offset="0.49" stop-color="#B57E10"/>
<stop offset="0.57" stop-color="#E5C35C"/>
<stop offset="0.61" stop-color="#F9DF7B"/>
<stop offset="0.72" stop-color="#FFF3A6"/>
<stop offset="0.84" stop-color="#F9DF7B"/>
<stop offset="1" stop-color="#B57E10"/>
</linearGradient>
<linearGradient id="paint1_linear_2065_4" x1="131.936" y1="98.4057" x2="150.378" y2="98.4057" gradientUnits="userSpaceOnUse">
<stop stop-color="#B57E10"/>
<stop offset="0.09" stop-color="#E5C35C"/>
<stop offset="0.14" stop-color="#F9DF7B"/>
<stop offset="0.26" stop-color="#FFF3A6"/>
<stop offset="0.36" stop-color="#F9DF7B"/>
<stop offset="0.49" stop-color="#B57E10"/>
<stop offset="0.57" stop-color="#E5C35C"/>
<stop offset="0.61" stop-color="#F9DF7B"/>
<stop offset="0.72" stop-color="#FFF3A6"/>
<stop offset="0.84" stop-color="#F9DF7B"/>
<stop offset="1" stop-color="#B57E10"/>
</linearGradient>
<linearGradient id="paint2_linear_2065_4" x1="116.687" y1="98.4057" x2="98.2442" y2="98.4057" gradientUnits="userSpaceOnUse">
<stop stop-color="#B57E10"/>
<stop offset="0.09" stop-color="#E5C35C"/>
<stop offset="0.14" stop-color="#F9DF7B"/>
<stop offset="0.26" stop-color="#FFF3A6"/>
<stop offset="0.36" stop-color="#F9DF7B"/>
<stop offset="0.49" stop-color="#B57E10"/>
<stop offset="0.57" stop-color="#E5C35C"/>
<stop offset="0.61" stop-color="#F9DF7B"/>
<stop offset="0.72" stop-color="#FFF3A6"/>
<stop offset="0.84" stop-color="#F9DF7B"/>
<stop offset="1" stop-color="#B57E10"/>
</linearGradient>
<linearGradient id="paint3_linear_2065_4" x1="81.0187" y1="86.8415" x2="167.758" y2="86.8415" gradientUnits="userSpaceOnUse">
<stop stop-color="#B57E10"/>
<stop offset="0.09" stop-color="#E5C35C"/>
<stop offset="0.14" stop-color="#F9DF7B"/>
<stop offset="0.26" stop-color="#FFF3A6"/>
<stop offset="0.36" stop-color="#F9DF7B"/>
<stop offset="0.49" stop-color="#B57E10"/>
<stop offset="0.57" stop-color="#E5C35C"/>
<stop offset="0.61" stop-color="#F9DF7B"/>
<stop offset="0.72" stop-color="#FFF3A6"/>
<stop offset="0.84" stop-color="#F9DF7B"/>
<stop offset="1" stop-color="#B57E10"/>
</linearGradient>
</defs>
</svg>
