<svg width="250" height="250" viewBox="0 0 250 250" fill="none" xmlns="http://www.w3.org/2000/svg">
<circle cx="124.822" cy="124.822" r="124.822" fill="#349440"/>
<path d="M89.9899 173.822H87.3536L91.3706 162.186H94.5411L98.5524 173.822H95.9161L93.0013 164.845H92.9104L89.9899 173.822ZM89.8252 169.248H96.0524V171.169H89.8252V169.248ZM104.444 165.095V166.913H99.0581V165.095H104.444ZM100.291 173.822V164.464C100.291 163.832 100.414 163.307 100.66 162.89C100.91 162.474 101.251 162.161 101.683 161.953C102.115 161.745 102.605 161.64 103.155 161.64C103.526 161.64 103.865 161.669 104.172 161.726C104.482 161.782 104.713 161.834 104.865 161.879L104.433 163.697C104.338 163.667 104.221 163.639 104.081 163.612C103.944 163.586 103.804 163.572 103.66 163.572C103.304 163.572 103.056 163.656 102.916 163.822C102.776 163.985 102.706 164.214 102.706 164.51V173.822H100.291ZM110.616 165.095V166.913H105.23V165.095H110.616ZM106.463 173.822V164.464C106.463 163.832 106.586 163.307 106.832 162.89C107.082 162.474 107.423 162.161 107.855 161.953C108.287 161.745 108.777 161.64 109.327 161.64C109.698 161.64 110.037 161.669 110.344 161.726C110.654 161.782 110.885 161.834 111.037 161.879L110.605 163.697C110.51 163.667 110.393 163.639 110.253 163.612C110.116 163.586 109.976 163.572 109.832 163.572C109.476 163.572 109.228 163.656 109.088 163.822C108.948 163.985 108.878 164.214 108.878 164.51V173.822H106.463ZM115.726 173.993C114.843 173.993 114.08 173.805 113.436 173.43C112.796 173.051 112.301 172.525 111.953 171.851C111.605 171.173 111.43 170.387 111.43 169.493C111.43 168.591 111.605 167.803 111.953 167.129C112.301 166.451 112.796 165.925 113.436 165.55C114.08 165.171 114.843 164.981 115.726 164.981C116.608 164.981 117.37 165.171 118.01 165.55C118.654 165.925 119.15 166.451 119.498 167.129C119.847 167.803 120.021 168.591 120.021 169.493C120.021 170.387 119.847 171.173 119.498 171.851C119.15 172.525 118.654 173.051 118.01 173.43C117.37 173.805 116.608 173.993 115.726 173.993ZM115.737 172.118C116.139 172.118 116.474 172.004 116.743 171.777C117.012 171.546 117.214 171.231 117.351 170.834C117.491 170.436 117.561 169.983 117.561 169.476C117.561 168.968 117.491 168.515 117.351 168.118C117.214 167.72 117.012 167.406 116.743 167.175C116.474 166.943 116.139 166.828 115.737 166.828C115.332 166.828 114.991 166.943 114.714 167.175C114.442 167.406 114.235 167.72 114.095 168.118C113.959 168.515 113.891 168.968 113.891 169.476C113.891 169.983 113.959 170.436 114.095 170.834C114.235 171.231 114.442 171.546 114.714 171.777C114.991 172.004 115.332 172.118 115.737 172.118ZM121.595 173.822V165.095H123.942V166.618H124.033C124.192 166.076 124.459 165.667 124.834 165.39C125.209 165.11 125.641 164.97 126.129 164.97C126.25 164.97 126.381 164.978 126.521 164.993C126.661 165.008 126.784 165.029 126.891 165.055V167.203C126.777 167.169 126.62 167.139 126.419 167.112C126.218 167.086 126.034 167.072 125.868 167.072C125.512 167.072 125.194 167.15 124.913 167.305C124.637 167.457 124.417 167.669 124.254 167.942C124.095 168.214 124.016 168.529 124.016 168.885V173.822H121.595ZM130.952 173.964C130.289 173.964 129.688 173.794 129.15 173.453C128.616 173.108 128.192 172.603 127.878 171.936C127.567 171.265 127.412 170.443 127.412 169.47C127.412 168.47 127.573 167.639 127.895 166.976C128.217 166.309 128.645 165.811 129.179 165.481C129.717 165.148 130.306 164.981 130.946 164.981C131.435 164.981 131.842 165.065 132.168 165.231C132.497 165.394 132.762 165.599 132.963 165.845C133.168 166.087 133.323 166.326 133.429 166.561H133.503V162.186H135.918V173.822H133.531V172.425H133.429C133.315 172.667 133.154 172.907 132.946 173.146C132.741 173.381 132.474 173.576 132.145 173.731C131.819 173.887 131.421 173.964 130.952 173.964ZM131.719 172.038C132.109 172.038 132.438 171.932 132.707 171.72C132.98 171.504 133.188 171.203 133.332 170.817C133.48 170.43 133.554 169.978 133.554 169.459C133.554 168.94 133.482 168.489 133.338 168.106C133.194 167.724 132.986 167.428 132.713 167.22C132.44 167.012 132.109 166.907 131.719 166.907C131.321 166.907 130.986 167.015 130.713 167.231C130.44 167.447 130.234 167.747 130.094 168.129C129.953 168.512 129.883 168.955 129.883 169.459C129.883 169.966 129.953 170.415 130.094 170.805C130.238 171.192 130.444 171.495 130.713 171.714C130.986 171.93 131.321 172.038 131.719 172.038ZM140.396 173.987C139.839 173.987 139.343 173.89 138.908 173.697C138.472 173.5 138.127 173.211 137.873 172.828C137.623 172.442 137.498 171.961 137.498 171.385C137.498 170.9 137.587 170.493 137.766 170.163C137.944 169.834 138.186 169.568 138.493 169.368C138.8 169.167 139.148 169.015 139.538 168.913C139.932 168.811 140.345 168.739 140.777 168.697C141.284 168.644 141.694 168.595 142.004 168.55C142.315 168.5 142.54 168.428 142.68 168.334C142.82 168.239 142.891 168.099 142.891 167.913V167.879C142.891 167.519 142.777 167.241 142.55 167.044C142.326 166.847 142.008 166.748 141.595 166.748C141.159 166.748 140.813 166.845 140.555 167.038C140.298 167.228 140.127 167.466 140.044 167.754L137.805 167.572C137.919 167.042 138.142 166.584 138.476 166.197C138.809 165.807 139.239 165.508 139.766 165.3C140.296 165.087 140.909 164.981 141.606 164.981C142.091 164.981 142.555 165.038 142.998 165.152C143.445 165.265 143.841 165.442 144.186 165.68C144.534 165.919 144.809 166.226 145.01 166.601C145.211 166.972 145.311 167.417 145.311 167.936V173.822H143.016V172.612H142.947C142.807 172.885 142.62 173.125 142.385 173.334C142.15 173.538 141.868 173.699 141.538 173.817C141.209 173.93 140.828 173.987 140.396 173.987ZM141.089 172.317C141.445 172.317 141.76 172.247 142.033 172.106C142.305 171.962 142.519 171.769 142.675 171.527C142.83 171.284 142.908 171.01 142.908 170.703V169.777C142.832 169.826 142.728 169.872 142.595 169.913C142.466 169.951 142.32 169.987 142.158 170.021C141.995 170.051 141.832 170.08 141.669 170.106C141.506 170.129 141.358 170.15 141.226 170.169C140.942 170.211 140.694 170.277 140.481 170.368C140.269 170.459 140.105 170.582 139.987 170.737C139.87 170.889 139.811 171.078 139.811 171.305C139.811 171.635 139.93 171.887 140.169 172.061C140.411 172.231 140.718 172.317 141.089 172.317ZM147.234 173.822V162.186H149.655V166.561H149.729C149.835 166.326 149.988 166.087 150.189 165.845C150.393 165.599 150.659 165.394 150.984 165.231C151.314 165.065 151.723 164.981 152.212 164.981C152.848 164.981 153.435 165.148 153.973 165.481C154.511 165.811 154.941 166.309 155.263 166.976C155.585 167.639 155.746 168.47 155.746 169.47C155.746 170.443 155.588 171.265 155.274 171.936C154.963 172.603 154.539 173.108 154.001 173.453C153.467 173.794 152.869 173.964 152.206 173.964C151.736 173.964 151.337 173.887 151.007 173.731C150.681 173.576 150.414 173.381 150.206 173.146C149.998 172.907 149.838 172.667 149.729 172.425H149.621V173.822H147.234ZM149.604 169.459C149.604 169.978 149.676 170.43 149.819 170.817C149.963 171.203 150.172 171.504 150.444 171.72C150.717 171.932 151.049 172.038 151.439 172.038C151.833 172.038 152.166 171.93 152.439 171.714C152.712 171.495 152.918 171.192 153.058 170.805C153.202 170.415 153.274 169.966 153.274 169.459C153.274 168.955 153.204 168.512 153.064 168.129C152.924 167.747 152.717 167.447 152.444 167.231C152.172 167.015 151.837 166.907 151.439 166.907C151.045 166.907 150.712 167.012 150.439 167.22C150.17 167.428 149.963 167.724 149.819 168.106C149.676 168.489 149.604 168.94 149.604 169.459ZM159.781 162.186V173.822H157.361V162.186H159.781ZM165.697 173.993C164.8 173.993 164.027 173.811 163.379 173.447C162.735 173.08 162.239 172.561 161.891 171.89C161.542 171.216 161.368 170.419 161.368 169.498C161.368 168.601 161.542 167.813 161.891 167.135C162.239 166.457 162.73 165.928 163.362 165.55C163.998 165.171 164.745 164.981 165.601 164.981C166.176 164.981 166.712 165.074 167.209 165.26C167.709 165.442 168.144 165.716 168.516 166.084C168.891 166.451 169.182 166.913 169.391 167.47C169.599 168.023 169.703 168.671 169.703 169.413V170.078H162.334V168.578H167.425C167.425 168.229 167.349 167.921 167.197 167.652C167.046 167.383 166.836 167.173 166.567 167.021C166.301 166.866 165.993 166.788 165.641 166.788C165.273 166.788 164.947 166.873 164.663 167.044C164.383 167.211 164.163 167.436 164.004 167.72C163.845 168 163.764 168.313 163.76 168.657V170.084C163.76 170.515 163.839 170.889 163.998 171.203C164.161 171.517 164.391 171.76 164.686 171.93C164.981 172.101 165.332 172.186 165.737 172.186C166.006 172.186 166.252 172.148 166.476 172.072C166.699 171.997 166.891 171.883 167.05 171.731C167.209 171.58 167.33 171.394 167.413 171.175L169.652 171.322C169.538 171.86 169.305 172.33 168.953 172.731C168.605 173.129 168.154 173.44 167.601 173.663C167.051 173.883 166.417 173.993 165.697 173.993ZM109.547 192.822V181.186H114.138C115.02 181.186 115.772 181.354 116.393 181.692C117.015 182.025 117.488 182.489 117.814 183.084C118.143 183.675 118.308 184.356 118.308 185.129C118.308 185.902 118.141 186.584 117.808 187.175C117.475 187.765 116.992 188.226 116.359 188.555C115.73 188.885 114.969 189.05 114.075 189.05H111.149V187.078H113.677C114.151 187.078 114.541 186.997 114.848 186.834C115.159 186.667 115.39 186.438 115.541 186.146C115.696 185.851 115.774 185.512 115.774 185.129C115.774 184.743 115.696 184.406 115.541 184.118C115.39 183.826 115.159 183.601 114.848 183.442C114.537 183.279 114.143 183.197 113.666 183.197H112.007V192.822H109.547ZM119.861 192.822V184.095H122.207V185.618H122.298C122.457 185.076 122.724 184.667 123.099 184.39C123.474 184.11 123.906 183.97 124.395 183.97C124.516 183.97 124.647 183.978 124.787 183.993C124.927 184.008 125.05 184.029 125.156 184.055V186.203C125.043 186.169 124.885 186.139 124.685 186.112C124.484 186.086 124.3 186.072 124.133 186.072C123.777 186.072 123.459 186.15 123.179 186.305C122.902 186.457 122.683 186.669 122.52 186.942C122.361 187.214 122.281 187.529 122.281 187.885V192.822H119.861ZM126.408 192.822V184.095H128.828V192.822H126.408ZM127.623 182.97C127.264 182.97 126.955 182.851 126.697 182.612C126.444 182.37 126.317 182.08 126.317 181.743C126.317 181.409 126.444 181.123 126.697 180.885C126.955 180.642 127.264 180.521 127.623 180.521C127.983 180.521 128.29 180.642 128.544 180.885C128.801 181.123 128.93 181.409 128.93 181.743C128.93 182.08 128.801 182.37 128.544 182.612C128.29 182.851 127.983 182.97 127.623 182.97ZM134.71 192.993C133.816 192.993 133.047 192.803 132.403 192.425C131.763 192.042 131.271 191.512 130.926 190.834C130.585 190.156 130.415 189.375 130.415 188.493C130.415 187.599 130.587 186.815 130.932 186.14C131.28 185.462 131.775 184.934 132.415 184.555C133.055 184.173 133.816 183.981 134.699 183.981C135.46 183.981 136.127 184.12 136.699 184.396C137.271 184.673 137.723 185.061 138.057 185.561C138.39 186.061 138.574 186.648 138.608 187.322H136.324C136.259 186.887 136.089 186.536 135.812 186.271C135.54 186.002 135.182 185.868 134.739 185.868C134.364 185.868 134.036 185.97 133.756 186.175C133.479 186.375 133.263 186.669 133.108 187.055C132.953 187.442 132.875 187.909 132.875 188.459C132.875 189.015 132.951 189.489 133.102 189.879C133.257 190.269 133.475 190.567 133.756 190.771C134.036 190.976 134.364 191.078 134.739 191.078C135.015 191.078 135.263 191.021 135.483 190.907C135.706 190.794 135.89 190.629 136.034 190.413C136.182 190.193 136.278 189.93 136.324 189.623H138.608C138.57 190.29 138.388 190.877 138.062 191.385C137.74 191.889 137.295 192.282 136.727 192.567C136.159 192.851 135.487 192.993 134.71 192.993ZM144.135 192.993C143.237 192.993 142.464 192.811 141.817 192.447C141.173 192.08 140.676 191.561 140.328 190.89C139.98 190.216 139.805 189.419 139.805 188.498C139.805 187.601 139.98 186.813 140.328 186.135C140.676 185.457 141.167 184.928 141.8 184.55C142.436 184.171 143.182 183.981 144.038 183.981C144.614 183.981 145.15 184.074 145.646 184.26C146.146 184.442 146.582 184.716 146.953 185.084C147.328 185.451 147.62 185.913 147.828 186.47C148.036 187.023 148.141 187.671 148.141 188.413V189.078H140.771V187.578H145.862C145.862 187.229 145.786 186.921 145.635 186.652C145.483 186.383 145.273 186.173 145.004 186.021C144.739 185.866 144.43 185.788 144.078 185.788C143.711 185.788 143.385 185.873 143.101 186.044C142.82 186.211 142.601 186.436 142.442 186.72C142.283 187 142.201 187.313 142.197 187.657V189.084C142.197 189.515 142.277 189.889 142.436 190.203C142.599 190.517 142.828 190.76 143.123 190.93C143.419 191.101 143.769 191.186 144.175 191.186C144.444 191.186 144.69 191.148 144.913 191.072C145.137 190.997 145.328 190.883 145.487 190.731C145.646 190.58 145.767 190.394 145.851 190.175L148.089 190.322C147.976 190.86 147.743 191.33 147.391 191.731C147.042 192.129 146.591 192.44 146.038 192.663C145.489 192.883 144.855 192.993 144.135 192.993Z" fill="white"/>
<path d="M158.204 76.5067C158.502 77.3482 159.052 78.0772 159.779 78.5939C160.507 79.1107 161.377 79.3901 162.269 79.3938H168.043C169.192 79.3938 170.293 78.9375 171.105 78.1254C171.917 77.3132 172.374 76.2117 172.374 75.0632V47.6362C172.374 46.4877 171.917 45.3862 171.105 44.5741C170.293 43.7619 169.192 43.3057 168.043 43.3057H162.269C161.377 43.3094 160.507 43.5887 159.779 44.1055C159.052 44.6223 158.502 45.3513 158.204 46.1927H128.244C126.38 46.1912 124.552 46.7037 122.96 47.6738L99.6562 61.8737C98.7482 62.4215 98.0448 63.2517 97.6536 64.2373C97.2623 65.2228 97.2049 66.3095 97.49 67.3308C97.7751 68.3521 98.387 69.2519 99.2321 69.8924C100.077 70.5328 101.109 70.8787 102.169 70.877C103.482 70.877 104.063 70.4439 107.822 69.2487C104.717 73.0451 102.689 77.6055 101.948 82.4535C101.207 87.3016 101.782 92.2596 103.611 96.8099C102.388 96.7047 101.159 96.6734 99.9319 96.7161C99.6344 95.8746 99.0842 95.1457 98.3566 94.6289C97.629 94.1121 96.7594 93.8327 95.8669 93.829H90.0928C88.9443 93.829 87.8428 94.2853 87.0307 95.0974C86.2185 95.9096 85.7623 97.0111 85.7623 98.1596V125.587C85.7623 126.735 86.2185 127.837 87.0307 128.649C87.8428 129.461 88.9443 129.917 90.0928 129.917H95.8669C96.7594 129.913 97.629 129.634 98.3566 129.117C99.0842 128.601 99.6344 127.872 99.9319 127.03H129.891C131.755 127.032 133.583 126.519 135.174 125.549L158.478 111.349C159.502 110.733 160.263 109.761 160.614 108.619C160.966 107.476 160.883 106.245 160.382 105.16C159.881 104.075 158.997 103.213 157.9 102.739C156.803 102.266 155.57 102.214 154.437 102.594L150.317 103.971C153.421 100.175 155.449 95.6145 156.189 90.7668C156.93 85.9191 156.355 80.9615 154.526 76.4115C155.749 76.5164 156.977 76.5482 158.204 76.5067ZM162.269 46.1927H168.043C168.426 46.1927 168.793 46.3448 169.064 46.6155C169.335 46.8862 169.487 47.2534 169.487 47.6362V75.0632C169.487 75.4461 169.335 75.8132 169.064 76.0839C168.793 76.3546 168.426 76.5067 168.043 76.5067H162.269C161.886 76.5067 161.519 76.3546 161.248 76.0839C160.978 75.8132 160.826 75.4461 160.826 75.0632V47.6362C160.826 47.2534 160.978 46.8862 161.248 46.6155C161.519 46.3448 161.886 46.1927 162.269 46.1927ZM102.786 67.8903C102.328 68.0401 101.83 68.0163 101.389 67.8236C100.947 67.6309 100.591 67.2826 100.389 66.8449C100.188 66.4072 100.154 65.9106 100.294 65.4495C100.434 64.9883 100.739 64.5948 101.15 64.3436L124.465 50.1379C125.603 49.4439 126.911 49.0777 128.244 49.0798H157.939V73.6197H156.032C149.374 73.6197 147.89 67.8456 140.99 67.8456H134.076C130.955 67.8456 127.801 64.4981 129.712 62.0715H140.124C142.988 62.0382 145.765 61.0824 148.043 59.3461C148.362 59.1334 148.583 58.8029 148.658 58.4273C148.732 58.0517 148.655 57.6617 148.442 57.3432C148.23 57.0247 147.899 56.8037 147.523 56.7288C147.148 56.654 146.758 56.7314 146.439 56.9441C144.637 58.364 142.418 59.1513 140.124 59.1844H129.543C129.075 59.2018 128.611 59.2754 128.161 59.4039L102.786 67.8903ZM95.8669 127.03H90.0928C89.71 127.03 89.3428 126.878 89.0721 126.607C88.8014 126.337 88.6493 125.969 88.6493 125.587V98.1596C88.6493 97.7768 88.8014 97.4096 89.0721 97.1389C89.3428 96.8682 89.71 96.7161 90.0928 96.7161H95.8669C96.2498 96.7161 96.617 96.8682 96.8877 97.1389C97.1584 97.4096 97.3105 97.7768 97.3105 98.1596V125.587C97.3105 125.969 97.1584 126.337 96.8877 126.607C96.617 126.878 96.2498 127.03 95.8669 127.03ZM155.349 105.332C155.807 105.183 156.304 105.206 156.746 105.399C157.188 105.592 157.543 105.94 157.745 106.378C157.947 106.816 157.981 107.312 157.841 107.773C157.7 108.234 157.396 108.628 156.984 108.879L133.671 123.085C132.533 123.779 131.224 124.145 129.891 124.143H100.198V99.6031H102.103C108.759 99.6031 110.242 105.377 117.144 105.377H124.059C127.174 105.377 130.334 108.725 128.423 111.151H118.011C115.147 111.184 112.37 112.14 110.093 113.878C109.785 114.095 109.573 114.423 109.504 114.794C109.435 115.164 109.513 115.547 109.722 115.86C109.932 116.174 110.255 116.393 110.624 116.471C110.992 116.549 111.377 116.48 111.695 116.279C113.497 114.859 115.717 114.072 118.011 114.038H128.592C129.059 114.021 129.523 113.947 129.973 113.819L155.349 105.332ZM143.981 106.09L131.89 110.132C132.304 106.668 128.804 102.482 124.059 102.482H117.144C113 102.482 110.624 99.1195 107.191 97.7179C104.585 92.61 103.855 86.7493 105.127 81.1579C106.4 75.5665 109.595 70.5992 114.155 67.1224L126.244 63.0805C125.83 66.545 129.332 70.7312 134.076 70.7312H140.99C145.263 70.7312 147.228 73.9791 150.95 75.4948C153.556 80.6033 154.286 86.4645 153.012 92.056C151.739 97.6475 148.542 102.614 143.981 106.09Z" fill="url(#paint0_linear_2006_2)"/>
<path d="M122.317 66.9965C122.196 66.6336 121.935 66.3339 121.592 66.1634C121.249 65.9928 120.853 65.9654 120.49 66.0871C117.663 67.0347 115.063 68.5557 112.852 70.5549C110.64 72.5541 108.866 74.9884 107.639 77.7053C106.412 80.4222 105.759 83.3632 105.721 86.344C105.684 89.3249 106.262 92.2814 107.42 95.0283C107.57 95.3808 107.854 95.6593 108.209 95.8026C108.564 95.9459 108.961 95.9424 109.313 95.7927C109.666 95.643 109.944 95.3594 110.088 95.0044C110.231 94.6494 110.227 94.2519 110.078 93.8995C109.075 91.5191 108.575 88.9575 108.608 86.3748C108.641 83.7922 109.207 81.2442 110.271 78.8904C111.334 76.5366 112.872 74.4276 114.788 72.6955C116.703 70.9633 118.956 69.6453 121.405 68.824C121.585 68.764 121.751 68.6691 121.895 68.5448C122.038 68.4205 122.155 68.2691 122.24 68.0994C122.325 67.9297 122.375 67.7449 122.389 67.5557C122.402 67.3664 122.378 67.1764 122.317 66.9965Z" fill="url(#paint1_linear_2006_2)"/>
<path d="M144.662 79.323C145.664 81.7034 146.165 84.2651 146.131 86.8477C146.098 89.4303 145.532 91.9783 144.469 94.3321C143.406 96.686 141.868 98.795 139.952 100.527C138.036 102.259 135.783 103.577 133.334 104.398C132.971 104.52 132.67 104.781 132.499 105.125C132.328 105.468 132.3 105.865 132.422 106.229C132.544 106.593 132.805 106.893 133.148 107.064C133.492 107.235 133.889 107.263 134.253 107.141C137.079 106.193 139.68 104.672 141.892 102.672C144.103 100.673 145.878 98.2376 147.105 95.5201C148.332 92.8025 148.984 89.8609 149.021 86.8795C149.058 83.8982 148.478 80.9413 147.319 78.1942C147.17 77.8418 146.886 77.5633 146.531 77.4199C146.176 77.2766 145.779 77.2802 145.426 77.4298C145.074 77.5795 144.795 77.8631 144.652 78.2181C144.509 78.5732 144.512 78.9706 144.662 79.323Z" fill="url(#paint2_linear_2006_2)"/>
<path d="M136.031 91.6639C136.031 88.3914 132.958 85.7642 128.813 85.2618V78.0846C131.267 78.4989 133.144 79.915 133.144 81.5592C133.144 81.942 133.296 82.3092 133.567 82.5799C133.837 82.8506 134.205 83.0027 134.587 83.0027C134.97 83.0027 135.337 82.8506 135.608 82.5799C135.879 82.3092 136.031 81.942 136.031 81.5592C136.031 78.2867 132.958 75.6595 128.813 75.1571V73.6198C128.813 73.2369 128.661 72.8698 128.391 72.5991C128.12 72.3284 127.753 72.1763 127.37 72.1763C126.987 72.1763 126.62 72.3284 126.349 72.5991C126.078 72.8698 125.926 73.2369 125.926 73.6198V75.1571C121.782 75.6595 118.709 78.2867 118.709 81.5592C118.709 84.8317 121.782 87.4589 125.926 87.9612V95.1384C123.472 94.7241 121.596 93.308 121.596 91.6639C121.596 91.281 121.444 90.9138 121.173 90.6431C120.902 90.3724 120.535 90.2203 120.152 90.2203C119.769 90.2203 119.402 90.3724 119.131 90.6431C118.861 90.9138 118.709 91.281 118.709 91.6639C118.709 94.9363 121.782 97.5635 125.926 98.0659V99.6032C125.926 99.9861 126.078 100.353 126.349 100.624C126.62 100.895 126.987 101.047 127.37 101.047C127.753 101.047 128.12 100.895 128.391 100.624C128.661 100.353 128.813 99.9861 128.813 99.6032V98.0659C132.958 97.5635 136.031 94.9363 136.031 91.6639ZM121.596 81.5592C121.596 79.915 123.472 78.4989 125.926 78.0846V85.0337C123.472 84.6195 121.596 83.2034 121.596 81.5592ZM128.813 95.1384V88.1893C131.267 88.6036 133.144 90.0197 133.144 91.6639C133.144 93.308 131.267 94.7241 128.813 95.1384Z" fill="url(#paint3_linear_2006_2)"/>
<defs>
<linearGradient id="paint0_linear_2006_2" x1="85.7623" y1="86.601" x2="172.374" y2="86.601" gradientUnits="userSpaceOnUse">
<stop stop-color="#B57E10"/>
<stop offset="0.09" stop-color="#E5C35C"/>
<stop offset="0.14" stop-color="#F9DF7B"/>
<stop offset="0.26" stop-color="#FFF3A6"/>
<stop offset="0.36" stop-color="#F9DF7B"/>
<stop offset="0.49" stop-color="#B57E10"/>
<stop offset="0.57" stop-color="#E5C35C"/>
<stop offset="0.61" stop-color="#F9DF7B"/>
<stop offset="0.72" stop-color="#FFF3A6"/>
<stop offset="0.84" stop-color="#F9DF7B"/>
<stop offset="1" stop-color="#B57E10"/>
</linearGradient>
<linearGradient id="paint1_linear_2006_2" x1="105.72" y1="80.9563" x2="122.392" y2="80.9563" gradientUnits="userSpaceOnUse">
<stop stop-color="#B57E10"/>
<stop offset="0.09" stop-color="#E5C35C"/>
<stop offset="0.14" stop-color="#F9DF7B"/>
<stop offset="0.26" stop-color="#FFF3A6"/>
<stop offset="0.36" stop-color="#F9DF7B"/>
<stop offset="0.49" stop-color="#B57E10"/>
<stop offset="0.57" stop-color="#E5C35C"/>
<stop offset="0.61" stop-color="#F9DF7B"/>
<stop offset="0.72" stop-color="#FFF3A6"/>
<stop offset="0.84" stop-color="#F9DF7B"/>
<stop offset="1" stop-color="#B57E10"/>
</linearGradient>
<linearGradient id="paint2_linear_2006_2" x1="132.347" y1="92.2619" x2="149.022" y2="92.2619" gradientUnits="userSpaceOnUse">
<stop stop-color="#B57E10"/>
<stop offset="0.09" stop-color="#E5C35C"/>
<stop offset="0.14" stop-color="#F9DF7B"/>
<stop offset="0.26" stop-color="#FFF3A6"/>
<stop offset="0.36" stop-color="#F9DF7B"/>
<stop offset="0.49" stop-color="#B57E10"/>
<stop offset="0.57" stop-color="#E5C35C"/>
<stop offset="0.61" stop-color="#F9DF7B"/>
<stop offset="0.72" stop-color="#FFF3A6"/>
<stop offset="0.84" stop-color="#F9DF7B"/>
<stop offset="1" stop-color="#B57E10"/>
</linearGradient>
<linearGradient id="paint3_linear_2006_2" x1="118.709" y1="86.608" x2="136.031" y2="86.608" gradientUnits="userSpaceOnUse">
<stop stop-color="#B57E10"/>
<stop offset="0.09" stop-color="#E5C35C"/>
<stop offset="0.14" stop-color="#F9DF7B"/>
<stop offset="0.26" stop-color="#FFF3A6"/>
<stop offset="0.36" stop-color="#F9DF7B"/>
<stop offset="0.49" stop-color="#B57E10"/>
<stop offset="0.57" stop-color="#E5C35C"/>
<stop offset="0.61" stop-color="#F9DF7B"/>
<stop offset="0.72" stop-color="#FFF3A6"/>
<stop offset="0.84" stop-color="#F9DF7B"/>
<stop offset="1" stop-color="#B57E10"/>
</linearGradient>
</defs>
</svg>
